<?xml version="1.0" encoding="UTF-8"?>
<svg id="Layer_2" xmlns="http://www.w3.org/2000/svg" viewBox="0 0 36.911014 63.066099">
  <defs>
    <style>
      .cls-1 {
        fill: #232221;
      }

      .cls-2 {
        fill: #3b4563;
      }

      .cls-3 {
        fill: #737b94;
      }

      .cls-4 {
        fill: #2b2a2b;
      }

      .cls-5 {
        fill: #b2b4b0;
      }

      .cls-6 {
        fill: #444648;
      }

      .cls-7 {
        fill: #181b0f;
      }
    </style>
  </defs>
  <g id="Layer_1-2" data-name="Layer_1">
    <g>
      <path class="cls-4" d="M.099703,31.280792c0-8.298264.01123-16.596542-.007538-24.894768-.004974-2.199722.566864-4.141724,2.526886-5.324379C3.51285.522301,4.624453.061035,5.641482.052277,14.170046-.021141,22.69974-.00972,31.228731.040306c2.93811.017235,5.112823,2.009598,5.562683,4.910812.102905.663902.11972,1.346344.119598,2.020248-.003143,16.408875.009766,32.817863-.065765,49.226418-.00647,1.40538-.349091,2.943832-.994598,4.181305-1.068665,2.048538-3.07193,2.681885-5.344299,2.668198-5.710999-.034409-11.422363-.000885-17.133636.001205-2.254425.000824-4.514038-.109329-6.762207.006729C2.387575,63.273224-.045439,60.18544.000643,56.400376c.10199-8.372086.031769-16.746262.031769-25.119598h.067291-.000031l.000031.000015ZM35.476443,31.662674c.009857,0,.019592-.000015.029449-.000015,0-8.371902-.036438-16.744049.019562-25.11557.019989-2.979874-2.021362-5.084335-5.121002-5.075409-6.16095.017738-12.321991.005745-18.483002.006599-1.991058.000275-3.982666-.028221-5.972992.010933-2.757446.054245-4.361481,1.691063-4.440887,4.463997-.007538.262619-.006226.525551-.006134.78833.003235,7.958939.011566,15.917885.009186,23.876823-.002594,8.747208-.046295,17.494568-.006226,26.241547.014496,3.156845,1.617249,4.669662,4.770691,4.718872,2.140839.033401,4.282593.011383,6.423889.01239,6.04834.002823,12.096558-.000931,18.144897.010147,2.019409.003708,3.500397-.820267,4.080292-2.80455.317017-1.084595.522491-2.2435.528809-3.3703.044189-7.921066.023407-15.842499.023407-23.763809l.000031.000015h.000031Z"/>
      <path class="cls-5" d="M35.476443,31.662674c0,7.92131.020782,15.842743-.023407,23.763809-.006287,1.126785-.211823,2.28569-.528809,3.3703-.579895,1.984283-2.060883,2.808258-4.080292,2.80455-6.04834-.011093-12.096558-.007324-18.144897-.010147-2.141296-.000992-4.283051.021027-6.423889-.01239-3.153473-.04921-4.756195-1.562027-4.770691-4.718872-.04007-8.746994.003632-17.494354.006226-26.241547.002319-7.958939-.005951-15.917877-.009186-23.876823-.000092-.262787-.001343-.525711.006134-.78833.079407-2.772934,1.683441-4.40976,4.440887-4.463997,1.990295-.039154,3.981934-.010658,5.972992-.010933,6.161011-.000854,12.322052.011147,18.483002-.006599,3.099609-.008926,5.140961,2.095535,5.121002,5.075409-.056061,8.371521-.019562,16.743668-.019562,25.11557-.009857,0-.019592,0-.029449.000015h-.000031l-.000031-.000015ZM33.83539,30.786789c.012024-.000015.024078-.000015.036102-.000015,0-6.833778-.002289-13.667557.001434-20.501335.001007-1.900108.009155-1.911797-1.921875-1.912445-9.167816-.003067-18.335632.016121-27.503326-.017456-1.131683-.004143-1.379425.444992-1.378387,1.474564.014038,13.892677-.005615,27.785378-.015442,41.678078-.00119,1.669052.04364,1.724258,1.693604,1.723145,9.167694-.006256,18.335327-.019791,27.503021-.030334,1.541199-.00177,1.579346-.0177,1.581238-1.57518.008362-6.946335.003662-13.89267.003662-20.83902h-.000031ZM18.492098,60.587906c1.73114-.002487,3.277893-1.511948,3.262146-3.183487-.016144-1.712494-1.533478-3.216217-3.243011-3.213913-1.796722.002411-3.295288,1.478287-3.324524,3.27417-.026764,1.64682,1.538391,3.125763,3.305359,3.12323h.000031ZM18.629305,5.861046c-.000031.017059-.000092.034119-.000122.051178,1.346436,0,2.696045.050835,4.037109-.034348.352448-.022385.678101-.46595,1.016083-.716118-.342133-.263725-.678925-.747711-1.027313-.756187-2.692078-.065552-5.387024-.067505-8.079102-.004639-.330048.007706-.648468.514977-.97226.790741.32843.223122.647217.619896.986969.638763,1.342682.074547,2.691895.030602,4.038727.030602h-.000031l-.000061.000008Z"/>
      <path class="cls-7" d="M33.83539,30.786789c0,6.94635.004669,13.892685-.003662,20.83902-.001892,1.55748-.040039,1.573395-1.581238,1.57518-9.167694.010544-18.335327.024094-27.503021.030334-1.649963.001114-1.694763-.054077-1.693604-1.723145.009857-13.8927.02948-27.785408.015442-41.678085-.001038-1.029572.246704-1.478699,1.378387-1.474564,9.167694.033577,18.33551.014389,27.503326.017456,1.931061.000641,1.922913.012337,1.921875,1.912445-.003754,6.833778-.001434,13.667557-.001434,20.501343-.012024.000015-.024078.000015-.036102.000015h.000031ZM4.737765,29.239578c-.031067.184479-.088379.36879-.089478.553452-.042236,6.965027-.068787,13.930191-.127167,20.895096-.009979,1.191055.636353,1.149933,1.460022.928604.482208.040451.964294.115616,1.446533.11618,7.802338.009094,15.604706.009415,23.407043.009918,1.612122.000107,1.624207-.151215,1.586578-1.731125-.108765-4.566803-.110565-9.1362-.149811-13.70462-.039215-4.560867-.072906-9.12178-.109009-13.682678.07193-.366302.204346-.732307.206085-1.098953.012787-2.625832-.001801-5.251785-.005981-7.877708-.002014-1.256172-.000336-2.512352-.000336-3.705238-3.490936,0-6.745575,0-10.000183.000008-.145935-.032074-.291809-.09182-.437836-.092239-5.479156-.015724-10.958282-.018799-16.437378-.04641-.656311-.003311-.839294.269333-.82901.876282.027313,1.612244.010284,3.225197.017059,4.837837.019257,4.573875.041656,9.147728.062836,13.721581h.000031v.000015Z"/>
      <path class="cls-1" d="M18.492098,60.587906c-1.766968.002548-3.332153-1.476395-3.305359-3.12323.029175-1.795883,1.527771-3.271744,3.324524-3.27417,1.709534-.002304,3.226868,1.501419,3.243011,3.213913.015747,1.671524-1.531036,3.181-3.262146,3.183487h-.000031ZM20.269472,57.38028c.002289-.812546-1.020569-1.811142-1.838745-1.795135-.975586.019073-1.796875.851852-1.78299,1.808014.014648,1.012329.785522,1.805038,1.742523,1.792038,1.104248-.015015,1.876221-.756516,1.879211-1.804901v-.000015Z"/>
      <path class="cls-1" d="M18.629305,5.861046c-1.346832,0-2.696045.043945-4.038727-.030602-.339783-.018867-.658569-.415642-.986969-.638763.323792-.275764.642212-.783035.97226-.790741,2.692078-.062866,5.387085-.060913,8.079102.004639.348389.008476.68515.492462,1.027313.756195-.337982.25016-.663605.693726-1.016083.71611-1.341034.085182-2.690674.034348-4.037109.034348.000031-.017059.000122-.034119.000122-.051178h.000031l.000061-.000008Z"/>
      <path class="cls-3" d="M5.981142,51.61673c-.82373.221329-1.470032.262451-1.460022-.928604.05838-6.96489.0849-13.930054.127167-20.895096.001099-.184662.058411-.368973.089355-.553574.239838-.166824.5224-.294983.713501-.50589,4.076569-4.497841,8.14624-9.001892,12.20932-13.511879,1.57724-1.750702,3.134979-3.518929,4.701599-5.27916h10.000183c0,1.192886-.001648,2.449066.000336,3.705238.004211,2.625923.018829,5.251877.005981,7.877708-.001801.366646-.134155.732651-.205872,1.099258-.244598.16243-.535095.282837-.727448.492958-2.379181,2.599106-4.752777,5.203461-7.110809,7.821747-5.217346,5.793091-10.431732,11.588882-15.630524,17.398575-.945221,1.05629-1.810547,2.18399-2.712769,3.278732v-.000015Z"/>
      <path class="cls-2" d="M5.981142,51.61673c.902222-1.094727,1.767548-2.222443,2.712769-3.278732,5.198792-5.809692,10.413177-11.605484,15.630524-17.398575,2.358032-2.618286,4.731659-5.222641,7.110809-7.821747.192352-.210121.482849-.330528.727448-.49295.035889,4.560593.069519,9.121506.108734,13.682373.039246,4.56842.040985,9.137802.149811,13.70462.037628,1.57991.025543,1.731232-1.586578,1.731125-7.802338-.000504-15.604706-.000824-23.407043-.009918-.482208-.000565-.964355-.075729-1.446533-.11618h.000031l.000031-.000015Z"/>
      <path class="cls-2" d="M22.362093,9.94252c-1.56662,1.760239-3.12439,3.528458-4.701599,5.27916-4.063141,4.509987-8.132812,9.014038-12.20932,13.511871-.191132.210922-.473663.339066-.713501.50589-.021057-4.57373-.043457-9.147591-.062714-13.721466-.006775-1.612648.010254-3.225594-.017059-4.837837-.010284-.606949.172668-.879585.82901-.876282,5.479065.027611,10.958252.030685,16.437378.04641.146027.00042.291901.060165.437836.092239h-.000031v.000015Z"/>
      <path class="cls-6" d="M20.269472,57.38028c-.00293,1.048386-.774963,1.789886-1.879211,1.804901-.957031.013016-1.727844-.779694-1.742523-1.792038-.013885-.956161.807404-1.78894,1.78299-1.808014.818146-.015991,1.841003.982605,1.838745,1.795135v.000015Z"/>
    </g>
  </g>
</svg>