<?xml version="1.0" encoding="UTF-8"?>
<svg id="Layer_2" xmlns="http://www.w3.org/2000/svg" viewBox="0 0 103.843998 31.855561">
  <defs>
    <style>
      .cls-1 {
        fill: #f36b25;
      }

      .cls-2 {
        fill: #f09d50;
      }

      .cls-3 {
        fill: #232221;
      }

      .cls-4 {
        fill: #c65e28;
      }

      .cls-5 {
        fill: #b2b4b0;
      }

      .cls-6 {
        fill: #6187c1;
      }

      .cls-7 {
        fill: #3d3c3c;
      }
    </style>
  </defs>
  <g id="Layer_1-2" data-name="Layer_1">
    <g>
      <path class="cls-3" d="M86.990913,16.675109c.479614.301056.987823.608932,1.484924.933838,3.482025,2.275925,4.492035,6.562805,2.430725,10.30162-1.868805,3.389511-6.05835,4.866241-9.504211,3.350037-3.981934-1.75209-5.960999-5.96077-4.495453-9.816025.367035-.965561.286652-1.593704-.419495-2.282181-.452606-.441269-.871124-.954636-1.170288-1.508331-.673248-1.245926-1.642395-1.469772-3.021698-1.454025-11.494522.131271-22.990234.163208-34.485626.213882-1.314224.005798-2.630371-.027863-3.942505-.100449-.746109-.041275-1.277191.161469-1.712799.805084-.460632.680603-.964371,1.37236-1.588181,1.893021-.967834.80777-.950195,1.596191-.559784,2.729492,1.434311,4.163498-1.024796,8.656067-5.261978,9.826462-3.697922,1.021454-7.877655-1.047836-9.255081-4.58197-1.495468-3.837067.019073-7.963089,3.604248-9.814377.166473-.085968.386002-.115173.502396-.242432.223434-.244339.390564-.540146.58107-.814606-.274338-.180649-.532211-.48317-.825592-.522766-2.454758-.331223-4.926453-.547638-7.372559-.929672-2.615265-.408447-5.107437-1.235535-7.374069-2.652443-1.997696-1.248795-3.572479-2.838585-4.320953-5.145309C-.705925,3.813171.966743.673766,4.13871.206542c1.852173-.27282,3.888687-.325523,5.673141.152786,7.253235,1.94416,14.603119,2.10952,22.03183,1.841179,16.265289-.587524,32.530823-.291374,48.794907.170525,4.871094.138336,9.655518-.556366,14.415741-1.57354,1.622864-.346779,3.378479-.472458,5.017212-.261879,3.321808.426842,4.661133,3.268936,3.161591,6.275299-1.550415,3.108253-4.193512,5.014908-7.31485,6.17926-2.377502.886879-4.888336,1.462135-7.381531,1.972824-1.082916.221802-1.604065.573685-1.545685,1.712097l-.000031-.000015-.000122.000031ZM38.03289,11.547431c.286972.054008.573914.154877.860947.15522,8.746826.010483,17.493652.012672,26.240479.006226.28624-.000214.572388-.104034.858612-.159546,2.357178-.065857,4.716248-.0924,7.071075-.206383,3.957275-.191536,7.915405-.389908,11.866577-.676117,3.957703-.286674,7.844391-1.057793,11.523163-2.543358,1.79361-.724297,3.485779-1.785431,5.07016-2.910278,1.008179-.715759.856781-1.934822-.129639-2.540741-.523865-.321785-1.193787-.649139-1.767822-.602837-2.105682.16983-4.203491.463318-6.295288.771088-2.089691.307457-4.160858.918373-6.253876.988602-4.454987.149475-8.918793.034683-13.378998.028198-.986633-.032089-1.973236-.064178-2.9599-.096268-1.583099-.029114-3.166229-.058235-4.749298-.087349-.149811-.002991-.299591-.005981-.449402-.00898-8.717346-.001152-17.434647-.002304-26.151962-.003456-.149918.004692-.29982.009384-.449722.014069-1.13089.026642-2.261749.053291-3.392639.079933-.591263.01152-1.18248.023033-1.773743.034554l-1.816437.060051-3.387939.049866-3.162766.055962c-1.12587-.011597-2.25177-.023193-3.377655-.034782-.375412-.012688-.750793-.025375-1.12619-.038063-.445511-.030327-.890991-.060654-1.336502-.090981-.304901-.02961-.609772-.059219-.914642-.088829-.078323-.005852-.156647-.011711-.23497-.017563-1.705154-.311096-3.422348-.568382-5.112701-.945648-2.672623-.596504-5.312149-1.30732-8.101822-1.149529-1.542374.087242-2.999908.943825-3.414413,2.261833-.472916,1.503754.697388,2.086159,1.613297,2.7425,3.938843,2.822639,8.576355,3.468292,13.199005,4.023003,2.819229.338295,5.673508.415169,8.51532.528069,4.305054.171043,8.612976.271233,12.919678.401512l.000015.000023ZM2.808983,8.119521c-.151093.171242-.302185.342468-.453293.513702.382675.225067.80983.398506,1.140945.683403,2.500748,2.151627,5.462448,3.398972,8.660309,3.772896,5.662201.662079,11.349518,1.277428,17.041672,1.477768,9.006332.316986,18.025543.377396,27.038925.359039,10.325119-.021027,20.659744-.019463,30.92955-1.377861,4.134521-.546875,8.115967-1.551231,11.646667-3.882896.614288-.405678,1.128265-.963089,1.688568-1.450424-1.108429.258888-2.020599.767761-2.982666,1.151581-5.732635,2.287025-11.775757,3.038864-17.866241,3.272285-8.967224.343674-17.944321.673439-26.914993.621834-10.886368-.06263-21.775955-.401047-32.653366-.869759-5.989624-.258087-11.986984-.905853-17.276047-4.271553h-.000015l-.000015-.000015ZM16.58474,24.090133c.001144,3.490067,2.639877,6.147842,6.097931,6.141937,3.410706-.005829,6.145355-2.756546,6.125931-6.161926-.019272-3.376282-2.734238-6.166885-6.012909-6.18045-3.484543-.014435-6.212067,2.708496-6.210922,6.200455h-.000015l-.000015-.000015ZM84.063545,17.876891c-3.194427-.027359-5.926636,2.698639-5.965088,5.951584-.042236,3.571976,2.642944,6.388809,6.12265,6.422821,3.290161.03215,6.08905-2.773331,6.086823-6.101212-.002441-3.621658-2.610809-6.24205-6.244415-6.273178l.000031-.000015ZM78.173561,18.716537c1.185547-.715927,2.166595-1.495743,3.282684-1.925064.949371-.365189,2.051544-.356049,3.091583-.454987.585114-.055664.958588-.156021.657623-.816681-3.049225.172729-6.038147.342041-9.172791.519608.83136,1.039581,1.525055,1.907013,2.14093,2.677139l-.000031-.000015ZM28.759086,18.829742c.654755-.801758,1.367218-1.674225,2.303741-2.821045h-9.196228c1.173904.341705,2.432465.372879,3.537216.80072,1.14946.445145,2.150375,1.273392,3.355286,2.020325h-.000015Z"/>
      <path class="cls-1" d="M25.404457,3.955894c1.054245-.018654,2.108521-.037308,3.162766-.055977,1.129318-.016632,2.258621-.033241,3.387939-.04985.605484-.02002,1.210968-.040031,1.816269-.060364.591187-.01162,1.182556-.022926,1.773926-.034233,1.13089-.026642,2.261749-.053291,3.392654-.079956.149918-.004692.299805-.009369.449707-.014053,8.717346.001152,17.434647.002304,26.151962.003448.149811.002991.299591.005981.449402.00898,1.583099.029121,3.166229.058235,4.749146.087105.986603.032013,1.973297.064262,2.960022.096519,4.460205.006485,8.924011.121277,13.378998-.028198,2.092987-.070229,4.164185-.681145,6.253876-.988602,2.091797-.30777,4.189606-.60125,6.295288-.771088.574005-.046303,1.243988.281052,1.767822.602837.98645.605919,1.137848,1.824982.129639,2.540741-1.584381,1.124847-3.27655,2.185982-5.07016,2.910278-3.678772,1.485573-7.56546,2.256691-11.523163,2.543358-3.951172.286209-7.909302.484581-11.866577.676117-2.354828.113983-4.713898.140526-7.071075.206367-2.88176-.006065-5.763565-.017815-8.645355-.017036-6.438217.00174-12.876434.00972-19.314667.015144-4.306686-.130287-8.614624-.230476-12.919678-.40152-2.841782-.112907-5.696091-.189774-8.515289-.528069-4.62265-.554703-9.260147-1.200356-13.199005-4.022995-.915909-.656342-2.086227-1.238747-1.613297-2.7425.414505-1.318016,1.87204-2.174599,3.414413-2.261833,2.789673-.157791,5.429199.553024,8.101822,1.149529,1.690353.377266,3.407562.634552,5.112701.945602.078323.005836.156647.011719.23497.017609.304901.02961.609772.059219.914505.088501.445435.03022.891037.060768,1.336624.091309.375412.012688.750793.025375,1.12616.037971,1.12587.011566,2.25177.023216,3.37767.034866h-.000046l.000031-.000008Z"/>
      <path class="cls-2" d="M2.808983,8.119521c5.289062,3.3657,11.286423,4.013466,17.276047,4.271553,10.877426.468712,21.767014.807129,32.653366.869759,8.970673.051605,17.947769-.27816,26.914993-.621834,6.090546-.233421,12.133636-.98526,17.866241-3.272285.962097-.383812,1.874237-.892685,2.982666-1.151581-.560303.487335-1.07428,1.044746-1.688568,1.450424-3.530701,2.331665-7.512146,3.336021-11.646667,3.882896-10.269836,1.358398-20.604462,1.356834-30.929565,1.377861-9.013351.018356-18.032578-.042046-27.038925-.359032-5.692154-.200333-11.379471-.815681-17.041672-1.477768-3.197861-.373932-6.159561-1.621269-8.660309-3.772896-.331131-.284897-.758286-.458336-1.140945-.683403.151093-.171234.302185-.342468.453293-.513702h.000015l.000031.000008Z"/>
      <path class="cls-6" d="M16.58474,24.090133c-.001144-3.491959,2.726395-6.21489,6.210922-6.200455,3.278702.01358,5.993652,2.804169,6.012909,6.18045.019424,3.405396-2.71524,6.156113-6.125931,6.161926-3.458054.005905-6.096786-2.651871-6.097931-6.141937h.000015l.000015.000015ZM22.642921,27.147491c1.544495.051407,3.065369-1.368179,3.127884-2.919601.06749-1.67366-1.317444-3.154037-2.97879-3.184097-1.692551-.030624-3.167252,1.338593-3.20369,2.974548-.035812,1.60791,1.395264,3.073914,3.054596,3.12915Z"/>
      <path class="cls-6" d="M84.063545,17.876891c3.633606.031128,6.241943,2.651535,6.244415,6.273178.002197,3.327881-2.796661,6.133377-6.086823,6.101212-3.479706-.034012-6.164886-2.850845-6.12265-6.422821.038452-3.252945,2.77063-5.978943,5.965088-5.951584l-.000031.000015ZM84.084205,27.133987c1.692993.018311,3.101166-1.332474,3.120453-2.993423.020569-1.769958-1.238556-3.095825-2.964996-3.122131-1.721588-.026245-3.077484,1.27887-3.112061,2.995621-.035522,1.760986,1.234619,3.101303,2.956635,3.119949l-.000031-.000015Z"/>
      <path class="cls-5" d="M78.173561,18.716537c-.615845-.770111-1.30954-1.637543-2.14093-2.677139,3.134674-.177567,6.123596-.346878,9.172791-.519608.300964.66066-.072479.761017-.657623.816681-1.040039.098938-2.142212.089798-3.091583.454987-1.116089.429321-2.097137,1.209137-3.282684,1.925064l.000031.000015Z"/>
      <path class="cls-5" d="M28.759086,18.829742c-1.204926-.746933-2.205826-1.57518-3.355286-2.020325-1.104736-.427841-2.363312-.459015-3.537216-.80072h9.196228c-.936523,1.14682-1.648987,2.019287-2.303741,2.821045h.000015Z"/>
      <path class="cls-4" d="M38.03289,11.547431c6.438217-.005432,12.876434-.013412,19.314651-.015144,2.881805-.000778,5.76358.010963,8.645355.017036-.286224.055527-.572372.159348-.858612.159561-8.746826.006447-17.493652.004257-26.240479-.006226-.287018-.000343-.573975-.101212-.860947-.15522h.000015l.000015-.000008Z"/>
      <path class="cls-4" d="M31.955147,3.850066c-1.129318.016609-2.258621.033218-3.387939.04985,1.129318-.016609,2.258621-.033234,3.387939-.04985Z"/>
      <path class="cls-4" d="M25.404457,3.955894c-1.1259-.01165-2.251801-.0233-3.37767-.034866,1.125916.011681,2.251801.023277,3.37767.034866Z"/>
      <path class="cls-4" d="M73.69828,3.857513c-.986694-.032249-1.973419-.064507-2.960022-.096519.986786.032333,1.973389.06443,2.960022.096519Z"/>
      <path class="cls-4" d="M20.900642,3.883048c-.445587-.03054-.89119-.061089-1.336624-.091309.445633.030655.891129.060989,1.336624.091309Z"/>
      <path class="cls-4" d="M35.545357,3.75547c-.59137.011307-1.182739.022614-1.773926.034233.591461-.011208,1.182678-.02272,1.773926-.034233Z"/>
      <path class="cls-4" d="M65.989082,3.673888c-.149811-.002998-.299591-.005989-.449402-.00898.149811.002998.299591.005997.449402.00898Z"/>
      <path class="cls-4" d="M39.387718,3.66146c-.149918.004684-.299805.009361-.449707.014053.149887-.004669.299805-.009361.449707-.014053Z"/>
      <path class="cls-4" d="M18.649483,3.703239c-.078323-.005882-.156647-.011765-.23497-.017609.078323.005898.156647.011749.23497.017609Z"/>
      <path class="cls-3" d="M22.642921,27.147491c-1.659348-.055237-3.090439-1.52124-3.054596-3.12915.036453-1.635956,1.511154-3.005173,3.20369-2.974548,1.661346.03006,3.04628,1.510437,2.97879,3.184097-.062531,1.551437-1.583389,2.971024-3.127884,2.919617v-.000015ZM24.05439,24.399459c.020233-.946991-.754974-1.863586-1.405869-1.783508-.824112.101395-1.375046.610535-1.476151,1.437851-.082016.671036.825775,1.47937,1.542938,1.461487.8526-.021255,1.254776-.515167,1.339066-1.115845h.000015v.000015Z"/>
      <path class="cls-3" d="M84.084205,27.133987c-1.721985-.018631-2.992126-1.358948-2.956635-3.119949.034576-1.716751,1.390472-3.021866,3.112061-2.995621,1.72644.026321,2.985535,1.352188,2.964996,3.122131-.019287,1.660934-1.427429,3.011749-3.120453,2.993423l.000031.000015ZM84.101814,25.523055c.87265.008148,1.492157-.586487,1.499542-1.439392.005829-.673599-.846619-1.530777-1.563751-1.463272-.822144.077393-1.395386.475906-1.372864,1.431976.021851.929031.521149,1.462143,1.437042,1.470703h.000031v-.000015Z"/>
      <path class="cls-7" d="M24.05439,24.399459c-.08429.600677-.486465,1.094574-1.339066,1.115845-.717163.017883-1.624985-.790451-1.542938-1.461487.101105-.827332.652039-1.336456,1.476151-1.437851.650894-.080078,1.426117.836517,1.405869,1.783508h-.000015v-.000015Z"/>
      <path class="cls-7" d="M84.101814,25.523055c-.915863-.00856-1.415161-.541672-1.437042-1.470703-.022522-.956055.55072-1.354584,1.372864-1.431976.717102-.067505,1.56958.789673,1.563751,1.463272-.007385.852905-.626923,1.44754-1.499542,1.439392h-.000031v.000015Z"/>
    </g>
  </g>
</svg>