<?xml version="1.0" encoding="UTF-8"?>
<svg id="Layer_2" xmlns="http://www.w3.org/2000/svg" viewBox="0 0 59.479028 86.586365">
  <defs>
    <style>
      .cls-1 {
        fill: #f36b25;
      }

      .cls-2 {
        fill: #232221;
      }

      .cls-3 {
        fill: #9b7db6;
      }

      .cls-4 {
        fill: #c65e28;
      }

      .cls-5 {
        fill: #2b2a2b;
      }

      .cls-6 {
        fill: #444648;
      }

      .cls-7 {
        fill: #3d3c3c;
      }
    </style>
  </defs>
  <g id="Layer_1-2" data-name="Layer_1">
    <g>
      <path class="cls-2" d="M4.586403,86.493351c-1.157295-.114746-2.322639-.178406-3.469582-.358917-1.117439-.175842-1.398674-.767456-.833168-1.761261.797691-1.401855,1.689079-2.750244,2.50499-4.142242.176514-.301117.37706-.763336.267036-1.026062-.426086-1.017487.038132-1.750702.628189-2.459106.932777-1.119873,1.347832-2.403229,1.334435-3.847687-.018089-1.949951-.049126-3.900543-.013664-5.849731.009766-.536987.11116-1.145599.381783-1.593994,8.14518-13.495956,16.321846-26.972916,24.482338-40.459625,4.021851-6.646881,8.020569-13.307709,12.032715-19.960434.368073-.610352.678619-1.284302,1.164169-1.785156.345963-.356842,1.041321-.76326,1.404419-.637833.848938.293304,1.211136-.119446,1.698395-.623215,2.062057-2.131897,4.671112-2.588058,7.295074-1.179977,1.346252.722458,2.692017,1.524185,3.841949,2.516861,2.24353,1.936691,2.724854,4.418121,1.561432,7.120361-.224533.52153-.356369.89563.058517,1.414047.61705.770996.247635,1.571136-.190826,2.299805-2.573364,4.276596-5.149063,8.551849-7.736511,12.819946-3.638321,6.001526-7.295944,11.991364-10.930084,17.995407-4.722504,7.80217-9.431519,15.612473-14.143143,23.421188-1.298645,2.152283-2.534416,4.344971-3.908089,6.447998-.442719.677795-1.162216,1.259338-1.881744,1.654816-1.509315.82959-3.07312,1.579498-4.669899,2.225403-1.576851.637848-2.504982,1.802979-3.286201,3.231262-.317741.580933-.951355.999329-1.471901,1.456848-.607063.533539-1.456612.909912-1.830704,1.565491-.803635,1.408295-1.899635,1.800354-3.386314,1.527802-.293442-.053772-.59893-.04184-.898857-.060181-.001595.016052-.003181.032104-.004761.048187h-.000008.000015ZM16.439484,50.46027c-1.398338,2.286545-2.724365,4.417694-3.989166,6.584549-.117607.201492.048744.796021.258926.927414,4.165115,2.603699,8.356178,5.165985,12.665298,7.812408.521713-.832825,1.042282-1.64032,1.539963-2.4617,10.073578-16.625458,20.142471-33.253754,30.225632-49.873413.308533-.508514.249329-.818344-.243317-1.095383-.876694-.493011-1.779236-.946777-2.621399-1.49324-2.50882-1.627945-4.992249-3.294891-7.48848-4.942215-.773651-.510544-1.556458-1.007156-2.408478-1.557556-1.386459,2.253662-2.711853,4.408035-4.022446,6.538376,2.236313,1.438675,4.380463,2.815674,6.522064,4.196625,1.445114.931808,1.476654.990662.588135,2.461777-7.374313,12.209671-14.755722,24.415085-22.141739,36.617706-.726425,1.200119-.912689,1.239212-2.105156.504257-2.233505-1.376587-4.455635-2.771606-6.779823-4.21962,0,0-.000008.000015-.000015.000015ZM17.352486,48.973423c1.900574,1.178375,3.700867,2.194733,5.384468,3.37709.95887.673416,1.337402.425842,1.877274-.470535,5.887024-9.774536,11.813828-19.525131,17.724686-29.285339,1.199905-1.981354,2.378525-3.975586,3.635498-6.078537-2.186966-1.347717-4.266342-2.629135-6.434906-3.965515-7.448944,12.228424-14.785736,24.27269-22.187012,36.422821,0,0,0,.000015-.000008.000015ZM24.442078,67.308658c-4.405731-2.709503-8.782898-5.401489-13.221184-8.131012-1.442238,2.4216-2.791237,4.686615-4.189095,7.033661.721695.448853,1.351944.837402,1.978813,1.231293,3.324501,2.088989,6.655113,4.168488,9.967171,6.277008.82515.525299,1.310341.49411,1.840034-.460022,1.102814-1.986572,2.356377-3.889587,3.624245-5.950928h.000015ZM9.939461,81.093754c1.356079-1.270508,2.457527-2.553497,3.80069-3.490479,1.351219-.942596,2.942886-1.540955,4.678139-2.415649-3.856918-2.414581-7.43486-4.65451-11.127213-6.966095-.827049,3.426117.399117,7.091248-2.283096,9.891541,1.802376,1.089386,3.458786,2.090546,4.931473,2.980682h.000008ZM47.182251,3.755894c.308319.242615.548004.466232.820023.639069,1.04129.661606,2.09436,1.304657,3.140457,1.958755,1.679733,1.050339,3.359634,2.100449,5.034866,3.157913.657684.415146.98584.201263,1.223679-.501587.539536-1.594421.221329-3.061996-.990707-4.102722-1.174774-1.008759-2.558655-1.812531-3.94162-2.531784-1.970749-1.024963-3.713745-.544174-5.286697,1.380371l.000015-.000015h-.000015ZM4.842263,80.260837c-.473618.794312-.864784,1.469116-1.274597,2.132385-.411095.665314-.840828,1.319183-1.324661,2.075348,1.48304.103027,2.743156.219788,4.005592.255829.283432.008087.662506-.195892.845253-.424103.433739-.541565.776176-1.156128,1.165421-1.75647-1.175423-.785309-2.252182-1.50473-3.417-2.28299h-.000008Z"/>
      <path class="cls-3" d="M16.439484,50.46027c2.324188,1.447983,4.546318,2.843018,6.779831,4.21962,1.192459.73497,1.378723.695877,2.105164-.504257,7.386032-12.202606,14.767426-24.40802,22.141739-36.617706.888504-1.471115.856964-1.529953-.588135-2.461777-2.141602-1.380951-4.285751-2.757965-6.522064-4.196625,1.310593-2.130341,2.635986-4.284729,4.022446-6.538376.85202.5504,1.634827,1.047012,2.408478,1.557556,2.496231,1.647324,4.97966,3.314285,7.48848,4.942215.842163.546463,1.744705,1.000214,2.621399,1.49324.492661.277039.551849.586868.243317,1.095383-10.083145,16.619659-20.152069,33.247955-30.225632,49.873398-.497681.82135-1.01825,1.628876-1.539963,2.4617-4.30912-2.646423-8.500168-5.20871-12.665291-7.812393-.210182-.131393-.376526-.725937-.258926-.927414,1.264801-2.166855,2.590836-4.298019,3.989174-6.584549l.000008-.000015h-.000023Z"/>
      <path class="cls-1" d="M17.352486,48.973423c7.401283-12.150146,14.738045-24.194397,22.187004-36.422821,2.168564,1.336365,4.24794,2.617783,6.434906,3.965515-1.256973,2.102966-2.435577,4.097198-3.635498,6.078537-5.910843,9.760208-11.837662,19.510818-17.724686,29.285339-.539871.896378-.918404,1.143936-1.877274.470535-1.683594-1.182358-3.483894-2.198715-5.384468-3.37709v-.000015h.000015Z"/>
      <path class="cls-6" d="M24.442078,67.308658c-1.267876,2.06134-2.521439,3.964325-3.624252,5.950928-.529686.954163-1.014885.985321-1.840034.460022-3.312057-2.108521-6.64267-4.187988-9.967171-6.277008-.626869-.393921-1.257126-.78244-1.978813-1.231323,1.397858-2.347046,2.746857-4.612091,4.189095-7.033691,4.438286,2.729553,8.815468,5.421509,13.221191,8.131042h-.000015v.000031Z"/>
      <path class="cls-5" d="M9.939461,81.093754c-1.472702-.890137-3.129112-1.891296-4.931473-2.980682,2.682205-2.800293,1.456055-6.465424,2.283096-9.891541,3.692345,2.311554,7.270294,4.551514,11.127205,6.966095-1.73526.874725-3.326927,1.473083-4.678139,2.415649-1.343147.936981-2.444611,2.21994-3.80069,3.490479h0Z"/>
      <path class="cls-7" d="M47.182251,3.755894c1.572952-1.92453,3.315948-2.405334,5.286697-1.380371,1.38295.719254,2.76683,1.523026,3.94162,2.531784,1.212051,1.040726,1.530228,2.508301.990707,4.102722-.237823.70285-.565994.916733-1.223679.501587-1.675232-1.057449-3.355133-2.107559-5.034866-3.157913-1.046097-.654099-2.099182-1.29715-3.140457-1.958755-.272018-.172821-.511703-.396439-.820023-.639069l-.000015.000015h.000015Z"/>
      <path class="cls-4" d="M4.842263,80.260837c1.164833.778259,2.241577,1.49765,3.417,2.28299-.389244.600342-.731682,1.214935-1.165421,1.75647-.182747.22818-.561821.43219-.845253.424103-1.262428-.036041-2.522552-.152832-4.005592-.255829.483833-.756165.913559-1.410034,1.324661-2.075348.409813-.663269.800972-1.338074,1.274597-2.132385h.000008Z"/>
    </g>
  </g>
</svg>