<?xml version="1.0" encoding="UTF-8"?>
<svg id="Layer_2" xmlns="http://www.w3.org/2000/svg" viewBox="0 0 79.695658 97.865903">
  <defs>
    <style>
      .cls-1 {
        fill: #aa8043;
      }

      .cls-2 {
        fill: #eae6d4;
      }

      .cls-3 {
        fill: #212121;
      }

      .cls-4 {
        fill: #7d5b2e;
      }

      .cls-5 {
        fill: #f5f5f4;
      }
    </style>
  </defs>
  <g id="Layer_1-2" data-name="Layer_1">
    <g>
      <path class="cls-3" d="M39.855982,97.835913c-7.212036,0-14.424072.017273-21.635986-.005066-6.6091-.020447-11.85434-4.551941-12.63382-11.092285-1.302673-10.93158-2.477417-21.878387-3.714813-32.81781-.590179-5.216949-1.208405-10.430695-1.797913-15.647705-.263794-2.334045.103546-2.726105,2.419586-2.719727,4.468231.012268,8.93689-.011993,13.404236.058258,1.006622.015839,1.164886-.355438,1.15152-1.226166-.081055-5.266266.283325-10.499207,1.476929-15.6427.909973-3.921387,2.255188-7.677429,4.789734-10.88385C28.551112,1.23554,35.549891-.895746,43.628871.328314c8.622437,1.306396,13.74353,6.740784,16.469666,14.752655,2.126343,6.24942,2.560852,12.724243,2.579346,19.249451.002808.973846.250671,1.263519,1.242798,1.252289,4.506775-.050995,9.014587-.031769,13.521912-.012054,1.970276.008606,2.425293.540222,2.200684,2.52243-1.653931,14.597107-3.310791,29.193909-4.980286,43.789276-.249146,2.177673-.425842,4.378113-.885437,6.514465-1.162659,5.404602-6.052795,9.389526-11.58075,9.43634-7.446472.063049-14.893799.015625-22.340759.015625v-.012817h-.000061v-.000061ZM77.587733,37.788031c-.250549-.095825-.323242-.14798-.395935-.147949-4.586609.002197-9.173157.020294-13.759705.003845-.821289-.00296-.809937.470276-.84906,1.064392-.18042,2.736267-.41748,5.468842-.591736,8.205475-.073608,1.156128-.565735,1.683319-1.771606,1.645935-2.193665-.068054-4.39032-.029663-6.585205-.0672-1.294189-.022125-1.579102-.381958-1.477356-1.662506.214294-2.695343.395386-5.393555.639465-8.086121.070679-.778534-.051941-1.138031-.95166-1.134399-7.997192.032318-15.994507.034454-23.991821.019165-.792572-.001526-1.007996.262177-.938782,1.037903.240356,2.69278.410522,5.391754.626465,8.086823.112,1.396179-.183777,1.750519-1.612091,1.765961-2.116638.022827-4.233429.038361-6.350159.038788-1.422638.000275-1.75528-.271149-1.865234-1.664917-.212646-2.694519-.418182-5.391113-.535034-8.09079-.039154-.904785-.280396-1.206268-1.220215-1.194397-4.272491.053925-8.545898.029572-12.819031.041077-.331451.000885-.662781.06134-1.053253.099945.158325,1.257965.312531,2.379456.439087,3.504059,1.718018,15.265137,3.417938,30.532349,5.177124,45.792755.126373,1.095703.516266,2.234497,1.061859,3.195374,2.107147,3.710876,5.307373,5.590698,9.641754,5.582642,14.544128-.0271,29.088257-.003479,43.632446-.00531,5.057312-.00061,9.372192-3.840332,9.973938-8.856506.149475-1.244995.302307-2.489685.44342-3.735657,1.490234-13.160889,2.978699-26.32196,4.466675-39.483093.223145-1.974152.441406-3.948883.665527-5.955292h.000122ZM39.833094,35.590002c3.957581,0,7.915283-.019348,11.87262.015839.820862.007294,1.204102-.149872,1.189697-1.08197-.104065-6.755219-.564087-13.467499-2.394104-20.009125-.183716-.65683-.68158-1.344238-1.228577-1.762939-5.976807-4.575073-13.315918-4.384338-18.982544.154816-.506226.405457-.960022,1.05368-1.130249,1.673645-1.787537,6.509369-2.253723,13.180145-2.348877,19.895691-.012695.895813.292511,1.134979,1.149658,1.127136,3.957214-.036285,7.914856-.015991,11.872437-.013092h-.000061ZM25.41479,46.52149c-.167511-2.233429-.399628-4.288727-.4617-6.349152-.188812-6.262726-.254303-12.526917.670288-18.749847.744934-5.014069,1.87915-9.924774,4.266113-14.449982.623352-1.181732,1.440613-2.261292,2.368896-3.697205-.804138.414093-1.316833.659637-1.812256.936127-5.121246,2.857941-7.968201,7.44104-9.436462,12.909821-2.535217,9.442444-2.232727,19.061432-1.411285,28.685608.021851.256256.450165.673309.701538.682831,1.63681.061951,3.277222.03183,5.114868.03183v-.000031ZM54.318873,46.523291c1.771301,0,3.335022.03479,4.894226-.032623.275208-.011902.715454-.419098.763733-.698334.165894-.959351.183167-1.943665.271851-2.917114.742371-8.149719.56427-16.259003-1.250061-24.269043-1.047852-4.625946-2.992249-8.842743-6.556152-12.094208-1.344666-1.226807-2.981323-2.133789-4.484802-3.186584-.176453.3992-.176453.531097-.111389.607635,2.589233,3.04306,3.797729,6.744141,4.784973,10.489655,2.370728,8.993469,2.538757,18.171356,1.990479,27.389526-.089905,1.511505-.19397,3.022217-.302917,4.711151h.000061v-.000061ZM49.253443,10.215826c-1.080322-2.502869-2.166687-4.651794-3.913635-6.341248-.750305-.725677-1.773865-1.457214-2.75824-1.599731-3.188843-.461731-6.364197-.72998-8.79718,2.261414-1.393555,1.713287-2.402161,3.559235-3.431152,5.797699,6.373718-3.968781,12.499634-3.860535,18.900146-.118103l.000061-.000031Z"/>
      <path class="cls-2" d="M77.587733,37.788031c-.224121,2.006409-.442383,3.98111-.665527,5.955292-1.487976,13.161133-2.97644,26.322205-4.466675,39.483093-.141113,1.245972-.294006,2.490601-.44342,3.735657-.601807,5.016174-4.916687,8.855896-9.973938,8.856506-14.544128.001831-29.088318-.02179-43.632416.00531-4.334412.008057-7.534607-1.871765-9.641754-5.582642-.545593-.960876-.935547-2.09967-1.061859-3.195374-1.759155-15.260376-3.459137-30.527588-5.177124-45.792725-.126495-1.124603-.280762-2.246094-.439087-3.504059.390472-.038605.721832-.09906,1.053253-.099945,4.273132-.011505,8.54657.012848,12.819031-.041077.93985-.011871,1.181061.289612,1.220215,1.194397.116882,2.699677.322388,5.396271.535034,8.09079.109985,1.393768.442596,1.665192,1.865234,1.664917,2.116699-.000427,4.233521-.01593,6.350159-.038788,1.428284-.015411,1.72406-.369781,1.612122-1.765961-.216003-2.695068-.386108-5.394043-.626465-8.086823-.069214-.775726.14621-1.039429.938782-1.037903,7.997314.015289,15.994629.013153,23.991821-.019165.899719-.003632,1.022339.355865.95166,1.134399-.24408,2.692566-.425171,5.390778-.639465,8.086121-.101807,1.280548.183167,1.640381,1.477356,1.662506,2.194824.037537,4.391602-.000854,6.585205.0672,1.205933.037415,1.698059-.489777,1.771606-1.645935.174255-2.736603.411316-5.469208.591736-8.205475.039124-.594116.027771-1.067322.84906-1.064392,4.586487.016449,9.173096-.001648,13.759705-.003845.072693-.000031.145386.052124.395935.147949h-.000061l-.000122-.000031Z"/>
      <path class="cls-5" d="M39.833094,35.588537c-3.957581-.001465-7.915222-.021729-11.872437.014526-.857208.007874-1.162354-.231323-1.149658-1.127136.095154-6.715546.56134-13.386292,2.348877-19.895691.170227-.619965.624084-1.268158,1.130249-1.673645,5.666687-4.539185,13.005737-4.729889,18.982544-.154816.546997.418701,1.044861,1.106079,1.228577,1.762939,1.830017,6.541626,2.290039,13.253937,2.394104,20.009125.014343.932098-.368896,1.089264-1.189697,1.08197-3.957275-.035217-7.915039-.015839-11.87262-.017303h.000061v.000031Z"/>
      <path class="cls-1" d="M25.41479,46.52149c-1.837616,0-3.478027.030121-5.114868-.03183-.251373-.009521-.679688-.426575-.701538-.682831-.821442-9.624176-1.123932-19.243164,1.411285-28.685608,1.468292-5.468781,4.315216-10.05188,9.436462-12.909821.495422-.276459,1.008057-.522034,1.812256-.936127-.928284,1.435913-1.745544,2.515472-2.368896,3.697205-2.386963,4.525208-3.521149,9.435944-4.266144,14.449982-.924622,6.222931-.859161,12.487122-.670288,18.749878.062103,2.060425.294159,4.115723.4617,6.349152h.000031Z"/>
      <path class="cls-1" d="M54.318873,46.523291c.108948-1.688934.213013-3.199615.302917-4.711151.548279-9.21817.380249-18.396057-1.990479-27.389526-.987244-3.745514-2.19574-7.446594-4.784973-10.489655-.065125-.076538-.065125-.208435.111389-.607635,1.50354,1.052795,3.140137,1.959778,4.484802,3.186584,3.563904,3.251465,5.50824,7.468262,6.556152,12.094208,1.814392,8.01004,1.992432,16.119354,1.250061,24.269043-.088684.97345-.105957,1.957794-.271851,2.917114-.048279.279236-.488525.686432-.763733.698334-1.559204.067444-3.122986.032623-4.894226.032623h-.000061v.000061Z"/>
      <path class="cls-4" d="M49.253443,10.215826c-6.400513-3.742432-12.526367-3.850677-18.900146.118103,1.029053-2.238464,2.037598-4.084412,3.431152-5.797699,2.432983-2.991394,5.608337-2.723145,8.79718-2.261414.984314.142548,2.007874.874054,2.75824,1.599731,1.746887,1.689453,2.833252,3.838379,3.913635,6.341248l-.000061.000031Z"/>
    </g>
  </g>
</svg>