<?xml version="1.0" encoding="UTF-8"?>
<svg id="Layer_2" xmlns="http://www.w3.org/2000/svg" viewBox="0 0 75.742172 84.877775">
  <defs>
    <style>
      .cls-1 {
        fill: #1c1a19;
      }

      .cls-2 {
        fill: #1eae54;
      }

      .cls-3 {
        fill: #7d5b2e;
      }

      .cls-4 {
        fill: #4fa860;
      }

      .cls-5 {
        fill: #ed443f;
      }
    </style>
  </defs>
  <g id="Layer_1-2" data-name="Layer_1">
    <g>
      <path class="cls-1" d="M37.599569,19.54074c1.002136-3.992188,2.724182-7.338562,5.034882-10.315002,1.348938-1.737549,3.118103-3.157043,4.750031-4.663513.780548-.72052,1.6698-.666565,2.392944.141418,1.012604,1.131287,2.0755,2.237915,2.933441,3.481506.855469,1.240112.549103,2.233093-.673981,3.081482-5.338837,3.703186-8.378479,8.95929-10.313965,15.339172.565765-.284973.91983-.447266,1.25882-.636414,3.950043-2.204163,8.095093-3.750305,12.682953-3.90802,8.250458-.28363,15.141052,4.555664,18.130829,12.687317,2.465271,6.7052,2.321503,13.558533,1.046692,20.409607-1.397247,7.508972-4.360321,14.388062-9.292664,20.303711-3.896515,4.673401-8.635956,8.052734-14.767883,9.157898-3.563293.642273-6.9729.064209-10.178223-1.504639-1.85791-.909363-3.484375-.832703-5.354462.018494-6.791016,3.090698-13.181335,1.808777-19.139618-2.231445-4.813751-3.264099-8.261627-7.763245-10.857086-12.911194C.768911,59.09848-.987406,49.709381.540151,39.822723c.893127-5.780151,3.417175-10.724304,8.19101-14.321472,2.762329-2.081482,5.918304-3.164429,9.475006-3.47699-.161377-.256042-.24408-.451599-.381165-.595337-5.214783-5.469971-7.09967-12.126099-6.924255-19.501526.037384-1.572144.569763-2.052124,2.010193-1.901001,6.528625.684937,12.418365,2.917236,17.32785,7.378418,3.198303,2.906311,5.349609,6.521667,6.811371,10.564087.155853.430908.302734.865051.549408,1.571838l-.000031-.000061.000031.000061ZM35.611196,20.665496l-.031036-.096802c-.357391-.929626-.787262-1.838623-1.059204-2.792664-.975708-3.422791-3.070618-6.220215-5.495911-8.609985-4.111267-4.051208-9.312592-6.102234-15.005859-6.931519-.921265-.134216-1.203339.19519-1.145813,1.067139.21524,3.259216.566772,6.523193,1.941223,9.503235.967682,2.098206,2.361664,3.999878,3.565308,5.989258.149139.225708.27356.473267.450958.674011,4.040436,4.57196,9.227448,6.973389,15.148163,7.981018.996185.168518,1.99231.337036,3.319855.561646-.619507-2.69635-1.153625-5.020874-1.687683-7.345398v.000061ZM2.163961,48.433319c.29541,1.843506.636108,5.486694,1.492645,9.004272,1.861816,7.645996,5.309937,14.498047,11.290344,19.80896,5.693756,5.056396,12.166321,6.905579,19.459167,3.892883,2.464203-1.018005,4.627014-1.082886,7.080536.027283,4.47403,2.024414,9.079651,2.010376,13.552032-.097107,4.161987-1.961243,7.567902-4.914246,10.181213-8.67926,6.622681-9.541443,9.288849-20.101929,7.778442-31.646301-.576324-4.405151-2.097473-8.485107-5.257751-11.703003-4.537872-4.620667-10.093842-5.6297-16.259399-4.186462-3.489258.816772-6.539764,2.612-9.669067,4.22113-2.083618,1.071411-4.222015,1.299805-6.498322,1.01532-5.075043-.634338-9.698975-2.419861-13.961548-5.228943-.575653-.379333-1.376495-.601013-2.068756-.591187-6.784576.096436-12.47348,4.099304-15.007355,10.394714-1.550842,3.852844-1.99057,7.87561-2.112213,13.7677v.000061l.000031-.000061ZM38.932058,27.303192c.121307.00354.242676.00708.364014.010681.271881-.969727.494354-1.956665.823792-2.906494,2.014435-5.8078,4.985992-10.949646,10.240936-14.463806.553467-.370117.619781-.745483.242767-1.255676-.232269-.314331-.435425-.651917-.684357-.951965-1.35434-1.632629-1.540466-1.629089-3.075012-.149414-4.294861,4.141296-6.629272,9.331848-7.863525,15.04364-.322327,1.491577-.048553,3.111877-.048553,4.673035h-.000061Z"/>
      <path class="cls-5" d="M2.163961,48.433319c.121674-5.89209.561371-9.914856,2.112213-13.7677,2.533875-6.29541,8.222809-10.298279,15.007355-10.394714.692261-.009827,1.493103.211853,2.068756.591187,4.262573,2.809082,8.886475,4.594604,13.961548,5.228943,2.276337.284485,4.414734.056091,6.498322-1.01532,3.129303-1.60907,6.179779-3.404297,9.669067-4.22113,6.165588-1.443298,11.721527-.434265,16.259399,4.186462,3.160278,3.217896,4.681366,7.297913,5.257751,11.703003,1.510406,11.544373-1.155701,22.104858-7.778442,31.646301-2.613281,3.765015-6.019165,6.718018-10.181213,8.67926-4.472412,2.107483-9.078003,2.121521-13.552032.097107-2.453583-1.110168-4.616394-1.045288-7.080536-.027283-7.292847,3.012695-13.765411,1.163513-19.459167-3.892883-5.980408-5.310913-9.428528-12.162964-11.290344-19.80896-.856537-3.517639-1.197296-7.160767-1.492645-9.004272v-.000061l-.000031.000061Z"/>
      <path class="cls-2" d="M33.979024,27.449188c-5.920746-1.007629-11.107788-3.409058-15.148163-7.981018-.177429-.200745-.301819-.448303-.450562-.674072-.344788-.756287-.639801-1.540588-1.043732-2.264099-1.887695-3.380554-3.002686-6.987122-3.456482-10.835022-.215332-1.825684.486603-2.735718,2.219391-2.207642,2.373718.72345,4.742859,1.523071,7.008667,2.527283,5.738556,2.543396,9.151337,7.20282,11.378723,12.890869.236664.60437.7229,1.111023,1.093292,1.663086,0,0,.031036.096802.030975.096191-.083191.37616-.288147.773621-.228149,1.126099.24649,1.447083.575439,2.880127.870331,4.319031.17453.851562-.160858,1.114868-1.017456,1.013489-.400452-.047424-.836792.207764-1.256836.325806l-.000092.000061.000092-.000061Z"/>
      <path class="cls-3" d="M38.932058,27.303192c0-1.561157-.273773-3.181458.048553-4.673035,1.234283-5.711792,3.568726-10.902405,7.863525-15.04364,1.534546-1.479675,1.720703-1.483215,3.075012.149414.248932.300049.452026.637695.684357.951965.377014.510254.310669.885559-.242767,1.255676-5.254913,3.514099-8.226532,8.655945-10.240936,14.463806-.329437.949768-.55191,1.936707-.823792,2.906494-.121368-.00354-.242676-.00708-.364014-.010681h.000061Z"/>
      <path class="cls-4" d="M35.58016,20.568634c-.370422-.552002-.856628-1.058716-1.093292-1.663086-2.227356-5.688049-5.640137-10.347473-11.378723-12.890869-2.265839-1.004272-4.634949-1.803894-7.008667-2.527283-1.732788-.528076-2.434662.381958-2.219391,2.207642.453766,3.8479,1.568787,7.454468,3.456482,10.835022.403961.723511.698914,1.507812,1.043732,2.264099-1.20401-1.98938-2.597992-3.891052-3.565674-5.989258-1.374451-2.980103-1.725983-6.244019-1.941223-9.503235-.057526-.871948.224548-1.201355,1.145813-1.067139,5.693268.829285,10.894592,2.880249,15.005859,6.931519,2.425323,2.389832,4.520264,5.187195,5.495911,8.609985.271973.953979.701813,1.862976,1.059204,2.792664h0l-.000031-.000061Z"/>
      <path class="cls-4" d="M33.979024,27.449188c.420074-.118042.856415-.37323,1.256836-.325806.856567.10144,1.191986-.161926,1.017456-1.013489-.294922-1.438965-.623871-2.871948-.870331-4.319031-.059998-.352478.144958-.749939.228149-1.126099.534119,2.325195,1.068207,4.649658,1.687775,7.346069-1.327515-.224609-2.323669-.393188-3.319855-.561646h-.000031Z"/>
    </g>
  </g>
</svg>