<?xml version="1.0" encoding="UTF-8"?>
<svg id="Layer_2" xmlns="http://www.w3.org/2000/svg" viewBox="0 0 65.557106 96.500758">
  <defs>
    <style>
      .cls-1 {
        fill: #232221;
      }

      .cls-2 {
        fill: #f2eae0;
      }

      .cls-3 {
        fill: #2b2a2b;
      }
    </style>
  </defs>
  <g id="Layer_1-2" data-name="Layer_1">
    <g>
      <path class="cls-3" d="M32.408182,65.920936c-2.449425.377655-4.816784.744232-7.184658,1.107437-4.789055.734604-9.577927,1.470383-14.367849,2.19928-1.624868.247269-1.728757.173355-1.970022-1.421234-1.875527-12.395752-3.735616-24.793854-5.623941-37.187668C2.238682,23.90422,1.179532,17.195121.11464,10.487067c-.266812-1.680717-.180405-1.900154,1.501885-2.164551,6.418564-1.008774,12.841311-1.990967,19.261982-2.986412C31.82725,3.638633,42.775637,1.938903,53.724096.23957c3.407032-.528809,2.774681-.344391,3.168068,2.233383,2.887825,18.923401,5.737907,37.852554,8.597801,56.780212.200951,1.330032.015282,1.552826-1.454269,1.779556-6.792473,1.047974-13.585304,2.093613-20.377907,3.140808-1.552361.239319-1.576099.244141-1.347404,1.790497,1.345387,9.09697,2.702278,18.19223,4.056702,27.287857.279987,1.880264.210857,1.983902-1.619511,2.260513-2.079739.314331-4.164795.596298-6.238853.944107-1.094368.183517-1.521839-.194489-1.684353-1.30719-1.394012-9.54451-2.84166-19.081161-4.275009-28.619934-.021721-.144547-.065498-.285767-.141178-.608459,0,0-.000004.000015,0,.000015ZM10.708042,67.425849c1.334959-.212891,2.585169-.41687,3.836882-.611176,15.888714-2.466492,31.775944-4.942657,47.670231-7.372757,1.086945-.166183,1.44651-.451675,1.256523-1.612564-.860985-5.260818-1.633194-10.536179-2.432396-15.807053-1.941856-12.80687-3.882984-25.613861-5.818684-38.421661-.252846-1.672943-.236214-1.668159-1.967197-1.396339-6.234768.979073-12.468628,1.964104-18.70602,2.926224-10.469936,1.61499-20.941149,3.221916-31.41589,4.805359-.848581.128273-1.100732.365471-.950756,1.288605.812725,5.002571,1.541681,10.018753,2.296572,15.030685,1.694319,11.249092,3.385062,22.498711,5.081664,33.747459.368477,2.443054.755408,4.883331,1.149072,7.423218ZM44.619757,93.820624c-1.381664-9.200989-2.741577-18.25708-4.11858-27.426987-1.673183,1.097626-3.146858,2.126053-4.685093,3.046753-.738277.441879-.923019.937973-.788002,1.75174.479015,2.887009.909679,5.782196,1.34045,8.677002.67934,4.565155,1.340511,9.133011,2.019394,13.698242.079113.532028.031864,1.198212.932636,1.053848,1.699791-.27243,3.404198-.516098,5.299187-.800629l.000004.000015.000004.000015Z"/>
      <path class="cls-2" d="M10.708042,67.425849c-.393669-2.539886-.780602-4.980148-1.14908-7.423218-1.696602-11.248749-3.387344-22.498383-5.081664-33.747467-.754891-5.011932-1.483846-10.028114-2.296572-15.030685-.149976-.923126.102175-1.160324.950756-1.288605,10.47474-1.58345,20.945954-3.190376,31.415891-4.805359,6.237389-.96212,12.471249-1.947151,18.706024-2.926224,1.730984-.271828,1.714355-.276604,1.967197,1.396339,1.935703,12.807808,3.876823,25.614784,5.81868,38.421654.799202,5.270889,1.571419,10.546249,2.432396,15.807053.189995,1.160904-.169579,1.446381-1.256523,1.612564-15.894291,2.430099-31.781521,4.90625-47.670231,7.372757-1.251713.194305-2.501921.398285-3.83688.611176l.000006.000015ZM48.716337,36.593955c-.042641-3.113174-.508545-6.59877-1.718605-9.953735-1.674866-4.643639-4.152267-8.766624-8.206932-11.719604-3.998627-2.912163-8.339748-3.722214-12.925381-1.436028-3.315184,1.652802-5.417444,4.48513-6.867788,7.783394-3.085741,7.017349-2.881516,14.196701-.597815,21.346497,1.636351,5.123077,4.421089,9.531464,9.14489,12.429382,3.105915,1.90538,6.405785,2.627502,10.024929,1.599014,3.712463-1.054977,6.253757-3.45845,8.093967-6.709625,2.262966-3.998108,2.98391-8.375137,3.052738-13.339279l-.000004-.000015Z"/>
      <path class="cls-2" d="M44.619757,93.820624c-1.894989.284531-3.5994.528198-5.299187.800629-.900772.144363-.853523-.521835-.932636-1.053848-.678886-4.565231-1.340057-9.133087-2.019394-13.698242-.430771-2.894806-.861435-5.789978-1.34045-8.677002-.135017-.813766.049728-1.30986.788002-1.75174,1.538231-.9207,3.011906-1.949127,4.685093-3.046753,1.376999,9.169907,2.736916,18.225998,4.118572,27.426971v-.000015Z"/>
      <path class="cls-1" d="M48.716337,36.593955c-.068825,4.964142-.789772,9.341187-3.052738,13.339279-1.840206,3.251175-4.3815,5.654633-8.093967,6.709625-3.619144,1.028473-6.919014.306366-10.024929-1.599014-4.723803-2.897903-7.508545-7.306305-9.144892-12.429367-2.283701-7.149796-2.487926-14.329147.597815-21.346497,1.450344-3.298264,3.552607-6.130592,6.867788-7.783394,4.585634-2.286179,8.926756-1.476135,12.925383,1.436028,4.054668,2.95298,6.532063,7.075966,8.206936,11.719604,1.210064,3.354965,1.675972,6.840561,1.718605,9.953735ZM45.404974,45.202857c.247437-.88176.486481-1.584412.64027-2.305206,1.262756-5.918564.557404-11.667542-1.707756-17.218185-1.5714-3.850594-3.878185-7.221542-7.433975-9.537666-1.832069-1.193344-3.842606-1.976418-6.086872-1.754166,1.059158,7.280548,2.092293,14.446205,3.169258,21.605278.056736.377151.42268.778625.750179,1.033264,2.964355,2.304825,5.951904,4.57988,8.933537,6.862503.523289.40062,1.050648.795898,1.735355,1.314163l.000004.000015ZM23.42148,48.250037c.252111-.239822.403881-.347534.50909-.489639,2.566959-3.467331,5.141804-6.929047,7.671383-10.423462.244858-.338242.334774-.901337.275265-1.329315-.589012-4.236053-1.21764-8.46669-1.849758-12.696671-.430946-2.883804-.885269-5.764122-1.326138-8.626465-.153912-.015572-.235149-.046562-.299995-.025978-.177418.05632-.347542.135384-.521248.203659-4.305927,1.69239-6.55188,5.216454-7.778629,9.351967-2.49226,8.401764-1.244455,16.387207,3.32003,24.035904ZM34.682726,55.103263c-.761135-5.223953-1.497253-10.276199-2.236488-15.349884-2.546043,3.471344-5.058052,6.896286-7.605133,10.369034,2.683414,2.793961,5.672089,4.815857,9.841621,4.98085ZM36.803003,54.737754c3.839077-1.065323,5.968285-3.739685,7.597366-6.926514.107967-.211197-.139343-.768951-.382984-.968002-1.740025-1.421677-3.51226-2.804718-5.293839-4.174606-1.352695-1.040115-2.734272-2.042725-4.263046-3.181213.796295,5.184097,1.559185,10.150696,2.342503,15.250336Z"/>
      <path class="cls-2" d="M45.404974,45.202857c-.684711-.51828-1.212078-.913559-1.735359-1.314163-2.981632-2.282623-5.969185-4.557678-8.93354-6.862503-.327499-.254639-.693443-.656113-.750179-1.033264-1.076965-7.159073-2.1101-14.32473-3.169258-21.605278,2.244267-.222252,4.254803.560822,6.086872,1.754166,3.55579,2.316124,5.862576,5.687073,7.433975,9.537666,2.26516,5.550629,2.970512,11.299622,1.707756,17.218185-.153793.720795-.392834,1.423447-.640266,2.305206v-.000015Z"/>
      <path class="cls-2" d="M23.42148,48.250037c-4.564487-7.648697-5.812294-15.634155-3.320032-24.035904,1.226746-4.135513,3.4727-7.659576,7.778627-9.351967.17371-.068275.343826-.147339.521248-.203659.064842-.020584.146084.010406.299995.025978.440868,2.862343.895191,5.742661,1.326138,8.626465.632118,4.22998,1.260742,8.460602,1.849758,12.696671.059509.427979-.030407.991058-.275265,1.329315-2.529575,3.494431-5.10442,6.956131-7.671383,10.423462-.105209.14212-.256979.249817-.509087.489639Z"/>
      <path class="cls-2" d="M34.682726,55.103263c-4.169529-.164993-7.158211-2.18689-9.841621-4.98085,2.547077-3.472748,5.059086-6.89769,7.605133-10.369034.739235,5.073685,1.475349,10.125916,2.236488,15.349884Z"/>
      <path class="cls-2" d="M36.803003,54.737754c-.783321-5.09964-1.546207-10.066254-2.342503-15.250336,1.528774,1.138489,2.910351,2.141113,4.263046,3.181213,1.781578,1.369888,3.553814,2.75293,5.293839,4.174606.243637.199066.490948.756805.382984.968002-1.629082,3.186829-3.758289,5.861176-7.597366,6.926514Z"/>
    </g>
  </g>
</svg>