<?xml version="1.0" encoding="UTF-8"?>
<svg id="Layer_2" xmlns="http://www.w3.org/2000/svg" viewBox="0 0 39.531884 101.879452">
  <defs>
    <style>
      .cls-1 {
        fill: #0bae9b;
      }

      .cls-2 {
        fill: #afd8d6;
      }

      .cls-3 {
        fill: #212121;
      }
    </style>
  </defs>
  <g id="Layer_1-2" data-name="Layer_1">
    <g>
      <path class="cls-3" d="M.076522,75.679816c0-5.798584.037941-11.597534-.019294-17.395538-.021863-2.215057.534543-4.141724,1.935044-5.880402,1.31642-1.634308,1.32296-2.806732-.030716-4.429993C.519685,46.24488-.07362,44.286628.007236,42.10105c.10558-2.853729.087126-5.730713.466398-8.551422.62509-4.648834,2.882298-8.390381,6.933018-10.941406,1.074986-.677002,1.193331-1.50882.294157-2.393158-.850712-.83667-1.177612-1.799042-1.138468-2.961945.043476-1.291626-.011101-2.586517.031412-3.878204.089872-2.730957,1.681446-4.341522,4.422808-4.482361.938299-.048218,1.885355.03186,2.818264-.055298.308102-.028778.832191-.401794.829363-.611633-.009012-.667938-.006763-1.723969-.388987-1.931976-1.677628-.912964-2.063751-1.32074-1.944611-2.982788.117727-1.642334,1.02702-2.788818,2.526884-3.154297.340342-.082916.696674-.140442,1.045753-.140961,2.664818-.004028,5.331402-.048218,7.993996.03299,2.57357.078461,4.144302,2.810089,2.97649,5.114471-.191303.377472-.637318.645386-1.005745.907562-.292625.208252-.900448.296509-.927158.496857-.091015.682556-.027309,1.397491.081017,2.08371.018951.120056.536518.217712.827377.228424,1.017536.037415,2.040707-.02182,3.054314.054382,2.136009.160583,3.738819,1.563324,3.933746,3.678772.17168,1.863159.155304,3.760468.01392,5.626923-.052383.691589-.643803,1.376282-1.085079,1.996033-.563461.791321-.741604,1.487488.192745,2.089844,5.283989,3.406525,7.194492,8.56427,7.49889,14.5242.105785,2.071289.069248,4.150848.063019,6.226532-.005127,1.704926-.590202,3.20874-1.643547,4.554016-1.615208,2.062897-1.625229,2.995789-.071758,5.117615,1.10075,1.503479,1.692245,3.15802,1.69035,5.031372-.012329,12.184784.010166,24.369659-.037567,36.554291-.016163,4.125732-3.157425,7.366516-7.373371,7.460205-6.149986.136719-12.304672.067078-18.457367.07373-1.998566.002136-3.99814.000854-5.995565-.057068-4.347558-.126099-7.521817-3.308716-7.558002-7.677124-.050947-6.150757-.012887-12.302246-.012887-18.453461h.015481l-.000002-.000061ZM37.508357,37.546729c-.597679,0-1.018379-.000031-1.439091,0-10.347748.001068-20.695505.004639-31.043257.001556-2.827525-.000824-2.754878-.007721-2.84488,2.847717-.083561,2.650848.163174,5.118195,1.98565,7.26889.961176,1.134277,1.075461,2.634277.590225,4.027863-.301964.867249-.876323,1.657715-1.417567,2.419342-.757265,1.065582-1.096854,2.20047-1.088788,3.515259.031516,5.134277.003292,10.26889.000068,15.403381-.004458,7.094177-.029963,14.188416.001594,21.282471.013589,3.055725,2.164343,5.358704,5.073288,5.376282,8.311403.050232,16.623241.031067,24.934906.034668,1.416195.00061,2.562069-.607605,3.540462-1.598145,1.350727-1.367493,1.587212-3.081848,1.587433-4.888611.001392-11.444824-.018883-22.889832.044575-34.334351.011627-2.097443-.446632-3.882721-1.772137-5.550232-1.549084-1.948761-1.650894-4.172241-.0271-6.058807,2.53426-2.944397,1.605846-6.337219,1.874619-9.747284ZM9.998405,20.867682c.347095,1.577942-.249098,2.636841-1.523483,3.41687-3.677801,2.251099-5.410646,5.736176-6.12775,9.840668-.240331,1.37558-.22407,1.386932,1.158455,1.386749,10.927532-.001648,21.855061-.00174,32.7826-.006042.299618-.000122.599224-.041901.919056-.065765.031631-.227539.088612-.382202.067928-.525665-.647808-4.493683-2.459862-8.326447-6.384151-10.878113-.999607-.649963-1.542233-1.392853-1.388577-2.595093.022709-.177643-.054821-.368073-.089523-.573608H9.998405ZM19.814624,18.66587v.005341c3.28907,0,6.578335-.019196,9.867088.013184.847466.008331,1.218086-.265839,1.191936-1.144104-.041939-1.407928.030266-2.819702-.025757-4.226685-.06266-1.573547-.898125-2.368988-2.446865-2.369781-5.75581-.00296-11.511665.004333-17.267416.029205-1.668089.007202-2.412863.751282-2.474119,2.440735-.045368,1.25116.048599,2.510345-.049141,3.755798-.097113,1.237457.44055,1.534241,1.572363,1.515228,3.209837-.053955,6.421167-.018921,9.63191-.018921ZM19.769094,4.148505v.019562c1.487917,0,2.97645.026062,4.463503-.009705.904564-.021759,1.289391-.693817.750858-1.409576-.280647-.373016-.878716-.700562-1.341339-.711426-2.543367-.059723-5.089197-.0177-7.63414-.002167-.231941.001404-.559227-.022064-.677299.111633-.351507.39798-.620754.868561-.922142,1.310791.377266.230286.744425.636902,1.133615.65921,1.40497.080505,2.817354.031677,4.226944.031677ZM22.79745,8.817847c.060062-.701019.156227-1.282013.136425-1.859039-.007927-.230682-.266865-.645447-.41951-.64917-1.85667-.045197-3.714834-.029358-5.536545-.029358v2.537567h5.81963Z"/>
      <path class="cls-1" d="M37.508357,37.546729c-.268768,3.410065.659637,6.802887-1.874619,9.747284-1.623795,1.886566-1.52198,4.110046.0271,6.058807,1.325504,1.667511,1.783768,3.452789,1.772137,5.550232-.063457,11.444519-.043182,22.889526-.044575,34.334351-.000221,1.806763-.236706,3.521057-1.587433,4.888611-.97839.99054-2.124264,1.598755-3.540462,1.598145-8.311668-.003601-16.623503.015564-24.934906-.034668-2.908946-.017578-5.059699-2.320557-5.073288-5.376282-.031555-7.093994-.006052-14.188293-.001594-21.28244.003224-5.134491.031448-10.269104-.000068-15.403381-.008066-1.314789.331524-2.449646,1.088788-3.515259.541244-.761627,1.115602-1.552094,1.417567-2.419342.485237-1.393616.370951-2.893585-.590225-4.027863-1.822476-2.150696-2.069213-4.618042-1.98565-7.26889.09-2.855438.017355-2.848572,2.84488-2.847717,10.34775.003082,20.695501-.000519,31.043257-.001556.420712-.000031.841412,0,1.439091,0v-.000031Z"/>
      <path class="cls-2" d="M9.998405,20.867682h19.414551c.034706.205536.112228.395966.089523.573608-.153652,1.20224.388973,1.945099,1.388577,2.595093,3.924294,2.551666,5.736347,6.38443,6.384155,10.878113.020683.143463-.036297.298126-.067928.525665-.319832.023865-.619438.065643-.919056.065765-10.927536.004272-21.855062.004364-32.782597.006042-1.382524.000214-1.398787-.011139-1.158455-1.386749.717104-4.104492,2.449949-7.589569,6.12775-9.840668,1.274387-.779999,1.870581-1.838928,1.523479-3.41687Z"/>
      <path class="cls-1" d="M19.814624,18.66587c-3.210747,0-6.422075-.035034-9.631914.018921-1.131813.019012-1.669476-.277771-1.572363-1.515228.09774-1.245453.003773-2.504639.049141-3.755798.061256-1.689453.806028-2.433533,2.474119-2.440735,5.755751-.024902,11.51161-.032166,17.267416-.029205,1.548744.000793,2.384205.796234,2.446865,2.369781.056026,1.406982-.016182,2.818756.025757,4.226685.026154.878265-.344467,1.152435-1.191936,1.144104-3.288754-.032349-6.578018-.013184-9.867088-.013184,0,0,0-.005341.000004-.005341Z"/>
      <path class="cls-1" d="M19.769094,4.148505c-1.40959,0-2.821976.048828-4.226946-.031677-.389193-.022308-.756348-.428925-1.133615-.65921.301392-.44223.570635-.912811.922142-1.310791.118073-.133667.445354-.110199.677299-.111633,2.544939-.015533,5.090769-.057556,7.634138.002167.462624.010864,1.060692.338409,1.341339.711426.538536.715759.153706,1.387817-.750858,1.409576-1.487053.035767-2.975586.009705-4.463503.009705,0,0,0-.019562.000004-.019562Z"/>
      <path class="cls-1" d="M22.79745,8.817847h-5.819632v-2.537567c1.821707,0,3.679873-.015839,5.536543.029358.152649.003723.411587.418488.41951.64917.019798.577026-.076366,1.15802-.136421,1.859039Z"/>
    </g>
  </g>
</svg>