<?xml version="1.0" encoding="UTF-8"?>
<svg id="Layer_2" xmlns="http://www.w3.org/2000/svg" viewBox="0 0 54.648385 107.593514">
  <defs>
    <style>
      .cls-1 {
        fill: #f1e249;
      }

      .cls-2 {
        fill: #f3e54d;
      }

      .cls-3 {
        fill: #0c1d0f;
      }

      .cls-4 {
        fill: #288a45;
      }

      .cls-5 {
        fill: #f7c496;
      }

      .cls-6 {
        fill: #f1e34b;
      }

      .cls-7 {
        fill: #f3e54a;
      }

      .cls-8 {
        fill: #f4e64b;
      }

      .cls-9 {
        fill: #44b24a;
      }

      .cls-10 {
        fill: #4f4920;
      }

      .cls-11 {
        fill: #f3e44b;
      }

      .cls-12 {
        fill: #f3e44a;
      }

      .cls-13 {
        fill: #f6c291;
      }

      .cls-14 {
        fill: #f4e54a;
      }

      .cls-15 {
        fill: #f7c392;
      }

      .cls-16 {
        fill: #266937;
      }

      .cls-17 {
        fill: #276a37;
      }

      .cls-18 {
        fill: #3eab49;
      }

      .cls-19 {
        fill: #e8b78a;
      }

      .cls-20 {
        fill: #15160f;
      }

      .cls-21 {
        fill: #42ae4a;
      }

      .cls-22 {
        fill: #f6c292;
      }

      .cls-23 {
        fill: #f5c192;
      }

      .cls-24 {
        fill: #25713b;
      }

      .cls-25 {
        fill: #f2e44b;
      }

      .cls-26 {
        fill: #f3e54c;
      }

      .cls-27 {
        fill: #275d32;
      }

      .cls-28 {
        fill: #3a1e18;
      }

      .cls-29 {
        fill: #f3e54b;
      }
    </style>
  </defs>
  <g id="Layer_1-2" data-name="Layer_1">
    <g>
      <path class="cls-20" d="M42.46741,33.972216c-.691322-.169312-1.283882-.314438-1.892677-.463535-.082275,1.080231-.202911,2.027344-.214836,2.975826-.016289,1.295166-1.072861,1.910667-2.362907,1.920444-.900856.006824-1.825699-.221806-2.698776-.482662-.6063-.181152-.868332-.200912-.956604.5242-.060501.497063-.332634.968372-.522911,1.485882-.629753-.377831-1.183823-.710251-1.888039-1.132755-.398643,2.448174-.780487,4.793167-1.186111,7.284241.662781-.62756,1.237656-1.13586,1.771599-1.684025,1.79567-1.843479,4.08905-2.629593,6.536057-3.040241,1.147346-.192551,2.325256-.337948,3.48349-.30426,2.995338.087109,5.930168.587788,8.749855,1.648781.952209.358295,1.902802.721489,2.846802,1.100716.353516.142006.780518.375664.304382.777645-2.931946,2.475277-4.850388,5.847546-7.558228,8.511639-2.658615,2.615669-5.865623,3.998894-9.624992,3.532188-1.477699-.183449-2.912872-.816948-4.330238-1.345219-1.156853-.431171-2.280579-.825081-3.465515-.203293-.240547.126232-.485474.397587-.562668.652264-.212761.701939-.337692,1.430504-.504295,2.179783,2.274887,1.548641,4.125435,3.466232,5.211914,6.01886.326775.767761.655663,1.580147.737701,2.396805.156921,1.562057.068047,2.72274-2.187637,3.63591.409309,1.214798.724457,2.418144.469681,3.749397-.230293,1.203316-.856155,2.039734-1.869629,2.591042-.464264.252548-.661316.414223-.507057.996559.397095,1.499092-.615967,4.446075-2.679443,4.900551-.238411.052513-.45845.370758-.60685.614578-.403305.662659-.77636,1.344818-1.13636,2.032364-.2388.456055-.487648.918068-.640259,1.406097-.655434,2.095833-1.934166,3.695183-3.648766,5.04805-.407082.321198-.45459,1.173592-.550964,1.799583-.35067,2.277992-.672737,4.560951-.963509,6.847382-.157158,1.235779-.22081,2.483231-.34201,3.723907-.09536.976181-.200645,1.95192-.334579,2.923317-.025711.186455-.169487.394104-.31929.520004-1.120728.941986-4.10881.440514-4.361732-1.023849-.125618-.727295-.16114-1.490311-.100098-2.225769.160484-1.9338.394096-3.861588.603149-5.791267.076675-.707787.166214-1.414177.279022-2.367455-3.202774,2.267693-5.434372,5.41629-8.686462,7.698433-.985176-1.417725-2.048897-2.832474-2.987221-4.326004-1.404648-2.235771-2.29982-4.707993-2.891235-7.263367-.377029-1.629036-.502716-3.317307-.719925-4.981781-.085503-.655205-.151382-1.317505-.158951-1.977341-.012794-1.116089.404671-1.519844,1.385117-2.061676.909836-.502815,1.716705-1.2061,2.517464-1.882072.197586-.166801.279068-.572281.272079-.864662-.072273-3.024536.53154-5.968819,1.245056-8.864807.654243-2.655457,1.594643-5.245628,2.504944-7.830769.521103-1.479855,1.859474-2.242245,3.139885-2.975323,2.753365-1.576374,5.657158-2.818607,8.700966-3.715336,1.246971-.367367,2.518913-.650005,3.939659-1.01199.951363-4.371483,2.328476-8.895374,2.852974-13.744408-.59243.435822-1.094521.759583-1.542976,1.145649-.691383.5952-1.264229.394955-1.801025-.19561-.31488-.346416-.607079-.713463-.952698-1.12236-.227722.361233-.470222.620949-.564949.926483-.130524.420998-.253937.815609.471886.997627.52964.132828,1.228165.350239,1.456566,1.247334-.323853-.061123-.562401-.071201-.774124-.151787-1.381645-.525856-2.49601-1.410316-3.602356-2.39426-1.032616-.918385-1.58033-1.946167-1.668701-3.174122-1.107399.602436-2.159447,1.228054-3.259377,1.753414-.675308.322548-1.410141.554932-2.142906.714531-1.055237.229836-1.768463-.258595-1.982719-1.331539-.349716-1.751232-.300606-3.482227.53006-5.329769-.321869.113403-.517021.162148-.694359.247772-1.570969.758526-3.213905,1.219646-4.970367,1.097019-1.624748-.113441-2.359192-1.206631-1.958824-2.92424.419128-1.798098,1.179985-3.426975,2.530975-4.739811.297157-.288759.531296-.642359.812408-.988174-1.019608-.188354-1.99897-.342737-2.963722-.561514-.349602-.079279-.708313-.258341-.987297-.484917-1.240608-1.007607-1.214233-1.727262.212692-3.40056,1.05587-1.238178,2.274918-2.307758,3.763802-3.025394.113098-.054508.207306-.148188.296127-.213276-.605995-.494358-1.269913-.902353-1.754288-1.46493-.605865-.703684-.482948-1.613405.15699-2.289991,1.383415-1.462635,3.078415-2.336546,5.062469-2.660654.122978-.020093.23912-.081965.418098-.145607-.33403-.423417-.655792-.793683-.935844-1.193193-.915558-1.306108-.679146-2.663645.709419-3.449157,1.396706-.790115,2.919952-1.396244,4.544983-1.280407,1.02932.073374,2.032303.516332,2.936455.763313.066086-.81942.012619-1.782189.239616-2.673529.750504-2.946931,3.478691-3.185687,5.571114-1.454616.335785.277789.643631.589341.965317.88613.435219-1.011838.837173-2.015766,1.296249-2.992858.40815-.8687.971649-1.517487,2.076691-1.547854,1.225426-.033674,2.072952.500555,2.686447,1.484847.298103.478277.528404.998806.798058,1.516849.961868-.875898,1.86055-1.728596,2.79705-2.537505.953598-.823681,2.104691-1.059807,3.326759-.92072.933357.106227,1.734055,1.551805,1.507835,2.637391-.058327.279873-.107719.561608-.190109.99415.765915-.311472,1.388283-.615159,2.041862-.818515.982925-.30582,1.966484-.541332,3.030403-.258752,1.666389.442608,2.197647,1.484501,1.45932,3.150157-.312828.705711-.716942,1.370959-1.073975,2.044062,1.008034-.110756,2.024139-.271053,3.045715-.322406,1.296501-.065177,2.503197.319143,3.62442.958927,1.092094.623159,1.219566,1.266486.568207,2.32429-1.016914,1.651437-2.1287,3.203688-3.855904,4.116379,1.04863.602142,2.116013,1.127221,3.080467,1.799865.638458.445284,1.193451,1.052952,1.671448,1.675709.74295.967949.568207,1.987228-.460106,2.647587-.963493.618731-2.001953,1.120459-3.004837,1.678322-.199524.110992-.387367.243-.591759.372379.762825.787077.910606,1.39197-.409439,1.980282.532677,1.045696,1.161102,2.061945,1.576752,3.158821.385849,1.018213.010757,1.917105-.887268,2.460058-1.181435.71431-2.453636,1.200811-3.868973,1.189602-.564796-.004477-1.130318-.01679-1.694229.006123-.321899.013086-.524864.067595-.37867.542751.187653.609848.229965,1.289295-.385902,1.597626l.000023-.000004ZM12.371058,61.469725l.0112-.011421-1.311546.750351-.003761-.002483c-1.161392.576969-1.947304,1.555973-2.14872,2.765224-.24955,1.498238-.834122,2.856018-1.314034,4.26255-.008621.025284-.010132.05294-.018066.078514-1.01487,3.270203-1.555664,6.633644-1.88134,10.029121-.207565,2.164078-.331955,4.343422.259613,6.484543.115807.419144.452866.947884-.204681,1.151215-.642273.198608-.642685-.4748-.854515-.832504-.053276-.089966-.072464-.201881-.098618-.305893-.250435-.996056-.499008-1.992584-.749847-2.995911-1.433006,1.010406-2.097542,2.360031-1.993599,4.048874.035973.561829.121895,1.121407.204033,1.679199.570274,3.872833,1.743073,7.520889,4.047935,10.738892.30307.423141.654984.811287.996124,1.230186,2.031013-1.817375,3.99073-3.57093,5.994484-5.363914-.60321-.218613-1.038353-.376312-1.473495-.534019.002548-.096268.005104-.192543.00766-.288811.241447-.060806.479759-.145378.72496-.177795.635246-.083946,1.276802-.123489,1.909805-.220238.894356-.136688,1.371498-.617371,1.504677-1.577057.243179-1.752251.61586-3.486404.92868-5.229172.196159-1.092812.381653-2.187531.553894-3.177696-1.108147.122002-2.138336.309135-3.171646.328354-1.023575.019043-1.226486-.355759-.885368-1.300049l-.004684.004715c1.24913.326057,2.42421.110207,3.547508-.484711.181679-.040123.384567-.041306.541542-.126785.894684-.487213,1.786415-.981049,2.662537-1.500656.444847-.263847.826752-.297821,1.074356.20697.382347.77951.665154,1.612587,1.095085,2.362823.568481.99202,1.53318,1.107666,2.358284.314751.859062-.825554,1.152016-1.929146.669174-2.958031-.677391-1.443474-1.554428-2.805473-2.466812-4.118401-.247879-.356705-.939507-.596352-1.410927-.571808-1.659752.086372-3.31723.274269-4.966011.495071-1.255234.168098-2.495964.444542-3.743149.672775-.156731-.254776-.313454-.509567-.470184-.764351.273834-.164581.531357-.372002.825249-.483871.463135-.176308.950714-.288406,1.42794-.427689.290932-.047073.581001-.100548.872948-.140213,1.936195-.263039,3.869469-.552414,5.810524-.773109,1.146156-.130318,2.13398.290947,2.813751,1.234222.687439.953926,1.321922,1.948387,1.937103,2.951149.370567.60405.660034,1.257851,1.088989,2.088943.467354-.532425.887291-.874214,1.130463-1.313789.692291-1.251442.634468-2.602303-.071098-3.770599-1.034279-1.712593-2.225052-3.335251-3.416542-4.946396-.60173-.813675-1.561432-1.086182-2.527527-.984985-1.969032.206261-3.927605.512428-5.890488.777428-.284164.066017-.568329.132034-.852493.198059l.005188-.006538c-.256584.044388-.513168.088776-.769753.133156-.134995.037285-.269989.074562-.404984.111847-.053177-.002228-.115211-.023628-.15818-.003784-.574692.265533-1.171379.298958-1.338089-.407875-.153694-.651672.494431-.69442.952744-.804749,1.13102-.27227,2.262634-.542053,3.394005-.812828,1.70787-.186478,3.414474-.38562,5.123993-.555504,1.418434-.140961,2.622398.368416,3.498688,1.455956,1.125809,1.397202,2.176239,2.857292,3.215324,4.321396.619751.873245,1.062378.90873,1.651085.00071.713493-1.100471.599487-2.278687.150421-3.406868-.929001-2.333931-2.648628-4.0793-4.464424-5.73587-1.003479-.915474-2.204216-1.41935-3.544487-1.218391-2.621544.393082-5.225822.901344-7.83725,1.361923-.415848-.04232-.999107.192749-1.07029-.491722-.06752-.649368.514359-.633324.93071-.748749.780479-.216358,1.564224-.420952,2.346603-.630436,1.479111-.266663,2.958763-.530411,4.437225-.80064,2.442642-.446461,4.519524.250816,6.237518,2.019432.785896.809059,1.529503,1.659081,2.297546,2.485657.273483.294319.514832.683807.856667.83239.40657.176727.963051.290916,1.344437.144768.257736-.09877.417137-.68541.45285-1.069427.038292-.411751-.086617-.850677-.197365-1.262405-1.068016-3.970642-3.878822-6.344841-7.465233-7.902939-.831467-.361229-1.924477-.460106-2.81691-.28067-3.304649.664452-6.423317,1.897125-9.382942,3.519032-.171486.093845-.342972.187695-.51445.281548l-.000015.000011ZM18.864215,39.241324c-.027199,1.467537,1.023941,2.201363,1.986389,3.025543.140846-.354092.311974-.640438.361481-.946461.057327-.354382.078842-.745277-.013039-1.085503-.121857-.451218-.36853-.868729-.561577-1.30072-.174492-.768635-.348991-1.53727-.542763-2.390842-.361061.463902-.611656.925831-.987579,1.235733-.549782.453224-.555725.909657-.242912,1.46225ZM23.378192,11.173793c.317596.865969.635201,1.731941.964844,2.630738.423782-.170103.737061-.295852,1.092422-.438486-.208694-1.605486-.313301-3.168181-.634087-4.685168-.396225-1.873808-1.375198-3.385804-3.316833-4.02647-.964165-.318135-1.665611.011669-1.782188,1.011765-.121544,1.042751-.263618,2.245238.127052,3.152296.850266,1.974145,2.033562,3.804852,3.041977,5.624229.908714-.154286,1.093216-.51543.859138-1.169389-.206871-.577954-.337173-1.183315-.501289-1.776579,0,0,.148972-.322936.148964-.322936ZM30.062953,49.817489c-.125282.134644-.250557.269283-.375839.403919-.311272.158443-.622551.316883-.933823.475334-.076996-.361183-.158493-.721516-.227295-1.084251-.014229-.075031.017685-.159191.030128-.238857.671211-4.296532,1.348564-8.592117,2.010216-12.890118.188728-1.225971.083481-1.441986-.855164-2.25346-1.42395,7.302052-2.854538,14.638161-4.298233,22.041534.369827.181034.895683.438446,1.461014.715187.076714-.231041.184715-.425804.20179-.628235.146492-1.736855,1.043083-2.79068,2.776291-3.101521,1.79924-.296165,3.435898.28529,5.096161.868141,3.776855,1.325909,7.237381.672134,10.183487-2.02956,1.356697-1.244141,2.472664-2.750088,3.70433-4.131496,1.006294-1.128654,2.022308-2.248657,3.071045-3.413639-3.570435-1.044109-7.111084-1.916283-10.861115-1.773842-5.083641.193108-8.526741,2.807335-10.981087,7.033813,0,0-.0019.007057-.001907.00705ZM16.371135,11.867267c1.96701.875855,3.324753,2.49296,4.76651,4.040339.393059-.319355.716484-.582138,1.127251-.91588-.843506-1.175388-1.580147-2.332751-2.446304-3.383339-2.2565-2.736971-5.418785-3.287374-8.543129-1.628437-.720444.382536-.682297.71081-.272087,1.283148.967331,1.349621,2.343361,2.111644,3.82093,2.72062,1.847649.761503,3.614334,1.647157,5.153069,3.098386.249016-.30571.484589-.594913.740456-.909031-1.183273-1.650434-2.778625-2.951568-4.449776-4.172737.034363-.044355.068718-.08871.103081-.133069ZM16.489398,33.957633c-.0513-.04586-.102608-.091713-.153908-.137573,1.145859-1.653591,2.29171-3.30718,3.448059-4.975922-.307976-.199211-.593018-.383595-.907669-.587126-1.107941.925934-2.227448,1.806351-3.283844,2.75691-1.718826,1.546608-3.19429,3.275185-3.70755,5.621632-.259537,1.18652-.318153,2.37262.076996,3.550804,4.662048-1.199951,9.001534-5.362339,9.827866-10.704468-1.296135-.435598-1.270409-.415014-2.067841.581701-1.053658,1.31698-2.152618,2.597723-3.232109,3.894041ZM23.570109,26.881112c.736183-.064497,1.279938-.055309,1.7976-.167036,2.661629-.574484,4.954094-1.8323,6.758148-3.883707.885925-1.007387,1.602257-2.13096,1.872917-3.498688.302383-1.528059-.114182-2.779331-1.222183-3.478124-1.16909-.737318-2.507217-.88885-3.79071-.764033-2.065887.200901-4.00174.889399-5.661171,2.236237-1.750587,1.42083-3.069176,3.10799-3.579422,5.348871-.397377,1.745193.353226,3.372259,1.890907,3.883852.671516.223415,1.41156.240854,1.933914.322628ZM33.374644,25.594567c1.156158.869059,2.289497,1.875029,3.563904,2.648624,3.203728,1.944733,6.653641,2.487932,10.279335,1.382349,1.195633-.364588,1.276199-.622011.694099-1.743792-1.402245-2.702305-3.725105-4.191572-6.645462-4.699911-1.864098-.324476-3.772072-.396872-5.701935-.586369-.199593.327738-.420692.690792-.672554,1.104364,2.054176.787891,4.070442,1.561235,6.0867,2.334581-.029747.082296-.059486.164593-.089226.246889-1.65094-.535149-3.312538-1.039919-4.949715-1.614304-1.526093-.535414-1.514755-.568079-2.512657.726603-.014122.018316-.013443.048029-.05249.200964ZM17.040377,25.005933c-2.388275.332018-4.679916.787613-6.777046,1.85993-2.571518,1.314878-4.549232,3.229427-5.465469,6.055134-.174164.537121-.201447,1.121868-.304993,1.734947.314804.026482.470261.048435.626076.051311,1.877075.034679,3.570534-.612774,5.253983-1.356655,3.014938-1.332245,5.145119-3.830662,7.767288-5.748278-.228714-.363085-.435715-.691683-.725708-1.152039-2.304695,1.166542-4.55938,2.30777-6.814072,3.448996-.043137-.085644-.086273-.171288-.129402-.256931,2.240585-1.240685,4.481178-2.481369,6.766922-3.747055-.048126-.216665-.110909-.499279-.197556-.889362l-.000023.000002ZM36.159457,21.517661c5.263603.800251,10.47744,1.299444,15.295105-2.102291-.301331-.368763-.511826-.674784-.76944-.93399-2.129906-2.143116-4.731163-2.83968-7.617119-2.191236-1.794601.403223-3.51046,1.146391-5.280731,1.672873-.867279.257933-1.117851.758154-.933762,1.601429,2.462242-.430824,4.905548-.86413,7.394501-.632982-2.168121.406366-4.330696.827574-6.512932,1.076189-.976982.111309-1.415421.537838-1.575623,1.51001ZM34.290606,31.491883c-.076096.063843-.152184.127684-.228279.191526-1.133896-1.410168-2.267799-2.820333-3.411285-4.242428-.524933.263508-1.071564.493519-1.564018.808298-.181412.115953-.359352.45085-.328468.653875.611198,4.017921,5.256622,7.898647,9.33886,7.860912.499252-.004616.733788-.145233.778076-.652481.251671-2.882149-.714172-5.282501-2.904755-7.150173-1.119598-.954569-2.333672-1.798325-3.556274-2.731264-.349037.269283-.766235.591156-1.268349.97854,1.077553,1.467762,2.111015,2.875477,3.144493,4.283194ZM24.316623,41.760089c3.430916-2.246803,4.985321-8.889187,3.069778-12.926714-.240456.067389-.488495.187483-.741135.198133-.732086.030869-.903099.444973-.924644,1.0989-.02916.884842-.115433,1.771982-.244347,2.648254-.148407,1.008732-.370049,2.006687-.559883,3.009323-.070312-.012142-.140617-.024277-.21093-.036419.099411-2.101948.198822-4.203892.299683-6.336487-.554901.052462-1.013313.068407-1.459015.15206-.167259.031387-.370453.18786-.446312.341932-1.015968,2.06336-1.566933,4.223137-1.301842,6.54472.233353,2.043697,1.072845,3.791786,2.518646,5.306297ZM42.247348,12.627564c.063049.099632.126099.199261.189156.298893-.346169.186194-.696884.364461-1.037712.559974-1.371078.786502-2.760651,1.543866-4.100197,2.381091-.807266.504541-.771515.561741-.419785,1.337276,2.023376-.66279,4.025826-1.346183,6.04599-1.972404,1.86525-.578205,3.646568-1.331301,5.11116-2.636082.901787-.803393,1.656967-1.771361,2.595985-2.793951-.634438-.265487-1.010353-.47289-1.412888-.582496-1.678955-.457162-3.347145-.325674-5.004982.14519-2.099335.596261-3.771248,1.898764-5.410706,3.255559-.983521.813946-1.959557,1.636927-2.9636,2.476455.271729.339596.463882.579744.582245.727669,2.001389-1.098442,3.913361-2.147806,5.825333-3.197174ZM17.342547,21.41459c-5.23616-2.1078-12.505066-.154783-14.114403,3.818026.364174.151756.720139.335369,1.096985.450903,1.478485.453278,2.99247.385679,4.46666.075747,2.697418-.567101,5.371986-1.242893,8.121605-1.888754v-1.152937c-1.944435.128242-3.829201.258486-5.715126.368723-.21357.012484-.433716-.087727-.65081-.135679l.021042-.288877c2.159729-.112419,4.319458-.22484,6.529785-.339895.066216-.245947.149467-.555182.244247-.907253l.000015-.000002ZM6.130992,17.372308c.706963.830734,1.641197,1.33919,2.67514,1.514151,2.974411.503326,5.964485.914124,8.995255,1.368299.14463-.288258.320076-.637932.515182-1.026793-1.868416-1.237246-3.942734-1.676987-6.067223-1.97637,2.305122-.207586,4.399033.541645,6.446976,1.456446.227547-.332863.406616-.594816.583534-.853619-4.005592-4.16493-10.214684-4.030176-13.148865-.482115ZM44.445277,4.110277c-1.952827-.272504-3.574989.157679-5.104897,1.134126-2.983902,1.904443-4.466591,4.974311-6.301216,7.856647.40789.171044.721703.302639,1.078636.452319.445198-.546989.877083-1.092571,1.325478-1.624242.426338-.50553.869919-.996515,1.305923-1.493895.059891.051175.119789.102351.17968.153526-.793427,1.055508-1.586845,2.111018-2.39994,3.192702.280853.2038.489357.355103.663437.48143,1.472656-1.185049,2.879066-2.34971,4.320915-3.468707,1.811043-1.405516,3.263138-3.107479,4.338799-5.124827.244522-.458606.375938-.977524.593185-1.559081ZM19.991771,82.532599c-.310661.382828-.679306.636986-.748375.955994-.34642,1.59996-.666595,3.209366-.900551,4.829224-.798233,5.526611-1.552132,11.059616-2.336769,16.588219-.075378.531143.126823.839806.605911.962555.397522.101845.812675.134888,1.257088.204193.227676-2.133492.438751-4.132828.654785-6.131615.542877-5.022881,1.227013-10.022636,2.403503-14.944466.06649-.278175.010597-.627029-.100319-.89698-.192268-.467941-.472244-.899857-.835274-1.567123ZM31.969226,12.720722c1.263725-1.897928,2.47084-3.802604,3.775726-5.637762.847153-1.191423,1.369034-2.492293,1.64959-3.895143.124603-.623054.073509-1.281241.110786-2.116642-3.002991.897086-4.912308,2.705374-5.848824,5.311212-.699379,1.946002-.909042,4.068006-1.344757,6.149732.555771.063241,1.082085.123128,1.657478.188603ZM29.391024,12.55037c.316399-2.223313.73719-4.462634.904854-6.720748.064728-.871762-.335693-1.838718-.7314-2.662807-.266541-.555096-.896179-.935838-1.363396-1.394577-.421043.493362-.96962.925244-1.242004,1.490269-1.531845,3.177637-1.063766,6.471521-.512115,9.807469.419044-.131144.765266-.239501,1.099052-.343967.148682-1.858427.294586-3.682254.440498-5.506081.050323.005685.100662.01137.150986.017054v5.417004c.338844-.02801.677467-.056001,1.25351-.103616h.000015ZM22.354914,85.596267c-.236671,1.180695-.462204,2.305847-.687729,3.430984.099091.044785.198189.089561.297279.134346.63942-1.058342,1.278831-2.116676,1.97448-3.268074-.652657-.122482-1.062515-.199387-1.58403-.297256ZM42.040026,32.975337c-.133148-1.196157-.915787-1.772661-2.294609-1.690241.59584,1.651674,1.067688,1.99925,2.294609,1.690241ZM32.19665,36.517703c-.211952,1.28595-.004707,1.650612,1.117813,2.036289.729179-.965961.445007-1.509575-1.117813-2.036289ZM48.353991,23.946637c-.005028-.110739-.010056-.221478-.015083-.332212-.293106-.113708-.59153-.325504-.877609-.309958-.227188.012348-.43927.302891-.658066.469915.278725.198092.536369.492418.843727.559723.197899.043341.468834-.246796.707031-.387468Z"/>
      <path class="cls-5" d="M14.544787,75.620597c-.477226.139267-.964806.251366-1.42794.427673-.293892.111877-.551422.31929-.825249.483871.156723.254784.313454.509575.470184.764351-.736969.730553-1.526649.502045-2.248512.114044-.275215.655685-.532906,1.269623-.801392,1.909286.095726.044731.186325.093903.281731.1306,1.040222.400063,1.038559.527672.279961,1.290649-.254227.255692-.332245.732994-.388863,1.123779-.043869.302826.011627.653893.132233.936966.115715.271568.330498.624916.573944.696381.998726.293182,1.92572-.042877,2.814011-.498421-.341118.94429-.138206,1.319092.885368,1.300049,1.03331-.019218,2.063499-.206352,3.171646-.328354-.172241.990166-.357735,2.084885-.553894,3.177696-.31282,1.742767-.685501,3.476921-.92868,5.229172-.133179.959686-.610329,1.440369-1.504677,1.577057-.633003.096756-1.274559.136292-1.909805.220238-.245201.032417-.483505.116989-.72496.177795-.002556.096268-.005112.192543-.00766.288811.435143.157707.870293.315407,1.473495.534019-2.003754,1.792984-3.96347,3.546547-5.994484,5.363914-.341141-.4189-.693054-.807045-.996124-1.230186-2.304855-3.217995-3.477654-6.866051-4.047935-10.738884-.082138-.557793-.16806-1.117371-.204033-1.679199-.108116-1.688576.556419-3.0382,1.993599-4.048874.250839,1.003326.499405,1.999855.749847,2.995911.026154.104012.045341.215927.098618.305893.21183.357704.21225,1.031113.854515.832504.657547-.203323.320488-.732071.204681-1.151215-.591568-2.141121-.467178-4.320465-.259613-6.484543.325684-3.395477.86647-6.758919,1.88134-10.029121.007935-.025574.009445-.05323.018066-.078514.479912-1.406532,1.064484-2.764313,1.314034-4.26255.201416-1.209255.987328-2.188255,2.148735-2.765141-.053345,1.326134,1.074425.472496,1.602203.914268.045212.143909.118126.37598.153282.487854.530983-.045452.963432-.0998,1.39727-.115406.599297-.021542,1.199654-.018303,1.799538-.017097.3675.000732.73497.017521,1.102455.0271-.782379.209488-1.566132.414082-2.346603.63044-.416359.115417-.998238.09938-.93071.748749.071182.684471.654449.449402,1.070564.491661.136993.023636.27372.04734.587219.1017-.992302.292503-1.746841.466026-2.452728-.296104-.256454-.276894-.765984-.319374-1.160042-.468819l.14296.270401c-.220779.44278-.470222.87439-.649101,1.333496-.078262.200882-.100784.51326.003395.680038.468262.749573.960838,1.489174,1.510948,2.17955.189034.237236.595001.483932.860458.444885.918167-.135078,1.814957-.409729,2.727478-.593552.195602-.039398.423035.079269.635796.125122-1.131378.270782-2.262993.540558-3.394005.812828-.458313.110329-1.106438.153076-.952744.804749.16671.706833.763397.673409,1.338089.407875.042976-.019852.105011.001549.158386.003761.135071-.037292.26992-.074562.404778-.111824.256584-.044388.513168-.088776.769524-.133011-.701263.245567-1.404106.486053-2.102173.739693-.18882.068604-.484955.140694-.52446.273064-.263336.882462-1.179642,1.459457-.995247,2.596573.102692.633202.275543.930946.826981,1.000809.388268.049194.793159-.050682,1.190201-.046219.235123.00264.469421.078712.704094.121773l.000008-.000015Z"/>
      <path class="cls-9" d="M30.0647,49.810378c2.454491-4.226425,5.897583-6.840652,10.981224-7.03376,3.750031-.142441,7.29068.729736,10.861115,1.773842-1.048737,1.164982-2.064751,2.284985-3.071045,3.413639-1.231667,1.381409-2.347633,2.887356-3.70433,4.131496-2.946106,2.701694-6.406631,3.355473-10.183487,2.02956-1.660263-.582851-3.296921-1.164307-5.096161-.868137-.181404-.159279-.362801-.318565-.544197-.477856,2.046265-2.001125,4.414314-3.439823,7.268211-3.891106,1.373383-.217171,2.783531-.196728,4.175697-.301495,1.894173-.142532,3.717735-.544331,5.352715-1.569035.215668-.135166.384567-.344963.575127-.520199-.388527-.122967-.690773-.12151-.947578-.012753-1.685364.713722-3.457695,1.032928-5.266388,1.016731-3.274223-.029331-6.352859.59045-9.124786,2.415493-.373116-.661957-.862747.072983-1.276115-.106438v.000015Z"/>
      <path class="cls-28" d="M23.570109,26.881112c-.522362-.081774-1.262405-.099213-1.933914-.322628-1.537682-.511593-2.288284-2.138659-1.890907-3.883852.510246-2.240879,1.828827-3.928041,3.579422-5.348871,1.659431-1.346838,3.595284-2.035336,5.661171-2.236237,1.283493-.124817,2.621628.026715,3.79071.764033,1.108002.698792,1.524567,1.950065,1.222183,3.478124-.270653,1.367725-.986992,2.491301-1.872917,3.498688-1.804054,2.051407-4.096512,3.309223-6.758148,3.883707-.517662.111729-1.061417.102539-1.7976.167036Z"/>
      <path class="cls-22" d="M17.121714,63.502974c-.367485-.009579-.734955-.026363-1.102455-.0271-.599884-.001205-1.200233-.004448-1.799538.017097-.433846.015602-.866287.069954-1.39727.115406-.035149-.111874-.108063-.343945-.153282-.487854-.527779-.441772-1.655548.411865-1.602203-.914268-.000015-.000084.003746.002399.003922.002739.404457.114441.808746.228535,1.206947.340912.045883-.479656.075157-.785629.104424-1.091602,0,0-.0112.011421-.011047.011551.171532-.093803.342918-.187737.514305-.28167,2.959625-1.62191,6.078285-2.854588,9.382942-3.519035.892433-.179436,1.985451-.080559,2.81691.28067,3.586403,1.558102,6.397217,3.932297,7.465233,7.902939.110748.411728.235649.850662.197365,1.262405-.035713.38401-.195114.970657-.45285,1.069427-.381378.146149-.937866.031952-1.344437-.144768-.341843-.148582-.583183-.538063-.856667-.83239-.768036-.826569-1.511642-1.676598-2.297546-2.485657-1.717987-1.76862-3.794876-2.465897-6.237518-2.019436-1.478462.270229-2.958115.533978-4.437233.800632Z"/>
      <path class="cls-13" d="M17.121356,69.150534c-.212769-.045853-.440201-.16452-.635796-.125122-.912521.183823-1.809311.458466-2.727478.593552-.265457.039047-.671425-.207649-.860458-.444885-.550102-.690369-1.042679-1.42997-1.510948-2.17955-.104179-.166779-.081657-.479156-.003395-.680038.178879-.459106.428322-.890717.649101-1.333496l-.14296-.270401c.394058.149437.903587.191925,1.160042.468819.705887.762131,1.460419.588608,2.452728.296104-.313499-.054359-.450226-.078064-.587219-.1017,2.61116-.460518,5.215431-.968773,7.836975-1.361862,1.340271-.200958,2.541008.302917,3.544487,1.218391,1.815796,1.65657,3.535423,3.401939,4.464424,5.73587.449066,1.128181.563072,2.306396-.150421,3.406868-.588707.90802-1.031334.872543-1.651085-.00071-1.039085-1.464104-2.089523-2.924194-3.215324-4.321396-.876282-1.08754-2.080254-1.596909-3.498688-1.455956-1.709518.169884-3.416122.369026-5.123985.555511Z"/>
      <path class="cls-15" d="M13.404879,82.999778c-.88829.455544-1.815285.791611-2.814011.498421-.243446-.071465-.458229-.424812-.573944-.696381-.120605-.283066-.176102-.634132-.132233-.936966.056618-.390785.134636-.868088.388863-1.123779.758598-.762978.760262-.890587-.279961-1.290649-.095406-.036697-.185997-.085869-.281731-.1306.268486-.639671.526176-1.253601.801392-1.909286.721863.388008,1.511543.616508,2.24852-.114052,1.247177-.228226,2.487907-.504669,3.743141-.672768,1.648781-.220802,3.306259-.408707,4.966011-.495071.47142-.024536,1.163048.215111,1.410927.571808.912384,1.312935,1.789429,2.674927,2.46682,4.118401.482834,1.028877.18988,2.132477-.669174,2.958031-.825104.792915-1.789803.677269-2.358284-.314751-.429932-.750237-.712738-1.583313-1.095085-2.362823-.247604-.504799-.629501-.470818-1.074356-.20697-.876114.519608-1.767853,1.013443-2.662537,1.500656-.156975.085487-.359856.086662-.541542.126785-.63353-.113922-1.263062-.273354-1.901672-.329414-.685104-.060127-1.391182-.047844-1.645836.814125,0,0,.004684-.004715.004692-.004715ZM13.531718,78.511557c-.470543.190788-.927986.368011-1.370842.576271-.026649.012527.037849.385162.102753.399757.509514.114555,1.028114.194084,1.547272.256325.117546.014099.246941-.085693.373138-.125969.469322-.149773.413818-.470016.159348-.722084-.184502-.182747-.4925-.240845-.811668-.3843Z"/>
      <path class="cls-23" d="M14.544787,75.620589c-.234673-.043045-.468971-.119125-.704094-.121765-.397041-.004463-.801933.095413-1.190201.046219-.551437-.069862-.724297-.367607-.826981-1.000809-.184402-1.137108.731911-1.714104.995247-2.596573.039497-.13237.33564-.20446.52446-.273064.698067-.253639,1.400902-.494118,2.102173-.739693.000229-.000145-.004967.006393-.004669.007027.284264-.065804.56823-.132248.852196-.198692,1.962883-.264999,3.921455-.571167,5.890488-.777428.966103-.101204,1.925797.17131,2.527527.984985,1.19149,1.611137,2.382263,3.233803,3.416542,4.946396.705566,1.168297.763382,2.51915.071098,3.770599-.243172.439575-.663109.781364-1.130463,1.313789-.428955-.8311-.718422-1.484894-1.088989-2.088943-.615173-1.002762-1.249664-1.997223-1.937103-2.951149-.679771-.943275-1.667595-1.36454-2.813751-1.234222-1.941055.220695-3.874329.510063-5.810524.773109-.291939.039665-.582008.09314-.872955.140213Z"/>
      <path class="cls-14" d="M33.374644,25.594567c.03904-.152933.038361-.182646.052483-.200962.997902-1.294682.986565-1.262016,2.512657-.726603,1.637177.574383,3.298775,1.079155,4.949715,1.614304.029747-.082296.059486-.164593.089226-.246889-2.016258-.773346-4.032516-1.54669-6.0867-2.334581.251862-.413572.472961-.776627.672554-1.104364,1.929871.189497,3.837837.26189,5.701935.586369,2.920357.508341,5.243217,1.997606,6.64547,4.699911.582108,1.12178.501534,1.379206-.694099,1.743792-3.625694,1.105583-7.075607.562384-10.279335-1.382349-1.274399-.773596-2.407745-1.779568-3.563904-2.648626Z"/>
      <path class="cls-7" d="M17.040377,25.005933c.086655.390083.149429.672697.197556.889362-2.285744,1.265686-4.526329,2.506369-6.766922,3.747053.043129.085644.086266.171288.129402.256931,2.254684-1.141226,4.509369-2.282454,6.814072-3.448996.289993.460358.496986.788956.725708,1.152039-2.622162,1.917616-4.75235,4.416033-7.767288,5.748278-1.683441.743881-3.376907,1.391335-5.253983,1.356655-.155807-.002876-.311264-.02483-.626076-.051311.103554-.613079.130829-1.197826.304993-1.734947.916245-2.825705,2.893951-4.740253,5.465477-6.055132,2.097137-1.072317,4.388771-1.527912,6.777061-1.859932Z"/>
      <path class="cls-12" d="M36.159457,21.517661c.160202-.972174.59864-1.398703,1.575623-1.510012,2.182236-.248615,4.34481-.669825,6.512932-1.076189-2.488953-.231148-4.932251.202156-7.394501.632982-.18409-.843273.066483-1.343496.933762-1.601427,1.770271-.526482,3.48613-1.269648,5.280731-1.672873,2.885963-.648443,5.487221.04812,7.617119,2.191236.257614.259207.468109.565228.76944.93399-4.817673,3.401735-10.031502,2.902542-15.295105,2.102291Z"/>
      <path class="cls-8" d="M34.290606,31.491883c-1.03347-1.407717-2.066933-2.815432-3.144485-4.283194.502113-.387384.919312-.709255,1.268349-.97854,1.222603.93294,2.436676,1.776695,3.556274,2.731264,2.190582,1.867672,3.156425,4.268024,2.904755,7.150173-.044289.507248-.278824.647865-.778076.652481-4.082245.037739-8.727661-3.842987-9.33886-7.86091-.030884-.203028.147049-.537922.328468-.653875.492455-.314779,1.039085-.544792,1.564018-.808298,1.143486,1.422094,2.27739,2.83226,3.411285,4.242428.076088-.063843.152184-.127684.228271-.191528Z"/>
      <path class="cls-29" d="M16.489398,33.957625c1.079491-1.296314,2.178444-2.577057,3.232101-3.894037.797432-.996717.771706-1.0173,2.067841-.581701-.826332,5.342129-5.165817,9.50452-9.827866,10.704468-.395142-1.178185-.336533-2.364285-.076996-3.550804.51326-2.346447,1.988731-4.07502,3.70755-5.62163,1.056396-.95056,2.175903-1.830976,3.283844-2.75691.314651.203531.599693.387913.907669.587126-1.156349,1.668739-2.302208,3.322329-3.448036,4.975931-.050797.072796-.101616.145588-.152451.218372.102104-.026939.204216-.053879.306328-.080814h.000015Z"/>
      <path class="cls-29" d="M24.316623,41.760089c-1.445801-1.514507-2.285294-3.262596-2.518646-5.30629-.265091-2.321583.285873-4.481359,1.301842-6.544722.075859-.154072.279053-.310547.446312-.341932.445702-.083652.904114-.099598,1.459015-.15206-.100861,2.132593-.200272,4.234537-.299683,6.336485.070312.012142.140617.024277.21093.036419.189835-1.002636.411476-2.000595.559883-3.009327.128914-.876272.215195-1.763414.244347-2.648254.021545-.653927.192558-1.068031.924644-1.0989.252647-.010651.500679-.130745.741135-.198133,1.915543,4.037523.361137,10.679911-3.069778,12.926714Z"/>
      <path class="cls-25" d="M42.247348,12.627564c-1.911972,1.049366-3.823936,2.09873-5.825325,3.197172-.118362-.147925-.310516-.388073-.582245-.727669,1.004044-.839528,1.98008-1.662509,2.9636-2.476455,1.639458-1.356795,3.311371-2.659297,5.410706-3.255559,1.657829-.470864,3.326027-.602352,5.004982-.14519.402534.109607.77845.317009,1.412888.582496-.939018,1.02259-1.694199,1.990557-2.595985,2.793951-1.464592,1.304781-3.245911,2.057877-5.11116,2.636082-2.020164.626222-4.022614,1.309614-6.04599,1.972404-.35173-.775536-.387482-.832733.419785-1.337276,1.339546-.837225,2.729118-1.594589,4.100197-2.381091.340828-.195513.691536-.37378,1.037712-.559974-.063057-.099632-.126106-.199261-.189163-.298891Z"/>
      <path class="cls-1" d="M17.342547,21.41459c-.09478.352072-.178032.661308-.244247.907253-2.210327.115055-4.370056.227476-6.529785.339895l-.021042.288877c.217094.047953.437241.148163.65081.135679,1.885925-.110235,3.770691-.240479,5.715126-.368723v1.152937c-2.749626.645859-5.424187,1.321651-8.121605,1.888754-1.47419.309933-2.988182.377531-4.46666-.075747-.376846-.115534-.732811-.299147-1.096985-.450903,1.609329-3.972807,8.878242-5.925825,14.114403-3.818026l-.000015.000002Z"/>
      <path class="cls-25" d="M6.130992,17.372308c2.934181-3.548061,9.143272-3.682816,13.148857.482115-.176918.258802-.355988.520756-.583534.853619-2.047943-.914801-4.141853-1.664034-6.446976-1.456446,2.124489.299383,4.198807.739124,6.067223,1.97637-.195107.388861-.370552.738537-.515182,1.026793-3.030762-.454176-6.020836-.864973-8.995247-1.368299-1.033943-.174961-1.968178-.683416-2.67514-1.514151Z"/>
      <path class="cls-26" d="M44.445277,4.110277c-.217255.581556-.348671,1.100474-.593193,1.55908-1.075661,2.017347-2.527748,3.719311-4.338799,5.124827-1.441841,1.118998-2.848251,2.283658-4.320915,3.468707-.174088-.126327-.382591-.27763-.663437-.48143.813095-1.081684,1.606514-2.137194,2.39994-3.192702-.059891-.051175-.119789-.102351-.17968-.153526-.436005.49738-.879585.988365-1.305923,1.493895-.448395.531671-.88028,1.077253-1.325478,1.624242-.356934-.14968-.670746-.281275-1.078636-.452319,1.834625-2.882335,3.317314-5.952204,6.301216-7.856647,1.529915-.976447,3.152069-1.40663,5.104904-1.134126ZM37.786601,9.684534c-.060295-.051638-.120598-.103277-.180901-.154915-.238533.271188-.477074.542376-.715607.813563.060722.052213.121437.104425.182152.156639.238121-.271762.476242-.543525.714355-.815288Z"/>
      <path class="cls-2" d="M16.268061,12.000335c1.671158,1.221169,3.266502,2.522302,4.449776,4.172737-.255867.314117-.49144.603321-.740456.909031-1.538734-1.451228-3.30542-2.336881-5.153069-3.098385-1.477577-.608976-2.8536-1.370999-3.82093-2.72062-.410217-.572338-.448357-.900612.272087-1.283148,3.124344-1.658938,6.286629-1.108534,8.543129,1.628437.86615,1.050588,1.602798,2.207952,2.446304,3.383339-.410759.333742-.734192.596525-1.127251.91588-1.441757-1.547379-2.7995-3.164485-4.766548-4.040105-.120682-.007312-.241333-.014855-.361984-.022398-.003571.029776-.007141.059554-.010712.089333.08989.021967.179771.043931.269653.065899Z"/>
      <path class="cls-21" d="M19.991771,82.532599c.363022.667259.642998,1.099174.835266,1.567116.110916.269943.166809.618805.100319.89698-1.176491,4.921829-1.860626,9.921593-2.403503,14.944466-.216026,1.998795-.427101,3.998123-.654785,6.131615-.444412-.069305-.859566-.102348-1.257088-.204193-.47908-.122749-.68129-.431412-.605911-.962555.78463-5.528603,1.538536-11.061607,2.336769-16.588219.233955-1.619858.554131-3.229263.900551-4.829224.069077-.319016.437721-.573166.748383-.955986Z"/>
      <path class="cls-18" d="M29.307826,52.779166c.181396.15929.362793.318573.544197.477856-1.7332.310837-2.629799,1.364662-2.776283,3.101517-.017075.202431-.125076.39719-.20179.628235-.565331-.276737-1.091187-.534149-1.461014-.715187,1.443703-7.40337,2.87429-14.739483,4.298233-22.041531.938644.811478,1.043892,1.027489.855164,2.25346-.661652,4.298-1.339005,8.593586-2.010216,12.890118-.012444.079666-.044357.163826-.030128.238857.06881.362736.150299.723064.227295,1.084251.311272-.158447.622551-.316891.933823-.475327.125275-.13464.250557-.269283.375839-.403927,0,0,.0019-.007057.001823-.007088.413292.179394.902924-.555546,1.276009.106396-.93988.898693-2.138107,1.545185-2.862015,2.86237h.829063Z"/>
      <path class="cls-6" d="M31.969226,12.720722c-.575394-.065475-1.101707-.125362-1.657478-.188603.435715-2.081726.64537-4.203732,1.344757-6.149732.936516-2.605838,2.845833-4.414125,5.848824-5.311212-.037277.8354.013809,1.493588-.110786,2.116642-.280548,1.40285-.802429,2.70372-1.64959,3.895143-1.304886,1.835157-2.511993,3.739833-3.775726,5.637763ZM31.239428,12.126706c.085777.034694.171547.069388.257324.104082.522972-1.282832,1.045944-2.565662,1.568909-3.848494-.085709-.034752-.171417-.069505-.257118-.104257-.523041,1.28289-1.046082,2.565779-1.569115,3.848668Z"/>
      <path class="cls-25" d="M29.391024,12.55037c-.576042.047616-.914673.075606-1.25351.103616v-5.417004c-.050323-.005684-.100662-.011369-.150986-.017054-.145912,1.823827-.291817,3.647654-.440498,5.506081-.333786.104466-.680016.212823-1.099052.343967-.551651-3.335947-1.01973-6.629831.512115-9.807468.272385-.565025.820953-.996908,1.242004-1.490268.467209.458738,1.096848.83948,1.363396,1.394575.395706.824088.79612,1.791045.7314,2.662807-.167664,2.258114-.588455,4.497435-.904854,6.720748h-.000015Z"/>
      <path class="cls-26" d="M23.229228,11.496731c.164108.593262.294411,1.198623.501282,1.776577.234077.653959.049576,1.015103-.859138,1.169389-1.008408-1.819378-2.191711-3.650084-3.041977-5.624229-.390671-.907058-.248604-2.109544-.127052-3.152296.116577-1.000096.818031-1.3299,1.782188-1.011765,1.941635.640666,2.920609,2.152662,3.316833,4.026471.320778,1.516987.425392,3.079682.634087,4.685167-.355354.142635-.66864.268383-1.092422.438486-.329636-.898797-.64724-1.764769-.964844-2.63075-.309898-.749747-.619789-1.499481-.92968-2.249215-.080437.033458-.160889.066915-.241325.100373.340683.823931.681366,1.647862,1.022049,2.471792Z"/>
      <path class="cls-16" d="M20.637461,38.934188c.193047.431995.43972.849503.561577,1.30072.091881.340221.070374.731117.013039,1.085503-.049507.306019-.220627.592369-.361481.946461-.96244-.824184-2.01358-1.558006-1.986259-3.025478.599617.010101,1.043518.218941,1.065186,1.078907.297447-.582378.502686-.984241.707939-1.386112Z"/>
      <path class="cls-17" d="M20.637461,38.934188c-.205246.401867-.410484.803726-.707932,1.386108-.021667-.859966-.465569-1.068806-1.065186-1.078907-.31295-.552654-.307007-1.00909.242775-1.462311.375923-.309902.626518-.771832.987579-1.235733.193779.853573.368271,1.622208.542763,2.390842Z"/>
      <path class="cls-19" d="M22.354914,85.596267c.521507.097862.931366.174767,1.58403.297256-.695641,1.151398-1.33506,2.209732-1.97448,3.268074-.099091-.044785-.198189-.089561-.297279-.134346.225533-1.125137.451057-2.25029.687729-3.430984Z"/>
      <path class="cls-24" d="M42.040026,32.975337c-1.226921.30901-1.698769-.038567-2.294609-1.690241,1.378822-.08242,2.161461.494083,2.294609,1.690241Z"/>
      <path class="cls-5" d="M13.400195,83.004493c.254654-.861969.960732-.874252,1.645836-.814125.638611.056061,1.268143.215492,1.901672.329414-1.123291.594917-2.298378.810768-3.547508.484711Z"/>
      <path class="cls-27" d="M32.19665,36.517703c1.56282.526714,1.846992,1.070328,1.117813,2.036289-1.12252-.385677-1.329765-.75034-1.117813-2.036289Z"/>
      <path class="cls-4" d="M48.353991,23.946637c-.238197.140673-.509132.430807-.707031.387466-.307358-.067305-.565002-.361631-.843727-.559721.218796-.167027.430878-.457569.658066-.469917.286079-.015547.584503.196249.877609.309958.005028.110737.010056.221474.015083.332214Z"/>
      <path class="cls-10" d="M23.229228,11.496729c-.340683-.823928-.681366-1.647861-1.022049-2.471791.080437-.033458.160889-.066915.241325-.100373.309891.749734.619789,1.499469.92968,2.249215-.049652.107658-.099312.215303-.148956.322949Z"/>
      <path class="cls-5" d="M12.382258,61.4583c-.029274.305977-.05854.611946-.104424,1.091602-.398193-.112377-.80249-.226471-1.206947-.340912.437012-.250458.874191-.500576,1.311371-.75069Z"/>
      <path class="cls-5" d="M16.29291,70.743254c-.283966.066444-.56794.132889-.852196.198692.283875-.06665.568031-.132675.852196-.198692Z"/>
      <path class="cls-9" d="M30.062953,49.817489c-.125282.134644-.250565.269287-.375839.403931.125282-.134647.250557-.269287.375839-.403931Z"/>
      <path class="cls-5" d="M12.885516,61.188182c-.171387.093929-.342773.187866-.514305.28167.171333-.093979.342819-.187828.514305-.28167Z"/>
      <path class="cls-23" d="M14.675853,71.067923c-.134857.03727-.269707.074539-.404778.111832.134789-.037262.269783-.074547.404778-.111832Z"/>
      <path class="cls-3" d="M29.307826,52.779166h-.829048c.723907-1.317184,1.922134-1.963676,2.862015-2.86237,2.771957-1.825027,5.850594-2.444809,9.124817-2.415478,1.808693.016193,3.581024-.303009,5.266388-1.016731.256805-.108757.559052-.110214.947578.012753-.190559.175232-.359459.385033-.575127.520199-1.634979,1.024704-3.458542,1.426498-5.352715,1.569035-1.392174.104767-2.802322.08432-4.175697.301495-2.853897.451283-5.221947,1.889977-7.268211,3.891098Z"/>
      <path class="cls-5" d="M13.531718,78.511557c.319183.143456.627174.201553.811676.3843.254471.252068.309967.572311-.159348.722084-.126198.040276-.255592.140068-.373138.125969-.519165-.062233-1.037758-.141769-1.547272-.256325-.064903-.014603-.129395-.38723-.102753-.399757.442848-.20826.900299-.385483,1.370834-.576271Z"/>
      <path class="cls-20" d="M16.489398,33.957625c-.102112.026936-.204224.053871-.306328.080814.050827-.072784.101646-.145576.152451-.218372.05127.045849.102577.091705.153877.137558Z"/>
      <path class="cls-20" d="M16.268061,12.000335c-.08989-.021967-.179771-.043931-.269653-.065898.003571-.029778.007141-.059557.010712-.089333.120644.007543.241295.015086.361984.022398-.034317.044123-.06868.088478-.103043.132833Z"/>
      <path class="cls-10" d="M31.239428,12.126706c.523041-1.282889,1.046082-2.565778,1.569115-3.848668.085709.034752.171417.069505.257118.104257-.522972,1.282831-1.045944,2.56566-1.568909,3.848494-.085777-.034694-.171555-.069388-.257324-.104082Z"/>
      <polygon class="cls-11" points="36.919032 9.797692 36.788371 10.360895 37.090251 10.617715 37.991374 9.644501 37.563342 9.450759 36.919032 9.797692"/>
    </g>
  </g>
</svg>