<?xml version="1.0" encoding="UTF-8"?>
<svg id="Layer_2" xmlns="http://www.w3.org/2000/svg" viewBox="0 0 120.664772 81.723963">
  <defs>
    <style>
      .cls-1 {
        fill: #597dbd;
      }

      .cls-2 {
        fill: #1c1a19;
      }

      .cls-3 {
        fill: #212121;
      }

      .cls-4 {
        fill: #f04943;
      }

      .cls-5 {
        fill: #fbd918;
      }

      .cls-6 {
        fill: #d9584d;
      }

      .cls-7 {
        fill: #ed443f;
      }
    </style>
  </defs>
  <g id="Layer_1-2" data-name="Layer_1">
    <g>
      <path class="cls-2" d="M116.553068,30.454508c3.876724,2.67746,3.337906,4.861786,1.624542,7.105103.290863.191925.593094.363312.864197.574646,2.127502,1.658722,2.20575,4.541718-.016693,6.247345-3.137726,2.408081-6.407562,4.644104-9.621674,6.952667-9.03923,6.492432-18.0811,12.981171-27.117249,19.477875-4.199524,3.019287-8.390488,6.050537-12.580902,9.082458-2.85585,2.066345-5.923874,2.358032-9.126892.997314-5.517929-2.344177-11.010696-4.747498-16.514404-7.125122-10.287819-4.444336-20.582764-8.872314-30.85881-13.343658-2.402527-1.04538-4.884415-2.011658-7.081497-3.405518-5.523903-3.504425-9.169838-13.263214-2.608505-20.604095,1.585091-1.773407,3.708717-3.118469,5.727318-4.443298,11.8918-7.80484,23.82653-15.544312,35.745155-23.30835,3.775894-2.459686,7.574753-4.885712,11.307953-7.408691,1.863358-1.259277,3.693237-1.641663,5.860077-.81488,5.783981,2.20697,11.608688,4.307129,17.414307,6.457581,10.876175,4.028656,21.699371,8.209137,32.650818,12.021454,4.265472,1.484863,6.322403,7.183441,4.645493,10.838104-.096848.21109-.190018.423889-.313171.699066h-.000061ZM73.71121,10.778391s.042816-.03067.042816-.03064c.105179-.067902.210373-.135773.315552-.203674.065384-.0466.130783-.093201.196182-.139801.268158-.184753.536346-.369507.804504-.554291.055496-.018097.097168-.052582.125061-.103485.18338-.122864.366776-.245728.550171-.368622.07576-.019928.131226-.064819.166367-.134674l.513336-.335083c.063736-.043732.127472-.087494.191223-.131195.288712-.110168.577423-.220306.866135-.330475-.110855-.144104-.221741-.288239-.332596-.432343-2.520523-.950897-5.035645-1.916718-7.569473-2.830658-.266937-.096283-.708054.02005-.960526.194092-3.642288,2.510437-7.256866,5.061035-10.896027,7.576019-11.725113,8.103149-23.454834,16.199707-35.190613,24.287354-1.630753,1.12381-3.101936,2.383453-4.06646,4.149841-.058632.12735-.117279.254669-.175919.381989l-.109489.336945-.098892.217072c-.041817.152863-.083626.305756-.125435.458649-.048569.152985-.097153.305969-.145721.458954-.027451.160706-.054916.321442-.082375.482178-.042702.234131-.085411.468292-.128136.702423.07811.74231-.249985,1.631989.741531,2.042969.044998.038544.096535.063812.154602.075806.247849.102661.495705.205322.743553.307983.211861.1073.423706.2146.635567.321899.336922.12085.67382.241699,1.010742.362549.153656.06723.307327.13443.460983.20166.882217.365265,1.764442.73056,2.64666,1.095825.042946.030792.090073.052399.141396.064819.829506.238922,1.659012.477875,2.48851.716827.045486-.163391.090996-.326813.136482-.490204.023788-.244293.047585-.488556.071365-.732849.052528-.294312.105072-.588623.157585-.882965.035378-.180145.070755-.360291.106155-.540405.04451-.120422.089005-.240845.133507-.361267.031883-.112305.063744-.224609.095589-.336945.037216-.079895.07444-.159821.111649-.239716.063477-.164062.126968-.328094.190445-.492157.04232-.026031.063309-.064178.062927-.11438.044754-.1138.089531-.22757.134293-.34137.065414-.034607.096985-.089172.094688-.163727.041245-.098724.082504-.197449.123749-.296204.07122-.033844.108337-.090179.111343-.169037l.164719-.314056c.04451-.021332.070251-.056641.077271-.105865-.011871-.058319.011353-.093414.069664-.105347l.153687-.207153c.064468-.097443.12896-.194885.19342-.292328l.051941-.069763c.001808-.070557.036484-.116058.104057-.136505.069878-.024933.112518-.0737.12796-.146271.496407-.500671.992821-1.001373,1.48922-1.502075.079948-.015686.131805-.062531.155586-.140594.008324-.06189.043709-.092041.10614-.090454.062927-.015686.105438-.053955.127556-.114777.027008-.073242.079353-.113861.157043-.121796l.043381-.030823c.192177-.146393.384338-.292755.576508-.439148.082405-.014282.137764-.06073.166061-.139374.014992-.063782.055237-.094513.12072-.092163.044441-.00943.075935-.034729.094513-.075928.189651-.131561.379333-.263153.568985-.394714.075806-.01474.128036-.057831.156723-.129333.027885-.069427.079224-.105377.153999-.10788l.03801-.025116c.210838-.148529.421677-.297058.632507-.445587.046616-.008728.079185-.034882.097664-.07843.183975-.131165.36795-.262299.551895-.393463.057335-.046448.114655-.092865.171982-.139282.014847-.063843.055038-.094543.120567-.092133.046959-.010956.080063-.038452.099274-.08252.181007-.12912.36203-.258209.543053-.387329.059654-.046265.119316-.092529.178978-.138794.026718-.066681.076004-.099731.147835-.099182,0,0,.046318-.030609.046318-.03064.10807-.069061.216156-.138123.324234-.207153.062721-.047577.12545-.095154.188179-.142731.015572-.062714.055527-.090973.119843-.084778.040878-.008728.070984-.031464.090324-.068237.094368-.060181.188713-.120392.283066-.180573.069389-.050629.138786-.101257.20816-.151917.012009-.059723.04808-.084717.108246-.074921.055107-.008789.093079-.039001.113907-.090576.082024-.052429.164055-.104828.246078-.157257.31691-.222351.633827-.444733.950729-.667114l.028984-.021729c1.160637-.575409,2.380234-1.058289,3.466858-1.749908,1.327469-.84494,2.561569-1.842346,3.792801-2.82782.259888-.208008.332489-.649841.491379-.983917.009872-.06134.045563-.087494.107056-.07843l.079239-.057556c.09729-.061279.194565-.122589.29184-.183868.224472-.154968.448944-.309967.673416-.464935.107224-.080414.214462-.160858.321701-.241272.070145-.011566.118729-.050232.145782-.116028.173813-.118347.347595-.236664.521408-.355011.065063-.049194.130157-.098389.195221-.147583.012817-.061127.050232-.087952.112259-.080536.046402-.012573.080399-.040192.102005-.082855.183136-.131104.366241-.262207.549377-.393341l.176208-.142792c.017548-.063629.059265-.093292.125168-.088928l.080246-.060028c.19928-.137665.39856-.275299.597839-.412964.057022-.009827.097046-.041199.120071-.094086.180817-.125946.361618-.251892.54245-.377838.06015-.047272.120316-.094513.180481-.141785.01564-.063049.055923-.092834.120819-.089294.041321-.010101.071457-.034088.090378-.071899.192978-.132446.385986-.264893.578949-.397339.065674-.012848.112503-.049591.140503-.110229.183014-.121704.366013-.243408.549011-.365143.078293-.011993.131531-.054749.159744-.128357.030045-.070343.083298-.107361.159714-.111053l.04007-.027588c.105423-.069946.210861-.139893.316299-.209808.064728-.049072.129471-.098145.194199-.147217.01413-.060852.052216-.087189.114182-.07901.04657-.008789.080124-.034424.100632-.076935.194687-.130737.389404-.261475.584091-.392212.061798-.011505.105576-.045807.131363-.102966.187531-.123352.375076-.246704.562592-.370087.06926-.010742.118073-.048187.146378-.112305.17601-.121277.35202-.242523.528046-.3638.06131-.048828.122604-.097626.183914-.146454.012543-.062012.050308-.090149.113327-.084473.052994-.010834.089447-.041351.10939-.091553.179245-.127472.358521-.254944.537766-.382385.06012-.045654.120224-.091339.180344-.136993.029144-.065186.079422-.096497.150787-.093933l.040375-.025177.335175-.212128c.06076-.047943.121506-.095886.182266-.143829.016861-.062683.057709-.091858.122482-.087524.041122-.00882.070816-.032043.089066-.069733.194519-.134033.389023-.268066.583527-.40213.063934-.009888.108368-.044617.133316-.104218.182434-.119629.364883-.239258.547333-.358887.214264-.151703.428497-.303406.642761-.455109l.029297-.022888c.067184-.053467.134354-.106934.201553-.1604.007294-.059296.040451-.084229.099457-.074768.061905-.011658.104691-.046692.128372-.105072.182281-.122375.364548-.244781.546844-.367157.080551-.011078.135529-.054413.164917-.129944.0271-.068695.077545-.104034.151398-.106049l.049988-.035004c.200394-.141876.400787-.283752.601196-.425659.059982-.012421.103333-.046082.130035-.100922l.5728-.372528c.062393-.011078.106766-.045288.133163-.102692.181595-.122253.36319-.244537.544785-.366791.079346-.013336.13623-.056366.170609-.129059.17276-.116425.34552-.23288.51828-.349274.063812-.048798.12764-.097595.191467-.146393.014542-.060913.052948-.08783.115189-.08075.044601-.010529.077286-.036072.098083-.07663.190857-.130371.381699-.260742.57254-.391113.069626-.0159.119461-.056213.149445-.120911.177338-.117096.354675-.234192.531998-.351318l.185303-.140869c.021408-.064789.066177-.09549.134338-.092102l.054703-.037506c.10405-.069397.208069-.138794.312088-.208191.066864-.052765.133728-.10556.200592-.158325.005753-.056763.036636-.079803.092697-.069061.061035-.014221.104126-.049927.129272-.107117.170166-.124207.340347-.248444.510513-.372681.070099-.05484.140198-.10968.210297-.16449l.077972-.058929c.070145-.017426.120026-.059052.149628-.124908.167511-.118591.335022-.237183.502533-.355743l.209473-.157196c.009628-.057587.043015-.080322.100143-.068176.052261-.011688.090454-.04126.114594-.088745.195816-.128967.391632-.257965.587448-.386932.056427-.00943.095856-.040314.118301-.092651.182861-.126038.365738-.252075.548599-.378143.082962-.012878.140991-.05777.174103-.134705.02417-.067017.071869-.10025.143127-.099731l.057098-.041016c.204132-.142639.408249-.285278.612381-.427887.05336-.011475.091156-.042053.113373-.091736.189056-.125458.378113-.250916.567184-.376343.06752-.012604.115738-.049927.144699-.112.182068-.120422.364136-.240845.546219-.361237.0802-.01416.136749-.058411.169678-.13269.027176-.068451.077606-.102905.151291-.103302l.040131-.02713c.208649-.145111.417313-.290253.625961-.435364.044205-.011963.078049-.037415.101578-.076416.192184-.132965.384384-.265961.576569-.398926.071533-.017273.122406-.059418.152649-.126404.02533-.070648.075516-.107605.150513-.110809h.000015l-.000076.000153ZM14.354155,51.487589c.629517.228394,1.607788.828735,1.82888.621521,1.018913-.954865,1.826828-2.134766,2.724106-3.251007-2.4599-1.058563-4.779724-2.071472-7.11216-3.054474-1.202545-.506805-2.312782-.161316-2.856361.8302-.46978.856903-.116753,1.960571.867989,2.713531,1.515854.713409,3.031693,1.426819,4.547562,2.140228h-.000015ZM114.334379,29.663554l.4897-.944702-.011139.006317c.990295-1.506378.241913-3.01181-.008514-4.514709-.235138-1.411224-1.025833-2.375793-2.374802-2.875031-2.570389-.951263-5.177246-1.817657-7.693817-2.894714-1.176193-.503387-2.030136-.385803-2.933121.407745-.551575.484741-1.156479.910278-1.748657,1.347198-8.286133,6.113831-16.585251,12.210144-24.858231,18.341736-6.417297,4.756226-12.812317,9.542725-19.19664,14.34314-2.193604,1.649384-3.348969,3.869385-3.428452,6.647369-.023605.825256.258148,1.353912,1.01445,1.638947,3.056351,1.151855,6.113678,2.301086,9.170654,3.451294.229202.044678.458389.089325.687592.134003,2.228485.47702,4.029572-.521423,5.720078-1.742462,14.538177-10.500763,29.06691-21.014587,43.578293-31.552307.632843-.459564,1.069641-1.188965,1.597763-1.792664l-.005142-.00119-.000015.000031ZM39.027991,62.075633c.582504.156189,1.47213.6297,1.694878.414215,1.020493-.987274,1.854301-2.167389,2.754776-3.277802-.048309-.071594-.07605-.165741-.133621-.19046-3.490898-1.499023-6.981865-2.998077-10.483376-4.472076-.210297-.088531-.610359-.074402-.746368.06427-.999512,1.01886-1.954185,2.081635-3.077209,3.297577,1.211189.482727,2.167725.863983,3.12426,1.245239,2.288887.973022,4.577797,1.946014,6.866684,2.919037h-.000023ZM108.863051,44.431315c-.313217.231415-.62645.46283-.939682.694244-.083954.067535-.167923.135071-.251892.202606-.270187.150879-.557327.277924-.80809.456146-5.451401,3.874481-10.90683,7.743347-16.344788,11.636658-6.445969,4.615021-12.906219,9.21106-19.30191,13.894958-3.778412,2.767151-7.7005,3.420166-12.010391,1.415039-1.240509-.577087-2.564621-.97168-3.827759-1.503601-3.231018-1.360779-3.499588-1.203247-4.101562,2.292664-.138168.802429.067871,1.206726.821701,1.52655,3.066086,1.300842,6.11293,2.647461,9.157806,3.997681,2.652374,1.176147,5.108383.833191,7.422501-.865051,1.547928-1.135925,3.108459-2.254761,4.668335-3.374268,13.595016-9.756836,27.193253-19.509186,40.783707-29.272339,1.367416-.98233,2.714157-1.997162,4.024872-3.053497.908966-.732544.668182-1.650513.04274-2.389191-.551086-.650879-1.212051-1.595978-2.244629-.869659-2.394989,1.68457-4.724182,3.462646-7.080032,5.20282l-.010925.008179h0v.000061ZM9.859198,43.69044c1.903793.440186,3.807594.880371,5.780602,1.336548.00103-.005402.063164-.219025.07962-.436066.251495-3.319122,1.667267-5.999115,4.383568-7.955261,1.589622-1.144775,3.186729-2.279785,4.798134-3.393585,12.344177-8.532379,24.69101-17.060883,37.041946-25.583435,1.594711-1.100403,3.217758-2.15979,5.066284-3.39798-2.115402-.735931-4.015076-1.322815-5.853333-2.062317-1.230499-.494995-2.213745-.298004-3.289566.409851-5.367554,3.531647-10.770905,7.008881-16.157814,10.5112-7.32486,4.762299-14.652809,9.519897-21.966553,14.299194-4.32843,2.828491-8.738136,5.549133-12.916313,8.586304-3.999977,2.907654-5.509842,7.037262-4.509834,11.919373,1.243294,6.069855,5.865303,8.598846,11.06826,10.373505.493172-1.448914.975616-2.866241,1.486809-4.368073-1.598061-.693085-3.282051-1.41864-4.961998-2.153442-1.757698-.768799-2.848434-2.055115-2.968796-4.016602-.121452-1.979492.91478-3.235016,2.649956-4.008789.089684-.020142.179344-.040283.269028-.060425ZM101.118834,16.947245c-2.817764-1.060486-5.44194-2.061707-8.08252-3.017761-.22728-.082306-.6147.062683-.84021.224213-1.878036,1.345184-3.731674,2.724365-5.599854,4.083405-8.647461,6.290771-17.300034,12.574554-25.945175,18.8685-5.066483,3.688538-10.098404,7.425049-15.193375,11.073669-2.535919,1.81601-3.473587,4.342712-3.586334,7.289459-.013153.343964.302155.871429.610031,1.026611,1.221161.61554,2.490921,1.139099,3.759674,1.654877,1.430191.58136,2.878693,1.117676,4.468597,1.731201.03299-4.055298,1.892776-6.917603,4.939651-9.169495,13.357132-9.872101,26.694595-19.770844,40.035492-29.664856,1.765045-1.309021,3.509064-2.646362,5.433975-4.099792h.000015l.000031-.000031ZM90.376265,13.165324c-.127014-.165375-.160446-.257416-.219696-.279144-3.420898-1.253906-6.838058-2.518738-10.276581-3.722626-.316071-.110657-.838928.071899-1.147888.287262-1.735123,1.209442-3.424423,2.484253-5.146942,3.712097-13.62468,9.711914-27.232132,19.448273-40.899063,29.100464-2.670647,1.886139-3.952728,4.31485-4.124413,7.497986-.03743.694214.164589.990509.744064,1.235352,2.418388,1.021912,4.820892,2.08136,7.239624,3.102448,1.06633.450134,2.157478.841492,3.413368,1.327637.069878-4.709473,2.624695-7.61911,6.121841-10.132141,13.365692-9.604523,26.645828-19.328033,39.959244-29.00528,1.440567-1.047119,2.889816-2.082336,4.336472-3.124115h-.000015l-.000015.000061ZM53.513167,68.3567c2.143646.869751,4.037842,1.509888,5.816101,2.385315,4.287369,2.110596,7.898987,1.112427,11.64888-1.620483,14.368896-10.472015,28.882904-20.744965,43.331665-31.107697.919373-.659363,1.800568-1.39447,2.597198-2.195953.77478-.77951.665955-1.811279-.12175-2.61438-1.147964-1.17038-1.578979-1.218201-2.674438-.403961-2.543625,1.890717-5.08963,3.778717-7.657333,5.636566-4.949387,3.581055-9.92157,7.130646-14.870682,10.712097-3.847412,2.78418-7.665176,5.609283-11.512665,8.393341-3.571732,2.584534-7.127213,5.194397-10.762756,7.686829-2.421188,1.659912-5.102386,2.142975-7.940048,1.068481-1.135086-.42981-2.254227-.905609-3.404129-1.290283-.36026-.120514-.953262-.18103-1.172867.020966-1.084793.997711-2.080078,2.092682-3.277206,3.329224h-.000015l.000046-.000061ZM41.149702,65.182017c-.387955,1.296661-.723244,2.482971-1.101166,3.655579-.224579.696838-.016197,1.069397.664062,1.354065,2.129227.890991,4.233841,1.840698,6.349106,2.765076.702408.306946,1.408188.606201,1.993988.858093.526581-1.57196,1.016754-3.035156,1.53186-4.572815-2.983551-1.283447-6.056915-2.60553-9.437851-4.059906v-.000092ZM26.118872,58.697306c-2.93161-1.265564-5.830467-2.536346-8.755524-3.743622-.238396-.098419-.856735.152466-.954933.385681-.392326.931641-.652382,1.919342-.954346,2.888489-.215797.692657.075638,1.058868.7285,1.342651,2.72802,1.18573,5.434204,2.42157,8.152969,3.628754.120941.05368.28653.006866.319687.006866.493019-1.518768.959473-2.955688,1.463654-4.50882h-.000008ZM42.292616,63.52479c3.208679,1.388184,6.112854,2.655365,9.032516,3.885803.216385.091187.649155.016266.803421-.148193,1.032074-1.100403,2.015854-2.246063,3.075058-3.444641-3.037918-1.238586-6.066833-2.484863-9.111877-3.69046-.212265-.084045-.629944.048523-.806107.225555-.958435.963135-1.871048,1.971832-2.993019,3.171936h.000008ZM30.396605,53.54658c-3.004219-1.250854-5.948639-2.482178-8.901245-3.693542-.187134-.076782-.532501-.091278-.644325.02243-.963188.979492-1.88961,1.995117-2.957809,3.140228,3.212975,1.413605,6.13385,2.710266,9.072876,3.964478.186401.079529.597618-.096771.761757-.280945.878944-.986206,1.712601-2.012695,2.668739-3.152618l.000008-.000031ZM39.409872,64.478861c-.03685-.030579-.114105-.128754-.215042-.17337-3.471245-1.534729-6.949333-3.054138-10.413597-4.60437-.615547-.275452-.99884-.126984-1.192772.464203-.315727.962463-.566277,1.946106-.869247,2.912994-.225975.721161.095398,1.042084.736458,1.322388,3.193298,1.39624,6.365997,2.839478,9.551285,4.25415.299767.133118.636742.182556.913483.258972.509888-1.51828.977257-2.909912,1.489418-4.434967h.000015Z"/>
      <path class="cls-4" d="M63.443419,64.752146c-.229202-.044678-.458389-.089325-.6875-.134003-.286285-.303802-.516373-.740662-.868347-.889526-2.049118-.86676-4.160797-1.591278-6.184357-2.511108-1.677444-.762512-2.348419-2.705688-1.82753-4.445709.60556-2.022858,2.187119-3.19162,3.741562-4.352203,3.905319-2.915771,7.875351-5.744843,11.788498-8.65036,5.818954-4.320587,11.601074-8.690796,17.417969-13.014191,5.12999-3.812836,10.3246-7.540405,15.396271-11.42865.941101-.721497,1.637283-.637634,2.518326-.299225,2.399567.921631,4.792877,1.859558,7.188751,2.790802,1.418762.551453,2.370178,1.526703,2.570053,3.065521.165298,1.272766.21492,2.560547.315765,3.841675,0,0,.011139-.006317.010757-.0065-.163345.31485-.32634.629883-.489319.944885,0,0,.005142.00119.004974.001007-.299316.14566-.630814.248627-.891586.445251-.808044.609253-1.566971,1.284607-2.384491,1.880066-3.966904,2.889435-7.945816,5.762329-11.92218,8.638763-3.410126,2.466827-6.828232,4.922699-10.232574,7.397491-5.199005,3.779419-10.361664,7.609558-15.595734,11.339661-2.308731,1.645325-4.720261,3.15625-7.158661,4.604431-.782349.46463-1.800491.532532-2.710724.781921h.000076ZM109.644606,26.90803c-.462219.274536-.810883.446503-1.120926.671692-1.55246,1.127594-3.076736,2.294739-4.643646,3.401642-11.357086,8.023132-22.721436,16.036041-34.085388,24.049438-1.408173.992981-2.820038,1.981171-4.24556,2.948914-.573273.38916-.897766.932404-.422195,1.451843.265961.290497.942963.317566,1.415054.269592.348419-.0354.675095-.369812.994293-.595276,12.891937-9.106598,25.781357-18.216705,38.672897-27.323822,1.311264-.926331,2.666138-1.795471,3.927261-2.784851.299316-.234833.453171-.871063.390457-1.279144-.046036-.299652-.554703-.528259-.882233-.810028h-.000015Z"/>
      <path class="cls-5" d="M101.118834,16.947245c-1.924911,1.453461-3.66893,2.790771-5.433975,4.099792-13.340912,9.894012-26.67836,19.792755-40.035492,29.664856-3.046875,2.251892-4.906647,5.114227-4.939651,9.169495-1.589905-.613525-3.038406-1.149811-4.468597-1.731201-1.268768-.515747-2.538513-1.039307-3.759674-1.654877-.307877-.155182-.623192-.682648-.610031-1.026611.11274-2.946747,1.050415-5.473419,3.586334-7.289459,5.094955-3.648621,10.126892-7.385132,15.193375-11.073669,8.645157-6.293945,17.297714-12.577728,25.945175-18.8685,1.868195-1.359039,3.721817-2.73819,5.599854-4.083405.22551-.16153.612915-.306519.84021-.224213,2.640564.956055,5.264755,1.957275,8.08252,3.017761h-.000015l-.000031.000031Z"/>
      <path class="cls-1" d="M47.527495,29.354685c-.107224.080414-.214462.160858-.321457.241119-.224411.154907-.44902.309998-.673645.465088-.097275.061279-.194565.122589-.29129.183258.000549-.00061-.067596-.015045-.067596-.015045l-.012207.073181c-.061493-.009033-.097168.01712-.106827.078278-2.583588,1.853821-5.167427,3.707825-7.751266,5.561829,0,0-.028984.021729-.028885.021637-.316872.222321-.63385.444763-.950829.667175-.082024.052429-.164055.104828-.245613.15683.000488-.000427-.088966.003418-.088966.003418l-.025414.087585c-.060158-.009796-.096245.015198-.107819.074677-.069252.050537-.138931.101349-.208595.15213-.094368.060181-.188713.120392-.282547.179993.000534-.00058-.074905-.009399-.074905-.009399l-.015961.078217c-.064331-.006226-.104286.022034-.119415.084503-.062599.047485-.125603.095245-.188614.143005-.108093.069061-.216164.138092-.323692.206604.000557-.000549-.045876-.027405-.045876-.027405l-.000984.058594c-.071831-.000549-.121109.032501-.147385.098907-.059509.046173-.119476.09259-.17942.139038-.18103.12912-.362045.258209-.542587.38681.000458-.000519-.081818.001007-.081818.001007l-.017929.082062c-.065529-.002411-.105721.02829-.12011.091827-.05719.046326-.114807.092957-.172447.139587-.18396.131165-.367928.262329-.551392.392914.000496-.000549-.079842-.001221-.079842-.001221l-.018333.0802c-.210838.148529-.421677.297058-.63205.445129.000481-.000458-.040047-.029663-.040047-.029663l.001579.055237c-.074791.002502-.126129.038452-.153549.107605-.052078.04303-.10463.086334-.157173.129639-.189651.131561-.379333.263123-.568489.394135.000496-.000549-.078133-.003082-.078133-.003082l-.016869.079559c-.065491-.00235-.105728.028351-.120277.091827-.055206.046356-.110855.093018-.166519.139679-.192177.146393-.384338.292755-.575996.438568.000519-.00058-.045715-.025879-.045715-.025879l.001823.057281c-.077675.007965-.130035.048553-.156532.121429.000496-.000397-.09803.01886-.09803.01886l-.030037.096283c-.062431-.001587-.097809.028564-.105705.090118-.05172.046753-.103867.093842-.156021.1409-.496407.500671-.992821,1.001373-1.488823,1.501648-.042511.048615-.085442.097656-.128365.146698-.067566.020447-.102249.065948-.103668.135956.000389-.00058-.06839.007416-.06839.007416l.01606.062927c-.064468.097443-.12896.194885-.193108.291992-.051132.068939-.102577.138214-.153999.207489-.058311.011902-.081535.047028-.069321.104797.000343-.000519-.082314.023865-.082314.023865l.004707.08252c-.054909.104675-.109818.209351-.164398.313568-.037018.056183-.074348.112854-.111664.169525-.041245.098724-.082504.197449-.123482.295685-.092033.021698-.123787.076599-.094963.164215-.044762.1138-.089539.22757-.134041.340759.000275-.00058-.07914.034729-.07914.034729l.015961.080261c-.063477.164062-.126968.328094-.190247.491913-.03714.079834-.074486.159912-.111832.23996-.03186.112305-.063721.224609-.095421.336304-.044456.120209-.089066.241058-.133675.361908-.0354.180145-.070778.36026-.106049.539948-.052498.294159-.105087.588806-.157684.883423-.023781.244293-.047569.488556-.071365.732758-.045486.163391-.090973.326843-.136482.490295-.829506-.238922-1.659012-.477875-2.488365-.716797.000145.000031-.050865-.084991-.050865-.084991l-.090675.020142c-.882217-.365265-1.764442-.73056-2.646614-1.095825-.153656-.06723-.307335-.13443-.461029-.20166-.336922-.12085-.67382-.241699-1.011208-.362091-.212006-.107147-.423553-.214752-.635094-.322357-.247849-.102661-.495705-.205322-.743385-.307953.000153.000031-.054176-.091064-.054176-.091064l-.100594.015228c-.991516-.41098-.663422-1.300659-.741531-2.042938.042702-.234131.085411-.468292.128136-.702484.027451-.160706.054916-.321442.082359-.482086.048592-.152954.09716-.305969.145737-.459015.041817-.152893.083626-.305756.125336-.458466.032936-.072296.065971-.144775.099007-.217255.036499-.112335.072998-.22464.109413-.336639.058624-.127228.117302-.254761.176003-.382324.964508-1.766388,2.435699-3.026031,4.06646-4.149841,11.735794-8.087677,23.465508-16.184204,35.19062-24.287354,3.63916-2.515015,7.253754-5.065582,10.896027-7.576019.252472-.174011.693573-.290375.960526-.194092,2.533844.91394,5.04895,1.879761,7.569473,2.830658.110855.144104.221741.288239.332596.432343-.288712.110168-.577423.220306-.865952.330353-.063675.043701-.127533.087524-.191391.131348-.171112.111694-.342224.223389-.513138.3349-.055389.04483-.110977.089844-.16658.134827-.18338.122864-.366776.245728-.54982.368225.000336-.000366-.093506.012726-.093506.012726l-.031891.091125c-.268158.184753-.536346.369537-.804291.554138-.065323.046539-.130859.093262-.196396.139954-.105179.067902-.210358.135773-.315018.203094.000534-.00058-.045181-.026917-.045181-.026917l.001816.058136c-.074997.003204-.125198.040131-.150085.110504-.050751.042023-.101898.084381-.153076.126709-.192184.132965-.384384.265961-.576096.398407.000458-.000519-.081085-.006073-.081085-.006073l-.020966.083008c-.208649.145111-.417313.290253-.625443.434845.000504-.000519-.042175-.02951-.042175-.02951l.001526.057159c-.073685.000427-.124115.034851-.150864.103058-.056427.044128-.113281.088562-.17012.132965-.182083.120422-.364151.240845-.545868.361023.000351-.000244-.104446.012878-.104446.012878,0,0-.040604.099365-.040604.099335-.189072.125458-.378128.250916-.566742.375916.000443-.000427-.088196.005402-.088196.005402l-.025604.086761c-.204132.142639-.408249.285278-.611771.427216.000595-.000671-.054581-.022095-.054581-.022095l-.003128.063782c-.071259-.000549-.118958.032715-.142685.099457-.057877.0448-.116211.089905-.174545.134979-.182861.126038-.365738.252075-.548126.377716.000473-.000427-.0896.005554-.0896.005554l-.02916.087524c-.195816.128967-.391632.257965-.58699.386475.000443-.000458-.087845.002502-.087845.002502l-.027206.086731c-.057129-.012146-.090515.01059-.099792.067963-.069717.052338-.139771.104858-.209824.157379-.167511.118591-.335022.237183-.502258.35553-.049774.041565-.099838.083344-.149902.125122,0,0-.077972.058929-.077637.058716-.069992.054749-.140305.109741-.210617.164734-.170151.124237-.340332.248444-.510132.372314.000381-.000336-.096741.013397-.096741.013397l-.032898.094055c-.056046-.010742-.08696.012299-.092331.068817-.066742.052704-.13385.105621-.200958.158569-.104019.069397-.208054.138794-.311447.20755.000626-.000671-.050613-.024323-.050613-.024323l-.00473.0625c-.068161-.003387-.11293.027313-.133957.091888-.061646.046875-.123657.093994-.185684.141113-.177322.117096-.35466.234222-.531708.351074-.093063-.015198-.143066.025269-.149734.121155-.190826.130371-.381683.260742-.572052.390564.000504-.000549-.078964-.002686-.078964-.002686l-.019592.079895c-.062241-.00708-.100632.019836-.114761.080505-.06369.048706-.127792.097687-.191879.146637-.172775.116425-.345535.23288-.518021.349091-.056778.042938-.113831.08609-.170883.129272-.181595.122284-.36319.244537-.544403.366516.000397-.000305-.098038.008636-.098038.008636l-.035507.09433c-.190933.124176-.381866.248352-.572403.372192.000381-.000305-.096573.008057-.096573.008057l-.033859.09317c-.200394.141876-.400787.283752-.600616.425018.000595-.000641-.050018-.024902-.050018-.024902l-.000549.060547c-.073853.002014-.124298.037354-.150909.105743-.054825.043213-.110107.086731-.165405.130249-.182281.122406-.364548.244781-.546463.366882.000381-.000275-.098206.010071-.098206.010071l-.030533.095276c-.059006-.00946-.092163.015442-.099045.074493-.067032.053375-.134491.107025-.201965.160645,0,0-.029297.022888-.02919.022797-.214218.151672-.428528.303436-.642853.45517-.182434.119629-.364883.239258-.546921.358612.000427-.000275-.098511.009521-.098511.009521l-.035217.095001c-.194489.134033-.389008.268097-.582993.40152.000519-.00061-.074371-.006226-.074371-.006226l-.015228.076538c-.064789-.004333-.105621.024872-.12207.08728-.060623.047852-.121643.095978-.182678.144073-.111725.070709-.22345.141418-.334686.21167.000488-.000458-.040115-.029999-.040115-.029999l-.000763.055664c-.071381-.002594-.121643.028717-.150345.093658-.059952.045593-.120377.0914-.180786.137238-.17926.127472-.358521.254944-.537323.381989.000427-.000397-.087891.005188-.087891.005188l-.021942.086761c-.063019-.005707-.1008.022461-.1129.084198-.061157.048737-.122757.097717-.184357.146729-.17601.121246-.352036.242523-.527679.363525.000351-.000244-.105682.012665-.105682.012665l-.041046.099915c-.187531.123352-.375076.246704-.562225.369781.000381-.000275-.097824.00885-.097824.00885l-.033905.094391c-.194687.130737-.389404.261475-.583588.391693.000519-.000519-.080673-.004059-.080673-.004059l-.020447.081512c-.061981-.008179-.100037.018158-.11377.078766-.06459.048981-.129608.098206-.194611.147461-.105423.069946-.210861.139893-.315826.20932.000473-.000488-.043579-.028229-.043579-.028229l.003036.056335c-.076431.003693-.129669.04071-.15921.110748-.053085.042694-.106659.085663-.160248.128662-.182999.121704-.366013.243439-.548691.364899.000351-.000244-.102676.012238-.102676.012238l-.038147.098267c-.192978.132446-.385971.264893-.57843.396759.000519-.00061-.075241-.004913-.075241-.004913l-.01564.077423c-.064896-.00351-.105179.026245-.120407.08902-.060028.04715-.120468.094604-.180893.142059-.180817.125946-.361618.251892-.541977.377441.000443-.000397-.091309.005493-.091309.005493l-.029221.088989c-.19928.137665-.39856.275299-.597275.412354.000549-.00061-.068634-.012604-.068634-.012604l-.012177.073242c-.065887-.004364-.10762.025269-.124756.088684-.058594.047516-.117599.095276-.176605.143036-.183136.131104-.366241.262207-.54892.392792.000458-.000519-.082657.000153-.082657.000153l-.019791.083221c-.062012-.007416-.099426.01944-.111862.080322-.064957.049103-.13028.09845-.195618.147797-.173813.118317-.347595.236664-.521042.354736-.092316-.018066-.141144.020782-.146133.116272h-.000092Z"/>
      <path class="cls-4" d="M9.859198,43.69044c-.089684.020142-.179344.040283-.268585.060242-.373962-.023346-.809586-.1828-1.112518-.046783-1.561485.700928-2.468109,3.079651-2.029594,4.816101.664604,2.631775,2.747932,3.657471,4.959755,4.550476,2.549004,1.029144,2.543655,1.006866,1.95507,3.572021-.136879.596588-.391548.82547-.980408.589417-.724854-.290558-1.457664-.562531-2.174377-.871826-2.514114-1.084991-4.892868-2.365479-5.906662-5.137573-.557343-1.523987-1.107452-3.082611-1.376411-4.673676-.642166-3.798676.587128-7.015594,3.544273-9.481018,1.157722-.96521,2.497826-1.712341,3.758057-2.554047,3.114723-2.080322,6.221596-4.172546,9.349594-6.232727,3.583679-2.360291,7.186859-4.69101,10.781357-7.034912,3.593102-2.342987,7.181198-4.693695,10.780159-7.027649,4.159691-2.697601,8.321495-5.392181,12.497826-8.063904,1.544846-.988281,3.065475-2.05481,4.719482-2.822052,2.104431-.976166,4.010773.373322,5.960464.941345.088196.025696.151535.76062.007385.86618-2.266754,1.659515-4.556808,3.288208-6.867218,4.886871-2.885376,1.99649-5.806335,3.94162-8.689423,5.941345-2.565475,1.779419-5.081924,3.629669-7.653389,5.400238-2.987808,2.05722-6.032143,4.032532-9.01532,6.096283-3.786751,2.61969-7.458397,5.414185-11.327629,7.903442-3.018829,1.942169-4.95237,4.458679-5.515884,7.99115-.13903.871521-.507622.90451-1.209251.606781-.823128-.349304-1.670555-.669434-2.537285-.878571-.616318-.148712-1.365623-.314148-1.64946.602844h-.000008Z"/>
      <path class="cls-4" d="M107.671507,45.328166c.083954-.067535.167938-.135071.251846-.202545.313202-.231384.62645-.46286.939713-.694305,0,0,.010925-.008179.010834-.008118.404373-.12439.863846-.164673,1.204132-.387207,1.925308-1.258972,3.892334-2.471497,5.702805-3.882355,1.133331-.883148,1.440979.104919,1.957001.59082.643265.605713.225479,1.149902-.304535,1.566895-.980316.77124-1.969742,1.5336-2.988556,2.252716-3.342148,2.359039-6.71965,4.668457-10.046066,7.049347-5.864029,4.197235-11.702484,8.430267-17.547791,12.653625-5.749573,4.154175-11.515717,8.28595-17.231201,12.486511-2.434814,1.78949-4.900757,3.085266-7.988235,1.759155-2.939453-1.262573-5.875046-2.534485-8.826965-3.767273-.757141-.316223-.997482-.835876-.855164-1.572021.118073-.610718.22789-1.244568.492874-1.795349.116455-.242065.693588-.507507.918091-.414856,2.231812.920837,4.422989,1.939514,6.646408,2.88147,3.093918,1.310791,6.173309,1.374695,9.067657-.493835,2.159775-1.394287,4.211807-2.954956,6.31871-4.431763,4.597412-3.222473,9.214905-6.416565,13.794983-9.663422,5.184784-3.675568,10.356598-7.370178,15.489166-11.11795,1.097076-.801086,2.001236-1.86618,2.994263-2.809631h.000015l.000015.000092Z"/>
      <path class="cls-4" d="M9.859198,43.69044c.283836-.916962,1.033142-.751526,1.64946-.602844.866737.209137,1.714165.529266,2.537285.878571.70163.297729,1.070213.264771,1.209251-.606781.563515-3.532501,2.497055-6.048981,5.515884-7.99115,3.869232-2.489258,7.540871-5.283783,11.327629-7.903442,2.983177-2.063751,6.027512-4.039093,9.01532-6.096313,2.571457-1.770569,5.087921-3.620819,7.653397-5.400238,2.883087-1.999725,5.804047-3.944855,8.689423-5.941345,2.310394-1.598663,4.600464-3.227386,6.867218-4.886871.144165-.10553.080811-.840485-.007385-.86618-1.949692-.568024-3.856033-1.917511-5.960464-.941345-1.654007.767242-3.174637,1.83374-4.719482,2.822052-4.176331,2.671722-8.338135,5.366302-12.497818,8.063904-3.598961,2.333954-7.187057,4.684662-10.780159,7.027649-3.594498,2.343903-7.19767,4.674591-10.781357,7.034912-3.128006,2.060181-6.234879,4.152405-9.349602,6.232727-1.260223.841705-2.600334,1.588806-3.758057,2.554047-2.957153,2.465454-4.18644,5.682343-3.544273,9.481018.268959,1.591064.819061,3.149689,1.376411,4.673676,1.013786,2.772095,3.392548,4.052582,5.906662,5.137573.716721.309296,1.449539.581268,2.174377.871826.58886.236053.843529.007202.980408-.589417.588585-2.565155.593933-2.542877-1.95507-3.572021-2.211807-.893005-4.295151-1.918701-4.959755-4.550476-.438515-1.73645.468109-4.115173,2.029594-4.816101.302933-.135986.738556.023438,1.112518.046783-1.735626.773956-2.771858,2.02948-2.650406,4.009003.120369,1.961487,1.211105,3.247803,2.968788,4.016602,1.679955.734802,3.363945,1.460327,4.961998,2.153442-.511192,1.501862-.993629,2.919159-1.486809,4.368073-5.202957-1.774628-9.824966-4.30365-11.06826-10.373505-1.000008-4.882111.509865-9.011719,4.509834-11.919373,4.178177-3.037201,8.587868-5.757812,12.916313-8.586304,7.313744-4.779297,14.641693-9.536896,21.966553-14.299194,5.386909-3.502319,10.79026-6.979553,16.157814-10.5112,1.075821-.707855,2.059067-.904846,3.289566-.409851,1.838242.739471,3.73793,1.326385,5.853333,2.062317-1.848526,1.23819-3.471558,2.297577-5.066284,3.39798-12.350937,8.522552-24.697769,17.051086-37.041954,25.583435-1.611404,1.1138-3.208511,2.24881-4.798134,3.393585-2.716301,1.956146-4.132072,4.636139-4.383568,7.955261-.016457.217041-.07859.430664-.07962.436066-1.973007-.456177-3.876793-.896362-5.780602-1.336548h.000023Z"/>
      <path class="cls-4" d="M90.376265,13.165324c-1.446625,1.041748-2.895874,2.076965-4.336456,3.124115-13.313416,9.677246-26.593552,19.400757-39.959244,29.00528-3.497139,2.513031-6.051956,5.422668-6.121834,10.132141-1.25589-.486176-2.347046-.877502-3.413368-1.327637-2.418732-1.021088-4.821236-2.080536-7.239624-3.102448-.579475-.244873-.781487-.541138-.744064-1.235352.1717-3.183136,1.453766-5.611847,4.124413-7.497986,13.666924-9.652191,27.274376-19.38855,40.899055-29.100464,1.722519-1.227844,3.411819-2.502655,5.146942-3.712097.308975-.215363.831818-.397919,1.147888-.287262,3.438507,1.203888,6.855682,2.468719,10.276581,3.722626.05925.021729.092682.113739.219696.279144h.000015v-.000061ZM39.341894,54.343028c.370468-3.00827,1.439384-5.456665,3.557915-7.292419,1.675537-1.451843,3.50209-2.734833,5.302322-4.036499,4.23381-3.061279,8.502304-6.074615,12.737518-9.133972,4.611404-3.331085,9.207153-6.68399,13.798492-10.042725,4.154892-3.03949,8.298111-6.094971,12.4366-9.156769.511932-.378754.962936-.839783,1.615753-1.415863-2.497986-.948578-4.832413-1.718109-7.06369-2.717743-1.933655-.866272-3.337143-.098602-4.797485,1.004425-1.804886,1.363251-3.662567,2.657013-5.50618,3.968536-4.166122,2.963745-8.350876,5.901489-12.503418,8.884125-4.626221,3.322876-9.207733,6.708069-13.841156,10.020752-4.093323,2.926544-8.275589,5.730347-12.330933,8.707642-2.052734,1.50705-3.39299,3.546082-3.409714,6.253052-.00425.688171.226471,1.079407.861938,1.344543,2.631615,1.098083,5.245522,2.238495,7.876068,3.339142.370598.15509.797195.176392,1.265968.273773Z"/>
      <path class="cls-4" d="M53.513167,68.3567c1.197128-1.236542,2.192413-2.331543,3.277206-3.329254.219604-.201996.812607-.141479,1.172867-.020966,1.149887.384674,2.269028.860443,3.404129,1.290283,2.837662,1.074524,5.51886.591431,7.940048-1.068481,3.635529-2.492432,7.191025-5.102295,10.762756-7.686829,3.847488-2.784058,7.665268-5.609161,11.512665-8.393341,4.949112-3.581451,9.92131-7.131012,14.870682-10.712097,2.567703-1.857819,5.113708-3.745819,7.657333-5.636566,1.095444-.81424,1.526474-.766418,2.674438.403961.78772.803101.896545,1.834869.12175,2.61438-.796661.801483-1.677826,1.536591-2.597198,2.195953-14.448761,10.362732-28.962753,20.635681-43.331665,31.107727-3.749893,2.73291-7.361511,3.73114-11.64888,1.620483-1.778275-.875427-3.67244-1.515564-5.816101-2.385315h0l-.000031.000061ZM64.323942,71.566721c.8797-.226746,1.645493-.254761,2.217102-.602112,1.988083-1.20813,3.946777-2.473267,5.84816-3.813782,5.739136-4.046295,11.446045-8.138275,17.165512-12.212402,4.605301-3.280487,9.210526-6.561035,13.815903-9.841431,3.204498-2.282562,6.426743-4.540802,9.604477-6.860016,1.162949-.848755,2.258041-1.802551,3.299423-2.797058.256897-.245331.316345-.873291.212921-1.256989-.06752-.250397-.615891-.559875-.907852-.522491-.635284.081329-1.334305.236694-1.849915.59079-4.148346,2.848785-8.293106,5.705109-12.374298,8.648712-4.554108,3.284729-9.012817,6.701538-13.563049,9.99173-5.689621,4.114105-11.511414,8.049896-17.120026,12.270081-3.694366,2.779846-7.433624,2.872742-11.447708,1.121674-1.979187-.863403-2.313324-.800629-3.589859.919434-.485977.654816-.430176,1.121246.375198,1.443207,1.226791.490479,2.421463,1.069336,3.667892,1.500549,1.578552.546082,3.195312.981873,4.646103,1.420044h.000015v.000061Z"/>
      <path class="cls-4" d="M107.671507,45.328166c-.993027.943451-1.897186,2.008575-2.994263,2.809631-5.132568,3.747772-10.304382,7.442413-15.489166,11.11795-4.580078,3.246887-9.197571,6.440948-13.794983,9.663452-2.106888,1.476807-4.15892,3.037476-6.31871,4.431763-2.894348,1.868469-5.973724,1.804626-9.067657.493835-2.223434-.941956-4.414612-1.960632-6.646408-2.88147-.224503-.092651-.801636.172791-.918091.414856-.264984.550781-.374802,1.184631-.492874,1.795349-.142319.736145.098022,1.255798.855164,1.572021,2.95192,1.232788,5.887527,2.5047,8.826965,3.767273,3.087479,1.326111,5.553406.030334,7.988235-1.759155,5.715485-4.200562,11.481628-8.332336,17.231201-12.486511,5.845306-4.223328,11.683762-8.45639,17.547791-12.653625,3.326385-2.38089,6.703888-4.690308,10.046066-7.049347,1.018814-.719116,2.008255-1.481476,2.988556-2.252716.530029-.416992.9478-.961182.304535-1.566895-.516037-.485901-.823669-1.473999-1.957001-.59082-1.810501,1.410828-3.777496,2.623352-5.702805,3.882355-.340271.222504-.799774.262817-1.204132.387177,2.355927-1.740234,4.68512-3.51828,7.080124-5.20285,1.032578-.726318,1.693542.218781,2.244629.869659.625443.738678.866211,1.656647-.04274,2.389191-1.310699,1.056335-2.65744,2.071136-4.024872,3.053497-13.590469,9.763153-27.18869,19.515503-40.783707,29.272339-1.559875,1.119507-3.120407,2.238342-4.668335,3.374268-2.314117,1.698242-4.770142,2.041199-7.422501.865051-3.044861-1.35022-6.091705-2.696838-9.157806-3.997681-.75383-.319824-.959854-.724182-.821701-1.52655.601974-3.495911.870544-3.653442,4.101562-2.292664,1.263138.531982,2.58725.926514,3.827759,1.503601,4.309891,2.005127,8.231979,1.352112,12.010391-1.415039,6.395691-4.683899,12.855942-9.279968,19.30191-13.894958,5.437958-3.893311,10.893387-7.762177,16.344788-11.636658.250748-.178223.537888-.305267.80809-.456146l-.000015-.000031v-.000153Z"/>
      <path class="cls-4" d="M114.812941,28.725169c-.100876-1.281128-.150467-2.568909-.315765-3.841675-.199875-1.538818-1.151291-2.514069-2.570053-3.065521-2.395889-.931244-4.789215-1.869141-7.188751-2.790802-.881042-.338409-1.577225-.422272-2.518326.299225-5.071686,3.888245-10.266281,7.615814-15.396271,11.42865-5.81691,4.323395-11.599014,8.693604-17.417969,13.014191-3.913132,2.905518-7.883179,5.734558-11.788498,8.65036-1.554443,1.160553-3.136017,2.329346-3.741562,4.352203-.520889,1.740021.150085,3.683197,1.82753,4.445709,2.02356.91983,4.135223,1.644348,6.184357,2.511108.351974.148895.582062.585724.868347.889526-3.057053-1.150208-6.11438-2.299438-9.170746-3.451294-.756287-.285034-1.038055-.81369-1.01445-1.638947.079468-2.778015,1.234848-4.998016,3.428452-6.647369,6.384323-4.800415,12.779343-9.586884,19.19664-14.34314,8.272964-6.131592,16.572098-12.227875,24.858231-18.341736.592178-.43692,1.197083-.862457,1.748657-1.347198.902985-.793549,1.756912-.911133,2.933121-.407745,2.516586,1.077057,5.123428,1.943451,7.693817,2.894714,1.348969.499237,2.139664,1.463776,2.374802,2.875031.250427,1.502899.998795,3.008362.008514,4.514709h-.000076Z"/>
      <path class="cls-5" d="M41.149702,65.182017c3.380936,1.454376,6.454315,2.776489,9.437851,4.059937-.515106,1.537659-1.005264,3.000854-1.53186,4.572815-.5858-.251831-1.29158-.551086-1.993988-.858032-2.115265-.924377-4.219879-1.874084-6.349106-2.765076-.680267-.284668-.888641-.657166-.664062-1.354065.377922-1.172577.713203-2.358917,1.101166-3.655548v-.000031Z"/>
      <path class="cls-1" d="M26.118872,58.697306c-.504173,1.553131-.970634,2.990051-1.463654,4.50882-.033157,0-.198746.046814-.319687-.006866-2.718765-1.207184-5.42495-2.443054-8.152962-3.628754-.65287-.283783-.944313-.649963-.7285-1.342651.301964-.969147.562027-1.956848.954346-2.888489.098198-.233185.716553-.48407.954933-.385681,2.925064,1.207275,5.823921,2.478058,8.755524,3.743622,0,0,.000008,0,0,0Z"/>
      <path class="cls-1" d="M42.292616,63.52479c1.121979-1.200073,2.034576-2.208801,2.993027-3.171936.176163-.177032.593842-.309601.806107-.225555,3.045029,1.205597,6.073959,2.451874,9.111877,3.69046-1.059204,1.198578-2.042999,2.344238-3.075058,3.444641-.154266.164459-.587021.23941-.803421.148193-2.919678-1.230438-5.823837-2.49762-9.032516-3.885803h-.000015Z"/>
      <path class="cls-5" d="M30.396605,53.54658c-.956139,1.139923-1.789803,2.166443-2.668739,3.152618-.164146.184174-.575371.360474-.761757.280945-2.939026-1.254211-5.859909-2.550873-9.072876-3.964478,1.068199-1.145111,1.994614-2.160736,2.957809-3.140228.111824-.113708.457199-.099213.644325-.02243,2.952621,1.211395,5.897026,2.442688,8.901245,3.693542l-.000008.000031Z"/>
      <path class="cls-4" d="M39.027991,62.075633c-2.288887-.973022-4.577797-1.946045-6.866341-2.918823-.565094-.542847-1.130531-1.085876-1.879517-1.805237.521202-.465149,1.064072-1.107422,1.749176-1.504364.439018-.254364,1.165283-.347321,1.629646-.16803,2.475548.955841,4.914658,2.007507,7.352364,3.058533.470894.203033.87941.550598,1.346672.850769-.964409,1.250061-1.580711,2.641846-3.332008,2.487213l.000008-.000061Z"/>
      <path class="cls-4" d="M63.443419,64.752146c.910263-.24942,1.928391-.317291,2.710724-.781921,2.4384-1.448181,4.84993-2.959106,7.158661-4.604431,5.234085-3.730072,10.396744-7.560211,15.595734-11.339661,3.404343-2.474792,6.822433-4.930634,10.232574-7.397491,3.976349-2.876434,7.955276-5.749329,11.92218-8.638763.81752-.595459,1.576447-1.270813,2.384491-1.880066.260773-.196625.592255-.299591.891586-.445251-.527969.603882-.964737,1.333282-1.59758,1.792816-14.511383,10.53772-29.040131,21.051514-43.578293,31.552277-1.690506,1.221039-3.491592,2.219482-5.720078,1.742462v.000031Z"/>
      <path class="cls-4" d="M14.354155,51.487589c-1.515854-.713409-3.031693-1.426819-4.547256-2.140045-.069878-.53363-.214989-1.070465-.193863-1.600677.037971-.95401.766945-1.640015,1.4701-1.364624,1.986977.778198,3.947655,1.623962,5.913086,2.45636.681877.288788.684441.662079.244904,1.262207-.736046,1.004974-1.681984,1.429413-2.886971,1.38678Z"/>
      <path class="cls-4" d="M39.409872,64.478861c-.512161,1.525055-.97953,2.916687-1.489418,4.434967-.276741-.076416-.613716-.125854-.913483-.258972-3.185287-1.414703-6.357986-2.857941-9.551285-4.25415-.641075-.280304-.962433-.601227-.736458-1.322388.302979-.966888.553528-1.950531.869247-2.912994.193924-.591156.577225-.739624,1.192772-.464203,3.464272,1.550232,6.942352,3.069641,10.413605,4.60437.100937.044617.178185.142792.215042.17337h-.000023ZM27.482283,63.374339c.134972.13089.385193.537506.74485.696198,2.745262,1.211304,5.507065,2.385834,8.279045,3.534851.287392.119141.909035.108917.976524-.032135.343292-.717377.714996-1.49118.746025-2.258606.015694-.388123-.591415-.980865-1.048027-1.178619-2.394287-1.037079-4.818954-2.007538-7.256516-2.93988-1.444069-.552338-2.496643.279175-2.441925,2.178162h.000008l.000015.000031Z"/>
      <path class="cls-4" d="M39.027991,62.075633c1.751289.154633,2.367584-1.237152,3.332008-2.487213-.467262-.30014-.875778-.647736-1.346672-.850769-2.437698-1.050995-4.876823-2.102692-7.352364-3.058533-.464355-.179291-1.190628-.086304-1.629646.16803-.685104.396942-1.227966,1.039215-1.749176,1.504364.749001.71936,1.314423,1.262421,1.879524,1.805237-.956886-.381439-1.913414-.762695-3.124603-1.245422,1.123024-1.215942,2.077705-2.278717,3.077209-3.297577.136009-.138672.536072-.152771.746368-.06427,3.501511,1.473999,6.992477,2.973022,10.483383,4.472076.057587.024719.085327.118866.133621.19046-.900459,1.110413-1.734268,2.290527-2.754776,3.277802-.222733.215485-1.112373-.258026-1.694878-.414215v.000031Z"/>
      <path class="cls-4" d="M14.354155,51.487589c1.204987.042633,2.150925-.381836,2.886971-1.38678.439529-.600128.436966-.973389-.244904-1.262207-1.965424-.832397-3.926102-1.678162-5.913086-2.45636-.703148-.27536-1.432114.410614-1.4701,1.364624-.021118.530212.123985,1.067047.193863,1.600677-.985023-.753143-1.338074-1.856812-.868286-2.713715.543587-.991516,1.653831-1.337006,2.856361-.8302,2.33242.983032,4.65226,1.995941,7.11216,3.054474-.897278,1.116241-1.705185,2.296143-2.724106,3.251007-.221092.207184-1.199364-.393127-1.82888-.621521h.000008Z"/>
      <path class="cls-3" d="M38.303213,35.942423c2.583839-1.853973,5.167671-3.707977,7.751259-5.561829-.159119.334259-.23172.776093-.491608.98407-1.231232.985474-2.465332,1.98288-3.792801,2.82782-1.086617.69165-2.306221,1.1745-3.46685,1.749939Z"/>
      <path class="cls-6" d="M108.863051,44.431315c-.313263.231445-.626526.462891-.939713.694305.313263-.231445.626495-.46286.939713-.694305Z"/>
      <path class="cls-3" d="M37.323492,36.631236c.316994-.222412.633957-.444824.950829-.667175-.317001.222443-.633911.444824-.950829.667175Z"/>
      <path class="cls-3" d="M17.72901,43.726573c-.042709.234161-.085434.468353-.128136.702484.042709-.234192.085434-.468323.128136-.702484Z"/>
      <path class="cls-6" d="M114.334379,29.663554c.162994-.315033.325974-.630035.489319-.944885-.162857.315063-.326096.629974-.489319.944885Z"/>
      <path class="cls-3" d="M46.532393,30.060893c.224625-.15509.449249-.310181.673645-.465088-.224716.155151-.449158.31012-.673645.465088Z"/>
      <path class="cls-3" d="M58.802016,21.366282c.214325-.151733.428635-.303497.642853-.45517-.214355.151764-.428619.303467-.642853.45517Z"/>
      <path class="cls-3" d="M26.832251,48.396311c.052597-.294617.105186-.589264.157684-.883423-.052612.2948-.105141.589111-.157684.883423Z"/>
      <path class="cls-3" d="M26.624403,49.619364c.045494-.163452.090996-.326904.136482-.490295-.045486.163483-.090996.326874-.136482.490295Z"/>
      <path class="cls-3" d="M20.886862,47.540202c.153687.06723.307373.13446.461029.20166-.153702-.06723-.307373-.13446-.461029-.20166Z"/>
      <path class="cls-3" d="M19.240553,46.855753c.21154.107605.423096.21521.635094.322357-.21138-.107758-.423241-.215057-.635094-.322357Z"/>
      <path class="cls-3" d="M17.957106,42.785441c-.048569.153015-.097153.306061-.145737.459015.048592-.153046.09716-.30603.145737-.459015Z"/>
      <path class="cls-3" d="M18.466841,41.390788c-.058693.127533-.117378.255096-.176003.382324.058723-.127655.117355-.254974.176003-.382324Z"/>
      <path class="cls-3" d="M27.095976,46.972941c.044609-.12085.089218-.241699.133675-.361908-.044662.121063-.089165.241486-.133675.361908Z"/>
      <path class="cls-2" d="M109.644606,26.90803c.327515.281769.836182.510406.882233.810028.062698.408081-.091125,1.044342-.390457,1.279144-1.261108.98938-2.615982,1.858551-3.927261,2.784851-12.891541,9.107147-25.780975,18.217224-38.672897,27.323822-.319199.225464-.645874.559875-.994293.595276-.472076.047974-1.149078.020905-1.415054-.269592-.475555-.51947-.151062-1.062683.422195-1.451843,1.425522-.967743,2.837387-1.955933,4.24556-2.948914,11.363953-8.013428,22.728302-16.026306,34.085388-24.049438,1.56691-1.106934,3.091156-2.274048,4.643646-3.401642.310043-.225189.658707-.397156,1.120926-.671692h.000015Z"/>
      <path class="cls-4" d="M39.341894,54.343028c-.468773-.097382-.895363-.118713-1.265961-.273773-2.630547-1.100677-5.244461-2.241089-7.876068-3.339142-.635468-.265137-.866196-.656372-.861938-1.344543.016724-2.70697,1.356979-4.746033,3.409714-6.253052,4.055351-2.977295,8.237625-5.781097,12.33094-8.707642,4.633438-3.312683,9.21492-6.697906,13.841156-10.020752,4.152542-2.982635,8.337296-5.92041,12.503418-8.884125,1.843613-1.311523,3.701294-2.605286,5.50618-3.968536,1.460342-1.102997,2.863815-1.870697,4.79747-1.004425,2.231277.999603,4.565704,1.769165,7.06369,2.717743-.652817.57608-1.103836,1.03714-1.615753,1.415863-4.138489,3.061798-8.281693,6.117279-12.4366,9.156769-4.591339,3.358765-9.187088,6.711639-13.798492,10.042725-4.235214,3.059357-8.503708,6.072662-12.737518,9.133972-1.800217,1.301666-3.626785,2.584625-5.302322,4.036499-2.11853,1.835754-3.187439,4.284119-3.557915,7.292419,0,0,.000008,0,0,0Z"/>
      <path class="cls-7" d="M64.323942,71.566721c-1.450775-.438171-3.067551-.873962-4.646103-1.420044-1.246429-.431213-2.441101-1.010132-3.667892-1.500549-.805374-.32196-.86116-.788391-.375198-1.443207,1.276535-1.720062,1.610672-1.782837,3.589859-.919434,4.014069,1.751068,7.753326,1.658173,11.447708-1.121674,5.608612-4.220184,11.430405-8.155975,17.120026-12.270081,4.550247-3.290192,9.008942-6.707031,13.563049-9.99173,4.081192-2.943604,8.225952-5.799927,12.374298-8.648712.515625-.354065,1.21463-.50946,1.849915-.59079.291962-.037354.840332.272095.907852.522491.103424.383698.043961,1.011658-.212921,1.256989-1.041382.994507-2.13649,1.948303-3.299423,2.797058-3.177765,2.319183-6.399979,4.577454-9.604477,6.860016-4.605377,3.280396-9.210617,6.560944-13.815903,9.841431-5.719482,4.074127-11.426376,8.166107-17.165512,12.212402-1.901382,1.340515-3.860062,2.605652-5.84816,3.813782-.571609.347351-1.337387.375366-2.217102.602112h-.000015v-.000061Z"/>
      <path class="cls-4" d="M27.482283,63.374339c-.054718-1.898987.997856-2.730499,2.441925-2.178162,2.437553.932343,4.862228,1.902802,7.256516,2.93988.456612.197784,1.063713.790497,1.048027,1.178619-.031029.767395-.402733,1.541199-.746025,2.258606-.067505.141022-.68914.151245-.976524.032135-2.771988-1.148987-5.533783-2.323547-8.279045-3.534851-.359657-.158691-.609879-.565338-.74485-.696198h-.000008l-.000015-.000031Z"/>
    </g>
  </g>
</svg>