<?xml version="1.0" encoding="UTF-8"?>
<svg id="Layer_2" xmlns="http://www.w3.org/2000/svg" viewBox="0 0 102.581827 58.486838">
  <defs>
    <style>
      .cls-1 {
        fill: #1c1a19;
      }

      .cls-2 {
        fill: #212121;
      }

      .cls-3 {
        fill: #9683bd;
      }

      .cls-4 {
        fill: #8e7ab7;
      }
    </style>
  </defs>
  <g id="Layer_1-2" data-name="Layer_1">
    <g>
      <path class="cls-2" d="M66.453214.002813c6.546356-.051239,13.004578.588898,19.255157,2.633179,4.279358,1.399597,8.249176,3.343353,11.558441,6.534485,5.708099,5.504333,6.915955,13.320679,3.150146,20.329224-3.152771,5.867798-7.806183,10.299042-13.279968,13.857208-18.095764,11.763092-38.024658,16.413574-59.456024,14.830017-5.543152-.409546-10.904633-1.773743-15.959381-4.16153-3.300079-1.558929-6.206573-3.641479-8.443542-6.578217-3.807159-4.998108-4.057953-10.453583-1.983643-16.146698,1.797882-4.93457,5.247131-8.68277,9.109375-12.070709,8.384888-7.355194,18.273682-11.87204,28.828796-15.091644C48.102323,1.432622,57.189695.120641,66.453275.002843h-.000092l.000031-.000031ZM84.449033,37.504735s-.019989.014282-.019989.014252c-.102356.069214-.204773.138428-.307129.207642-.072266-.015656-.120819.011353-.145599.080994-.076935.055664-.153839.111328-.230804.166992l-.023071.016663c-.108307.069946-.216644.139923-.324951.209869l-.075684-.011414-.04187.064056c-.084961.063324-.169952.126678-.254913.190002l-.006317.005951c-.114532.075836-.229034.151642-.343567.227478-.191833.096191-.383728.192383-.575623.288574-.09726.055756-.19455.111542-.291809.167297-.085144-.009186-.148743.023438-.190948.09787l-.220306.1539-.028046.019501c-.110748.070587-.221436.141174-.332184.211761l-.066498-.021118-.038086.058441c-.112915.062439-.225922.124878-.338837.187317-.064362-.031403-.10968-.013794-.135956.052826-.626831.308533-1.251801.620941-1.880951.924683-1.089966.526245-2.154907,1.125519-3.289825,1.525665-.371826.131104-.928192-.260712-1.400146-.413361.220642-.428772.337738-.996704.685211-1.255096.584534-.434723,1.311676-.680847,1.985352-.992279,5.764679-2.664795,11.019775-6.068176,15.312408-10.799255,1.111053-1.224579,1.973572-2.674469,2.950226-4.020874l.014069-.0159c.214355-.329437.42868-.658905.642853-.988037l.026978-.054199c.068756-.124725.137512-.249481.206299-.374176l.03244-.077515c.066895-.130371.133789-.260773.200684-.391144l.03476-.087463c.067566-.127899.13504-.255829.202576-.383728l.03302-.079163c.062897-.128601.125702-.257202.188599-.385773.051208-.029083.063385-.069824.03656-.122253.075073-.197815.150085-.39563.225128-.593445l.019348-.055634c.072876-.216675.145752-.43335.218689-.650024l.016571-.05368c.067749-.214844.135437-.429718.203156-.644562.049438-.026337.057892-.062256.02536-.107849.07373-.279144.147552-.558258.221344-.837402l.019226-.079407c.079193-1.618225.158417-3.236481.237549-4.854706,0,0-.010925-.041382-.010925-.041412-.077148-.292023-.154236-.584045-.231445-.876068,0,0-.018829-.063995-.018829-.063965-.066772-.15799-.133514-.315979-.200287-.473969-.990509-2.15332-2.900696-3.374603-4.736725-4.671021-.069061-.071198-.138123-.142365-.207184-.213531l-.066284-.031708c-.13031-.078491-.260651-.156952-.390961-.235443-.313782-.164032-.627594-.328094-.941376-.492126-.160278-.072052-.320618-.144104-.480896-.216187l-.023865-.011292c-.14856-.074677-.297089-.149323-.445587-.223999,0,0-.025177-.012268-.025177-.012299-.148254-.070892-.296509-.141785-.444702-.212677l-.040527-.016815c-.142395-.069214-.28479-.138458-.427185-.207672l-.063568-.025879c-.134094-.065155-.268219-.130341-.402313-.195496l-.036743-.047852s-.058472.014923-.058472.014954l-1.086731-.460693-.04715-.017853-.660614-.22757-.031128-.010864c-.224548-.073669-.449097-.147339-.673706-.221008,0,0-.036224-.013092-.036224-.013123-.22348-.075317-.446991-.150635-.670471-.225952l-.030151-.010651c-.225098-.072845-.450134-.145691-.675232-.218536l-.03949-.012848c-.535004-.151062-1.070038-.302124-1.605042-.453186l-.055176-.016235c-.29541-.075439-.59079-.150879-.88623-.226318l-.038696-.012543c-.301422-.075562-.602905-.151154-.904358-.226715l-.031281-.008881c-.38147-.075592-.762939-.151184-1.144379-.226746,0,0-.03067-.009735-.03067-.009705-.097382-.060394-.188171-.156677-.293121-.176056-6.050659-1.117279-12.150848-1.233307-18.272797-.886536-.112152.006348-.220947.072754-.331299.111115-.624451.015381-1.25235-.006592-1.872772.051727-8.782043.825806-17.344482,2.667084-25.573853,5.855438-10.293457,3.988068-19.748657,9.257202-26.886475,18.005676-1.928833,2.364044-3.287384,4.977051-4.128723,7.862091-.259796.89093-.390106,1.988098-.109039,2.834625.673645,2.028931,1.969543,3.725098,3.558197,5.174866.344208.298676.688385.597351,1.032562.896027.104767.08725.209564.1745.314301.261749.663574.475098,1.298065.998535,1.9953,1.417664,5.89032,3.540802,12.398102,4.964691,19.153961,5.37442,3.317993.201233,6.654205.106537,9.982269.133911.672211.005524,1.388641.089813,1.376892.880646-.004425.302155-.705811.834839-1.108704.853699-5.055481.236725-10.125854.279114-15.119263-.609344-3.377594-.600983-6.686127-1.589783-10.025574-2.405121l-.040649-.012329-.412811-.185669c-.031952-.053864-.076141-.06723-.132599-.0401-.196136-.076721-.392242-.153412-.588379-.230133l-.035431-.016327c-.143158-.065979-.286346-.131989-.429504-.197998,0,0-.086365-.031097-.086365-.031128-.12616-.063049-.25238-.126099-.378571-.189148-.019806-.054901-.055939-.06958-.108429-.044098-.122162-.065338-.244293-.130676-.366455-.196014l-.088593-.04007c-.130035-.072632-.26001-.145264-.390045-.217896,0,0-.040405-.020691-.040405-.020721-.140106-.076752-.280182-.153473-.420288-.230194-.472443-.241028-.944916-.482086-1.417358-.723114-.169586-.072968-.339111-.145935-.508667-.218903-1.851624-1.547699-3.703247-3.095367-5.728058-4.787842.244263.671295.393219,1.175537.606384,1.65097,1.35791,3.028015,3.60791,5.279663,6.277924,7.160919.087372.061401.174805.122803.262177.184204l.05072.027924c.136871.084625.273682.16925.410553.253906.14032.081177.280701.162354.421021.24353.098175.06192.196289.123871.294464.185791l.046661.022125c.140137.080994.280243.161957.42038.24295.945587.470642,1.891174.941284,2.836792,1.411926.15863.067017.31723.134033.475861.20108.231781.089691.463623.179382.695435.269104l.699951.237915.009583.002655.695251.233368.010529.003021c.231354.075775.462769.15155.694122.227295l.01828.005585.684723.212677.048492.014008c.298065.079407.59613.158813.894226.23819l.020966.006073c.620941.157623,1.241913.315247,1.862823.47287l.009399.001343c.623596.153625,1.247131.307251,1.870697.460876l.021301.005219c1.29837.239288,2.588379.547272,3.896515.706268,6.481262.78772,12.974609.720276,19.444916-.044922,3.053711-.361145,6.067627-1.058441,9.099579-1.603394l.02948-.007782c.375305-.078217.750549-.156464,1.125885-.234711l.051056-.013428c.61969-.151367,1.23941-.302704,1.859161-.454071,3.259644-.963257,6.569611-1.784424,9.769684-2.916016,10.232391-3.618317,19.576447-8.668304,26.999878-16.849823,2.761292-3.043182,4.633484-6.458832,5.528442-10.427002.531891-2.358276.421753-4.689209-.674805-6.926971-.184021.664093-.231964,1.340424-.353455,2.003296-.894806,4.883423-3.416077,8.914307-6.91272,12.281189-2.412537,2.323059-5.164398,4.293976-7.764648,6.422272-.077545.05542-.155121.11084-.232727.166229h.000092l.000183.000031Z"/>
      <path class="cls-4" d="M13.416685,48.809698c3.339447.815338,6.64798,1.804169,10.025543,2.405121,4.993408.888489,10.063812.8461,15.119263.609344.402893-.01886,1.104218-.551514,1.108704-.853699.011749-.790833-.704681-.875122-1.376892-.880646-3.328064-.027374-6.664276.067322-9.982269-.133911-6.755859-.40976-13.263641-1.833618-19.153961-5.37442-.697235-.419128-1.331726-.942596-1.994812-1.417816.166992-.07196.333466-.143799.499878-.215607l-.083923-.253693c-.243561.069214-.487183.138428-.730774.207672-.344208-.298676-.688385-.597351-1.032532-.895996.201874-.035339.403687-.070679.633148-.11087-.842743-1.003235-1.672668-1.885986-2.378845-2.858551-.89505-1.232605-.798126-1.499512.626312-1.943909,1.035339-.322998,1.721039-.939026,1.924072-1.996796.255798-1.332825.479462-2.67395.652802-4.019775.133484-1.036407.952637-1.923157,1.944641-1.988251.711853-.046692,1.422485-.111755,2.398315-.189789.027069.243622.04361.749908.144989,1.238647.305328,1.472198.604736,2.948334,1.00589,4.395386.070068.252655.622772.371582.952881.552765.69165.72702,1.383026,1.453522,2.074432,2.180054.004608.274475.009247.548981.013885.823456.152924-.149872.305908-.299744.458801-.449615.24115.182007.4823.364014.723389.545959-.396423.872681.132874,1.683319,1.234924,1.90744.490692.099792.986603.190094,1.463501.338287,1.863098.578979,3.688477,1.317505,5.584778,1.743744,4.284241.963013,8.652374,1.100342,13.028992.986176.277344-.007233.552979-.075043.829468-.114655,0-.095886.000031-.191803.000031-.287689-.355804-.021301-.711517-.059113-1.067413-.060974-1.449188-.00769-2.901703.053467-4.346436-.027466-.825195-.046234-1.637756-.317413-2.456024-.487305,3.306122.002899,6.612244.005768,9.918396.008636-.433624.15274-.867279.305481-1.300903.458221.007538.057098.015106.114197.022644.171295h2.159332c-.107269-.286896-.184814-.494141-.262329-.701385.652588-.046783,1.305115-.093536,1.957794-.140259-.357147.144989-.714355.289886-1.071594.434814.026367.128052.052734.256104.079041.384125,2.878052-.425964,5.756104-.851929,8.634216-1.277863-.016632-.145203-.033325-.290375-.049988-.435577-.334229.053894-.666595.130493-1.003021.15741-.963989.077087-1.929565.134064-2.894531.198944,1.258514-.241852,2.513519-.505035,3.777527-.713531.420776-.069397.864716.001434,1.298065.008179-.151794.096405-.303619.19278-.455444.289185l.133026.151611c.117188-.1427.234375-.2854.351593-.428101.905762-.29184,1.811493-.583679,2.717377-.875519-.67392.296753-1.348083.593506-2.022247.890259.030396.099579.060822.199188.091217.298798,1.901184-.513733,3.81369-.990417,5.695984-1.565887.503601-.153961.914948-.609436,1.368683-.926514.367737-.191864.717621-.436798,1.105957-.567688,6.561798-2.2117,12.758636-5.135437,18.295776-9.34726,2.419037-1.840057,4.486145-4.00415,6.040344-6.636658,2.60437-4.411285,1.778687-9.306152-2.20816-12.359833-1.227966-.940552-2.662018-1.612213-4.001709-2.406982.162415-.072815.324829-.14563.85495-.38324-1.535736-.571777-2.74762-1.02298-4.093018-1.523895,1.792053-.350098,3.35788-.784119,4.948364-.912048.781067-.062836,1.793274-.010437,2.219299,1.114624.128693.339722.792358.590881,1.248291.671661,1.410492.249847,2.933441.150848,4.23645.64856,1.611969.615692,3.085175,1.635406,4.550262,2.585449,2.408936,1.562042,3.554779,3.69754,3.369568,6.70517-.145355,2.358887-.775208,4.503418-1.62204,6.648315-.114288.28949.076263.69931.125671,1.053375-.214355.329437-.42868.658905-.643219.988129-.105072-.127838-.209991-.255402-.31485-.383026-.026489.026642-.053009.053314-.079498.079987.126862.106384.253662.212769.380493.319153-.976685,1.346405-1.839233,2.796326-2.950226,4.020874-4.292633,4.731049-9.547699,8.13443-15.312408,10.799255-.673676.311432-1.400818.557556-1.985352.992279-.347473.258362-.464569.826324-.685211,1.255096.471954.152679,1.028259.544464,1.400146.413361,1.134888-.400146,2.199829-.99942,3.289795-1.525665.62915-.303741,1.25412-.61615,1.88089-.924652.159424,1.570923,1.17749-.422211,1.603119.638458-.37262.403442-.848114.918243-1.323578,1.433075l.103912.309113c1.160767-.19339,2.321503-.38678,3.482208-.58017.035919.166138.071869.332275.107758.498383-2.938385,1.519135-5.836243,3.12381-8.823853,4.539001-5.653839,2.678131-11.522888,4.78006-17.593658,6.327209-6.821594,1.738495-13.767639,2.579712-20.779114,2.756897-3.616791.091431-7.245361-.266052-10.867432-.444733-.232025-.011444-.453766-.230469-.97699-.513336,1.259003-.161682,2.132141-.340881,3.009186-.362488.568054-.013977,1.138214.251984,1.71463.293732.272308.019745.561462-.192413.842957-.2995-.220551-.171204-.417236-.410095-.667084-.498108-.399078-.140564-.849121-.136749-1.247864-.277954-.303741-.107574-.561371-.345428-.839539-.52533l.107758-.416321h9.871826c-.000122-.144745-.000214-.289459-.000366-.434204-.406982,0-.814148.009064-1.220856-.001434-2.927673-.075592-5.87384.022919-8.77829-.278534-3.623993-.376099-7.230316-.996735-10.809662-1.690308-1.367706-.265015-2.639679-1.023621-3.955292-1.557281h0l.000061.000031Z"/>
      <path class="cls-4" d="M13.71887,35.084478c-.329773-.180695-.882477-.299622-.952545-.552277-.401184-1.447052-.700592-2.923187-1.00589-4.395386-.101349-.488739-.11795-.995026-.144989-1.238647-.975861.078033-1.686462.143066-2.398315.189789-.992004.065094-1.811157.951813-1.944641,1.988251-.17334,1.345825-.397003,2.686951-.652802,4.019775-.203033,1.05777-.888733,1.673767-1.924072,1.996796-1.424438.444397-1.521362.711273-.626312,1.943909.706177.972534,1.536102,1.855286,2.378845,2.858551-.229492.040192-.431274.075531-.633148.11087-1.588715-1.449768-2.884644-3.145935-3.558258-5.174866-.281067-.846558-.150757-1.943695.109039-2.834625.841309-2.88504,2.19989-5.498047,4.128723-7.862091,7.137787-8.748444,16.593018-14.017609,26.886475-18.005676,8.22937-3.188354,16.791779-5.029633,25.573853-5.855438.620392-.05835,1.248352-.036377,1.873444-.05188,2.156097.006012,4.313629-.044678,6.466431.033203,2.491394.090118,4.980194.27359,7.467316.454376,1.656738.120422,3.308716.307068,4.962799.46405,0,0,.03067.009735.03064.009735.38147.075592.762939.151184,1.144379.226746,0,0,.031281.008881.03125.008881.301422.075562.602905.151154.904388.226715,0,0,.038696.012543.038666.012543.29541.075439.59079.150879.886292.226349,0,0,.055176.016235.055054.016235.535004.151062,1.070099.302124,1.605164.453186,0,0,.03949.012848.039429.012817.225037.072845.450165.145691.675293.218567,0,0,.030151.010651.03006.010651.22348.075317.447021.150635.670502.225952,0,0,.036224.013092.036163.013092.224548.073669.449097.147339.673767.221008,0,0,.031128.010864.031067.010834.220154.075867.440399.151733.660645.2276,0,0,.04715.017853.047058.017822.362244.153564.724518.307129,1.086823.460693l.058472-.014923s.036743.047852.036499.047729c.134003.065125.26828.130371.402588.195587,0,0,.063568.025879.063385.025818.142334.069214.284882.138489.427399.207733,0,0,.040527.016815.040405.016785.148254.070892.296509.141785.444855.212708,0,0,.025177.012268.025116.012268.148529.074646.297089.149323.445648.223999l.023865.011292c.160278.072052.320618.144104.480927.216187.313782.164032.627594.328094.94104.491974.130188.07843.260742.157013.391266.235565,0,0,.066284.031708.066101.031616.069031.071167.138184.142395.207367.213654,1.836029,1.296417,3.746216,2.5177,4.736694,4.670929.066772.157959.133514.31601.200317.474091,0,0,.018829.063995.018768.06366.077179.291901.154388.584167.231537.876404,0,0,.010925.041382.010925.04126-.079193,1.618195-.158325,3.236511-.237549,4.854858,0,0-.019226.079407-.019226.079254-.07373.279083-.147552.558319-.221344.837585.032593.045563.024109.081512-.025269.107574-.067749.214752-.135437.42981-.203217.644836,0,0-.016571.05368-.016571.053589-.072937.216644-.145813.433411-.218689.650146,0,0-.019348.055634-.019318.055511-.075073.197784-.150116.39566-.225189.593567.026825.052429.014648.09317-.036499.121918-.062866.128479-.125793.257294-.188721.386108,0,0-.03302.079163-.032898.078918-.067474.127838-.135071.25589-.202667.383972,0,0-.03476.087463-.034607.087219-.066833.13028-.13382.260834-.200806.391388,0,0-.03244.077515-.032318.077271-.068756.124664-.137604.249542-.20639.37442,0,0-.026978.054199-.026886.054016-.049316-.354248-.239899-.764038-.12561-1.053558.846771-2.144928,1.476685-4.289459,1.62204-6.648315.185242-3.007629-.960632-5.143127-3.369568-6.70517-1.465088-.950043-2.938263-1.969727-4.550262-2.585449-1.302979-.497711-2.825989-.398712-4.23645-.64856-.455933-.08078-1.119629-.331909-1.248291-.671661-.426025-1.125031-1.438263-1.177429-2.219299-1.114624-1.590485.12793-3.156311.56192-4.948364.912048,1.345428.500916,2.557281.952118,4.093018,1.523895-.530121.23761-.692535.310425-.855072.383026-.063843.019653-.101562-.003235-.11322-.068878-.17569-.069305-.35141-.138611-.5271-.207886-.079895.026794-.144745.006287-.194672-.061584-.121124-.060516-.242279-.121033-.363403-.181549l-.083313-.002808c-.208588-.077057-.417145-.154114-.625763-.231201-.110077-.012756-.220154-.025482-.330292-.038239-.50174-.141663-1.00351-.283295-1.505219-.424957l-.077728.02771-.059479-.057098c-.259705-.068268-.519379-.136536-.779114-.204803-.069122.039948-.124634.02597-.166534-.041901-.201904-.067474-.40387-.134979-.605804-.202454-.111176-.008911-.222321-.017792-.333527-.026703-.360107-.069977-.720276-.139954-1.080383-.2099l-.076355.021271c-.391937-.039917-.783936-.079803-1.175903-.11969-.179901-.030579-.359802-.061157-.539734-.091736-.525024-.050171-1.050018-.100342-1.575043-.150513-.236328-.033051-.472717-.066101-.709045-.099152-.203125-.092072-.405731-.263062-.609436-.264343-2.921692-.018494-5.843567-.016693-8.765289-.002563-.086823.000427-.172699.188171-.259033.288605-.259918.029633-.519806.059235-.779694.088867-.606689.047882-1.213318.095795-1.820007.143677-.177948.028229-.355896.056488-.533844.084717-.470978.041199-.942017.082397-1.413025.123627l-.078705-.022919-1.566742.249847c-.157928.039215-.315857.07843-.473755.117645-.312134.037445-.624268.07486-.936432.112305l-.086639-.008606c-.421631.091125-.843262.182281-1.264862.273407-.173767.034821-.347504.069672-.521271.104492-.298004.044495-.596069.088959-.894104.133423-.168549.037872-.337128.075775-.505646.113678-.160187.024261-.320374.048492-.480591.072754-.158936.047089-.317902.094208-.476837.141296-.218414.042084-.436859.084137-.655273.126221-.168457.043549-.336884.087128-.505341.130676-.160767.025269-.321533.050568-.4823.075867-.155579.048553-.311157.097076-.466766.14563-.157562.027313-.315094.054657-.472687.082001-.156067.051208-.312164.102386-.468231.153595-.157745.029572-.315491.059143-.473267.088715-.153992.051147-.307953.102295-.461945.153442-.160828.03363-.321686.067261-.482452.100891l-.08194-.00943c-.268768.0867-.537537.173401-.806305.260071-.094177.036835-.188324.073639-.282532.110474-.144958.034241-.289978.068512-.434937.102753l-.004517-.005981c-.165863.068146-.331757.136292-.49762.204468-.360291.145569-.711609.321289-1.082306.432129-4.590607,1.37262-8.985229,3.21225-13.145111,5.587616-3.637299,2.076996-7.140503,4.360107-10.055939,7.409821-1.665192,1.741882-3.066956,3.678802-3.674377,6.077118-.082184.395813-.164368.791626-.246582,1.187439l-.006775.026581c-.37088,1.27182-.524963,2.532532.192566,3.748444.020111.075317.040161.150665.060272.225983.059967.161163.119904.322327.179871.48349.274078.519409.548218,1.038788.822327,1.558197l-.000031-.000275ZM8.252653,26.815832c-.424438-.130371-.840424-.388336-.990448-.279572-.430969.312347-.81488.738464-1.0784,1.199249-.06781.11853.376678.529877.585846.806671.356415-.414917.71283-.829803,1.483002-1.726379v.000031Z"/>
      <path class="cls-4" d="M13.416685,48.809698c1.315613.533661,2.587585,1.292267,3.955292,1.557281,3.579346.693573,7.185669,1.314209,10.809662,1.690308,2.90448.301453,5.850616.202942,8.77829.278534.406708.010498.813873.001434,1.220856.001434.000122.144745.000214.289459.000366.434204h-9.871826l-.107758.416321c.278137.179901.535767.417725.839539.52533.398743.141205.848816.13736,1.247864.277954.249847.088013.446594.326904.667084.498108-.281494.107086-.570648.319244-.842957.2995-.576416-.041748-1.146576-.307709-1.71463-.293732-.877045.021606-1.750214.200806-3.009186.362488.523285.282867.745026.501892.97699.513336,3.62207.17865,7.250641.536133,10.867432.444763,7.011505-.177185,13.95752-1.018433,20.779114-2.756897,6.07077-1.54715,11.939819-3.649078,17.593658-6.327209,2.98764-1.415192,5.885468-3.019867,8.823853-4.539001-.035919-.166138-.071869-.332245-.107758-.498383-1.160767.19339-2.321503.38678-3.482208.58017l-.103912-.309113c.475464-.514801.950989-1.029633,1.323578-1.433075-.425629-1.060669-1.443695.932465-1.603119-.638458.026337-.06665.071655-.084259.136169-.052948.113007-.062469.22583-.124847.338684-.187225l.038086-.058441s.066498.021118.066772.020813c.11084-.070679.221344-.141083.33194-.211456,0,.000031.028046-.019501.028015-.01947.073425-.05127.146881-.1026.220306-.1539.042175-.074432.105804-.107086.190765-.097748.09726-.055725.19458-.111572.291992-.16745.191833-.096191.383728-.192383.575745-.288757.114594-.075867.229004-.151581.343414-.227264,0,0,.006317-.005951.006317-.005981.084961-.063354.169952-.126678.254913-.189972l.04187-.064056s.075684.011414.075958.011139c.108398-.070068.216522-.139832.324646-.209595,0,.000031.023071-.016663.023041-.016632.076935-.055664.1539-.111359.230865-.167023.02478-.069641.073334-.096619.145721-.080994.102386-.069214.204712-.138397.306946-.207581,0,0,.019989-.014282.019897-.014252.077545-.05542.155182-.11084.232758-.16626,2.60025-2.128296,5.352112-4.099182,7.764648-6.422272,3.496674-3.366882,6.017914-7.397766,6.91272-12.281189.12149-.662872.169434-1.339203.353455-2.003296,1.096619,2.237793,1.206696,4.568695.674805,6.926971-.894989,3.96817-2.767181,7.38382-5.528442,10.427002-7.423431,8.181488-16.767456,13.231476-26.999878,16.849823-3.200073,1.131592-6.51004,1.952759-9.769562,2.915985-.61969.151337-1.239471.302734-1.859283.454071,0,0-.051056.013428-.050781.013397-.375153.078217-.750641.156464-1.126099.234711,0,0-.02948.007782-.029388.007782-.501617.04834-1.006622.074371-1.504456.14859-3.269257.487244-6.522156,1.177673-9.808868,1.428894-3.853119.294495-7.735107.26123-11.604706.265259-1.627441.001709-3.256104-.255493-4.882446-.413208-1.548096-.150146-3.093811-.323975-4.640625-.487427,0,0-.021301-.005219-.021271-.005219-.623596-.153625-1.247131-.307251-1.870728-.460876,0,0-.009399-.001343-.00946-.001343-.620941-.157623-1.241852-.315247-1.862793-.47287l-.020966-.006073c-.298065-.079407-.596161-.158813-.894226-.23819,0,0-.048492-.014008-.04837-.014008-.22818-.070892-.456512-.141785-.684814-.212677l-.01828-.005585c-.231354-.075775-.462769-.15155-.694183-.227325l-.010529-.003021-.695251-.233368-.009583-.002655c-.233307-.079315-.466644-.1586-.699951-.237946-.231781-.089691-.463623-.179382-.695557-.269135-.158661-.067047-.3172-.134033-.475739-.20105-.945587-.470642-1.891174-.941284-2.836609-1.411865-.140076-.080963-.280304-.161987-.420532-.243011,0,0-.046661-.022125-.046509-.022064-.098083-.06189-.196381-.123871-.294647-.185883-.14032-.081177-.280701-.162354-.420837-.243439-.13678-.084595-.273773-.169312-.410767-.253998,0,0-.05072-.027893-.050537-.027802-.087341-.061371-.174866-.122833-.26236-.184296-2.669983-1.881256-4.920013-4.132904-6.277924-7.16095-.213196-.475433-.362152-.979675-.606384-1.65097,2.024811,1.692444,3.876404,3.240143,5.72821,4.787811.169617.072968.339081.145935.508545.218933.472443.241028.944916.482086,1.417023.722961.139984.076691.280304.153534.420624.230347,0,0,.040405.020691.040314.02066.130005.072632.260071.145294.390137.217926,0,0,.088593.04007.088318.039948.12204.065308.244385.130707.36676.196136.05249-.025482.088654-.010773.108093.043976.126068.063019.252502.12616.378906.189301,0,0,.086365.031097.08609.031006.143066.065979.286407.132019.429749.198059,0,0,.035431.016327.0354.016327.196106.076721.392242.153412.588409.230133.056458-.02713.100647-.013763.132202.039978.137482.061829.27533.12381.413208.185791l.040649.012329.000183.000031-.000153.000061Z"/>
      <path class="cls-4" d="M22.582883,55.4036c1.546814.163452,3.092529.33728,4.640625.487427,1.626343.157715,3.255005.414856,4.882446.413208,3.869629-.004028,7.751617.029236,11.604706-.265259,3.286743-.251221,6.539642-.94162,9.808868-1.428864.497833-.074219,1.002838-.10025,1.504456-.14859-3.032043.544952-6.045959,1.242188-9.09967,1.603394-6.470276.765259-12.963654.832703-19.444916.044922-1.308136-.158997-2.598145-.46698-3.896515-.706238Z"/>
      <path class="cls-4" d="M79.724729,3.17307c-1.654083-.156982-3.30603-.343628-4.962799-.46405-2.487152-.180786-4.975891-.364258-7.467316-.454376-2.152863-.077881-4.310333-.027191-6.466431-.033203.10968-.038239.218475-.104645.330627-.110992,6.121948-.346741,12.222107-.230743,18.272797.886536.10498.019379.19574.115662.293121.176056v.000031Z"/>
      <path class="cls-4" d="M97.38693,18.881689c.079193-1.618317.158325-3.236664.237549-4.854858-.079132,1.618378-.158325,3.236633-.237549,4.854858Z"/>
      <path class="cls-4" d="M20.690885,54.937505c.623596.153625,1.247131.307251,1.870728.460876-.623596-.153625-1.247131-.307251-1.870728-.460876Z"/>
      <path class="cls-4" d="M84.420591,4.35346c-.535095-.151062-1.07016-.302124-1.605164-.453186.535126.151062,1.070129.302124,1.605164.453186Z"/>
      <path class="cls-4" d="M56.230253,54.205602c.619812-.151367,1.239594-.302734,1.859283-.454071-.619873.151367-1.239563.302734-1.859283.454071Z"/>
      <path class="cls-4" d="M18.818632,54.463262c.62088.157623,1.241852.315277,1.862793.47287-.62088-.157623-1.241852-.315247-1.862793-.47287Z"/>
      <path class="cls-4" d="M88.371397,5.772527c-.362335-.153564-.724609-.307159-1.086823-.460693.362335.153595.724609.307159,1.086823.460693Z"/>
      <path class="cls-3" d="M6.847471,42.902074c.243591-.069214.487183-.138428.730774-.207672l.083923.253693c-.166443.071808-.332916.143646-.499878.215607-.105255-.087128-.210052-.174377-.314789-.261627h-.000031Z"/>
      <path class="cls-4" d="M80.899808,3.409551c-.3815-.075592-.76297-.151154-1.144379-.226746.3815.075592.762939.151154,1.144379.226746Z"/>
      <path class="cls-4" d="M55.053312,54.45371c.375458-.078247.750946-.156494,1.126099-.234711-.375549.078247-.750793.156494-1.126099.234711Z"/>
      <path class="cls-1" d="M54.457914,5.31809s.078705.022919.079102.022888c.47113-.041229.941864-.082397,1.412628-.123566.177948-.028229.355896-.056458.53363-.084686.606598-.047882,1.213379-.095795,1.820221-.143707.259918-.029633.519806-.059235.780151-.088959,3.211395-.007263,6.422363-.014435,9.633331-.021606.236328.033051.472717.066101.708679.099121.524872.05014,1.05014.100342,1.575439.150543.179901.030579.359802.061157.539307.091675.391846.039886.784058.079834,1.1763.119751,0,0,.076355-.021271.076447-.02121.360199.070007.720215.139923,1.080292.209839.111176.008911.222321.017792.33371.026886.201996.067535.403778.134918.605621.202301.041931.067902.097443.081879.166626.041931.259766.068268.519379.136536.779053.204803l.059479.057098s.077728-.02771.078033-.027618c.501831.141693,1.003357.283264,1.504913.424866.110077.012756.220154.025482.330383.038422.208618.077118.417145.154053.625671.231018,0,0,.083313.002808.083496.003052.121185.060608.242188.120941.36319.181305.049896.067871.114777.088379.19455.061523.175629.069275.35141.138611.527191.207947.011688.065643.049408.088531.11322.068878,1.339783.794983,2.773834,1.466644,4.001801,2.407196,3.986908,3.05368,4.812592,7.948547,2.20816,12.359833-1.554199,2.632507-3.621277,4.7966-6.040344,6.636658-5.53717,4.211853-11.734009,7.135559-18.295776,9.34726-.388306.130859-.73819.375824-1.104828.568237.001099.000549-.053436.011444-.053436.011444-.4599.093842-.9198.187714-1.379669.281555-.133636.031769-.267242.063568-.400909.095337-.185577.058899-.371124.117798-.556702.176727l-.078888-.026276-.055603.061798c-.514832.148621-1.029724.297211-1.544586.445801l-.051941-.031067-.044556.040955c-.266602.071533-.533173.143066-.799774.2146-.066681-.044098-.122955-.033447-.168854.031921-.905731.29184-1.811432.583679-2.71875.874939-.001587-.00058-.027618-.012115-.027618-.012115-.43335-.006744-.877258-.077576-1.298065-.008179-1.264069.208496-2.519012.47168-3.777466.713623-.131836.029205-.263672.05835-.395538.087494l-2.723694.442535c-.19165.002655-.383362.005341-.575043.008026-.652588.046783-1.305115.093536-1.957611.140411-.206207.023987-.412567.047852-.618896.071747-3.306122-.002869-6.612244-.005737-9.918488-.008484-.130585-.007874-.261078-.0159-.391632-.023895-.732178-.055847-1.464325-.111725-2.196442-.167572-.131561-.015594-.263123-.031219-.394684-.046844-1.200043-.214325-2.400146-.42865-3.600189-.642975l-.389679-.077576c-.181488-.046997-.363007-.093994-.544556-.140991-.132812-.028198-.265533-.056366-.398315-.084564-.811829-.281128-1.623688-.562286-2.435516-.843414-.110138-.022095-.220306-.044189-.330414-.066284l-.371521-.199219-.051697-.067474-.083405.016479c-.106293-.05249-.212646-.10498-.31897-.157471l-.212402-.082581c-.081726-.043823-.163422-.087677-.245209-.1315l-.243164-.106659c-.0755-.041687-.151001-.083374-.226501-.125031-.229614-.115295-.459229-.230591-.688843-.345917-.091095-.052124-.18219-.104218-.273254-.156372-.026489-.072327-.076233-.096222-.149261-.071655-.098969-.064758-.197937-.129547-.296936-.194305l-.032135-.024109c-.07309-.052979-.146179-.105988-.219238-.158997-.035645-.07547-.09491-.108368-.177826-.098663-.24115-.182007-.4823-.364014-.723389-.545807-.157532-.124542-.315125-.249298-.472778-.374054-.691376-.726501-1.382751-1.453033-2.074463-2.180054-.274414-.519897-.548523-1.039276-.822601-1.558716-.059967-.161194-.119904-.322327-.179871-.483459-.020111-.075317-.040161-.150665-.060272-.225983-.064209-1.249481-.128387-2.498962-.192566-3.748474,0,0,.006775-.026581.006805-.02655.082184-.395782.164368-.791626.246582-1.187469.607422-2.398315,2.009125-4.335236,3.674377-6.077118,2.915436-3.049713,6.41864-5.332825,10.055939-7.409821,4.159882-2.375397,8.554504-4.214996,13.145111-5.587616.370728-.11084.722015-.28656,1.08252-.432159.165924-.068146.331665-.136292.497437-.204407,0,0,.004517.005981.004517.005951.144958-.034271.289978-.068512.434937-.102722.094177-.036835.188324-.073639.282288-.110413.268677-.08667.537628-.173401.806549-.260132,0,0,.08194.00943.082214.009369.16095-.033661.321533-.06723.482178-.10083.153992-.051147.307953-.102295.462189-.153473.157837-.029602.31543-.059113.472992-.088654.156067-.051208.312164-.102386.468506-.153625.157623-.027344.315002-.054626.472412-.08194.155579-.048523.311157-.097076.46701-.14566.160858-.025299.321442-.050568.482056-.075806.168457-.043549.336884-.087128.505157-.130646.218353-.042053.43689-.084167.655457-.126251.158936-.047089.317902-.094177.477112-.141327.160278-.024261.320282-.048492.480347-.072723.168549-.037903.337128-.075775.505493-.113647.297974-.044464.59613-.088959.894257-.133453.173767-.034821.347504-.069672.521027-.104462.421539-.091125.843353-.182251,1.265106-.273407,0,0,.086639.008606.087006.008545.312225-.037445.624176-.07486.936035-.112244.157928-.039215.315857-.07843.474182-.117676.522339-.083282,1.044342-.166565,1.566345-.249817v-.000153ZM63.876005,6.662664c-6.300659.034546-12.501678.828918-18.60733,2.392273-7.913239,2.026184-15.440552,4.942535-22.219391,9.586212-2.864288,1.962128-5.464905,4.205536-7.322327,7.197327-2.576752,4.150543-1.674805,8.427216,2.541962,10.908875,1.829071,1.076416,3.889771,1.908936,5.952759,2.411377,7.222168,1.759003,14.519653,1.560883,21.841553.538086,10.649933-1.487671,20.686035-4.701874,29.815704-10.456512,3.643158-2.296387,6.905121-5.055328,8.843597-9.046875,1.546875-3.185242.965057-6.075104-1.5896-8.547852-1.562775-1.512665-3.451324-2.422668-5.462952-3.116791-4.470764-1.542633-9.106903-1.902802-13.794006-1.86615l.000031.000031Z"/>
      <path class="cls-4" d="M28.278715,41.944219c.131561.015594.263123.031219.394867.046875.732269.055878,1.464233.111725,2.196289.167542.130493.008026.260986.016052.391632.023895.818329.169739,1.63092.440918,2.456085.487152,1.444702.080963,2.897278.019806,4.346436.027466.355896.001892.711609.039703,1.067413.060974-.000031.095886-.000031.191803-.000031.287689-.276428.039612-.552124.107422-.829468.114655-4.376648.114166-8.744781-.023163-13.028992-.986176-1.896301-.426239-3.72168-1.164795-5.584778-1.743744-.476898-.148193-.972778-.238495-1.463501-.338287-1.102081-.224121-1.631378-1.034729-1.234955-1.90741.082977-.009674.142273.023224.177826.098663.073029.052979.146179.106018.21933.159058,0,0,.032135.024109.032074.024109.098969.064758.197968.129547.296997.194305.073029-.024567.122803-.000671.149261.071686.091095.052124.18219.104248.273254.156342.229614.115295.459229.230591.688568.345825.075409.041656.151093.083405.226807.125122.081055.035553.162109.071106.242828.106567.081635.043793.163513.087677.245453.131561.070801.027527.141602.055023.21225.08255.106262.05249.212646.105011.319061.157501l.083405-.016479s.051697.067474.051849.067535c.123871.066437.24765.132812.371399.199188.110138.022095.220306.044189.330505.066315.81189.281158,1.623688.562256,2.435425.843384.132812.028198.265533.056396.398376.084564.181488.046997.363007.093994.544464.140961.129883.025848.259766.051727.389801.077606,1.200134.214325,2.400055.42865,3.600067.642944h.000031l-.000031.000061Z"/>
      <path class="cls-4" d="M47.055112,41.528325c.131866-.029144.263733-.058289.395538-.087494.964874-.064941,1.930481-.121918,2.89444-.199005.336365-.026917.668793-.103516,1.003021-.15741.016632.145203.033325.290375.049988.435577-2.878052.425964-5.756104.851929-8.634216,1.277863-.026337-.128052-.052673-.256104-.079041-.384125.357239-.144928.714447-.289856,1.071594-.434814.19162-.002716.383331-.005402.575043-.008087.907898-.147522,1.815796-.295013,2.723633-.442505h.000031-.000031Z"/>
      <path class="cls-4" d="M58.573453,38.958105c.133636-.031769.267242-.063568.401215-.09552.460022-.093903.919708-.187653,1.379364-.281372,0,0,.054565-.010864.053436-.011414-.454803.316498-.86618.772003-1.369781.925934-1.882294.57547-3.7948,1.052155-5.695984,1.565887-.030396-.099609-.060822-.199188-.091217-.298798.674103-.296753,1.348267-.593506,2.022247-.890259.045715-.065369.10199-.076019.168793-.031982.266693-.071533.533142-.143066.799622-.214569l.044556-.040955s.051941.031067.052246.030731c.514984-.148712,1.029602-.297089,1.54422-.445465l.055603-.061798s.078888.026276.079132.026184c.185638-.058929.371033-.117767.556427-.176605h.000122Z"/>
      <path class="cls-4" d="M41.179929,42.191015c.206299-.023865.412659-.04776.618896-.071747.077423.207123.154907.414368.262207.701263h-2.159332c-.007538-.057098-.015106-.114197-.022644-.171295.433624-.15274.867279-.305481,1.300903-.458221h-.000031Z"/>
      <path class="cls-3" d="M15.793607,37.26502c.157623.124756.315216.249512.472778.374054-.153015.149658-.305939.29953-.458893.449402-.004608-.274475-.009247-.548981-.013885-.823456Z"/>
      <path class="cls-3" d="M94.819273,24.863012c-.126801-.106384-.253632-.212769-.380493-.319153.026489-.026672.053009-.053345.079498-.079987.104889.127594.209808.255188.31485.383026.000183.000214-.013885.016113-.013885.016113h.000031Z"/>
      <path class="cls-3" d="M52.526182,40.735387s.026062.011536.027618.012115c-.115631.14328-.232849.28598-.350037.42868l-.133026-.151611c.151794-.096405.303619-.19278.455444-.289185Z"/>
      <path class="cls-4" d="M8.252653,26.815832c-.770172.896576-1.126556,1.311462-1.483002,1.726379-.209167-.276825-.653656-.688171-.585846-.806671.263489-.460785.6474-.886902,1.0784-1.199249.150055-.108765.56601.14917.990448.279541Z"/>
      <path class="cls-4" d="M68.716886,4.878454c-3.210968.007172-6.421936.014343-9.633331.021606.085876-.100311.171783-.288086.258606-.288513,2.921722-.01413,5.843597-.01593,8.765289.002563.203705.001282.406311.172272.609436.264343Z"/>
      <path class="cls-4" d="M12.463804,29.068334c.064178,1.249481.128357,2.498993.192566,3.748474-.717529-1.215942-.563446-2.476654-.192566-3.748474Z"/>
      <path class="cls-4" d="M63.875913,6.661657c4.687134-.035675,9.323334.324524,13.794098,1.867157,2.011658.694122,3.900208,1.604126,5.462952,3.116791,2.554657,2.472748,3.136475,5.36261,1.5896,8.547852-1.938477,3.991547-5.200439,6.750488-8.843597,9.046875-9.129669,5.754608-19.165741,8.968811-29.815704,10.456512-7.32193,1.022827-14.619385,1.220917-21.841553-.538086-2.062988-.502441-4.123688-1.334991-5.952759-2.411377-4.216766-2.481659-5.118713-6.758331-2.541992-10.908875,1.857391-2.991791,4.458038-5.235199,7.322327-7.197327,6.778839-4.643677,14.306183-7.560028,22.219391-9.586212,6.105621-1.563354,12.306671-2.357758,18.607239-2.39328v-.000031Z"/>
    </g>
  </g>
</svg>