<?xml version="1.0" encoding="UTF-8"?>
<svg id="Layer_2" xmlns="http://www.w3.org/2000/svg" viewBox="0 0 129.733579 88.597161">
  <defs>
    <style>
      .cls-1 {
        fill: #24b46c;
      }

      .cls-2 {
        fill: #232221;
      }

      .cls-3 {
        fill: #181b0f;
      }
    </style>
  </defs>
  <g id="Layer_1-2" data-name="Layer_1">
    <g>
      <path class="cls-2" d="M25.752915,22.022275c.921082-8.275421,5.00943-14.359344,12.807281-17.194916,7.778473-2.828552,14.848907-1.032288,20.76297,4.866302,5.492126-7.740143,12.885773-11.216461,22.243622-9.068695,8.29306,1.90332,13.213348,7.429321,14.871002,15.979095.424622-.232025.792847-.439301,1.166443-.636475,5.780579-3.051147,11.769897-3.659302,17.796326-.992188,8.192963,3.625977,11.803406,12.390381,8.608246,20.765228-.775452,2.032562-2.15213,3.836761-3.261749,5.740509-.144653.248199-.345764.463593-.564728.752197,2.237396,1.128021,4.054108,2.649078,5.64621,4.484131,4.336212,4.997986,5.183777,12.900696,1.924988,18.682129-3.382538,6.000916-8.401123,9.661987-15.288879,10.674835-.472961.06955-1.109009.425293-1.298004.823761-3.725983,7.855347-12.808167,11.150085-20.547333,8.996124-2.720734-.757233-5.175201-1.986053-7.401215-3.764801-1.042053.958801-1.983337,1.97464-3.069855,2.799469-5.64563,4.286011-12.739929,4.167267-18.300964-.289062-.584991-.46875-.924957-.593903-1.601959-.083099-7.847229,5.920776-19.174927,5.265167-26.290588-1.512451-.605835-.577057-.999695-.503387-1.630096-.093079-7.426422,4.833374-17.63504,4.311005-24.580078-1.228973-8.02829-6.404236-9.21048-17.44342-2.685013-25.344971.463562-.56134.466263-.88797-.014069-1.406342-7.606735-8.209076-6.74498-22.343567,3.488663-29.591522,4.896347-3.467834,10.273712-4.594025,16.146545-3.535858.324188.058411.649872.108551,1.072205.17868v-.000031h.000031ZM59.270676,12.640562c-.237274-.383575-.373016-.659882-.559601-.896118-3.627045-4.593414-8.453522-6.514801-14.214111-6.418671-8.949036.149353-16.813629,7.919983-17.040344,16.874786-.045654,1.802979-.203003,1.918488-2.012756,1.49704-5.599625-1.303986-10.794205-.3974-15.604355,2.782593C.395417,32.723722-1.118698,46.431089,6.762558,54.521909c1.088791,1.117767,1.105026,1.178589.024963,2.372742-2.509048,2.773987-3.960602,6.024078-4.176559,9.74469-.406845,7.009521,3.329086,13.078186,9.869705,16.011017,6.874802,3.082642,13.52594,2.610413,19.779083-1.659943.945038-.645355,1.404572-.599213,2.124237.182281,1.811584,1.967285,4.032623,3.356262,6.540405,4.273682,7.049835,2.578888,13.57373,1.871735,19.364929-3.177795.678162-.591309,1.105957-.453003,1.701263.118988,6.098724,5.859741,15.102936,5.107178,20.038025-1.681366.583923-.803253,1.021881-.917145,1.782501-.234863,1.693359,1.519043,3.637085,2.626648,5.787323,3.405975,7.417236,2.688232,17.008575-.208771,20.343964-8.317047.30069-.731018.762299-.987488,1.52005-1.075897,5.791962-.675629,10.515106-3.213379,13.751678-8.164795,3.111877-4.760559,3.822021-9.831787,1.44632-15.095978-1.612701-3.573456-4.362488-6.124481-7.858948-7.891937-1.192993-.603088-1.110565-.75592-.359344-1.830414,1.345215-1.924042,2.875183-3.805176,3.773468-5.9375,1.984039-4.709595,1.723602-9.459442-1.180725-13.763947-3.023956-4.481812-7.429657-6.667542-12.818878-6.778503-4.213074-.086761-8.08844,1.01709-11.527527,3.534363-1.272797.931671-1.608002.726715-1.810211-.799561-.149689-1.129669-.401154-2.249237-.664032-3.359894-.539093-2.27771-1.704803-4.254272-3.180145-6.025482-4.659363-5.593781-10.6828-7.517365-17.751648-6.312103-4.378601.746582-8.009064,2.870087-10.774506,6.386719-1.008789,1.282837-1.994781,2.583527-3.237244,4.195282l-.000031-.000031v-.000031Z"/>
      <path class="cls-1" d="M59.270676,12.640562c1.242432-1.611725,2.228455-2.912445,3.237244-4.195282,2.765442-3.516602,6.395905-5.640137,10.774506-6.386719,7.068848-1.205261,13.092255.718323,17.751648,6.312103,1.475311,1.77121,2.641052,3.747772,3.180145,6.025482.262878,1.110657.514343,2.230225.664032,3.359894.202209,1.526306.537384,1.731201,1.810211.799561,3.439117-2.517303,7.314484-3.621124,11.527527-3.534363,5.389191.110962,9.794891,2.296722,12.818878,6.778503,2.904327,4.304504,3.164764,9.054352,1.180725,13.763947-.898315,2.132355-2.428253,4.013489-3.773468,5.9375-.751221,1.074493-.833649,1.227325.359344,1.830414,3.49646,1.767456,6.246246,4.318512,7.858948,7.891937,2.375702,5.26416,1.665558,10.335388-1.44632,15.095947-3.236572,4.951447-7.959686,7.489197-13.751678,8.164795-.757721.088379-1.21933.344879-1.52005,1.075897-3.335388,8.108276-12.926727,11.005249-20.343964,8.317047-2.150238-.779297-4.093964-1.886932-5.787323-3.405975-.76062-.682312-1.198547-.56842-1.782501.234863-4.935089,6.788544-13.93927,7.541138-20.038025,1.681366-.595306-.57196-1.023102-.710266-1.701263-.118988-5.791229,5.04953-12.315125,5.756683-19.364929,3.177795-2.507782-.917389-4.728821-2.306427-6.540405-4.273682-.719666-.781494-1.17923-.827667-2.124237-.182281-6.253143,4.270386-12.904266,4.742615-19.779068,1.659943-6.540604-2.932831-10.276566-9.001495-9.869705-16.011017.215958-3.720581,1.667542-6.970703,4.176559-9.74469,1.080063-1.194153,1.063828-1.254944-.024963-2.372742C-1.118698,46.431028.395386,32.72363,9.839493,26.4801c4.81015-3.180023,10.00473-4.086609,15.60434-2.782593,1.809753.421448,1.967102.305908,2.012756-1.49704.226715-8.954803,8.091309-16.725433,17.040344-16.874786,5.76062-.09613,10.587097,1.825287,14.214111,6.418671.186584.236206.322327.512573.559601.896118l.000031.000061v.000031ZM34.351914,34.759794c-.333069-.075165-.620514-.133575-.904633-.205139-3.147888-.792664-6.170532.370209-7.824463,3.01236-1.52832,2.441528-1.431229,6.056335.285583,8.297943.209229.273163.720551.315277,1.091888.464417.070648-.397491.259155-.819733.18219-1.186279-.096771-.460907-.428467-.868256-.628174-1.312469-1.194672-2.657379-.242035-5.807098,2.205109-7.294189,2.10733-1.280609,4.143463-.965515,6.154053.261017.249878.152435.630737.244293.89032.165344.14032-.042664.17746-.502991.213654-.781097.023376-.179779-.05658-.3703-.06073-.556641-.058044-2.601898.673645-4.866882,3.054779-6.222534,2.095123-1.19281,4.249359-.93515,6.14975.437531.943329.681366,1.588074,1.764099,2.432831,2.59967.269135.266174.747498.321106,1.130096.472687.04071-.397186.264801-.926239.09024-1.16861-.736298-1.0224-1.448242-2.146423-2.427795-2.895355-4.422699-3.381409-10.320282-1.233459-11.521118,3.69162-.175171.718506-.333893,1.44101-.513611,2.219666l-.000031.000031.000061.000031ZM96.002976,32.72421c-.101929-.307678-.175079-.475281-.21286-.650482-.608856-2.823853-2.171661-4.382935-5.041565-4.870514-2.893677-.491699-5.455963,1.273102-6.637665,3.935883-.11438.257782.183899.698456.290619,1.054199.322327-.114685.712433-.152985.94986-.363373.298065-.264191.463196-.674774.69931-1.012695,1.307739-1.871613,3.144196-2.589417,5.171631-2.027252,1.842896.511017,3.174286,2.354126,3.262817,4.521423.021362.523621-.026031,1.058258.065552,1.568573.107574.599335.502289.716278.982666.335358.202209-.16037.345856-.392609.527893-.58075,2.946594-3.045105,8.134766-2.024933,9.516235,1.892792.669769,1.899353.233673,3.674438-.691681,5.408173-.182648.342285.057007.909668.101898,1.37326.425598-.190491,1.061371-.26828,1.235931-.593384.454529-.846405.801056-1.779083,1.022095-2.71701.669861-2.842285-.324707-5.24527-2.433807-7.063538-2.093628-1.804962-4.579956-2.117523-7.168732-.977692-.510651.224854-1.011444.472168-1.640289.767059l.000031-.000031h.000061ZM29.088883,70.427366c.200714.399506.253479.593964.373138.72934,2.434479,2.753784,5.964508,2.973572,8.655304.499756,1.404663-1.291351,1.977692-2.987732,1.989563-4.852631.002167-.337677-.432831-.678162-.666046-1.017334-.271301.299194-.620148.560394-.791199.908722-.156677.319-.101471.736084-.173828,1.103241-.444153,2.253906-1.995361,3.818878-3.984131,4.033508-2.08847.225403-3.833679-.948914-4.784119-3.150482-.176025-.407776-.55423-.728363-.839081-1.089172-.259186.373199-.527039.740875-.772552,1.122864-.078461.12207-.096771.282471-.144257.424744-.873688,2.617615-2.558502,3.883972-5.14798,3.869812-2.512863-.013763-4.636978-1.56781-5.329163-4.029907-.270355-.961731-.253677-2.000977-.468811-2.982788-.095367-.435059-.441727-.815155-.674149-1.220184-.272385.418457-.825043.879669-.768784,1.247925.246323,1.61084.422058,3.306183,1.080856,4.764496,1.263138,2.795959,4.506699,4.235291,7.534607,3.667175,2.188004-.410492,3.711197-1.695984,4.910629-4.029144l.000031.000031-.000031.000031ZM67.941208,58.337705c.452698.592743.714935,1.069336,1.096771,1.41333,1.777344,1.601288,4.467651,1.8927,6.635925.76593,1.784729-.927521,3.376434-3.798248,3.119873-5.760986-.04248-.324982-.433716-.604401-.663818-.904877-.265778.260437-.650024.476013-.769684.791687-.181732.479492-.142242,1.037445-.262634,1.546448-.444031,1.877625-2.103851,3.411255-3.789642,3.536499-1.970673.146423-3.725433-.974152-4.567932-2.842499-.257172-.570374-.668854-1.071167-1.009827-1.603851-.31131.568665-.697113,1.109558-.921234,1.710693-1.064484,2.855377-3.072571,4.185913-5.96582,3.892029-2.58963-.263031-4.588928-2.277252-4.98941-5.043762-.107513-.742798-.118011-1.505005-.29007-2.230591-.076996-.32486-.442627-.58136-.677277-.868927-.249512.317627-.723175.646118-.708344.950928.054108,1.116089.14209,2.261322.449738,3.328674,1.034576,3.58902,3.843201,5.66983,7.319946,5.460846,2.608398-.156799,4.487366-1.530945,5.993469-4.141602h.000031l-.000061.000031ZM102.025071,69.545103c6.722473-.035431,9.932404-5.001953,9.371155-9.915649-.037537-.328613-.107117-.70929-.30423-.948578-.201447-.244537-.578491-.344635-.878693-.507996-.139679.272888-.380493.539703-.397247.819946-.031036.518341.071136,1.044373.114349,1.567474.240265,2.910187-1.456146,5.767944-4.154999,7.001373-2.41983,1.105865-5.187317.498474-7.309723-1.625153-.399841-.400024-.844788-.830261-1.280304-.232361-.174133.239044-.034027.938446.208038,1.210663,1.517334,1.70636,3.433075,2.622467,4.631683,2.630219h-.000031v.000061Z"/>
      <path class="cls-3" d="M34.351914,34.759794c.179718-.778656.33844-1.50119.513611-2.219666,1.200836-4.92511,7.09845-7.073059,11.521118-3.69162.979553.748901,1.691498,1.872986,2.427795,2.895355.17453.242371-.04953.771423-.09024,1.16861-.382629-.151581-.860992-.206482-1.130157-.472687-.844757-.835602-1.489502-1.918335-2.432831-2.59967-1.900391-1.372681-4.054596-1.63031-6.14975-.437531-2.381165,1.355652-3.112823,3.620667-3.054779,6.222534.00415.186371.084137.376862.06073.556641-.036194.278107-.073303.738434-.213654.781097-.259613.078949-.640442-.012909-.89032-.165344-2.010559-1.226501-4.046722-1.541626-6.154053-.261017-2.447144,1.487091-3.39978,4.636841-2.205109,7.294189.199707.444214.531403.851562.628174,1.312469.076935.366547-.111542.788788-.18219,1.186279-.371307-.149139-.88266-.191254-1.091888-.464417-1.716782-2.241608-1.813889-5.856415-.285583-8.297943,1.653931-2.642181,4.676575-3.805054,7.824463-3.01236.284119.071533.571533.129944.904633.205139l.000031-.000031v-.000031Z"/>
      <path class="cls-3" d="M96.002976,32.72421c.628876-.294891,1.129639-.542236,1.640289-.767059,2.588776-1.139832,5.075104-.827271,7.168732.977692,2.1091,1.818268,3.103638,4.221252,2.433807,7.063538-.221069.937927-.567566,1.870636-1.022095,2.71701-.174561.325104-.810333.402924-1.235931.593384-.044922-.463593-.284576-1.030975-.101898-1.37326.925354-1.733734,1.36145-3.508789.691681-5.408173-1.38147-3.917725-6.569611-4.937897-9.516235-1.892792-.182037.188141-.325653.42038-.527893.58075-.480347.38092-.875092.263977-.982666-.335358-.091614-.510345-.044159-1.044983-.065552-1.568573-.088531-2.167297-1.419922-4.010406-3.262817-4.521423-2.027466-.562195-3.863922.155609-5.171631,2.027252-.236115.337921-.401245.748535-.69931,1.012695-.237427.210388-.627533.248688-.94986.363373-.10672-.355774-.404999-.796448-.290619-1.054199,1.181702-2.662811,3.743988-4.427612,6.637665-3.935883,2.869904.487579,4.432709,2.046661,5.041565,4.870514.03775.175201.110931.342804.21286.650482l-.000031.000031h-.000061Z"/>
      <path class="cls-3" d="M29.088883,70.427366c-1.199402,2.33316-2.722626,3.618652-4.910614,4.029144-3.027908.568085-6.271469-.871185-7.534607-3.667175-.658798-1.458282-.834518-3.153656-1.080856-4.764496-.05629-.368256.496399-.829468.768784-1.247925.232407.40506.578796.785156.674149,1.220184.215134.981781.198456,2.021057.468811,2.982788.692184,2.462097,2.816299,4.016144,5.329163,4.029907,2.589493.01413,4.274307-1.252258,5.147964-3.869812.047485-.142273.065796-.302673.144257-.424744.245483-.381989.513336-.749664.772552-1.122864.284882.360809.663055.681396.839081,1.089172.950439,2.201538,2.695648,3.375885,4.784119,3.150452,1.988739-.214661,3.539978-1.779633,3.984131-4.033508.072357-.367126.017151-.78421.173828-1.103241.171051-.348358.519897-.609528.791199-.908722.233215.339172.668213.679657.666046,1.017334-.011871,1.864868-.5849,3.561279-1.989563,4.852631-2.690796,2.473816-6.220825,2.254028-8.655304-.499756-.119659-.135376-.172424-.329865-.373138-.72934l-.000031-.000031h.000031Z"/>
      <path class="cls-3" d="M67.941208,58.337705c-1.506134,2.610657-3.385071,3.984802-5.993469,4.141602-3.476746.208984-6.28537-1.871826-7.319946-5.460846-.307678-1.067322-.39563-2.212555-.449738-3.328674-.014801-.30484.458862-.633301.708344-.950928.23465.287537.600281.544037.677277.868927.172058.725586.182556,1.487793.29007,2.230591.400482,2.766541,2.39975,4.780731,4.98941,5.043762,2.89325.293854,4.901337-1.036652,5.96582-3.892029.224121-.601135.609955-1.142029.921234-1.710693.340942.532684.752625,1.033447,1.009827,1.603851.842499,1.868378,2.59726,2.988922,4.567932,2.842499,1.685791-.125244,3.345612-1.658875,3.789642-3.536499.120361-.509033.080902-1.066925.262634-1.546448.11969-.315674.503937-.53125.769684-.791687.230103.300446.621368.579895.663818.904877.256561,1.962738-1.335144,4.833496-3.119873,5.760986-2.168274,1.12677-4.858582.835327-6.635925-.76593-.381805-.343994-.644073-.820557-1.096771-1.41333h-.000031l.000061-.000031Z"/>
      <path class="cls-3" d="M102.025071,69.545103c-1.198639-.007782-3.114349-.923859-4.631683-2.630219-.242065-.272217-.382172-.971649-.208038-1.210663.435516-.5979.880493-.167664,1.280304.232361,2.122375,2.123627,4.889923,2.731018,7.309723,1.625153,2.698853-1.233398,4.395294-4.091187,4.155029-7.001373-.043213-.523102-.145386-1.049164-.114349-1.567474.016754-.280273.257538-.547058.397247-.819946.300201.16333.677246.263458.878693.507996.197113.239288.266693.619965.30423.948578.561249,4.913696-2.648682,9.880219-9.371155,9.915649h.000031l-.000031-.000061Z"/>
    </g>
  </g>
</svg>