<?xml version="1.0" encoding="UTF-8"?>
<svg id="Layer_2" xmlns="http://www.w3.org/2000/svg" viewBox="0 0 74.25698 82.834736">
  <defs>
    <style>
      .cls-1 {
        fill: #597dbd;
      }

      .cls-2 {
        fill: #1c1a19;
      }
    </style>
  </defs>
  <g id="Layer_1-2" data-name="Layer_1">
    <g>
      <path class="cls-2" d="M63.185751,46.651497c.031006-.552917.066833-.897156.067139-1.241394.007568-7.132629.01178-14.265259.015015-21.397888.000549-1.351868-.047729-1.39978-1.419739-1.148376-9.945801,1.822449-19.887085,3.669678-29.840271,5.450439-1.102539.197205-1.355957.647522-1.355286,1.692017.00824,12.305664-.203247,24.61438.00592,36.916077.144775,8.511353-6.43576,15.131714-15.092072,15.845703-3.922485.323486-7.621582-.510193-10.75943-2.943054-5.885498-4.563232-6.427795-12.605652-1.288513-18.123291,4.054749-4.353271,9.063629-6.137878,14.974609-5.352722.302277.040161.607117.060669,1.040558.103027.027222-.443176.070099-.818604.070404-1.19397.014038-13.755737.021118-27.511475.036804-41.267212.00354-3.133179,1.68338-5.191223,4.753296-5.761597,14.296143-2.656006,28.595642-5.294495,42.894165-7.937744.423889-.078369.850281-.144043,1.27655-.20929,3.26123-.499146,5.539673,1.301575,5.634094,4.660217.105713,3.759155.036194,7.52356.027893,11.285645-.029907,13.638184-.140015,27.276733-.066467,40.914368.032959,6.117371-2.428345,10.729553-7.682129,13.691406-5.643982,3.181824-11.487793,3.285583-17.148743.009399-5.802734-3.358215-7.57251-10.805115-3.943542-16.493652,3.693848-5.790161,9.125183-8.223022,15.925842-7.711365.577026.043396,1.150818.129822,1.873779.213257h.000122ZM71.722189,31.482307h.030884c0-3.566833.000916-7.133606-.000244-10.700439-.00177-5.330627.005859-10.661255-.01355-15.99176-.006958-1.91272-.74585-2.540161-2.649536-2.285095-.891846.119507-1.771729.32782-2.658142.48999-13.335144,2.440491-26.672791,4.868408-40.004761,7.326538-4.234131.780701-4.357971.957642-4.360901,5.27533-.009369,14.032104-.005981,28.064148-.010773,42.096252-.00058,1.662476-.476624,2.024475-1.945129,1.57666-5.30661-1.618286-10.055237-.454346-14.070435,3.234192-5.336975,4.902954-4.575287,13.042297,1.481964,16.270691,5.140839,2.73999,10.28067,2.25116,15.051941-.883728,3.784729-2.486694,5.606689-6.151184,5.592346-10.775085-.03894-12.581543.012695-25.163391.043884-37.745056.005737-2.315613.483032-2.882935,2.774597-3.308411,10.247498-1.902832,20.499268-3.783264,30.748108-5.678772,2.686462-.496826,4.057007.594727,4.059082,3.330688.005981,7.878357-.00769,15.756653-.021118,23.63501-.003296,1.920776-.497437,2.232117-2.384766,1.81134-5.454041-1.21582-10.287354-.021973-14.248901,4.003601-4.229797,4.298157-4.185913,10.609375.243713,14.493347,1.322266,1.159363,3.162292,1.888977,4.888245,2.400818,8.837219,2.62085,17.417786-3.779114,17.447449-12.942078.027771-8.544556.005981-17.089355.005981-25.634033h-.000061.000122Z"/>
      <path class="cls-1" d="M71.722189,31.482307c0,8.544678.021729,17.089417-.005981,25.634033-.029724,9.162903-8.610229,15.562927-17.447449,12.942078-1.725891-.511841-3.565979-1.241455-4.888245-2.400818-4.429688-3.883972-4.473511-10.19519-.243713-14.493347,3.961487-4.025574,8.794861-5.219482,14.248901-4.003601,1.887268.420715,2.38147.109375,2.384766-1.81134.013428-7.878357.0271-15.756653.021118-23.63501-.002136-2.735962-1.37262-3.827515-4.059082-3.330688-10.24884,1.895508-20.500549,3.77594-30.748108,5.678772-2.291565.425476-2.768799.992798-2.774597,3.308411-.031189,12.581665-.082825,25.163513-.043884,37.745056.014282,4.623901-1.807556,8.28833-5.592377,10.775085-4.771271,3.134888-9.911102,3.623718-15.051941.883728-6.057251-3.228333-6.818878-11.367737-1.481964-16.270691,4.015198-3.688599,8.763794-4.852478,14.070435-3.234192,1.468506.447815,1.94455.085815,1.945129-1.57666.004852-14.032104.001434-28.064148.010773-42.096252.00293-4.317688.12677-4.494629,4.36087-5.27533,13.33197-2.45813,26.669556-4.886047,40.004761-7.326538.886353-.162231,1.766235-.370544,2.658142-.48999,1.903748-.255066,2.642578.372437,2.649536,2.285095.019409,5.330566.01178,10.661194.01355,15.99176.00116,3.566833.000244,7.133606.000244,10.700439h-.030884.000061-.000061Z"/>
    </g>
  </g>
</svg>