<?xml version="1.0" encoding="UTF-8"?>
<svg id="Layer_2" xmlns="http://www.w3.org/2000/svg" viewBox="0 0 154.030278 87.943306">
  <defs>
    <style>
      .cls-1 {
        fill: #232221;
      }

      .cls-2 {
        fill: #7f72b3;
      }

      .cls-3 {
        fill: #a15d95;
      }

      .cls-4 {
        fill: #7f71b4;
      }

      .cls-5 {
        fill: #9b7db6;
      }

      .cls-6 {
        fill: #fada16;
      }

      .cls-7 {
        fill: #fcda18;
      }

      .cls-8 {
        fill: #dfa0c7;
      }
    </style>
  </defs>
  <g id="Layer_1-2" data-name="Layer_1">
    <g>
      <path class="cls-1" d="M134.650449,87.923781c-5.936737,0-11.873474.003387-17.810211-.002411-1.456055-.001434-1.523499-.06366-1.584412-1.512848-.306152-7.281281-1.419952-14.425415-3.835938-21.317505-2.515991-7.177567-6.135742-13.713562-11.830017-18.898468-5.774414-5.257874-12.631317-7.958771-20.429321-8.358917-8.802017-.45166-16.756439,1.805145-23.613403,7.423218-4.397446,3.602921-7.581207,8.190094-10.139801,13.227478-4.120087,8.111603-5.870834,16.82132-6.510544,25.810272-.050644.711578-.1091,1.422729-.147919,2.134979-.078461,1.439148-.112671,1.492706-1.588928,1.493561-9.017776.005219-18.035522.002472-27.053314.00174-2.930771-.000244-5.862-.032593-8.792053.012665-1.028503.015869-1.350311-.315308-1.311508-1.369019.529724-14.386505,2.99939-28.362,8.831604-41.615479,5.594711-12.71373,13.566147-23.594513,24.935669-31.784714C43.713987,6.005293,54.836255,1.85829,66.999952.563994c8.558273-.91066,17.106445-.782364,25.590958.855362,10.190704,1.967102,19.498718,5.954681,27.871674,12.111313,11.121887,8.177917,18.982971,18.898727,24.570892,31.393127,4.628632,10.349289,7.165741,21.245407,8.342987,32.478317.316681,3.021637.417694,6.06546.644806,9.097046.081573,1.08902-.389954,1.44928-1.44809,1.444092-5.974121-.029266-11.948486-.01413-17.92276-.01413v-.005341h.000031ZM40.230405,32.098143c.092438-.075516.184891-.151001.277328-.226517,3.194504-2.838455,6.591217-5.370651,10.395279-7.373123,9.476624-4.988525,19.575012-6.716156,30.185211-6.084061,10.524445.626999,20.070129,3.922668,28.474487,10.312469,8.813629,6.700974,14.834503,15.525848,19.021179,25.650421,4.085419,9.879852,6.062836,20.237183,6.580078,30.886475.043823.901581.255768,1.244232,1.220703,1.201111,1.874603-.08374,3.757416-.087708,5.632507-.014038.99411.039062,1.240967-.320099,1.124084-1.231659-.720062-5.615967-1.128601-11.289337-2.179138-16.841919-2.46228-13.014664-7.340088-25.032425-15.76355-35.431824-5.831787-7.199707-12.86319-12.909943-21.292389-16.808456-2.08844-.965897-4.321381-1.627747-6.506348-2.375565-3.641144-1.246201-7.382599-2.05249-11.215881-2.422195l-.419754-.210281c-1.442108-.145538-2.884171-.291077-4.326263-.43663l-.806168-.0448c-2.280167-.001648-4.560364-.003311-6.840515-.004959-.352509.016525-.705032.03302-1.057526.049515-.923111.064087-1.846191.128159-2.769302.192261-.129974.011993-.259933.023972-.389938.03598-.538452.06015-1.076843.1203-1.615295.180466-.136368.016724-.272705.033447-.409073.050171-.388992.054077-.777985.108139-1.166992.16217-.138245.019791-.276459.039581-.414703.059372-.644272.146774-1.28569.307571-1.933319.437622-1.609955.323318-3.258194.513016-4.825638.976944-2.091431.619034-4.121887,1.444275-6.176956,2.185349-3.457443,1.24678-6.689102,2.953995-9.774033,4.927444-4.595871,2.939987-8.769257,6.356216-12.366714,10.513428-2.531097,2.924896-4.949661,5.881042-6.977646,9.19133-2.813461,4.592361-5.200699,9.378067-7.04422,14.422165-2.980042,8.153778-4.668823,16.605347-5.519241,25.230164-.230392,2.336884-.380188,4.681671-.578964,7.172791,2.429138,0,4.673035-.047424,6.913223.023224.902527.028442,1.125717-.24408,1.170929-1.123413.304626-5.927612,1.033447-11.792908,2.350098-17.598663,2.735962-12.063995,7.692108-23.01004,15.864899-32.399658.078125-.097488.156281-.194962.234406-.29245,0,0-.000656.001526-.000641.001541.072723-.075989.145462-.151993.218185-.227997,0,0,.004745-.005341.00473-.005356.071777-.074768.14357-.149551.215363-.224319,0,0,.006012-.006058.005997-.006088.07193-.073441.143875-.146896.215805-.220337l.008331-.008942c.071152-.072479.142303-.144943.213425-.217422l.011185-.011261c.071167-.07135.142334-.142731.213486-.214096l.011993-.011993c.071503-.070923.14299-.14183.214523-.212738l.011703-.011307.21521-.213196.010895-.01088c.072067-.071167.144119-.142334.216187-.213516l.010254-.009781c.072113-.071716.144196-.143417.216309-.215134l.00943-.009659c.071671-.072128.143326-.144257.214996-.21637l.009766-.009781c.071854-.07193.143692-.143875.215546-.21579l.009628-.009674c.072052-.07193.144119-.143829.216187-.215759l.009247-.009155c.073318-.071762.146622-.143509.219925-.215271,0,0,.007553-.00647.007553-.006454l-.000015.000046-.000046.000031ZM51.061109,47.472975l.043976-.043625c.202393-.215012.40477-.430054.607162-.645065.542847-.542236,1.085709-1.084503,1.628555-1.626755.139984-.119614.279938-.239227.419907-.358841.241669-.173508.490906-.337433.723923-.521866,11.106003-8.790237,23.363449-10.016357,36.379929-5.271301,4.59729,1.675903,8.4104,4.729156,11.805664,8.253799,2.615204,3.032211,5.021545,6.200485,6.861145,9.786438,4.479706,8.732086,6.546967,18.070892,7.128967,27.793427.101685,1.698547.070496,1.700409,1.783966,1.551331,1.817719.000336,3.635468.000671,5.453186.001007.133484-.006165.266937-.012329.400421-.018524.013641-.988708.027313-1.977448.040985-2.966156-.006989-.115906-.014008-.231781-.020996-.347687-.072144-.832031-.144318-1.664093-.216492-2.496124l-.005615-.025848c-.089844-.513062-.179749-1.026123-.269623-1.539154-.054657-.519989-.109283-1.039948-.163971-1.559937-.033875-.381989-.067749-.763977-.101593-1.145966-.048584-.2211-.097168-.4422-.145752-.663269-.023651-.235107-.047272-.470215-.070862-.705353-.054474-.216827-.108917-.433685-.16333-.650543-.025604-.229462-.051178-.458893-.076752-.688324-.043701-.142731-.087402-.285492-.131134-.428192-.02655-.235657-.053131-.471283-.079712-.70694l-.141357-.412994c-.025543-.239594-.051117-.479187-.07663-.718781l-.17337-.647217c-.05722-.167725-.11441-.335449-.171631-.503174l.011444-.034332c-.078918-.296387-.157806-.592743-.236725-.88913l-.011627-.016266c-.098083-.338257-.196167-.676544-.29425-1.014801-.035339-.038818-.066284-.085297-.092834-.139435-.033203-.219666-.066376-.439392-.099579-.659058-.041107-.080231-.082245-.160461-.123322-.240692-.024902-.23111-.049835-.46225-.074768-.693359l-.01712-.079468c-.074371-.190552-.148743-.381104-.223083-.571655-.044464-.077545-.088898-.155121-.133362-.232666-.025787-.235779-.051575-.471558-.077393-.707336.011475-.0354.039032-.074951.031219-.105408-.018066-.070435-.053345-.136475-.081635-.204315-.057953-.123688-.115875-.247406-.173859-.371094.01355-.034119.044495-.072662.03714-.101471-.0177-.069305-.053345-.134033-.081757-.200623-.059998-.175476-.120026-.350983-.180023-.526489.020996-.06073.005829-.110443-.045471-.1492-.059845-.178528-.119659-.357056-.179535-.535583.026154-.055664.013855-.10083-.036896-.13559-.062714-.189087-.125397-.378143-.18811-.5672.030121-.05011.02005-.090118-.030212-.119995-.020233-.146271-.014832-.30191-.064362-.437469-1.954163-5.344666-4.442993-10.417786-7.837433-15.00441-4.309357-5.822906-9.566345-10.56308-16.165161-13.682877-7.524872-3.557617-15.472931-4.6651-23.709686-3.861221-11.600677,1.132172-21.084656,6.264648-28.509888,15.219223-5.386841,6.496323-8.838837,13.982895-11.16954,22.024658-1.475616,5.091431-2.41304,10.28537-2.737427,15.582764-.045593.361084-.091217.722137-.13681,1.083221-.028381.543213-.056778,1.086456-.085144,1.6297-.033737.589722-.06749,1.179474-.101227,1.769196.110687.087769.221359.252014.332047.252014,2.340637.000183,4.681305-.016113,7.02182-.041931.077423-.000824.153381-.13504.230057-.207092,0,0-.003647.001282-.003632.001282l.195847-1.171722c.043427-.055481.047272-.113586.011551-.174316.226608-2.260834.453201-4.521698.67984-6.782562l-.000198-.001556c.076096-.537781.152206-1.075562.228271-1.613342.077271-.326202.171967-.649384.229309-.979065,1.223709-7.034393,3.273376-13.783386,6.91893-19.978989,1.001328-1.701752,2.027374-3.388977,3.042053-5.08287l.007874-.014816.895111-.806656c.227753-.284271.45546-.568512.683212-.852768.075409-.003143.108093-.041809.098083-.116013.26973-.321426.53949-.642822.809235-.964233.056747-.062485.11351-.124985.170212-.187469h-.000061l-.000092.000122ZM31.240522,27.633009c.287399-.227081.600235-.428558.858505-.684937,8.23233-8.171967,18.003601-13.608566,29.311981-16.141022,10.22139-2.289062,20.525101-2.292206,30.752533-.071671,10.774261,2.339279,20.154053,7.431732,28.209778,14.976349,8.963318,8.394623,14.839081,18.722183,18.814728,30.185913,3.305664,9.531845,4.78244,19.438705,5.397705,29.479721.051178.834839.271088,1.096069,1.109039,1.068481,1.80127-.059296,3.609497-.082794,5.40802.010773,1.114227.057953,1.490265-.186127,1.413605-1.401306-.611633-9.697144-2.007996-19.247345-4.8414-28.573135-4.420471-14.549301-11.612-27.383835-23.003815-37.672653-6.755463-6.101379-14.472931-10.537216-23.075714-13.495361-9.078949-3.121857-18.433105-4.169678-27.973145-3.814331-11.12056.414215-21.718246,2.938156-31.551758,8.242233-11.161057,6.020142-19.846832,14.662552-26.509811,25.393097-4.565796,7.353088-7.794556,15.274628-10.060608,23.607285-2.325455,8.551086-3.473358,17.280457-3.976746,26.107941-.026947.472717-.003494.948303-.003494,1.567566,2.32782,0,4.571594-.035919,6.813156.018829.820389.02002,1.093872-.202911,1.139832-1.050323.362198-6.680817,1.140686-13.312256,2.606918-19.848328,2.920868-13.020462,8.166168-24.928528,16.907959-35.156494.771011-.902069,1.505905-1.834946,2.257568-2.75351l-.004883.004852.000015-.000015.000031.000046ZM20.080198,86.449202c2.603775,0,5.032944.01767,7.460526-.035431.18306-.003967.479172-.497223.513214-.787567.397598-3.389679.642563-6.800751,1.143509-10.174194,1.680557-11.317383,5.578033-21.763611,12.523758-30.960632,4.528183-5.99585,10.246277-10.493057,17.124802-13.538452,6.859589-3.037033,14.073578-3.875748,21.473846-3.494492,6.313354.325272,12.321564,1.912827,17.871765,4.950684,9.040436,4.948196,15.417969,12.42363,19.972717,21.541412,4.946136,9.901199,7.154327,20.485733,7.696075,31.4655.040344.817688.234192,1.113434,1.097717,1.079559,1.913422-.075073,3.833282-.096405,5.746368-.026489.987518.036133,1.187744-.311615,1.144135-1.224518-.287079-6.015045-1.171875-11.939911-2.526947-17.802948-2.528809-10.941467-6.92218-20.980072-14.169312-29.679352-6.271942-7.528671-14.043518-12.860718-23.378204-15.773224-8.74884-2.729706-17.693146-3.124954-26.736786-1.60759-9.9189,1.664261-18.509735,5.98877-25.868332,12.787521-7.511551,6.940079-12.447845,15.530182-15.852493,25.065811-2.446869,6.853104-3.942352,13.927811-4.682419,21.160507-.235352,2.300079-.365219,4.610962-.55394,7.053894v-.000031.000031Z"/>
      <path class="cls-8" d="M37.070752,35.331312c-8.172791,9.389618-13.128937,20.335648-15.864899,32.399658-1.31665,5.805756-2.045456,11.671051-2.350098,17.598663-.045197.879303-.268402,1.151855-1.170929,1.123413-2.240173-.070618-4.48407-.023224-6.913223-.023224.198776-2.49115.348557-4.835938.578964-7.172791.850418-8.624847,2.5392-17.076416,5.519241-25.230179,1.843521-5.044098,4.230759-9.829788,7.04422-14.422165,2.028-3.310287,4.446579-6.266434,6.977646-9.19133,3.597458-4.157211,7.770844-7.573425,12.366714-10.513428,3.084946-1.97345,6.316605-3.680664,9.774048-4.927444,2.055069-.741074,4.085526-1.566315,6.176956-2.185349,1.567474-.463943,3.215683-.653641,4.825638-.976944.647614-.130051,1.289047-.290833,1.93277-.437561.138077-.019775.276657-.039597.415253-.059433.388992-.054062.777985-.108109,1.166412-.162125.136169-.016693.272903-.033478.409668-.050247.538452-.060135,1.076843-.120285,1.614761-.180359.129822-.011963.260132-.024002.390457-.036026.923111-.064087,1.846191-.128189,2.768738-.19223.35231-.01651.705215-.03302,1.058121-.049545,2.280167.001648,4.560364.003311,6.839737.004913.268448.014923.53772.029892.806976.044861,1.442108.145538,2.884171.291107,4.325851.436172.139755.069946.279984.140335.420166.210724,3.833298.36972,7.574753,1.17601,11.215866,2.422211,2.184967.747803,4.417908,1.409668,6.506348,2.375565,8.429199,3.898514,15.460602,9.608734,21.292389,16.808456,8.423462,10.399414,13.30127,22.417175,15.76355,35.431824,1.050507,5.552582,1.459076,11.225952,2.179138,16.841919.116882.91156-.129974,1.270721-1.124084,1.231659-1.875092-.0737-3.757904-.069702-5.632507.014038-.964935.043121-1.17691-.29953-1.220703-1.201111-.517242-10.649292-2.494659-21.006622-6.580078-30.886475-4.186676-10.124588-10.20755-18.949448-19.021149-25.650421-8.404358-6.389801-17.950043-9.685471-28.474487-10.312469-10.610184-.63208-20.708572,1.095535-30.185196,6.084061-3.804062,2.002487-7.20076,4.534668-10.395554,7.37326-.092529.075562-.184799.150955-.277039.226364,0,0-.007553.00647-.007553.006454-.073318.071732-.146622.143509-.21994.215286,0,0-.009247.009155-.009232.00914-.072052.071899-.144135.143829-.216202.215759,0,0-.009628.009674-.009628.009659-.071854.07193-.143692.143875-.215546.21582,0,0-.009766.009781-.009735.009766-.071655.072098-.143326.144241-.215012.216385,0,0-.00943.009659-.009415.009628-.072083.071701-.144226.143433-.216339.215164,0,0-.010254.009781-.010239.009766-.072052.071167-.144135.142334-.216202.213516-.000015,0-.01091.01088-.010895.010864-.071716.07106-.143478.142136-.21521.213226,0,0-.011703.011307-.011688.011292-.071503.070908-.143021.14183-.214523.212769,0,0-.011993.011993-.011993.011978-.071152.07135-.142334.142731-.213516.214111,0,0-.011185.011261-.011185.011246-.071152.072479-.142303.144958-.21344.217453,0,0-.008331.008942-.008316.008926-.071915.073441-.143845.146912-.215805.220352-.000015,0-.006012.006058-.005997.006042-.071777.074753-.143585.149551-.215363.22435l-.004745.005341c-.072723.075989-.145462.151993-.218216.227982,0,0,.000656-.001526.000656-.001511-.078156.097488-.156281.194962-.234406.292435l-.000015-.000061.000015-.000046Z"/>
      <path class="cls-5" d="M20.080198,86.449202c.188721-2.442932.318588-4.753784.55394-7.053864.740082-7.232727,2.235565-14.307434,4.682419-21.160522,3.404648-9.535629,8.340942-18.125732,15.852493-25.065811,7.358597-6.798752,15.949432-11.123276,25.868332-12.787521,9.04364-1.517349,17.987946-1.122101,26.736786,1.60759,9.334686,2.912491,17.106262,8.244537,23.378204,15.773224,7.247162,8.699265,11.640503,18.737885,14.169312,29.679367,1.355072,5.863068,2.239868,11.787933,2.526947,17.802979.04361.912903-.156616,1.260651-1.144135,1.224518-1.913086-.069946-3.832947-.048584-5.746368.026489-.863525.033875-1.057373-.261871-1.097717-1.079559-.541748-10.979797-2.749939-21.564331-7.696075-31.465515-4.554749-9.117783-10.932281-16.593231-19.972717-21.541412-5.550232-3.037842-11.558411-4.625412-17.871765-4.950684-7.400269-.381256-14.614258.457458-21.473846,3.494492-6.87854,3.045395-12.596619,7.542618-17.124802,13.538452-6.945755,9.197021-10.843201,19.643234-12.523758,30.960648-.500946,3.373444-.745911,6.784515-1.143509,10.174194-.034042.290344-.330185.7836-.513214.787567-2.427582.05307-4.856735.035431-7.460526.035431v-.000061Z"/>
      <path class="cls-2" d="M53.340787,45.15753c-.542847.542236-1.085709,1.084503-1.62825,1.626358-.153-.059952-.306229-.119492-.459503-.179016l-.147964.824493s-.043976.043625-.043777.043106c-.056671.062317-.113541.125153-.17041.188004-.26973.321396-.53949.642822-.808731.963257-.057602.017044-.090622.056366-.098587.117004-.227753.284271-.45546.568512-.682922.852341-.622177-.365723-.856384-.154556-.89537.807083,0,0-.007874.014816-.007812.014374-.258514.162003-.591827.267883-.764313.495483-2.174866,2.869781-3.964249,5.961121-5.444183,9.249359-2.161682,4.80304-3.54895,9.824341-4.438416,14.994507-.264511,1.537506-.435349,3.092194-.611404,4.64328-.082352.725403-.446091.776581-1.079391.717438-.384506-.035919-.859787.188751-1.187653.437012-.408295.309174-.657806.82547-1.062012,1.1427-1.04454.819824-2.442398,1.290741-2.68663,2.961304-.419586-1.019562-.656616-1.997742-.927063-2.966675-.041153-.147461-.237274-.25174-.36174-.375977.324417-5.297394,1.261826-10.491333,2.737457-15.582764,2.330704-8.041748,5.7827-15.52832,11.16954-22.024658,7.425232-8.954575,16.90921-14.087051,28.509888-15.219223,8.236771-.803879,16.184845.303589,23.709702,3.861221,6.598816,3.119797,11.855804,7.859985,16.165161,13.682877,3.39444,4.586624,5.88327,9.659744,7.837433,15.00441.04953.135559.044159.291199.064331.437256-.161011-.068329-.32196-.136414-.643738-.272614.737091,2.48999,1.426117,4.817535,2.115143,7.14505.077576-.012634.155212-.025238.232788-.037872.022186-.164581.044342-.329193.066498-.493774.098083.338257.196167.676544.29422,1.015381-.122986.103912-.245911.207245-.368835.310547.055603.042114.111267.084259.166901.126373.071198-.140411.142426-.280823.213654-.421234.078918.296387.157806.592743.236511.888947-.139465.210541-.424927.444458-.39566.628387.350342,2.203094.810944,4.390045,1.115143,6.598755.339935,2.46814.569,4.952545.788391,7.434967.025757.291656-.315338.615723-.486389.924713-.319153-.224274-.86676-.404053-.920624-.679993-.367096-1.881348-1.607422-2.998962-3.070007-4.078644-1.414581-1.044281-2.886475-2.168091-2.938171-4.227783-.012024-.478607-.141357-.956055-.234192-1.430603-.815918-4.172546-1.650543-8.351379-3.352478-12.269379-1.320587-3.040131-2.646515-6.107849-4.327271-8.952545-1.392517-2.356888-3.296112-4.414291-5.007874-6.577011-.147675-.186584-.555115-.167831-.841888-.244461-3.395294-3.524658-7.208344-6.577896-11.805664-8.253799-13.016479-4.745056-25.273895-3.518936-36.379929,5.271301-.233032.184418-.482269.348358-.723572.521454-.192245-.052185-.384842-.103958-.577408-.155701.052383.171646.104752.343307.15715.514954l-.000061.000015-.000015.000015Z"/>
      <path class="cls-6" d="M31.245389,27.628157c-.751678.918564-1.486557,1.851425-2.257568,2.75351-8.741806,10.227966-13.987106,22.136017-16.907974,35.156494-1.466232,6.536072-2.24472,13.16748-2.606918,19.848328-.045959.847382-.319443,1.070312-1.139832,1.050323-2.241562-.054749-4.485336-.018829-6.813156-.018829,0-.619263-.023468-1.094849.003494-1.567566.503387-8.827454,1.651291-17.556854,3.976746-26.107941,2.266052-8.332672,5.494797-16.254196,10.060608-23.607285,6.662979-10.73056,15.34877-19.372971,26.509796-25.393097,9.833511-5.304077,20.431198-7.828018,31.551758-8.242233,9.540054-.355347,18.894196.692474,27.973145,3.814331,8.602783,2.958145,16.320251,7.393982,23.075714,13.495361,11.391815,10.288834,18.583344,23.123352,23.003815,37.672653,2.833405,9.32579,4.229767,18.875992,4.8414,28.573135.07663,1.215149-.299377,1.459259-1.413605,1.401306-1.798492-.093536-3.60672-.070068-5.40802-.010773-.837952.027588-1.057861-.233673-1.109039-1.068481-.615204-10.041016-2.09201-19.947876-5.397705-29.479721-3.975647-11.463745-9.85141-21.791306-18.814728-30.185913-8.055725-7.544617-17.435516-12.63707-28.209778-14.976349-10.227402-2.220535-20.531128-2.217377-30.752518.071671-11.30838,2.532455-21.079666,7.969055-29.312012,16.141022-.25827.256393-.571106.45787-.858551.684921.099091-.231216.142929-.515808.306381-.68486,1.010269-1.044968,2.01149-2.103424,3.085159-3.081192,1.241913-1.130981,2.474564-2.302002,3.85585-3.243759,2.433472-1.659073,4.875473-3.359177,7.498917-4.673325,3.506332-1.756378,7.116089-3.368256,10.813065-4.668365,5.569061-1.958435,11.436966-2.529602,17.296127-2.794296,6.066574-.274109,12.085297.131348,18.057724,1.501892,5.937347,1.362518,11.562042,3.466034,16.790771,6.503677,5.776672,3.355957,11.135803,7.340485,15.467346,12.488846,2.496124,2.966766,4.820892,6.095169,7.016083,9.292526,2.610718,3.802658,4.696503,7.91832,6.368164,12.223282.985474,2.537888,1.908142,5.102905,2.766083,7.686539.563965,1.698502,1.022186,3.438339,1.420685,5.184067.621704,2.723083,1.285431,5.447357,1.691376,8.20639.644836,4.383026,1.070984,8.797943,1.661621,13.189697.048218.358704.630524.894043.993988.918854,1.533325.104706,3.07782.038055,4.618103.052734.699066.006683.930908-.344177.871948-.991943-.222992-2.449249-.391479-4.904602-.669617-7.347504-.345428-3.034271-.601105-6.095062-1.214111-9.079041-1.103943-5.374023-2.488434-10.673172-4.305237-15.877472-2.334045-6.686127-5.280914-13.040283-9.241211-18.895203-1.985016-2.934677-4.04361-5.871704-6.440216-8.464981-4.419434-4.782028-9.133362-9.253174-14.867249-12.551605-4.291992-2.468994-8.593811-4.898331-13.356842-6.282043-3.790619-1.101227-7.672302-1.898056-11.528931-2.761292-3.880692-.868607-7.825439-1.225067-11.799026-1.113159-3.213852.09053-6.441803.128311-9.632568.474304-3.69841.401062-7.419266.878922-11.029678,1.743362-6.025375,1.442657-11.748642,3.764191-17.159454,6.823563-4.781052,2.703293-9.13855,5.95076-13.044205,9.816696-2.715927,2.688293-5.426941,5.378113-7.604416,8.537415-1.821976,2.643494-3.865204,5.18399-5.315659,8.022583-2.259872,4.422729-4.248795,9.00058-6.08371,13.619354-2.631668,6.624268-4.004181,13.593842-5.040298,20.623413-.331177,2.246918-.535172,4.514496-.735962,6.778107-.177948,2.005951-.307571,4.018494-.35965,6.03064-.007477.288879.52739.831451.833893.84845,1.573105.087219,3.153793.028412,4.731506.047089.671982.007935.889938-.290283.948975-.946045.344177-3.822205.686462-7.64563,1.116837-11.458801.693695-6.146454,2.261322-12.105743,4.173248-17.966125,1.641464-5.031433,3.979919-9.756348,6.564224-14.382904,2.630066-4.708542,5.790222-8.976852,9.561035-12.810272.242065-.246094.612961-.365677.92392-.544098l-.000015-.000015-.000046-.000046Z"/>
      <path class="cls-4" d="M102.670224,47.259321c.286774.07663.694214.057877.841888.244461,1.711761,2.16272,3.615356,4.220123,5.007874,6.577011,1.680786,2.844696,3.006683,5.912415,4.327271,8.952545,1.701935,3.917999,2.53656,8.096832,3.352478,12.269379.092834.474548.222137.951996.234192,1.430603.051666,2.059662,1.52359,3.183502,2.938171,4.227783,1.462585,1.079712,2.702911,2.197296,3.070007,4.078674.053864.27594.601501.455719.920624.679993.171021-.309021.512115-.633057.486389-.924713-.21936-2.482422-.448425-4.966827-.788391-7.434967-.30423-2.20871-.764832-4.39566-1.115143-6.598755-.029236-.183929.256195-.417877.39566-.628387.000183.000153-.01123.034485-.01123.034454.05722.167725.114441.335449.171631.503204.0578.215729.11557.431458.17337.647064.025543.239532.051117.479218.076691.718933.047119.137665.094238.27533.141357.412781.02655.235596.053131.471375.079712.707153.043732.142731.087433.285461.131104.427979.025574.22937.051208.458954.076813.688568.054443.216827.108856.433685.163269.65036.023621.235077.047272.470276.070953.705505.048584.2211.097168.442169.14563.662964.033844.381897.067749.764069.101654,1.146271.054688.519989.109314,1.039948.16452,1.560242.090057.513153.179565,1.026001.269073,1.538849,0,0,.005615.025848.005615.025818.072144.832031.144318,1.664093.216461,2.496155.006989.115906.014008.231781.021088.348236-.013641.988892-.027313,1.977264-.041077,2.965607-.133484.006165-.266937.012329-.400726.018524-1.81781-.000336-3.635345-.000671-5.452881-.001007-1.71347.149048-1.682251.147186-1.783966-1.551331-.582001-9.722565-2.649261-19.06134-7.128967-27.793427-1.8396-3.585953-4.245941-6.754227-6.861145-9.786438v-.000046l.000031-.000046Z"/>
      <path class="cls-4" d="M29.834607,81.712935c.124435.124237.320587.228485.36174.375977.270462.968903.507492,1.947113.927063,2.966675.244232-1.670563,1.64209-2.141479,2.68663-2.961304.404205-.31723.653717-.833496,1.062012-1.1427.32785-.24826.803146-.472931,1.187653-.437012.633286.059143.99704.007965,1.079391-.717438.176056-1.551086.346924-3.105774.611404-4.64328.889465-5.170166,2.276733-10.191467,4.438416-14.994507,1.479935-3.288239,3.269302-6.379593,5.444183-9.249359.172485-.227585.505798-.333466.764313-.495483-1.014786,1.694321-2.040802,3.381561-3.042145,5.083313-3.645554,6.195587-5.695236,12.94458-6.91893,19.979004-.057358.329681-.152039.652832-.229355.979523-.076111.537933-.152191,1.075409-.228241,1.612885-.000015,0,.000168.001556.000168.001556-.226608,2.260864-.453201,4.521698-.679825,6.782562.035721.060699.031876.118835-.011597.174622-.065292.390686-.130554.781036-.195831,1.171387,0,0,.003647-.001282.003616-.001343-2.527985-.001007-5.055954-.001984-7.583893-.00296.033737-.589691.06749-1.179443.101257-1.769806.028397-.543457.056778-1.086243.085144-1.629059.045593-.361084.091187-.722137.13678-1.083221h.000015l.000031-.000031Z"/>
      <path class="cls-4" d="M121.798764,68.212843c-.022156.164581-.044312.329193-.066498.493774-.077576.012634-.155212.025238-.232788.037872-.689026-2.327545-1.378052-4.65506-2.115143-7.14505.321777.1362.482758.204285.643738.272614.050354.03009.060394.070068.030426.120605.062775.189209.125366.377991.187927.566803.050781.03476.06308.079956.036987.135803.059875.178589.119659.356995.179474.53537.0513.038727.066467.08847.045471.149323.060028.175537.120026.350952.180023.526337.028412.066589.064026.131317.081726.200623.007355.028778-.023621.067352-.03714.101501.057953.123718.115875.247406.173828.371063.02829.06781.063568.13385.081635.204315.007812.030457-.019745.069977-.031158.105438.025818.235779.051575.471527.077332.707275.044464.077545.088928.15509.133331.232819.074371.190613.148743.381042.223145.571472,0,0,.01712.079468.017456.080048.024994.231323.049744.462036.074463.69278.041077.080231.082214.160461.123413.240906.033203.219757.066345.439301.099487.658875.02655.054138.057495.100616.092834.139435h-.000031.000061Z"/>
      <path class="cls-2" d="M29.511426,86.195021c2.527939.000977,5.055908.001953,7.583893.00296-.076614.072113-.152573.206299-.230011.207153-2.340515.025787-4.681183.042114-7.02182.041931-.110703,0-.221359-.164276-.332047-.252045h-.000015Z"/>
      <path class="cls-2" d="M37.299115,84.853315c.226593-2.260834.453201-4.521698.679825-6.782562-.226593,2.260834-.453201,4.521698-.679825,6.782562Z"/>
      <path class="cls-2" d="M118.444242,86.390547c1.817505.000336,3.635071.000641,5.452881.001007-1.817413-.000336-3.635162-.000641-5.452881-.001007Z"/>
      <path class="cls-2" d="M124.297849,86.37303c.013733-.988342.027435-1.976685.041077-2.965607-.013763.98819-.027435,1.976898-.041077,2.965607Z"/>
      <path class="cls-4" d="M48.405256,50.400145c.039001-.961639.273193-1.172806.89537-.807083-.298645.269318-.597015.538208-.89537.807083Z"/>
      <path class="cls-2" d="M124.317838,83.059187c-.072144-.832062-.144287-1.664124-.216461-2.496155.072144.832062.144318,1.664124.216461,2.496155Z"/>
      <path class="cls-3" d="M73.791196,10.642622c-.35289.016525-.705795.033051-1.058121.049545.353073-.016525.705612-.033035,1.058121-.049545Z"/>
      <path class="cls-4" d="M51.105085,47.42935l.147964-.824493c.153275.059525.306519.11908.459503.179016-.202698.215424-.405075.43045-.607468.645462v.000015Z"/>
      <path class="cls-3" d="M81.437909,10.692396c-.269257-.014969-.538528-.029938-.806976-.044861.269516.014984.538254.029922.806976.044861Z"/>
      <path class="cls-4" d="M53.340787,45.15753c-.052399-.171661-.104782-.343307-.15715-.514954.192566.051758.385162.103531.577408.155701-.14032.120026-.280289.239639-.420258.359253Z"/>
      <path class="cls-2" d="M37.978788,78.069227c.07605-.537476.152115-1.074921.228241-1.612885-.07605.537323-.152161,1.075104-.228241,1.612885Z"/>
      <path class="cls-2" d="M124.095761,80.537214c-.089508-.512848-.179016-1.025696-.269073-1.538849.089325.512756.17923,1.025818.269073,1.538849Z"/>
      <path class="cls-2" d="M29.697828,82.796156c-.028381.542816-.056747,1.085602-.085129,1.629059.028381-.542603.056778-1.085815.085129-1.629059Z"/>
      <path class="cls-2" d="M123.662137,77.438124c-.033905-.382202-.06781-.764404-.101654-1.146271.033936.382294.06781.764282.101654,1.146271Z"/>
      <path class="cls-2" d="M37.091718,86.199354c.065262-.39035.130524-.780701.195831-1.171387-.065262.390228-.130554.780823-.195831,1.171387Z"/>
      <path class="cls-3" d="M67.959134,11.100828c-.136765.016754-.273483.033524-.409668.050232.136963-.016785.2733-.033524.409668-.050232Z"/>
      <path class="cls-3" d="M86.183927,11.339293c-.140198-.070389-.280411-.140793-.420166-.210724.14032.070557.280258.140656.420166.210724Z"/>
      <path class="cls-3" d="M69.964368,10.884413c-.13031.012039-.260635.024063-.390457.036026.130508-.01207.260468-.024048.390457-.036026Z"/>
      <path class="cls-3" d="M66.383069,11.313185c-.138596.019836-.277176.039658-.415253.059433.138794-.019882.276993-.039658.415253-.059433Z"/>
      <path class="cls-2" d="M122.751615,72.036543c-.025574-.239716-.051117-.479401-.076691-.718933.025574.239746.051117.47934.076691.718933Z"/>
      <path class="cls-2" d="M122.972715,73.156447c-.026581-.235779-.053162-.471558-.079712-.707153.026581.23587.053162.471497.079712.707153Z"/>
      <path class="cls-2" d="M123.1806,74.272993c-.025604-.229614-.051239-.459198-.076813-.688568.025635.229675.051208.459106.076813.688568Z"/>
      <path class="cls-2" d="M123.414823,75.628859c-.023682-.235199-.047302-.470428-.070923-.705505.023682.23526.047272.470367.070923.705505Z"/>
      <path class="cls-2" d="M120.246457,62.559462c-.062561-.188812-.125153-.377594-.187897-.566803.062531.18866.125244.377716.187897.566803Z"/>
      <path class="cls-2" d="M120.462918,63.230635c-.059814-.178375-.119598-.35675-.179474-.53537.059814.178314.119629.356842.179474.53537Z"/>
      <path class="cls-2" d="M120.688382,63.906294c-.059967-.175385-.119965-.3508-.179993-.526337.059967.175354.119995.350861.179993.526337Z"/>
      <path class="cls-2" d="M121.034696,65.59648c-.025757-.235748-.051514-.471466-.077332-.707275.025757.235718.051544.471497.077332.707275Z"/>
      <path class="cls-2" d="M121.391141,66.400801c-.074371-.19043-.148804-.380859-.223145-.571472.074432.190399.148804.38092.223145.571472Z"/>
      <path class="cls-2" d="M121.48303,67.173628c-.024719-.230743-.049408-.461456-.074463-.69278.024628.23056.04953.46167.074463.69278Z"/>
      <path class="cls-2" d="M121.70596,68.073408c-.033142-.219574-.066284-.439117-.099487-.658875.033112.219482.066284.439178.099487.658875Z"/>
      <path class="cls-2" d="M122.501584,70.670546c-.05719-.167755-.11441-.33548-.171631-.503204.05722.167755.11441.33548.171631.503204Z"/>
      <path class="cls-5" d="M38.423063,33.892607c.071503-.070923.143021-.141861.214523-.212769-.071518.070923-.143021.14183-.214523.212769Z"/>
      <path class="cls-5" d="M38.197568,34.118696c.071167-.071396.142334-.142761.213516-.214111-.071167.071396-.142334.142761-.213516.214111Z"/>
      <path class="cls-5" d="M37.972943,34.347395c.071152-.072479.142303-.144974.21344-.217453-.071152.07251-.142303.144974-.21344.217453Z"/>
      <path class="cls-5" d="M37.748822,34.576674c.071976-.073441.143921-.146912.215805-.220352-.07196.073441-.14389.146896-.215805.220352Z"/>
      <path class="cls-5" d="M38.649274,33.668562c.071732-.071075.143494-.142166.21521-.213226-.071732.071075-.143478.142151-.21521.213226Z"/>
      <path class="cls-5" d="M37.527433,34.807081c.071808-.074799.143585-.149597.215363-.224365-.071808.074799-.143585.149582-.215363.224365Z"/>
      <path class="cls-5" d="M37.070752,35.331312c.078125-.097473.15625-.194946.234406-.292435-.078125.097458-.156281.194946-.234406.292435Z"/>
      <path class="cls-5" d="M38.875379,33.444471c.072067-.071182.14415-.142365.216202-.213516-.072083.071182-.14415.142365-.216202.213516Z"/>
      <path class="cls-5" d="M39.101819,33.221174c.072113-.071732.144241-.143463.216339-.215164-.072128.071732-.144226.143448-.216339.215164Z"/>
      <path class="cls-5" d="M39.327558,32.996397c.071671-.072144.143372-.144287.215012-.216385l-.215012.216385Z"/>
      <path class="cls-5" d="M50.890866,47.660444c.05687-.062851.113739-.125687.17041-.188004-.0569.063019-.113663.125519-.17041.188004Z"/>
      <path class="cls-5" d="M39.55232,32.770247c.071854-.071945.143692-.143906.215546-.21582-.071869.071945-.143692.143875-.215546.21582Z"/>
      <path class="cls-5" d="M39.777494,32.544767c.072067-.07193.14415-.14386.216202-.215759-.072083.07193-.14415.143845-.216202.215759Z"/>
      <path class="cls-5" d="M40.002912,32.319853c.073318-.071777.146622-.143539.21994-.215286-.073318.071777-.146622.143539-.21994.215286Z"/>
      <path class="cls-4" d="M49.983548,48.740706c.007965-.060638.040985-.09996.098587-.117004.009521.075195-.023163.113861-.098587.117004Z"/>
      <path class="cls-5" d="M40.230405,32.098143c.092255-.075424.184525-.150833.277039-.226379-.092148.075378-.184616.150879-.277039.226379Z"/>
      <path class="cls-2" d="M120.906858,64.579451c-.057922-.123657-.115875-.247345-.173828-.371063.057922.123657.115875.247375.173828.371063Z"/>
      <path class="cls-5" d="M37.304517,35.040388c.072723-.075989.145462-.151993.218216-.227982-.072739.076004-.145493.151993-.218216.227982Z"/>
      <path class="cls-4" d="M122.104673,69.24391c-.071228.140411-.142456.280823-.213654.421234-.055603-.042114-.111267-.084259-.166901-.126373.122925-.103333.24588-.206665.368835-.310547.000061-.00058.011719.015686.011719.015686h0Z"/>
      <path class="cls-7" d="M31.245389,27.628157c-.310959.178421-.681839.298004-.92392.544098-3.770798,3.83342-6.930939,8.10173-9.561035,12.810272-2.584274,4.626541-4.92276,9.351471-6.564224,14.382904-1.911911,5.860352-3.479553,11.819672-4.173248,17.966125-.430359,3.813171-.772659,7.636597-1.116837,11.458801-.059036.655792-.276993.953979-.948975.946045-1.577713-.018677-3.158386.040131-4.731506-.047089-.306519-.016968-.841385-.55957-.833893-.84845.052063-2.012177.181702-4.024689.35965-6.03064.20079-2.26358.404785-4.531158.735962-6.778107,1.036118-7.029572,2.408646-13.999146,5.040298-20.623413,1.8349-4.618774,3.823807-9.196609,6.08371-13.619354,1.450455-2.838577,3.493668-5.379089,5.315674-8.022583,2.177475-3.159302,4.888504-5.849121,7.604416-8.537415,3.905655-3.865936,8.263153-7.113403,13.044205-9.816696,5.410812-3.059372,11.134064-5.380905,17.159454-6.823563,3.610413-.864426,7.331268-1.3423,11.029678-1.743362,3.190765-.345993,6.418732-.383789,9.632568-.474304,3.973587-.111908,7.918304.244537,11.799011,1.113159,3.856659.863235,7.738312,1.66008,11.528961,2.761292,4.763031,1.383728,9.06485,3.813049,13.356842,6.282043,5.733887,3.298431,10.447815,7.769577,14.867249,12.551605,2.396606,2.593277,4.4552,5.530304,6.440216,8.464981,3.960297,5.854919,6.907166,12.209091,9.241211,18.895203,1.816803,5.204315,3.201294,10.503479,4.305237,15.877472.613007,2.983978.868683,6.044769,1.214111,9.079041.278137,2.442902.446625,4.898224.669617,7.347504.05899.647736-.172852.998596-.871948.991943-1.540283-.014709-3.084778.051971-4.618103-.052734-.363464-.024841-.94577-.56015-.993988-.918854-.590637-4.391754-1.016754-8.806641-1.661621-13.189667-.405914-2.759033-1.069672-5.483307-1.691376-8.20639-.398499-1.745728-.85672-3.485565-1.420685-5.184067-.857941-2.583649-1.78064-5.148651-2.766083-7.686539-1.671661-4.304947-3.757446-8.420624-6.368164-12.223282-2.19519-3.197357-4.519989-6.32576-7.016083-9.292526-4.331543-5.148361-9.690674-9.132889-15.467346-12.488831-5.228729-3.037659-10.853394-5.141174-16.790771-6.503677-5.972412-1.37056-11.991119-1.776001-18.057709-1.501892-5.859146.264709-11.727051.835861-17.296127,2.794312-3.69696,1.300125-7.306717,2.911987-10.813065,4.668365-2.623444,1.314148-5.065445,3.014252-7.498917,4.673325-1.381302.941757-2.613922,2.112778-3.85585,3.243759-1.0737.977783-2.07489,2.036224-3.085159,3.081192-.163452.169067-.207291.453644-.306381.68486.000046.000015.004929-.004837.004929-.004837v-.000015l.000015-.000015Z"/>
    </g>
  </g>
</svg>