<?xml version="1.0" encoding="UTF-8"?>
<svg id="Layer_2" xmlns="http://www.w3.org/2000/svg" viewBox="0 0 77.179169 85.943054">
  <defs>
    <style>
      .cls-1 {
        fill: #f1efee;
      }

      .cls-2 {
        fill: #f9f8f8;
      }

      .cls-3 {
        fill: #2b2a2b;
      }
    </style>
  </defs>
  <g id="Layer_1-2" data-name="Layer_1">
    <g>
      <path class="cls-3" d="M68.905762,59.030121c-.431824.198273-.845154.474487-1.298553.581757-2.299042.543732-4.638672.936707-6.908752,1.578217-7.837585,2.214935-12.397705,7.58078-14.331024,15.311127-.672577,2.689117-1.071991,5.445587-1.660858,8.157288-.100861.464478-.528046.858185-.804504,1.284546-.273071-.43573-.722992-.84552-.791412-1.311279-.540771-3.681824-1.159912-7.329803-2.441956-10.855011-2.3685-6.512695-6.825562-10.763702-13.489166-12.629395-2.197388-.615204-4.467865-.968597-6.702942-1.450928-.560425-.120941-1.399811-.076538-1.236847-.922211.067963-.3526.753235-.720825,1.219696-.840118,2.687775-.687286,5.454712-1.117004,8.082367-1.977173,7.147461-2.339661,11.152466-7.603638,12.968628-14.671906.680267-2.647644,1.045074-5.375107,1.619904-8.052002.098114-.456802.530731-.841843.808746-1.26004.276794.432297.732849.837555.802887,1.301041.766876,5.07486,1.847137,10.0392,4.461731,14.551727,2.018585,3.483902,4.967896,5.86644,8.596527,7.489334,3.149384,1.408539,6.463898,2.188354,9.868195,2.660126.435944.060425.833832.395111,1.249298.602722-.003967.150726-.007965.301453-.011902.452148l-.000061.000031ZM63.386719,58.755981c-11.429718-2.295441-17.357452-9.63559-19.422363-20.685303-2.070526,11.094254-7.882996,18.506348-19.398926,20.694122,11.492981,2.378876,17.350098,9.78894,19.354797,20.878113,2.080933-11.120972,7.990417-18.560913,19.466461-20.886902h0l.000031-.000031Z"/>
      <path class="cls-3" d="M18.250916.000015c.182281.379181.445435.740524.533752,1.140396.588867,2.667099.976654,5.390289,1.741364,8.004181,1.232544,4.212891,3.946472,7.205444,8.168427,8.64238,1.875.638138,3.811615,1.095749,5.721436,1.631058.216278.060608.472961.040497.65329.151398.295624.181808.544037.440369.812347.666565-.281036.250351-.524506.64122-.849274.727829-1.845245.492218-3.73819.819016-5.562347,1.374557-4.321716,1.316132-7.283875,4.185394-8.700226,8.434189-.872101,2.616302-1.328339,5.371292-1.963837,8.065765-.059845.253891.003082.558151-.1138.771988-.161011.294479-.439087.525009-.667053.782928-.259827-.266937-.682953-.497726-.751465-.806961-.307922-1.390091-.471771-2.81163-.767578-4.20488-.658539-3.101212-1.595306-6.090286-3.563507-8.665558-2.353699-3.079651-5.667084-4.451111-9.28479-5.287872-.875793-.20256-1.788757-.249451-2.658722-.470032-.367523-.093185-.667999-.4505-.998932-.68779.337372-.279785.634064-.709518,1.019043-.813919,1.877899-.509125,3.80957-.833206,5.666565-1.403656,4.665283-1.433151,7.477844-4.757843,8.858032-9.290405.728485-2.39238,1.090729-4.895111,1.651917-7.340317.111603-.486206.376343-.937317.570465-1.404602.16156-.005737.323181-.01149.484772-.017242v-.000015l.000122.000015ZM17.944733,6.15683c-1.524109,7.273163-5.407959,12.248123-12.866577,14.029846,7.513855,1.845901,11.250244,6.970856,12.821625,14.168213,1.710236-7.1091,5.422455-12.312698,12.930115-14.157013-7.451508-1.901321-11.426056-6.773972-12.885162-14.041031l-.000031-.000015h.000031Z"/>
      <path class="cls-3" d="M63.73703,32.094986c-.190399-.436066-.43927-.856476-.561035-1.310898-.552032-2.059311-.949951-4.167603-1.622498-6.185318-1.288452-3.865341-4.35968-5.646179-8.10791-6.520905-.584717-.136444-1.200165-.174057-1.759308-.374573-.328339-.117737-.573608-.466858-.856232-.711914.289307-.247437.54187-.584473.876495-.721573.515137-.21109,1.083069-.302078,1.634613-.414536,4.604797-.93895,7.744293-3.490479,8.915436-8.156631.373688-1.488754.586212-3.01767.950562-4.50914.108246-.443222.482819-.821457.735382-1.229492.268799.405563.667114.777588.782684,1.22287.38562,1.486115.616516,3.012329,1.003082,4.498138,1.180389,4.536636,4.178162,7.149979,8.717529,8.091248.624939.129593,1.265442.226852,1.859467.445526.332886.122528.585236.463699.873871.70636-.293213.284302-.539459.70871-.888794.825699-.921814.308746-1.891327.472412-2.836517.714569-4.155518,1.064621-6.610291,3.834808-7.729004,7.85672-.410828,1.47702-.585754,3.018219-.926849,4.516846-.10199.448181-.402252.851303-.611633,1.27507-.14975-.006042-.2995-.01207-.449249-.018082l-.000031.000015h-.000061ZM73.082458,17.003845c-5.04599-1.480026-7.931183-4.870834-9.141205-9.91156-.952576,5.152695-4.079102,8.263901-9.185699,9.959396,5.612427,1.332504,7.990051,5.159149,9.222809,10.035828,1.264954-5.004684,3.831848-8.703323,9.104095-10.083679v.000015Z"/>
      <path class="cls-2" d="M63.386719,58.755981c-11.476044,2.325989-17.385559,9.76593-19.466461,20.886902-2.004761-11.089172-7.861847-18.499207-19.354797-20.878113,11.51593-2.187744,17.3284-9.599869,19.398926-20.694107,2.064911,11.049728,7.992676,18.389877,19.422363,20.685318h-.000031Z"/>
      <path class="cls-1" d="M17.944733,6.15683c1.459106,7.267059,5.433655,12.139709,12.885162,14.041031-7.50766,1.84433-11.21991,7.047913-12.930115,14.157013-1.57135-7.197357-5.30777-12.322311-12.821625-14.168213,7.458618-1.781708,11.342468-6.756668,12.866577-14.029831v.000015-.000015Z"/>
      <path class="cls-1" d="M73.082458,17.003845c-5.272278,1.380356-7.839142,5.078979-9.104095,10.083679-1.232758-4.876678-3.610382-8.703323-9.222809-10.035828,5.106598-1.695496,8.233124-4.806717,9.185699-9.959396,1.210052,5.04071,4.095184,8.431519,9.141205,9.91156v-.000015Z"/>
    </g>
  </g>
</svg>