<?xml version="1.0" encoding="UTF-8"?>
<svg id="Layer_2" xmlns="http://www.w3.org/2000/svg" viewBox="0 0 57.861055 91.854531">
  <defs>
    <style>
      .cls-1 {
        fill: #eae6d4;
      }

      .cls-2 {
        fill: #212121;
      }

      .cls-3 {
        fill: #f5f5f4;
      }

      .cls-4 {
        fill: #b9bbb9;
      }
    </style>
  </defs>
  <g id="Layer_1-2" data-name="Layer_1">
    <g>
      <path class="cls-2" d="M16.202476,67.045752c.382202.877319.754822,1.64563,1.054749,2.441406.47345,1.256226.247437,1.878296-.955139,2.506287-.891479.465515-1.832214.836853-2.854736,1.296875.403625.849548.87854,1.586853,1.09845,2.393616.181702.666382.217346,1.456482.040649,2.117737-.30127,1.127808-.735168,2.242432-1.282043,3.273193-.282349.532043-.859863,1.025452-1.42038,1.271545-2.25885.991699-4.568848,1.866333-6.847778,2.813477-.945526.392944-1.557587.163086-1.984589-.776611-.97229-2.139343-2.045929-4.235413-2.937225-6.406982-.22818-.556091-.081665-1.384277.147156-1.99176,3.548004-9.420532,7.12973-18.828369,10.735016-28.227173.271545-.707886.243469-1.175476-.260162-1.782959-5.803223-6.999023-4.351929-16.184692-.209717-20.928345,2.033478-2.328674,4.422699-4.110291,7.369415-5.038757.957764-.301758,1.159363-.684631,1.057861-1.652161C17.852073,7.855749,27.112693-1.194178,37.555625.129004c9.898499,1.254211,16.547974,11.027222,14.0849,20.757202-.352173,1.391235-.91925,2.728149-1.417297,4.178772.119202.101562.31012.292847.528137.445618,7.601562,5.328247,9.376465,15.22998,4.016785,22.796082-.964233,1.361206-2.163391,2.570251-3.350403,3.752869-.490723.488892-.608276.887817-.477783,1.529053.288818,1.419434.44281,2.86731.755188,4.280762.305237,1.381165.023499,2.534424-.930115,3.575134-.496765.542114-.901123,1.168884-1.450134,1.893127.745056.56012,1.45929,1.075134,2.149475,1.620483,1.268555,1.002197,1.371155,1.641541.462341,2.992737-.456055.678101-.964111,1.321228-1.508911,2.062073.750732.531677,1.478882,1.02771,2.185547,1.552734.943054.700684,1.135437,1.527893.398376,2.515503-.444641.595764-.829102,1.236511-1.274292,1.831787-.391174.52301-.374512.980591.236389,1.23407,3.021484,1.253784,2.624878,4.039612,2.915405,6.499329.039246.331848-.215759.748657-.435791,1.052917-1.515198,2.095276-3.040039,4.184082-4.597656,6.247925-.863281,1.143738-1.184998,1.144226-2.310181.347778-1.629883-1.153625-3.257812-2.313599-4.935974-3.394226-1.019592-.656616-1.575806-1.41333-1.751221-2.695862-1.354431-9.897888-2.79303-19.784424-4.25177-29.667603-.063171-.428284-.498047-.916992-.893372-1.161499-1.817932-1.123962-3.677002-2.182617-5.539307-3.232788-.256714-.144836-.635925-.20813-.920959-.143555-1.177917.26709-2.354309.557922-3.502747.92804-.377441.121582-.828125.442871-.972229.787109-.604187,1.442871-1.184326,2.905945-1.619934,4.406128-.396667,1.366089-1.133911,2.199585-2.517639,2.650269-2.384827.776794-2.363464.84259-1.311218,3.039856.898376,1.875977.58429,2.670593-1.339722,3.444397-.570129.229309-1.124084.498596-1.776855.790405h-.000183v.000122ZM45.701622,87.589331c.044434-.335999.085205-.450989.070129-.558167-1.076904-7.680237-2.154724-15.360352-3.241028-23.039307-.378601-2.676208-.77533-5.349854-1.172302-8.023376-.11377-.766418-.066833-1.530029.85199-1.634216.879517-.099731.999207.69635,1.136292,1.35791.015869.076538.022522.155029.033752.232605,1.53363,10.621399,3.067444,21.242737,4.600159,31.864258.074402.51532.13916,1.031982.214966,1.596741.274414-.091125.427551-.093018.483093-.167664,1.26355-1.695801,2.533325-3.387756,3.755066-5.113525.205505-.290222.248596-.729614.274963-1.106445.149963-2.142334-.375793-3.937073-2.58197-4.831177-.139954-.056702-.246155-.192383-.375244-.280701-.854736-.584595-.934998-1.253174-.30188-2.078369.65863-.858337,1.259766-1.760864,1.945374-2.727905-.441406-.309937-.788635-.547546-1.129211-.794434-.380432-.275879-.760742-.552551-1.130676-.842224-1.122131-.878723-1.156616-1.102783-.333374-2.306213.420166-.614136.846436-1.225281,1.297546-1.816711.396484-.519714.335449-.901794-.227112-1.249512-.666138-.411682-1.327026-.836914-1.955627-1.302979-1.098816-.814758-1.168152-1.239502-.389832-2.33197.476868-.669312.962463-1.341187,1.518677-1.942932.619202-.669861.773376-1.402832.624512-2.270325-.298035-1.737061-.535583-3.484741-.853943-5.217834-.181152-.986023.035889-1.6604.90094-2.299316,5.904846-4.361328,7.712463-11.899719,4.432434-18.44928-1.138489-2.273621-2.880676-4.037048-4.675598-5.243713-1.223511,1.064758-2.248657,2.107971-3.427551,2.931335-.824463.575867-1.135193,1.093323-1.083557,2.1474.13916,2.83667-2.206543,4.919312-5.088013,4.709412-2.664734-.194153-4.655579-2.655701-4.297302-5.313416.364624-2.705017,3.130554-4.740662,5.715515-4.05481.937561.24884,1.759399.933716,2.976135,1.60968.81311-1.00354,1.759888-2.171997,2.728943-3.367981.077698.104797.045532.013245-.015076-.013489-5.46228-2.402893-12.579773-.655029-16.59729,3.767761-5.548279,6.107849-5.213745,19.353149,6.621643,23.287842.988037.328491,1.36731.836731,1.502075,1.795654,1.422119,10.122864,2.865479,20.242737,4.324158,30.360413.056458.391357.230591.866699.515625,1.104065.68103.567017,1.461121,1.015076,2.352905,1.612854h-.000122l-.000183.000061ZM4.616478,82.909155c.355591.039246.482941.093811.573792.057373,1.963013-.787109,3.927673-1.57074,5.87442-2.396667.250885-.106445.46228-.413757.593414-.677063.933105-1.873291,1.545288-3.764648.163513-5.712891-.132935-.187439-.181885-.432434-.284973-.64325-.405212-.828796-.187225-1.453552.640594-1.829834.819061-.372314,1.652374-.716003,2.492645-1.037659.596008-.228149.802979-.532349.474731-1.154663-.346313-.656555-.643372-1.343506-.908264-2.03772-.50116-1.313843-.30957-1.714233.997192-2.23584.826355-.329895,1.654419-.655457,2.630188-1.041748-.489502-1.084656-.907288-2.087219-1.389771-3.057678-.464844-.934875-.261414-1.557617.707031-1.968323.864502-.366577,1.684387-.852661,2.569031-1.152893.789307-.267761,1.193726-.729858,1.461426-1.505859.612427-1.775146,1.348755-3.507263,1.984131-5.275085.283936-.789917.710388-1.164124,1.597656-1.257629,1.132202-.119385,2.238281-.485901,3.543823-.789673-3.705688-4.820801-4.283386-9.958984-2.720093-15.494263-2.647888-.502197-4.125488-2.096252-4.357056-4.63092-.171204-1.874207.75354-3.351624,2.440918-4.216003,2.677368-1.371521,4.734192-.123047,6.64917,1.79895.863647-.628296,1.697266-1.234741,2.64856-1.926819-.558838-.43512-.970154-.785461-1.410889-1.09375-3.452148-2.4151-7.262146-3.013306-11.320312-2.112-5.120789,1.137329-8.791229,4.082275-10.515961,9.083252-1.87619,5.439819-.568695,10.337891,3.043243,14.688049.571533.688293.844727,1.27417.483093,2.210693-3.625,9.388733-7.145294,18.818298-10.840485,28.179016-.754089,1.910583.376617,3.011169.91507,4.569275.183441-.238647.248779-.293152.275299-.362488,3.226715-8.450562,6.446991-16.903564,9.677826-25.352539.587524-1.536316,1.18457-3.071106,1.853577-4.572571.139709-.313416.610229-.644714.940369-.657532.281311-.010986.73822.375244.830627.674255.112366.363953.001404.850098-.14502,1.232849-3.009705,7.864746-6.039581,15.721741-9.062286,23.581421-1.023956,2.662476-2.039154,5.328308-3.106293,8.117981h-.000031l.000092.000244ZM48.190818,24.09757c.189514-.318359.36969-.571167.500305-.847412,3.797791-8.028564-.261108-17.733582-8.715698-20.471375-10.292847-3.333008-19.950684,5.121033-19.031738,15.554932.055237.626343.268677.90564.951721.839294,4.748657-.460876,8.860535,1.005798,12.459839,4.093445.321655.27594.975525.320435,1.439026.246521,1.424316-.227173,2.818726-.669861,4.24707-.836304,2.818176-.328247,5.516785.280212,8.149536,1.420898h-.000061ZM42.922386,31.980078c-1.75415.357666-3.440247.701538-5.124512,1.044983.256714,1.121216,1.556885,1.970337,2.864319,1.797791,1.460449-.192749,2.318665-1.266968,2.260132-2.842834l.000061.000061ZM23.520591,27.92362c-.494934,1.412659-.011292,2.564087,1.339539,3.408569,1.258423.786682,1.526001.684387,1.994934-.737671-1.088623-.872009-2.168457-1.737-3.334473-2.670898ZM24.760826,26.461889c1.047546.790833,1.896301,1.466125,2.788452,2.078247.197754.135681.548523.048401.828918.063782.001221-.316772.117188-.696228-.015991-.939575-.598938-1.094849-1.976196-1.59436-3.601379-1.202515h0v.000061ZM38.067955,31.010412c1.259338-.283508,2.518677-.566956,4.004089-.901367-1.605896-1.236328-3.140076-.920593-4.004089.901367Z"/>
      <path class="cls-4" d="M45.701622,87.589331c-.891785-.597778-1.671875-1.045837-2.352905-1.612854-.285034-.237366-.459167-.712708-.515625-1.104065-1.458679-10.117676-2.902039-20.237549-4.324158-30.360413-.134766-.958923-.514038-1.467163-1.502075-1.795654-11.835388-3.934692-12.169861-17.180054-6.621643-23.287842,4.017456-4.422729,11.13501-6.170593,16.59729-3.767761.060608.026672.092834.118225.015076.013489-.969055,1.195984-1.915771,2.364441-2.728943,3.367981-1.216675-.675964-2.038513-1.36084-2.976135-1.60968-2.5849-.685913-5.350891,1.349731-5.715515,4.05481-.358276,2.657715,1.632629,5.119324,4.297302,5.313416,2.88147.2099,5.227173-1.872803,5.088013-4.709412-.051697-1.054077.259033-1.571533,1.083557-2.1474,1.178894-.823364,2.204041-1.866577,3.427551-2.931335,1.794983,1.206665,3.537109,2.970093,4.675598,5.243713,3.28009,6.549622,1.472473,14.087952-4.432434,18.44928-.865051.638916-1.082092,1.313354-.90094,2.299316.318359,1.733093.555969,3.480774.853943,5.217834.148804.867493-.00531,1.600403-.624512,2.270325-.556274.601807-1.04187,1.273621-1.518677,1.942932-.77832,1.092468-.708923,1.517212.389832,2.33197.62854.466064,1.28949.891296,1.955627,1.302979.562622.347656.623596.729736.227112,1.249512-.45105.591492-.87738,1.202576-1.297546,1.816711-.823242,1.203491-.788818,1.42749.333374,2.306213.369934.289673.750244.566406,1.130676.842224.340576.246948.687805.484558,1.129211.794434-.685669.967041-1.286743,1.869507-1.945374,2.727905-.633118.825195-.552856,1.493774.30188,2.078369.12915.088318.235291.223999.375244.280701,2.206238.894043,2.731995,2.688843,2.58197,4.831177-.026367.376892-.069397.816223-.274963,1.106445-1.221741,1.725708-2.491516,3.417664-3.755066,5.113525-.055542.074585-.208679.076538-.483093.167664-.075806-.564819-.140564-1.081482-.214966-1.596741-1.532715-10.621521-3.066528-21.242859-4.600159-31.864258-.011169-.077515-.017822-.156067-.033752-.232605-.137024-.661499-.256714-1.457642-1.136292-1.35791-.918762.104248-.965759.867798-.85199,1.634216.396973,2.673523.793701,5.347168,1.172302,8.023376,1.086304,7.678894,2.164185,15.359009,3.241028,23.039307.015076.107178-.025635.222168-.070129.558167h.000122l.000183-.000061Z"/>
      <path class="cls-4" d="M4.616478,82.909155c1.067169-2.789673,2.082336-5.455505,3.106293-8.117981,3.022705-7.859741,6.052582-15.716736,9.062286-23.581482.146423-.382751.257385-.868896.14502-1.232849-.092346-.299072-.549316-.685303-.830627-.674255-.3302.012817-.80072.344116-.940369.657532-.669067,1.501465-1.266052,3.036255-1.853577,4.572571-3.230835,8.448975-6.451172,16.901978-9.677856,25.352539-.026459.069336-.091827.12384-.275299.362488-.538422-1.558105-1.669189-2.658691-.91507-4.569275,3.69519-9.360718,7.215485-18.790344,10.840454-28.179016.361694-.936523.08844-1.5224-.483093-2.210693-3.611969-4.350159-4.919464-9.24823-3.043274-14.688049,1.724762-5.000977,5.395203-7.945923,10.515991-9.083252,4.058228-.901306,7.868164-.303101,11.320312,2.112.440735.308289.852051.65863,1.410889,1.09375-.951233.692078-1.784912,1.298523-2.64856,1.926819-1.914978-1.922058-3.971863-3.170471-6.64917-1.79895-1.687317.86438-2.612122,2.341797-2.440918,4.216003.231567,2.534668,1.709229,4.128723,4.357056,4.63092-1.563293,5.535217-.985596,10.673462,2.720093,15.494263-1.305542.303772-2.411621.670288-3.543823.789673-.887268.093506-1.313721.467712-1.597656,1.257629-.635376,1.767761-1.371643,3.499878-1.984131,5.275085-.267761.776001-.67218,1.238098-1.461426,1.505859-.884705.300171-1.704529.786255-2.569031,1.152893-.968445.410706-1.171875,1.033447-.707031,1.968323.482483.970459.900269,1.973022,1.389771,3.057678-.97583.38623-1.803833.711792-2.630188,1.041748-1.306763.521606-1.498352.921997-.997192,2.23584.264893.694214.561951,1.381165.908264,2.03772.328308.622314.121216.926514-.474731,1.154663-.840271.321655-1.673645.665344-2.492645,1.037659-.82782.376343-1.045807,1.001038-.640594,1.829834.103119.210876.152039.455872.284973.64325,1.381775,1.948242.769592,3.8396-.163513,5.712891-.131134.263306-.342529.570618-.593414.677063-1.946716.825928-3.911377,1.609558-5.87442,2.396667-.090851.036438-.218262-.018127-.573792-.057373h.000031l-.000031-.000183Z"/>
      <path class="cls-3" d="M48.190818,24.09757c-2.632751-1.140686-5.33136-1.749146-8.149536-1.420898-1.428406.166382-2.822815.609131-4.24707.836304-.463501.073914-1.117371.029419-1.439026-.246521-3.599304-3.087585-7.711182-4.55426-12.459839-4.093445-.683044.066284-.896484-.212952-.951721-.839294C20.024681,7.899817,29.682579-.554224,39.975364,2.778784c8.45459,2.737732,12.513489,12.442749,8.715698,20.471375-.130615.276245-.31073.529114-.500305.847412h.000061Z"/>
      <path class="cls-1" d="M42.922386,31.980078c.058533,1.575867-.799683,2.650024-2.260132,2.842834-1.307495.172546-2.607605-.676575-2.864319-1.797791,1.684265-.343445,3.370361-.687317,5.124512-1.044983l-.000061-.000061Z"/>
      <path class="cls-1" d="M23.520591,27.92362c1.165955.933899,2.24585,1.798889,3.334473,2.670898-.468933,1.422058-.736511,1.524353-1.994934.737671-1.350769-.844421-1.834473-1.995911-1.339539-3.408569Z"/>
      <path class="cls-4" d="M24.760826,26.461889c1.625183-.391846,3.002502.107605,3.601379,1.202515.133118.243347.017212.622803.015869.939514-.280334-.015381-.631165.071899-.828857-.063782-.89209-.612122-1.740906-1.287476-2.788452-2.078247h.000061Z"/>
      <path class="cls-4" d="M38.067955,31.010412c.863953-1.82196,2.398193-2.137695,4.004089-.901367-1.485352.334412-2.74469.61792-4.004089.901367Z"/>
    </g>
  </g>
</svg>