<?xml version="1.0" encoding="UTF-8"?>
<svg id="Layer_2" xmlns="http://www.w3.org/2000/svg" viewBox="0 0 94.429321 76.386292">
  <defs>
    <style>
      .cls-1 {
        fill: #f9f8f8;
      }

      .cls-2 {
        fill: #2b2a2b;
      }
    </style>
  </defs>
  <g id="Layer_1-2" data-name="Layer_1">
    <g>
      <path class="cls-2" d="M71.522034,49.596558c2.723572,6.105682,5.381104,12.063171,8.038574,18.02063-.101746.098999-.20343.197968-.305176.296936-6.381348-3.027237-12.762695-6.054459-19.292297-9.151993-1.694641,5.409439-2.792908,10.899155-4.563293,16.180283-.160522.02005-.321106.0401-.481567.06012-3.231506-4.660675-6.463074-9.321335-9.799988-14.134048-1.13208,1.343369-2.178894,2.597672-3.238708,3.840927-3.189819,3.741974-6.380402,7.483429-9.588654,11.209656-.193481.224731-.543762.314606-.821136.467224-.115814-.366119-.334137-.732849-.332031-1.098297.027313-4.84256.085846-9.684952.135559-14.527374.00412-.401886.000488-.803848.000488-1.420105-.549622.196472-.930847.299774-1.283844.463806-6.333832,2.94313-12.662567,5.897369-18.998505,8.83609-.567963.263397-1.177917.436249-1.768341.651184-.087921-.117981-.175781-.235992-.263672-.353973,4.44046-7.001923,8.88089-14.00383,13.414062-21.151962-1.289124-.372208-2.425934-.70636-3.566071-1.028656-5.962708-1.685516-11.927307-3.363892-17.886261-5.062653-.330444-.094223-.615173-.348907-.921173-.5289.28598-.248169.532257-.617691.864014-.726349,5.316315-1.741165,10.642334-3.45256,15.968811-5.162674,2.030579-.651932,4.067749-1.2836,6.257782-1.973618-.787567-1.460007-1.526398-2.829254-2.264893-4.198669-2.51181-4.657776-5.030457-9.311874-7.521301-13.98085-.189911-.355942-.181946-.817337-.2659-1.229721.417603.069061.871368.055389,1.247375.219543,6.435669,2.809464,12.861664,5.641312,19.290924,8.46553.201202.088379.415436.147247.823364.289566,1.381042-7.6371,2.748993-15.202133,4.116974-22.767166.154785-.033676.309509-.067368.464294-.101044,4.18219,6.132477,7.920959,12.549606,11.841919,19.009552.823364-.781952,1.61676-1.502121,2.373047-2.259171,4.511475-4.515762,9.011047-9.043365,13.528442-13.553116.267517-.267029.655457-.413574.987366-.61618.095398.402222.313049.818741.267822,1.204514-.66394,5.666809-1.363892,11.329422-2.052979,16.993332-.111755.918335-.212769,1.837967-.331116,2.862839.369385-.023712.585083-.008179.786499-.054749,7.025208-1.624191,14.048828-3.255188,21.073547-4.881424.511963-.11853,1.027649-.266464,1.546997-.292099.365723-.018066.740601.148087,1.111328.231995-.151245.321228-.236084.702911-.464722.953613-1.2146,1.331345-2.440918,2.653824-3.707947,3.935242-3.722473,3.764603-7.466614,7.507736-11.199707,11.261734-.258667.26004-.497009.540146-.851746.927841,1.66864.766159,3.222839,1.475754,4.773743,2.192673,4.908447,2.268967,9.815613,4.54071,14.723389,6.811325.034058.015778.075317.023224.101807.047211.314758.284714.627136.571884.940186.858398-.367737.208832-.713806.532669-1.106873.606613-1.697388.319199-3.405701.584198-5.115112.83429-5.277161.772034-10.556763,1.527237-15.834656,2.293777-.212158.030823-.417114.11026-.850586.228409v-.000031l-.000061-.000031ZM13.146454,65.787582c.483337-.191376.977295-.359924,1.448456-.577591,5.557526-2.567413,11.10907-5.147812,16.668457-7.711243,1.46701-.676453,1.683624-.523972,1.661652,1.092957-.057159,4.205154-.122345,8.410187-.182648,12.615326-.006165.432159-.000824.864502-.000824,1.296753l.29361.12677c4.026245-4.696014,8.052429-9.392029,12.233643-14.268768,3.186218,4.593979,6.219666,8.967743,9.314392,13.42981.133606-.259277.200012-.347412.22699-.44632,1.214478-4.454163,2.426392-8.909058,3.636414-13.364441.370789-1.365219.485901-1.425888,1.757019-.82254,5.022034,2.38353,10.041565,4.772308,15.06427,7.154633.341248.161896.700256.286697,1.229065.500885-.125427-.428635-.156006-.612061-.230286-.775665-2.188416-4.819382-4.375977-9.639114-6.576843-14.452805-.534546-1.169205-.468933-1.355759.77478-1.540573,6.280396-.933289,12.562378-1.855804,18.84314-2.786804.22937-.034027.451538-.116714.963379-.252869-6.4729-2.989273-12.681213-5.856354-19.110107-8.825317,5.233887-5.275909,10.269165-10.351593,15.478577-15.602829-.431641,0-.542908-.020584-.643921.002991-6.217957,1.452225-12.434998,2.908554-18.652466,4.3629-.841125.196762-1.680664.40242-2.527405.57222-.684509.137253-1.072388-.026016-.960815-.873932.788208-5.992142,1.54834-11.987961,2.311829-17.983337.019165-.150177-.027893-.308777-.043945-.463455-.102783-.062592-.205505-.125183-.308289-.18779-5.095947,5.103226-10.191772,10.206451-15.383118,15.405304-3.587341-5.888351-7.171997-11.7724-10.813782-17.750107-.171753.271606-.235168.329697-.247131.396942-1.15509,6.504868-2.317047,13.008545-3.449585,19.517319-.253571,1.457214-.303009,1.536667-1.717316.919891-4.337799-1.891678-8.664978-3.807968-12.999908-5.706131-1.697235-.743164-3.40448-1.463501-5.311432-2.281937.09787.406677.102203.55217.164642.665817,2.891083,5.263931,5.785889,10.525848,8.683899,15.785995.649353,1.17865.590698,1.323212-.674408,1.715927-6.098663,1.893021-12.195801,3.791031-18.292938,5.688934-.507935.158112-1.011993.328659-1.517822.493423.404785.357391.785614.466263,1.166901.573334,6.039368,1.696426,12.079712,3.389297,18.117371,5.091782,1.179535.332581,1.24057.495865.582916,1.523117-1.39679,2.181686-2.824921,4.343521-4.211029,6.531952-2.326538,3.673279-4.630219,7.361008-6.942444,11.043106-.016144.105042-.032257.210068-.048401.315125.075134-.049591.150208-.099213.225342-.148788v.000015l.000122.000015Z"/>
      <path class="cls-1" d="M12.968445,65.620789c2.313263-3.681656,4.616974-7.36937,6.943512-11.042648,1.386108-2.188431,2.81424-4.350266,4.211029-6.531952.657654-1.027267.596619-1.190536-.582916-1.523117-6.037659-1.702469-12.078003-3.39534-18.117371-5.091782-.381287-.107086-.762054-.215942-1.166901-.573334.505859-.164764,1.009888-.335312,1.517822-.493423,6.097107-1.897888,12.194275-3.795914,18.292938-5.688934,1.265137-.392715,1.323761-.537262.674408-1.715927-2.89798-5.260132-5.792847-10.522049-8.683899-15.785995-.062439-.113632-.066772-.259125-.164642-.665817,1.906952.81842,3.614197,1.538773,5.311432,2.281937,4.334991,1.898163,8.66217,3.814453,12.999908,5.706131,1.414307.616776,1.463745.537308,1.717316-.919891,1.132599-6.508789,2.294495-13.012466,3.449585-19.517319.011963-.067245.075378-.125336.247131-.396942,3.641785,5.977722,7.22644,11.861755,10.813782,17.750122,5.191345-5.198868,10.28717-10.302078,15.383118-15.405304.102722.062592.205505.125198.308289.18779.016174.154663.063171.313278.043945.463455-.763489,5.995377-1.523682,11.991211-2.311829,17.983337-.111572.8479.276306,1.011185.960815.873932.846741-.1698,1.686279-.375458,2.527405-.57222,6.217468-1.454346,12.434448-2.910675,18.652466-4.3629.101013-.02359.21228-.002991.643921-.002991-5.209412,5.251236-10.24469,10.32692-15.478577,15.602829,6.428833,2.968948,12.637207,5.836029,19.110107,8.825317-.511841.136154-.734009.218842-.963379.252869-6.280701.931-12.562683,1.853531-18.84314,2.786804-1.243713.18483-1.309387.371384-.77478,1.540573,2.200867,4.81369,4.388428,9.633423,6.576843,14.452805.07428.163605.104858.347015.230286.775665-.52887-.214188-.887817-.338989-1.229065-.500885-5.022644-2.382339-10.042175-4.771103-15.06427-7.154633-1.271179-.603348-1.386292-.542664-1.757019.82254-1.210022,4.455383-2.421936,8.910263-3.636414,13.364426-.026917.098877-.093384.187012-.22699.44632-3.094727-4.462097-6.128174-8.835831-9.314453-13.42981-4.181213,4.876724-8.207367,9.572754-12.233612,14.268768l-.29361-.12677c0-.432251-.005341-.864594.000824-1.296753.060242-4.205139.125488-8.410156.182648-12.615311.021973-1.616928-.194641-1.769409-1.661652-1.092957-5.559387,2.563431-11.110962,5.143829-16.668457,7.711243-.471161.217667-.965149.386215-1.448456.577591-.059326-.055603-.118683-.111191-.178009-.166779l.000031-.000015-.000122-.000046Z"/>
    </g>
  </g>
</svg>