<?xml version="1.0" encoding="UTF-8"?>
<svg id="Layer_2" xmlns="http://www.w3.org/2000/svg" viewBox="0 0 75.791226 92.963234">
  <defs>
    <style>
      .cls-1 {
        fill: #232221;
      }

      .cls-2 {
        fill: #e7e4e3;
      }

      .cls-3 {
        fill: #3b4563;
      }

      .cls-4 {
        fill: #2b2a2b;
      }

      .cls-5 {
        fill: #b0418f;
      }

      .cls-6 {
        fill: #b2b4b0;
      }
    </style>
  </defs>
  <g id="Layer_1-2" data-name="Layer_1">
    <g>
      <path class="cls-1" d="M21.002284,37.756327c-.697052-11.399597,4.342133-22.077126,14.36557-30.548973C40.104701,3.203737,45.522334.642099,51.748866.097879c12.560486-1.097824,22.415955,7.136475,23.824249,19.813042,1.068756,9.62011-1.845947,18.104744-7.519714,25.732796-5.679871,7.636261-13.312592,12.140106-22.650635,13.968613-5.249847,1.028015-9.997009,3.425919-14.560181,6.163574-1.094147.656433-2.140991,1.391144-3.224579,2.065796-2.729614,1.699493-4.747131,4.027557-6.559204,6.683136-3.087097,4.524124-6.455475,8.856293-9.679382,13.288177-.202179.277969-.306488.748764-.234802,1.08226.271301,1.261414-.088165,2.311218-.945587,3.203125-.941345.979233-1.942871,1.161179-3.038971.369385-2.18927-1.581436-4.317017-3.249374-6.441223-4.918381-.776428-.610031-.901886-1.459442-.48233-2.338867.61557-1.290298,1.546997-2.176773,3.055328-2.367157.346893-.043793.751129-.320374.967163-.610275,3.56665-4.78627,6.956879-9.714279,10.722351-14.337479,1.687073-2.071335,2.679199-4.335724,3.424194-6.742676,2.169952-7.010681,3.290894-14.181335,2.59671-23.396652h.000031v.000031ZM17.638362,67.501444c.793182.63475,1.571167,1.274353,2.367126,1.890747,1.561066,1.208939,1.52005,1.148376,2.9935-.056305,6.691254-5.470779,14.110352-9.633835,22.607452-11.432175,11.10733-2.350769,19.258972-8.471451,24.48584-18.442322,3.89035-7.421371,5.490906-15.244537,2.997986-23.500374-2.355072-7.799057-7.397522-12.73455-15.598297-14.098145-6.321533-1.051117-12.220703.479889-17.422211,3.896439-12.084747,7.937706-18.147095,19.209831-17.412842,33.787987.239716,4.759048.027802,9.443375-.769928,14.123062-.811188,4.758484-2.174316,9.343124-4.248596,13.8311h-.000031v-.000015ZM9.751247,89.714777c-.345337-.520142-.576691-.964066-.899536-1.326645-.293762-.329895-.680054-.58046-1.037415-.850342-1.280731-.96727-2.552246-1.947662-3.856354-2.882538-.63324-.453934-1.246887-.123032-1.50882.437012-.253693.54245-.689087,1.261169.044556,1.822159,1.691284,1.293335,3.384735,2.58522,5.114258,3.826263.309631.222183.907349.392487,1.175507.240448.39035-.221344.602356-.756866.967804-1.266373v.000015ZM8.569331,78.86471c-.905914,1.347961-1.662781,2.44046-2.371643,3.563202-.112915.178848-.115936.581406.009216.731293.928833,1.112335,1.879242,2.209793,2.886444,3.250504.164612.17009.740112.176315.959015.022049,1.236084-.871262,1.388977-1.67067.69928-2.99295-.207733-.39827-.372223-.818832-.566406-1.224426-.49472-1.033218-.995026-2.063766-1.615906-3.349701l.000031.000015-.000031.000015ZM15.455867,79.43516c.796539-1.058609,1.414703-1.847382,1.988373-2.667252.131744-.188309.227264-.538254.141541-.7211-.846558-1.805313-1.734863-3.59108-2.657532-5.476822-.697662.861237-1.325104,1.588303-1.88797,2.362244-.150879.207504-.226776.610367-.130188.834503.790894,1.835205,1.630768,3.649338,2.545776,5.668427ZM12.329402,83.643289c.750885-.986984,1.372894-1.77182,1.950317-2.588135.133362-.188507.232147-.539932.146637-.723038-.845825-1.811584-1.733795-3.60347-2.661011-5.505951-.698822.871765-1.334137,1.600922-1.884064,2.389511-.161621.23175-.206055.687088-.091614.946167.783203,1.773315,1.623016,3.521652,2.539764,5.481445h-.000031ZM16.53622,68.593454c-.187622.078735-.375244.157455-.562805.236206.339081,2.229645,1.682159,4.093399,2.591705,6.391251.880219-1.199432,1.588806-2.164948,2.34549-3.19603-1.530579-1.200638-2.952484-2.316025-4.374359-3.431427h-.000031Z"/>
      <path class="cls-5" d="M17.638362,67.501444c2.07428-4.487961,3.437408-9.072601,4.248596-13.8311.797729-4.679688,1.009644-9.363998.769928-14.123062-.734253-14.57814,5.328094-25.850266,17.412842-33.787979,5.201508-3.416557,11.100708-4.947556,17.422241-3.896439,8.200745,1.363586,13.243225,6.299088,15.598297,14.098145,2.49295,8.255829.892365,16.078995-2.997986,23.500381-5.226807,9.970871-13.378479,16.091553-24.48584,18.442322-8.497131,1.798355-15.916229,5.961395-22.607483,11.432175-1.473419,1.204681-1.432404,1.265228-2.9935.056305-.795959-.616394-1.573944-1.255981-2.367126-1.890747h.000031ZM25.662807,35.885401c.100494,1.459183.153351,2.923462.309387,4.376678.897339,8.357574,8.995697,15.168182,17.402832,14.503647,7.984741-.631165,14.588562-4.033157,19.740051-10.221756,5.779785-6.943451,8.710205-14.815567,7.995972-23.917618-.577759-7.362831-5.643402-13.694374-12.593475-15.488388-4.559753-1.17701-9.055176-.577461-13.339783,1.258476-4.606323,1.973801-8.386322,5.079376-11.570648,8.935799-4.930939,5.97168-8.15448,12.586563-7.944305,20.553162h-.000031ZM23.117305,62.711191c-.027771,1.040085.768585,1.36351,1.988617.717438,3.384125-1.792068,6.748413-3.62204,10.101074-5.47226.315308-.174011.701538-.61525.676514-.899094-.025299-.28685-.477203-.649567-.817993-.777481-3.109314-1.167053-5.639648-3.088226-7.701569-5.676376-.291718-.36615-.814301-.548599-1.230011-.816071-.203308.422546-.500153.825165-.595184,1.270782-.782471,3.668365-1.527313,7.344727-2.284119,11.01857-.045441.220428-.095184.439987-.13736.634506h.000031v-.000015Z"/>
      <path class="cls-3" d="M8.569331,78.86471c.62085,1.285934,1.121185,2.316483,1.615906,3.349701.194183.405594.358673.826157.566406,1.224426.689697,1.322281.536835,2.121689-.69928,2.99295-.218903.154266-.794403.148041-.959015-.022049-1.007202-1.04071-1.957642-2.138168-2.886444-3.250519-.125153-.149887-.122131-.552444-.009216-.731293.708862-1.122742,1.465729-2.215256,2.371643-3.563202h-.000031l.000031-.000015Z"/>
      <path class="cls-3" d="M15.455867,79.43516c-.914978-2.019089-1.754883-3.833221-2.545776-5.668427-.096558-.224136-.020691-.626999.130188-.834503.562897-.773941,1.190338-1.501007,1.88797-2.362244.922668,1.885742,1.810974,3.671509,2.657532,5.476822.085754.182846-.009796.532791-.141541.7211-.573669.81987-1.191833,1.608643-1.988373,2.667252Z"/>
      <path class="cls-3" d="M12.329402,83.643289c-.916718-1.959793-1.756561-3.70813-2.539764-5.481445-.114441-.259079-.069977-.714417.091614-.946167.549957-.788589,1.185242-1.517731,1.884064-2.389511.927216,1.902481,1.815216,3.694382,2.661011,5.505951.08551.183105-.013306.534515-.146637.723038-.577423.816315-1.199432,1.601151-1.950317,2.588135h.000031Z"/>
      <path class="cls-3" d="M16.53622,68.593454c1.421875,1.115402,2.843811,2.230789,4.374359,3.431427-.756683,1.031067-1.465271,1.996597-2.34549,3.19603-.909515-2.297867-2.252625-4.161606-2.591705-6.391251.187592-.078735.375214-.157455.562805-.236206h.000031Z"/>
      <path class="cls-4" d="M25.662807,35.885401c-.210175-7.966599,3.013367-14.581482,7.944305-20.553169,3.184326-3.85643,6.964325-6.961998,11.570648-8.935799,4.284607-1.835938,8.780029-2.435493,13.339783-1.258476,6.950073,1.794014,12.015717,8.125557,12.593475,15.488388.714203,9.102058-2.216187,16.974174-7.995972,23.917625-5.151459,6.188599-11.75531,9.590591-19.740051,10.221756-8.407135.664536-16.505493-6.146072-17.402832-14.503647-.156006-1.453217-.208862-2.917496-.309387-4.376678h.000031ZM60.453456,13.953752c1.212585-1.511749,2.348206-2.927536,3.576874-4.459305-.915222-.596657-1.702393-1.164925-2.548553-1.624817-.226715-.123222-.773499-.033089-.934418.158989-.981934,1.172241-1.894928,2.402107-2.880402,3.676743.921783.743767,1.788757,1.443314,2.78653,2.248398,0,0-.000031,0-.000031-.000008ZM64.369807,16.996385c.863678-1.131561,1.691284-2.181534,2.468842-3.26725.134308-.187508.176392-.610138.056641-.781525-.58551-.838066-1.240265-1.627785-1.933319-2.514969-1.231232,1.506104-2.332275,2.852921-3.495331,4.27562,1.001038.788948,1.925354,1.517441,2.903168,2.288124ZM36.480189,46.980188c-.931671,1.168518-1.822601,2.28595-2.777069,3.483109,1.022339.573303,1.886871,1.089081,2.784912,1.537994.202209.101074.641632.072205.76651-.07309.719452-.836945,1.377197-1.726822,2.087219-2.639038-.991119-.799728-1.884705-1.520752-2.861572-2.308975ZM32.601344,43.825159c-.752777.945084-1.452026,1.769333-2.075806,2.647171-.140472.197723-.141144.681686.005432.863907.646881.804321,1.371124,1.546524,2.152832,2.405151,1.022583-1.325119,1.875732-2.430664,2.767975-3.586868-.966125-.78952-1.855957-1.516647-2.850433-2.329346v-.000015ZM59.606441,7.094705c-3.083313-1.448776-4.183899-1.125954-5.668732,1.613258.863739.723282,1.739258,1.456421,2.685699,2.248955,1.003845-1.29969,1.959076-2.536476,2.983063-3.862206,0,0-.000031,0-.000031-.000008ZM33.531428,17.852602c1.089722.861229,2.119965,1.675415,3.183624,2.516037.769257-.988892,1.451996-1.86657,2.204742-2.834229-1.006805-.818184-1.973907-1.60408-2.988647-2.428673-.832123.952522-1.582733,1.811699-2.399719,2.746864h-.000031.000031ZM33.577785,24.375528c.833221-1.045883,1.570038-1.970726,2.36908-2.97377-1.06015-.831879-2.043274-1.60334-3.170319-2.487717-.681671,1.086205-1.51001,1.997139-1.779205,3.050751-.0979.383133,1.137573,1.106651,1.764893,1.674591.245575.222321.49176.443909.815552.736145ZM50.249202,37.319238c.960815.775925,1.847382,1.491898,2.824768,2.281204.784058-.981781,1.516785-1.8992,2.310516-2.893082-.972778-.81871-1.868134-1.572266-2.819-2.372513-.810211,1.04393-1.533936,1.976364-2.316284,2.98439ZM31.595027,28.980738c1.017578.817551,1.911713,1.535934,2.878418,2.312668.770813-.982224,1.500244-1.911758,2.280029-2.905426-.972473-.789459-1.883331-1.528946-2.853149-2.316254-.812225,1.024933-1.526764,1.926575-2.305328,2.909012h.000031ZM57.177333,36.462259c1.021271.811218,1.918182,1.523651,2.8862,2.292557.760956-1.000122,1.471985-1.934662,2.197571-2.888321-.815918-.688522-1.505371-1.326324-2.261749-1.871307-.20282-.146133-.755402-.139633-.898102.019745-.668701.746796-1.250397,1.571426-1.92392,2.447327ZM44.154903,45.133737c1.01123.822021,1.9021,1.546204,2.8367,2.305908.773865-.988434,1.499573-1.91539,2.277863-2.909424-.992645-.787796-1.913086-1.518311-2.875122-2.28183-.772308.995041-1.476532,1.90242-2.23941,2.885345h-.000031ZM58.43774,32.818384c-1.027527-.820847-1.949799-1.557571-2.950928-2.357315-.781738,1.013535-1.498779,1.943176-2.230927,2.892441,1.009277.827866,1.940887,1.592026,2.904144,2.382172.768219-.983948,1.476379-1.890976,2.27771-2.917297ZM53.825984,16.610102c-.762299.983322-1.460388,1.883759-2.231964,2.879028.965637.782021,1.878082,1.520988,2.850464,2.308472.795959-1.001968,1.528564-1.92424,2.321442-2.922371-1.002319-.772263-1.93219-1.488701-2.939941-2.265129ZM58.56039,26.529932c-.770233.990189-1.490662,1.916382-2.274414,2.92395.999054.796753,1.914551,1.526901,2.877899,2.295212.809265-1.03157,1.532867-1.953979,2.278839-2.904892-.988129-.793365-1.882843-1.511749-2.882355-2.31427h.000031ZM46.309657,34.261194c1.034363.825729,1.949463,1.556244,2.882324,2.300934.808197-1.034958,1.53421-1.964691,2.295227-2.93924-.964844-.778671-1.881714-1.518646-2.883026-2.326767-.792572,1.0242-1.517059,1.960403-2.294495,2.965073h-.000031ZM65.223903,23.991739c.765472-.980186,1.468109-1.879906,2.158752-2.764267-2.194702-2.692764-2.613464-2.702744-4.621307-.167168-.136566.172455-.250275.362968-.403717.587723.935638.765053,1.848328,1.511353,2.866302,2.343712h-.000031ZM54.530391,29.731745c-.870331-.717728-1.623444-1.384659-2.434998-1.970795-.16983-.122635-.672791-.053711-.820251.109329-.575806.636719-1.098175,1.328262-1.575043,2.042999-.111877.167664-.06839.622238.075226.74614.780426.67337,1.614624,1.284515,2.471832,1.94928.76059-.958435,1.476379-1.860336,2.283173-2.876968h.000031l.000031.000015ZM49.648189,11.754984c.655396-.763443,1.258667-1.381157,1.748444-2.078476.196198-.279343.252991-1.038879.186249-1.063011-1.029144-.371872-1.477814-2.160942-2.768921-1.511787-.835266.419945-1.325439,1.525337-2.005493,2.367241,1.029266.82856,1.92276,1.547836,2.839722,2.286034ZM41.519893,38.480203c-1.031281-.846085-1.91745-1.573166-2.886658-2.368347-.782684,1.00354-1.502014,1.925873-2.25943,2.896973.983459.801788,1.895264,1.545151,2.87439,2.343399.77533-.98024,1.486176-1.878876,2.271729-2.872025h-.000031ZM36.209041,45.22973c.787506-.979126,1.504578-1.870651,2.287109-2.843536-.98114-.799286-1.891693-1.541061-2.878906-2.345322-.782166.992233-1.506805,1.911484-2.266266,2.874893.986542.798721,1.878479,1.520874,2.858063,2.31398v-.000015ZM38.355556,34.351663c.833313-1.065308,1.557892-1.991592,2.311218-2.954666-1.003479-.804413-1.900879-1.523773-2.87027-2.300858-.780304,1.001205-1.50412,1.929977-2.265228,2.90654.959381.797928,1.840546,1.530792,2.82428,2.348984ZM40.231441,42.099542c1.034088.796219,1.935669,1.490433,2.880066,2.217606.787933-.976685,1.507812-1.869034,2.293488-2.842926-.950684-.790924-1.82785-1.520706-2.772461-2.306549-.812653.992294-1.559692,1.904434-2.401093,2.93187ZM41.648555,32.197244c-.787811,1.020859-1.50293,1.94751-2.257111,2.92482.994904.792404,1.889984,1.50531,2.835663,2.258499.811646-.987579,1.559601-1.897629,2.34726-2.856033-1.000092-.795486-1.922363-1.529083-2.925812-2.327286ZM65.456691,25.696726c-.744354,1.026932-1.42746,1.969376-2.13913,2.951202,1.010345.80928,1.897614,1.519943,2.844147,2.278061.771881-1.033386,1.469116-1.966812,2.191833-2.934372-1.011841-.80159-1.906433-1.510269-2.896851-2.294891ZM38.57397,28.109262c.982269.791931,1.896332,1.5289,2.872955,2.316254.783325-.981003,1.49408-1.871048,2.256073-2.825333-1.016388-.849792-1.938599-1.62088-2.893951-2.419617-.776062,1.016891-1.454437,1.905762-2.235077,2.928696ZM62.47195,29.596643c-.793457,1.037766-1.509125,1.973831-2.264587,2.961868.976471.769058,1.871521,1.473969,2.821014,2.221802.802429-1.025055,1.528015-1.951935,2.268372-2.897705-.975647-.789536-1.845551-1.4935-2.824829-2.285965h.000031ZM28.619044,32.897852c.939728.751862,1.82962,1.463898,2.798584,2.239166.783661-.969864,1.5159-1.876114,2.263336-2.801147-.836334-.724564-1.541534-1.392349-2.316589-1.965927-.187256-.13858-.745331-.086334-.893097.084869-.652069.755325-1.216492,1.586182-1.852234,2.443024v.000015ZM49.766414,19.71055c-1.031921-.806206-1.930878-1.508492-2.895935-2.262459-.76825.99894-1.461426,1.900269-2.198181,2.858299.978638.804703,1.864655,1.533272,2.833557,2.329971.764435-.989357,1.48349-1.920052,2.260559-2.925812h-.000031.000031ZM41.580714,24.18844c.949585.788101,1.870575,1.552444,2.837219,2.354721.790955-.987274,1.506256-1.880081,2.281036-2.847137-.963806-.788055-1.849487-1.51223-2.848358-2.328979-.765533.951546-1.484009,1.844604-2.269867,2.821396h-.000031ZM53.593471,14.888864c.688629-.867393,1.317932-1.603386,1.868286-2.394272.132965-.191132.124847-.696846-.02356-.830643-.763275-.68811-1.593414-1.302139-2.451202-1.982468-.806305,1.039383-1.506287,1.941689-2.220154,2.861908.960266.796806,1.843109,1.529381,2.82663,2.345474ZM42.797542,20.594988c-.953949-.784584-1.833099-1.507629-2.794037-2.297943-.788849.979538-1.528656,1.898239-2.344727,2.911613.985809.771919,1.90564,1.49218,2.850006,2.231628.770935-.958412,1.470825-1.828491,2.288727-2.845299h.000031ZM56.951076,42.652277c.662781-.828018,1.279327-1.532394,1.807373-2.297729.160889-.233215.227051-.801407.08197-.930618-.766449-.682617-1.614197-1.274063-2.474701-1.928253-.785858,1.013397-1.488739,1.919769-2.249695,2.901031.965881.768463,1.863251,1.482422,2.835022,2.255569h.000031ZM45.288417,33.464212c.678375-.830276,1.354645-1.613358,1.965118-2.444672.11496-.156586.068451-.618317-.075531-.746719-.743439-.663177-1.542847-1.263733-2.411469-1.956924-.69931.881943-1.36972,1.672546-1.959869,2.519058-.115295.165344-.018646.661804.151215.810196.723785.632477,1.51178,1.191605,2.330566,1.819061h-.000031ZM50.295558,45.27302c-.789429,1.001236-1.513458,1.91951-2.26944,2.878311.996735.807373,1.908691,1.546082,2.867126,2.322418.762024-1.018173,1.448242-1.935074,2.184967-2.919403-.928589-.761292-1.809692-1.483673-2.782684-2.281342h.000031v.000015ZM62.223659,27.830149c.792694-1.027817,1.486023-1.926758,2.22345-2.88295-.98056-.817581-1.855347-1.546951-2.806793-2.340233-.784851,1.03347-1.492889,1.965782-2.24115,2.951134.976807.785767,1.843628,1.483063,2.824463,2.272049h.000031ZM50.021083,43.502573c.765533-.962128,1.496857-1.881317,2.287476-2.875-.991882-.801346-1.900574-1.535492-2.834534-2.290039-.806702,1.013214-1.522766,1.912567-2.282501,2.866776.941559.76474,1.808685,1.469055,2.829559,2.298248h.000031l-.000031.000015ZM57.463924,17.875536c.783386-1.012238,1.501465-1.940071,2.24054-2.895073-1.014923-.820595-1.907379-1.542183-2.844757-2.300087-.782074,1.013298-1.49762,1.940422-2.23819,2.899948.975494.787727,1.845398,1.490143,2.842407,2.295212ZM43.839503,13.376345c.808502.678864,1.546448,1.354797,2.354523,1.932793.175934.125839.723724.008888.892731-.18084.65918-.739868,1.234955-1.553909,1.863251-2.368248-.980896-.756905-1.904449-1.469551-2.865906-2.211441-.783569.987152-1.492096,1.879761-2.244598,2.827736ZM52.844814,15.86516c-1.014404-.8311-1.895386-1.552925-2.8125-2.304314-.813141.994423-1.560028,1.907829-2.359558,2.885605.999603.787567,1.891754,1.490433,2.850037,2.245392.791718-.963806,1.516266-1.845825,2.322021-2.826683ZM47.793574,24.399546c-.815765.991791-1.54364,1.87674-2.341309,2.846558.992035.798813,1.907196,1.535721,2.880035,2.319092.769379-.976639,1.475555-1.873062,2.245178-2.850006-.941101-.782822-1.795715-1.493683-2.783905-2.315659v.000015ZM32.328975,42.112436c.776581-.990936,1.459534-1.862411,2.208618-2.818222-.995819-.824188-1.900574-1.572998-2.852051-2.360489-.789734,1.006012-1.498444,1.908798-2.273834,2.89653.985107.770645,1.91217,1.495895,2.917267,2.282181ZM60.760951,15.716104c-.716522.866463-1.386963,1.620316-1.974426,2.433968-.122772.170013-.045959.682961.121338.828804.750549.654243,1.566956,1.232986,2.407562,1.875641.802185-.98114,1.531952-1.873741,2.319519-2.836998-.981232-.785728-1.899963-1.521454-2.873962-2.301414h-.000031ZM55.502071,22.529245c.962952.786842,1.848297,1.510315,2.787811,2.27803.772461-.994156,1.495697-1.924957,2.258942-2.907204-.968842-.791367-1.852478-1.513123-2.795288-2.283241-.78244,1.012138-1.483978,1.919662-2.251434,2.912407,0,0-.000031,0-.000031.000008ZM34.74322,33.058298c-.800537,1.014572-1.509766,1.913406-2.265686,2.87146.967255.799637,1.873749,1.548996,2.823029,2.33374.796539-1.002502,1.528595-1.923828,2.29538-2.88887-.962219-.781296-1.851624-1.503479-2.852692-2.31633h-.000031ZM43.093135,14.449518c-.817596.983017-1.546295,1.859154-2.33078,2.802376.979492.808907,1.880157,1.55275,2.804779,2.31636.808197-1.010757,1.525269-1.907555,2.297424-2.873238-.932465-.755501-1.79895-1.457558-2.771423-2.245499ZM39.763301,24.509149c-.805176-.677124-1.516541-1.331238-2.295563-1.891411-.195923-.140877-.74942-.104973-.8974.062515-.656708.743263-1.225739,1.563942-1.856964,2.396858.951691.791138,1.820679,1.51355,2.752258,2.287964.785645-.976517,1.503693-1.869049,2.297668-2.855911h-.000031l.000031-.000015ZM37.287135,45.970407c.948853.781784,1.828583,1.506638,2.770508,2.282715.821716-.985748,1.573364-1.887451,2.357849-2.828552-.980621-.773773-1.902649-1.501297-2.908997-2.295364-.763489.977417-1.465698,1.876419-2.21936,2.841217v-.000015ZM41.152949,49.032694c.934235.761597,1.818756,1.482651,2.794312,2.277924.778534-.985443,1.50766-1.90834,2.276459-2.881454-.967041-.782593-1.87677-1.518784-2.819458-2.281693-.784149,1.004944-1.486847,1.905518-2.251282,2.885223h-.000031ZM48.437404,37.591074c-.853729-.68782-1.581909-1.329666-2.37619-1.875412-.196991-.135376-.744507-.079285-.897064.094193-.631805.718231-1.17392,1.515244-1.791962,2.340744.949615.780304,1.831207,1.5047,2.783783,2.287445.764313-.953781,1.480011-1.846909,2.281433-2.846954v-.000015ZM50.774806,20.454782c-.763184,1.015793-1.482391,1.973061-2.203674,2.933151.975128.784973,1.84024,1.481415,2.778748,2.236908.758057-.949829,1.484863-1.860443,2.234009-2.799088-.980896-.827927-1.854584-1.565308-2.809082-2.370972ZM54.713161,23.573038c-.794525,1.001999-1.507202,1.900787-2.270447,2.863358.968384.773483,1.886688,1.506973,2.850006,2.276443.737-.973984,1.428986-1.888474,2.203217-2.911713-.940704-.75322-1.830719-1.465805-2.782776-2.228088h.000031-.000031ZM51.163295,44.224298c1.69046,1.686829,3.225037,1.678802,4.60379-.024078.114685-.141708.20578-.30246.348145-.514359-.929413-.758484-1.837982-1.499939-2.79303-2.279327-.732635.956223-1.426971,1.862411-2.158936,2.817764h.000031ZM36.841396,14.204088c.935669.736786,1.907959,1.502419,2.883759,2.270836.795929-.972893,1.499573-1.832977,2.241882-2.740303-.77124-.6241-1.468414-1.240471-2.228363-1.766258-.188324-.130302-.687012-.080765-.85965.081253-.699158.65638-1.326813,1.38887-2.037659,2.154472h.000031ZM60.459682,45.283335c.789093-.925568,1.529388-1.793869,2.356262-2.763748-.88855-.714188-1.708405-1.373184-2.572968-2.06813-.810425,1.041977-1.512756,1.945084-2.25354,2.897552.830902.650635,1.610535,1.261108,2.470245,1.934311v.000015ZM32.955226,25.339426c-1.042053-.762146-1.938446-1.417725-2.860657-2.092239-1.929413,3.981735-1.6922,3.46347.508789,4.945892.749603-.909546,1.500916-1.821121,2.351898-2.853653h-.000031ZM63.529292,41.466318c.731201-1.039001,1.405548-1.997238,2.104126-2.989899-.839264-.6577-1.58374-1.241104-2.367462-1.85524-.770538.989182-1.452362,1.864517-2.203156,2.828384.818085.6689,1.585144,1.296082,2.466522,2.016754h-.000031ZM68.13708,20.020212c1.404816-1.328644,1.253754-3.183449-.381958-5.236504-.785858.994888-1.558685,1.973274-2.356598,2.983444.955963.786484,1.817139,1.495003,2.738556,2.253059ZM68.413966,21.979555c-.708862.860039-1.430176,1.735222-2.234528,2.711159,1.091095.836594,2.070129,1.58728,3.091675,2.370575.997772-2.744766.778442-4.073631-.857147-5.081734ZM28.450465,38.962381c.760651-.951004,1.470825-1.838928,2.229431-2.787384-1.065369-.826645-2.070038-1.606171-3.101776-2.406738-.977509,1.941269-.588196,4.176239.872314,5.194138h.000031v-.000015ZM47.298396,49.164469c-.686279.855652-1.316437,1.590729-1.887817,2.368896-.508301.692276-.302917,1.272491.537689,1.306137,1.462952.058563,2.766602-.550125,4.330872-1.163544-1.112823-.937637-1.985291-1.672729-2.980743-2.511475h-.000031l.000031-.000015ZM28.755092,40.857752c-1.248962,1.179001-.990906,2.775681.728882,4.832001.676544-.842514,1.335785-1.663467,2.059143-2.564316-.972565-.791031-1.85675-1.510208-2.788025-2.267685ZM42.764369,12.6933c.814575-1.055916,1.536743-1.992058,2.283356-2.959885-.55899-.486031-.86676-1.357338-1.778839-.799095-.920715.563545-1.806305,1.184494-2.833099,1.863503.816437.664589,1.527618,1.243507,2.328552,1.895477h.000031ZM54.84576,47.440225c.813599.327591,1.631409.973053,2.100616.778564.915436-.379425,1.635803-1.228729,2.535065-1.963623-.843323-.67363-1.554474-1.241684-2.280792-1.821854-.730194.932358-1.41803,1.810684-2.354858,3.006897l-.000031.000015ZM43.471126,52.620462c-1.111694-.93718-2.05838-1.735214-3.069183-2.587341-.723022.941605-1.338867,1.743591-2.094482,2.727585,1.815918.266418,3.33139,1.041809,5.163666-.140244ZM66.231349,37.309397c.487152-.990677.978027-1.862473,1.333344-2.786346.111359-.289429-.061768-.770233-.252075-1.070023-.186035-.29306-.560059-.466949-.928955-.753159-.784607.968292-1.546356,1.90834-2.337494,2.884705.717926.566681,1.354248,1.068985,2.18515,1.724823h.000031ZM27.229182,31.86294c.132111.045288.264282.090576.396423.135864.713287-.92247,1.426575-1.844925,2.200165-2.845383-.597534-.380234-1.073486-.683121-1.71347-1.090378-.326263,1.403946-.604706,2.601929-.883087,3.799911h-.000031v-.000015ZM54.156306,48.243219c-.712616.888153-1.360443,1.695587-2.008301,2.503036.069214.087677.138367.175369.20755.263031,1.023254-.51268,2.046478-1.025375,3.250519-1.628632-.587219-.460693-.979401-.768402-1.449738-1.137436h-.000031ZM50.7774,6.197336c.822357.701004,1.369934,1.167786,1.970673,1.679863.503937-.640884.944275-1.200897,1.591125-2.023521-1.293945.124847-2.271851.2192-3.561768.343658h-.000031ZM68.385921,32.666376c.299408-1.251526.53363-2.230545.767853-3.209564-.109924-.034332-.219849-.06868-.329803-.103012-.554779.766205-1.109558,1.532394-1.70932,2.360764.39563.296204.710663.532059,1.271301.951797h-.000031v.000015Z"/>
      <path class="cls-1" d="M23.117305,62.711191c.042175-.194519.091919-.414062.13736-.634506.756775-3.673828,1.501648-7.350204,2.284119-11.01857.095032-.445602.391876-.848236.595184-1.270782.41571.267471.938324.449921,1.230011.816071,2.061951,2.588165,4.592255,4.509338,7.701569,5.676376.34079.127914.792694.490631.817993.777481.024994.283844-.361176.725067-.676514.899094-3.352661,1.85022-6.716949,3.680206-10.101074,5.47226-1.220032.646072-2.016388.322647-1.988617-.717438h-.000031v.000015ZM26.870021,52.822824c-.575134,2.844376-1.167542,5.774292-1.77417,8.774445,2.715179-1.482376,5.329376-2.909622,7.837189-4.278778-2.01593-1.494797-4.043701-2.998398-6.063019-4.495667Z"/>
      <path class="cls-2" d="M60.453456,13.953752c-.997772-.805077-1.864746-1.504623-2.78653-2.24839.985474-1.274635,1.898468-2.504501,2.880402-3.676743.160919-.192078.707703-.282211.934418-.158989.846161.459892,1.633331,1.02816,2.548553,1.624817-1.228668,1.531769-2.364258,2.947556-3.576874,4.459305h.000031Z"/>
      <path class="cls-2" d="M64.369807,16.996385c-.977814-.770676-1.902161-1.499168-2.903168-2.288116,1.163055-1.422707,2.264099-2.769516,3.495331-4.27562.693024.887184,1.347809,1.676895,1.933319,2.514969.119751.171394.077667.594025-.056641.781525-.777557,1.085716-1.605133,2.135689-2.468842,3.267242Z"/>
      <path class="cls-2" d="M36.480189,46.980188c.976868.788223,1.870422,1.509247,2.861572,2.308975-.710022.912201-1.367767,1.802094-2.087219,2.639038-.124908.145294-.564301.174164-.76651.07309-.898041-.448914-1.762604-.964691-2.784912-1.537994.954468-1.197159,1.845398-2.314575,2.777069-3.483109Z"/>
      <path class="cls-2" d="M32.601344,43.825159c.994476.812683,1.884277,1.539825,2.850433,2.329346-.892242,1.156204-1.745392,2.261749-2.767975,3.586868-.781738-.858627-1.505981-1.60083-2.152832-2.405151-.146576-.18222-.145874-.666168-.005432-.863907.623779-.877838,1.323029-1.702072,2.075806-2.647156Z"/>
      <path class="cls-2" d="M59.606441,7.094705c-1.023956,1.325729-1.979218,2.562515-2.983063,3.862206-.946442-.792526-1.82196-1.525673-2.685699-2.248955,1.484802-2.739212,2.585419-3.062027,5.668732-1.613258,0,0,.000031,0,.000031.000008Z"/>
      <path class="cls-2" d="M33.531428,17.852602c.816986-.935158,1.567596-1.794342,2.399719-2.746864,1.01474.824585,1.981812,1.610489,2.988647,2.428673-.752716.967659-1.435455,1.845337-2.204742,2.834229-1.06369-.840622-2.093903-1.654808-3.183624-2.516037h.000031-.000031Z"/>
      <path class="cls-2" d="M33.577785,24.375528c-.323792-.292236-.570007-.513824-.815552-.736145-.62735-.567947-1.862793-1.291458-1.764893-1.674591.269196-1.053612,1.097534-1.964539,1.779205-3.050751,1.127045.884377,2.110199,1.655838,3.170319,2.487717-.799072,1.003044-1.535858,1.927887-2.36908,2.97377Z"/>
      <path class="cls-2" d="M50.249202,37.319238c.782379-1.008011,1.506073-1.94046,2.316284-2.98439.950836.800247,1.846222,1.553802,2.819,2.372513-.793732.993881-1.526459,1.911301-2.310516,2.893082-.977386-.789307-1.863953-1.50528-2.824768-2.281204Z"/>
      <path class="cls-2" d="M31.595027,28.980738c.778564-.982437,1.493103-1.884094,2.305328-2.909012.969788.787308,1.880676,1.526794,2.853149,2.316254-.779785.993683-1.509216,1.923218-2.280029,2.905426-.966736-.776718-1.86087-1.495102-2.878418-2.312668h-.000031Z"/>
      <path class="cls-2" d="M57.177333,36.462259c.673553-.8759,1.255219-1.700531,1.92392-2.447327.14267-.159393.695282-.165878.898102-.019745.756409.544983,1.445831,1.1828,2.261749,1.871307-.725586.953659-1.436615,1.888199-2.197571,2.888306-.968018-.76889-1.864929-1.481323-2.8862-2.292557v.000015Z"/>
      <path class="cls-2" d="M44.154903,45.133737c.762878-.982925,1.467102-1.890305,2.23941-2.885345.962036.763519,1.882477,1.494034,2.875122,2.28183-.77829.994034-1.503998,1.92099-2.277863,2.909424-.934601-.759705-1.82547-1.483887-2.8367-2.305908h.000031Z"/>
      <path class="cls-2" d="M58.43774,32.818384c-.8013,1.026321-1.50946,1.93335-2.27771,2.917297-.963287-.790146-1.894867-1.554291-2.904144-2.382172.732178-.949265,1.449188-1.878891,2.230927-2.892441,1.001099.799728,1.92337,1.536469,2.950897,2.357315h.000031Z"/>
      <path class="cls-2" d="M53.825984,16.610102c1.007721.776421,1.937622,1.492859,2.939941,2.265121-.792877.998138-1.525482,1.920403-2.321472,2.922371-.972351-.787476-1.884796-1.526451-2.850464-2.308472.771576-.99527,1.469635-1.895706,2.231964-2.879028l.000031.000008Z"/>
      <path class="cls-2" d="M58.56039,26.529932c.999512.802536,1.894226,1.520905,2.882355,2.31427-.745972.950912-1.469574,1.873322-2.278839,2.904892-.963379-.768326-1.878845-1.498459-2.877899-2.295212.783752-1.007568,1.504181-1.933762,2.274414-2.923935h-.000031v-.000015Z"/>
      <path class="cls-2" d="M46.309657,34.261194c.777435-1.004669,1.501923-1.940872,2.294495-2.965073,1.001312.808121,1.918182,1.548096,2.883026,2.326767-.761017.974548-1.48703,1.904266-2.295227,2.93924-.932861-.74469-1.847961-1.475204-2.882324-2.300934h.000031Z"/>
      <path class="cls-2" d="M65.223903,23.991739c-1.017944-.832359-1.930664-1.578667-2.866302-2.343712.153442-.224747.267151-.41526.403717-.587723,2.007843-2.535576,2.426636-2.525597,4.621307.167168-.690643.884361-1.39328,1.784073-2.158752,2.764267h.000031Z"/>
      <path class="cls-2" d="M54.530391,29.731745c-.806793,1.016632-1.522583,1.918533-2.283173,2.876968-.857239-.664764-1.691376-1.275909-2.471832-1.94928-.143646-.123901-.187134-.578491-.075226-.74614.476837-.714737.999237-1.406281,1.575043-2.042999.147461-.16304.650421-.231964.820251-.109329.811523.586136,1.564636,1.253052,2.434998,1.970779h-.000061Z"/>
      <path class="cls-2" d="M49.648189,11.754984c-.916992-.73819-1.810455-1.457466-2.839722-2.286034.680054-.841904,1.170227-1.947296,2.005493-2.367241,1.291077-.649155,1.739746,1.139908,2.768921,1.511787.066772.024132.009949.783669-.186249,1.063011-.489777.697311-1.093048,1.315033-1.748444,2.078476Z"/>
      <path class="cls-2" d="M41.519893,38.480203c-.785553.993149-1.496399,1.8918-2.271729,2.872025-.979126-.798248-1.89093-1.541611-2.87439-2.343399.757416-.9711,1.476746-1.893433,2.25943-2.896973.969208.795181,1.855377,1.522247,2.886658,2.368347h.000031Z"/>
      <path class="cls-2" d="M36.209041,45.22973c-.979584-.793091-1.871552-1.515259-2.858063-2.31398.75943-.963409,1.4841-1.88266,2.266266-2.874893.987213.80426,1.897797,1.546036,2.878906,2.345322-.782501.972885-1.499573,1.864426-2.287109,2.843536v.000015Z"/>
      <path class="cls-2" d="M38.355556,34.351663c-.983704-.818176-1.864868-1.551056-2.82428-2.348984.761108-.976578,1.484924-1.905334,2.265228-2.90654.969391.777084,1.866791,1.496445,2.87027,2.300858-.753326.963074-1.477905,1.889359-2.311218,2.954666Z"/>
      <path class="cls-2" d="M40.231441,42.099542c.841431-1.027435,1.58844-1.939575,2.401093-2.93187.94458.785843,1.821747,1.51561,2.772461,2.306549-.785675.973892-1.505554,1.866226-2.293488,2.842926-.944427-.727173-1.845978-1.421387-2.880066-2.217606Z"/>
      <path class="cls-2" d="M41.648555,32.197244c1.003479.798203,1.925751,1.531799,2.925812,2.327286-.787689.958405-1.535614,1.868454-2.34726,2.856033-.945679-.753189-1.840759-1.46608-2.835663-2.258499.754181-.977325,1.469269-1.903961,2.257111-2.92482Z"/>
      <path class="cls-2" d="M65.456691,25.696726c.990417.784622,1.88501,1.493301,2.896851,2.294891-.722717.96756-1.419952,1.900986-2.191833,2.934372-.946533-.758118-1.833801-1.468796-2.844147-2.278061.71167-.981827,1.394775-1.924271,2.13913-2.951202Z"/>
      <path class="cls-2" d="M38.57397,28.109262c.78067-1.022934,1.459015-1.911819,2.235077-2.928696.955322.798752,1.877533,1.569824,2.893951,2.419617-.761993.954285-1.472748,1.84433-2.256073,2.825333-.976624-.787369-1.890686-1.524338-2.872955-2.316254Z"/>
      <path class="cls-2" d="M62.47195,29.596643c.979248.79245,1.849182,1.496429,2.824829,2.285965-.740356.94577-1.465942,1.87265-2.268372,2.897705-.949524-.747833-1.844543-1.452744-2.821014-2.221802.755463-.988037,1.47113-1.924103,2.264587-2.961868h-.000031Z"/>
      <path class="cls-2" d="M28.619044,32.897852c.635742-.856857,1.200165-1.687714,1.852234-2.443024.147766-.171188.705841-.223434.893097-.084869.775024.573563,1.480225,1.241364,2.316589,1.965927-.747406.925018-1.479675,1.831284-2.263336,2.801147-.968933-.775269-1.858856-1.487305-2.798584-2.239166v-.000015Z"/>
      <path class="cls-2" d="M49.766414,19.71055c-.7771,1.00576-1.496155,1.936455-2.260559,2.925812-.968872-.7967-1.854919-1.525269-2.833557-2.329971.736786-.958023,1.429932-1.85936,2.198181-2.858299.965057.753967,1.864014,1.456253,2.895935,2.262459h.000031-.000031Z"/>
      <path class="cls-2" d="M41.580714,24.18844c.785858-.976799,1.504333-1.869858,2.269867-2.821396.998871.816742,1.884583,1.540916,2.848358,2.328979-.77478.967056-1.490051,1.859863-2.281036,2.847137-.966644-.802277-1.887604-1.56662-2.837219-2.354721h.000031Z"/>
      <path class="cls-2" d="M53.593471,14.888864c-.98349-.816086-1.866333-1.54866-2.82663-2.345467.713867-.920219,1.413849-1.822525,2.220154-2.861908.857788.680328,1.687927,1.294357,2.451202,1.982468.148407.133797.156525.639511.02356.830643-.550354.790886-1.179688,1.526878-1.868286,2.394264Z"/>
      <path class="cls-2" d="M42.797542,20.594988c-.817902,1.016808-1.517792,1.886894-2.288727,2.845299-.944366-.739449-1.864197-1.459709-2.850006-2.231628.816071-1.013374,1.555878-1.932076,2.344727-2.911613.960938.790314,1.840057,1.513359,2.794037,2.297943h-.000031Z"/>
      <path class="cls-2" d="M56.951076,42.652277c-.971771-.773148-1.869141-1.487091-2.835022-2.255569.760956-.981262,1.463837-1.887634,2.249695-2.901031.860504.65419,1.708252,1.245636,2.474701,1.928253.145111.129211.078949.697403-.08197.930618-.528046.765335-1.144592,1.469711-1.807373,2.297729h-.000031Z"/>
      <path class="cls-2" d="M45.288417,33.464212c-.818756-.627441-1.60675-1.186584-2.330566-1.819061-.16983-.148392-.26651-.644852-.151215-.810196.590118-.846512,1.260559-1.637115,1.959869-2.519058.868622.693207,1.66803,1.293747,2.411469,1.956924.143951.128387.19046.590134.075531.746719-.610443.831314-1.286713,1.614395-1.965118,2.444672h.000031Z"/>
      <path class="cls-2" d="M50.295558,45.27302c.972992.797684,1.854065,1.52005,2.782684,2.281342-.736694.984329-1.422943,1.90123-2.184967,2.919403-.958435-.776337-1.870392-1.515045-2.867126-2.322418.755981-.958817,1.480011-1.877075,2.26944-2.878311h-.000031v-.000015Z"/>
      <path class="cls-2" d="M62.223659,27.830149c-.980835-.788971-1.847656-1.486267-2.824463-2.272049.748291-.985336,1.456329-1.917664,2.24115-2.951134.951447.793282,1.826233,1.522652,2.806793,2.340233-.737457.956177-1.430786,1.855118-2.22345,2.88295h-.000031Z"/>
      <path class="cls-2" d="M50.021083,43.502573c-1.020874-.829193-1.888-1.533508-2.829559-2.298248.759735-.954208,1.47583-1.853577,2.282501-2.866776.93396.754547,1.842651,1.488678,2.834534,2.290039-.790619.993683-1.521973,1.912872-2.287476,2.875h-.000031l.000031-.000015Z"/>
      <path class="cls-2" d="M57.463924,17.875536c-.997009-.805069-1.866882-1.507484-2.842407-2.295212.74057-.959526,1.456116-1.886658,2.23819-2.899948.937378.757904,1.829865,1.479492,2.844757,2.300087-.739075.955002-1.457153,1.882835-2.24054,2.895073Z"/>
      <path class="cls-2" d="M43.839503,13.376345c.752502-.947975,1.461029-1.840584,2.244598-2.827736.961487.74189,1.88504,1.454544,2.865906,2.211441-.628296.814339-1.204102,1.628372-1.863251,2.368248-.169006.189728-.716827.306679-.892731.18084-.808105-.577995-1.546051-1.253922-2.354523-1.932793Z"/>
      <path class="cls-2" d="M52.844814,15.86516c-.805756.980858-1.530304,1.862885-2.322021,2.826691-.958252-.754959-1.850403-1.457832-2.850037-2.245392.79953-.977776,1.546387-1.891182,2.359558-2.885605.917114.751389,1.798126,1.473213,2.8125,2.304306Z"/>
      <path class="cls-2" d="M47.793574,24.399546c.98819.821976,1.842773,1.532837,2.783905,2.315659-.769623.976929-1.47583,1.873367-2.245178,2.850006-.972839-.783371-1.888-1.520294-2.880035-2.319092.797668-.969818,1.525543-1.854767,2.341309-2.846558v-.000015Z"/>
      <path class="cls-2" d="M32.328975,42.112436c-1.005096-.786301-1.932159-1.511536-2.917267-2.282181.775421-.987732,1.4841-1.890503,2.273834-2.89653.951477.787491,1.856201,1.536316,2.852051,2.360489-.749054.955811-1.432007,1.827286-2.208618,2.818222Z"/>
      <path class="cls-2" d="M60.760951,15.716104c.973999.779961,1.892761,1.515686,2.873962,2.301422-.787567.963264-1.517334,1.855858-2.319519,2.836998-.840576-.642654-1.656982-1.221405-2.407562-1.875641-.167297-.145851-.24411-.658791-.121338-.828804.587463-.813652,1.257904-1.567505,1.974426-2.433968,0,0,.000031,0,.000031-.000008Z"/>
      <path class="cls-2" d="M55.502071,22.529245c.767456-.992744,1.469025-1.900276,2.251434-2.912407.94281.770119,1.826447,1.491875,2.795288,2.283241-.763214.982246-1.48645,1.91304-2.258942,2.907196-.939514-.767731-1.82486-1.491188-2.787811-2.27803h.000031Z"/>
      <path class="cls-2" d="M34.74322,33.058298c1.001068.812866,1.890533,1.535034,2.852692,2.31633-.766785.965042-1.498871,1.886368-2.29538,2.88887-.949249-.784744-1.855743-1.534103-2.823029-2.33374.75592-.958054,1.465149-1.856888,2.265686-2.87146h.000031Z"/>
      <path class="cls-2" d="M43.093135,14.449518c.972473.787941,1.838989,1.490005,2.771423,2.245499-.772156.965675-1.489197,1.862473-2.297424,2.873238-.924622-.763611-1.825287-1.507446-2.804779-2.31636.784485-.943222,1.513184-1.819366,2.33078-2.802376Z"/>
      <path class="cls-2" d="M39.763301,24.509149c-.793976.986877-1.512024,1.87941-2.297668,2.855911-.931549-.774414-1.800568-1.496826-2.752258-2.287964.631195-.832916,1.200226-1.65358,1.856964-2.396851.14798-.167488.701477-.203384.8974-.062515.779022.560173,1.490387,1.214279,2.295563,1.891403h.000031l-.000031.000015Z"/>
      <path class="cls-2" d="M37.287135,45.970407c.753632-.964798,1.455872-1.863785,2.21936-2.841217,1.006348.794067,1.928345,1.521591,2.908997,2.295364-.784485.941101-1.536133,1.842819-2.357849,2.828552-.941895-.776062-1.821655-1.500931-2.770508-2.282715v.000015Z"/>
      <path class="cls-2" d="M41.152949,49.032694c.764435-.979691,1.467133-1.880264,2.251282-2.885223.942719.762909,1.852417,1.4991,2.819458,2.281693-.768799.973114-1.497925,1.896011-2.276459,2.881454-.975555-.795273-1.860077-1.516327-2.794312-2.277924h.000031Z"/>
      <path class="cls-2" d="M48.437404,37.591074c-.801422,1.000046-1.51712,1.893173-2.281433,2.846954-.952606-.782745-1.834167-1.507141-2.783783-2.287445.618042-.8255,1.160156-1.622498,1.791962-2.340744.152588-.173477.700073-.229568.897064-.094193.794281.545746,1.522461,1.187592,2.37619,1.875412v.000015Z"/>
      <path class="cls-2" d="M50.774806,20.454782c.954529.805656,1.828156,1.543037,2.809082,2.370964-.749146.938652-1.475952,1.849266-2.234009,2.799095-.938477-.755493-1.803619-1.45192-2.778748-2.236908.721313-.960083,1.440521-1.917358,2.203674-2.933151Z"/>
      <path class="cls-2" d="M54.713161,23.573038c.952087.762299,1.842072,1.474884,2.782776,2.228088-.774261,1.023239-1.466248,1.937714-2.203217,2.911713-.963318-.76947-1.881622-1.50296-2.850006-2.276443.763275-.96257,1.475922-1.861359,2.270447-2.863358h-.000031.000031Z"/>
      <path class="cls-2" d="M51.163295,44.224298c.731995-.955353,1.4263-1.861542,2.158936-2.817764.955017.779373,1.863586,1.520844,2.79303,2.279327-.142365.211899-.233459.37265-.348145.514359-1.378357,1.703186-2.912964,1.711212-4.60379.024078h-.000031Z"/>
      <path class="cls-2" d="M36.841396,14.204088c.710846-.765602,1.33847-1.498093,2.037659-2.154472.172607-.162025.671326-.211555.85965-.081253.759949.525787,1.457123,1.142151,2.228363,1.766258-.742279.907326-1.445953,1.76741-2.241882,2.740303-.9758-.76841-1.94809-1.534042-2.883759-2.270828l-.000031-.000008Z"/>
      <path class="cls-2" d="M60.459682,45.283335c-.859741-.673203-1.639343-1.283676-2.470245-1.934311.740784-.952469,1.443146-1.855576,2.25354-2.897552.864594.694946,1.684418,1.353928,2.572968,2.06813-.826874.969879-1.567169,1.838165-2.356262,2.763748v-.000015Z"/>
      <path class="cls-2" d="M32.955226,25.339426c-.850983,1.032532-1.602264,1.944122-2.351898,2.853653-2.200958-1.482422-2.438202-.964157-.508789-4.945892.922241.674515,1.818573,1.330078,2.860657,2.092239h.000031Z"/>
      <path class="cls-2" d="M63.529292,41.466318c-.881378-.720657-1.648438-1.347855-2.466522-2.016754.750793-.963867,1.432617-1.839203,2.203156-2.828384.783722.614136,1.528168,1.19754,2.367462,1.85524-.698578.992661-1.372894,1.950897-2.104126,2.989899h.000031Z"/>
      <path class="cls-2" d="M68.13708,20.020212c-.921387-.758057-1.782593-1.466576-2.738556-2.253059.797913-1.01017,1.57074-1.988556,2.356598-2.983444,1.635712,2.053055,1.786743,3.90786.381958,5.236504Z"/>
      <path class="cls-2" d="M68.413966,21.979555c1.635559,1.00811,1.854889,2.336967.857147,5.081749-1.021576-.783295-2.00058-1.533997-3.091675-2.370575.804352-.975937,1.525665-1.851128,2.234528-2.711174Z"/>
      <path class="cls-2" d="M28.450465,38.962381c-1.460541-1.017899-1.849823-3.252853-.872314-5.194138,1.031738.800568,2.036407,1.580093,3.101776,2.406738-.758606.948456-1.468811,1.83638-2.229431,2.787384h-.000031v.000015Z"/>
      <path class="cls-2" d="M47.298396,49.164469c.995453.838745,1.86792,1.573837,2.980743,2.511475-1.56427.613419-2.86792,1.222092-4.330872,1.163544-.840576-.033646-1.04599-.613861-.537689-1.306137.571381-.778168,1.201538-1.513229,1.887817-2.368896h.000031l-.000031.000015Z"/>
      <path class="cls-2" d="M28.755092,40.857752c.931305.757492,1.815491,1.476654,2.788025,2.2677-.723389.900848-1.382629,1.721802-2.059143,2.564316-1.719757-2.056335-1.977844-3.653015-.728882-4.832016Z"/>
      <path class="cls-2" d="M42.764369,12.6933c-.800934-.65197-1.512146-1.230888-2.328552-1.895477,1.026825-.679008,1.912384-1.29995,2.833099-1.863503.912079-.558243,1.219818.313065,1.778839.799095-.746613.967827-1.468811,1.903969-2.283356,2.959885h-.000031Z"/>
      <path class="cls-2" d="M54.84576,47.440225c.936829-1.196198,1.624664-2.074539,2.354858-3.006897.726349.58017,1.437469,1.148224,2.280792,1.821854-.899231.734894-1.619598,1.584198-2.535065,1.963623-.469208.194473-1.287018-.450974-2.100616-.778564l.000031-.000015Z"/>
      <path class="cls-2" d="M43.471126,52.620462c-1.832275,1.182053-3.347748.406662-5.163666.140244.755615-.983994,1.371429-1.78598,2.094482-2.727585,1.010834.852127,1.957489,1.650177,3.069183,2.587341Z"/>
      <path class="cls-2" d="M66.231349,37.309397c-.830902-.655838-1.467224-1.158142-2.18515-1.724823.791138-.976364,1.552887-1.916412,2.337494-2.884705.368866.286224.74292.460098.928955.753159.190308.299789.363434.780594.252075,1.070023-.355347.923859-.846222,1.79567-1.333344,2.786346h-.000031Z"/>
      <path class="cls-2" d="M27.229182,31.86294c.278412-1.197983.556824-2.395966.883087-3.799911.640015.407257,1.115967.710144,1.71347,1.090378-.77359,1.000458-1.486877,1.922913-2.200165,2.845383-.132111-.045288-.264282-.090576-.396423-.135864h.000031v.000015Z"/>
      <path class="cls-2" d="M54.156306,48.243219c.470367.369034.862518.676743,1.449738,1.137436-1.20401.603271-2.227264,1.115952-3.250519,1.628632-.069214-.087677-.138367-.175354-.20755-.263031.647827-.807434,1.295685-1.614868,2.008301-2.503036h.000031Z"/>
      <path class="cls-2" d="M50.7774,6.197336c1.289917-.124458,2.267822-.218819,3.561768-.343658-.646851.822632-1.087189,1.382637-1.591125,2.023521-.600708-.512077-1.148315-.978859-1.970673-1.679863h.000031Z"/>
      <path class="cls-6" d="M68.385921,32.666376c-.560638-.419739-.875671-.655594-1.271301-.951797.599792-.828369,1.154572-1.594559,1.70932-2.360764.109955.034332.219879.06868.329803.103012-.234192.979019-.468414,1.958038-.767853,3.209564h.000031v-.000015Z"/>
      <path class="cls-2" d="M26.870021,52.822824c2.019287,1.497284,4.047089,3.00087,6.063019,4.495667-2.507782,1.369156-5.122009,2.796402-7.837189,4.278778.606628-3.000153,1.199066-5.930069,1.77417-8.774445Z"/>
    </g>
  </g>
</svg>