<?xml version="1.0" encoding="UTF-8"?>
<svg id="Layer_2" xmlns="http://www.w3.org/2000/svg" viewBox="0 0 95.61243 174.172169">
  <defs>
    <style>
      .cls-1 {
        fill: #f09d50;
      }

      .cls-2 {
        fill: #232221;
      }

      .cls-3 {
        fill: #f9f8f8;
      }

      .cls-4 {
        fill: #c65e28;
      }
    </style>
  </defs>
  <g id="Layer_1-2" data-name="Layer_1">
    <g>
      <path class="cls-2" d="M34.254597,116.861072c-.473648,1.473297-.859516,2.628296-1.216831,3.792023-4.020565,13.094513-8.037714,26.190033-12.053207,39.286102-.704113,2.296356-1.433338,4.586029-2.076313,6.899536-.267551.962708-.764959,1.32254-1.756472,1.31366-2.704428-.02417-5.409552.04248-8.114482.055481-1.570031.007538-1.761852-.231567-1.31997-1.704468,1.768526-5.895081,3.552761-11.785431,5.332031-17.677277,2.321812-7.688416,4.621773-15.383545,6.973303-23.062897,2.208576-7.212524,4.480038-14.405823,6.692764-21.617096.142849-.465515.14469-1.051483.001068-1.516327-4.531437-14.666901-9.102388-29.321564-13.638561-43.987-3.693584-11.941315-7.349894-23.894135-11.023788-35.841568-.617879-2.009338-1.245541-4.015656-1.860424-6.025894-.458972-1.500504-.146582-1.927567,1.414954-1.939499,7.062926-.054001,14.125882-.104935,21.188825-.156357.398321-.002899.796677-.000366,1.397552-.000366-.403439-1.304306-.733364-2.404739-1.084124-3.49852-1.008461-3.144745-2.027983-6.285919-3.037525-9.430313-.371126-1.155945-.061337-1.609558,1.19496-1.628769C24.912167.065814,28.556572.049976,32.200497.000247c.803383-.010956,1.220531.34198,1.451862,1.107819,1.280418,4.238907,2.577633,8.473022,3.928246,12.689865.102154.318924.665188.701401,1.012466.699905,7.32584-.031189,14.65152-.108475,21.977108-.188904,1.878441-.020645,1.898514-.045807,2.426125,1.700363,3.691399,12.217117,7.367538,24.438843,11.060722,36.655457,3.747375,12.395813,7.510117,24.787018,11.262489,37.181366.59819,1.97583,1.213173,3.947845,1.746231,5.941406.192932.721558.509338.954254,1.246559.922272,1.763191-.076385,3.530174-.064087,5.29557-.091431,1.318336-.020416,1.520042.165588,1.578796,1.439209.129745,2.8125.227669,5.627228.416626,8.43576.073502,1.092438-.288727,1.439667-1.377975,1.45929-8.263672.148499-16.526398.348846-24.789375.535553-.181877.004089-.363091.037781-.599663.06366.027115.21759.020134.404846.075531.571381,4.714523,14.173676,9.434486,28.345612,14.152596,42.518097,1.968117,5.911896,3.933334,11.824768,5.898254,17.737732.082809.249207.156471.501984.22213.756256.291977,1.130768.077873,1.434479-1.108231,1.459717-3.117538.066406-6.236938.073761-9.352448.189392-.880287.032654-1.159172-.350647-1.406151-1.073334-4.029816-11.792572-8.080544-23.577942-12.125046-35.365448-2.899246-8.449738-5.806038-16.896851-8.677132-25.35611-.249763-.735931-.571201-.988251-1.359158-.948456-2.137817.107971-4.281136.161438-6.421421.142395-.990784-.008789-1.264194.313263-1.258251,1.303192.124287,20.687134.20689,41.374451.329628,62.061584.006252,1.053406-.259548,1.468658-1.373222,1.468872-3.455734.000641-6.911346.104218-10.367218.15271-1.481853.020782-1.539444-.066956-1.542713-1.48288-.035332-15.318481-.076218-30.636932-.115147-45.955414-.007629-3.003479-.012093-6.007019-.023418-9.010498-.000652-.172516-.050224-.344849-.130283-.859802l.000011-.000122v-.000031ZM70.536045,91.880817c-.414764.004578-.829544.009125-1.244316.013702-.185699.00235-.371414.004669-.557114.00705-1.242966.029419-2.485924.058807-3.728882.088226-.287498-.000946-.575249.005371-.862457-.004272-.771164-.025787-1.00045.270447-.583649.961578.177681.65033.355354,1.300629.533035,1.950928.499504,1.444611.999001,2.88916,1.498505,4.33374.171791.523315.34359,1.0466.515396,1.569946.386215,1.217041.727631,2.450745,1.173935,3.645355.313026.83786.571388,1.974457,1.214844,2.335358.695862.390289,1.810944.034027,2.743172.003418.834366-.03125,1.668732-.062561,2.503098-.093811.31189.000824.623779.001648.935669.002441,1.030708-.024261,2.061417-.048523,3.092133-.072754l7.497589-.197357c.665665-.00827,1.331322-.016541,1.996994-.024811h1.347832c-.239479-.774994-.414703-1.36908-.606346-1.957764-1.080101-3.317871-2.164162-6.634399-3.24675-9.951111-.14637-.592865-.292732-1.18576-.43911-1.778625.032448-.99057-.387375-1.377136-1.424492-1.287415-1.519669.13147-3.052116.108826-4.578064.175995-1.595955.07019-3.190643.168884-4.785889.255096-.401802.02832-.803604.05661-1.205406.0849-.596573-.019897-1.193146-.039856-1.789719-.059784l-.000008-.000031ZM34.23877,104.847919c.000954-.602997.001904-1.205963.002853-1.80896.004295-.154907.008583-.309814.012878-.464752.046566-.05661.04657-.113281.000027-.169952-.012112-.900635-.024216-1.801239-.036327-2.701874-.007492-.581604-.014988-1.163208-.022484-1.744781.003326-.089844.006653-.179718.009972-.269562.003044-.230621.006084-.461212.009125-.691833-.005486-1.152588-.010979-2.305206-.01646-3.457794l.047062-.077728-.047169-.079498c-.330807-.143799-.663242-.414734-.992134-.410522-1.874554.024139-3.748085.119293-5.622349.178192-.61974.01947-1.240606.003082-2.113491.003082.433155,1.285126.785379,2.33017,1.137657,3.375183.136364.451294.272726.902618.40909,1.353912.520582,1.745331,1.041162,3.490692,1.561983,5.23587.148495.504852.296989,1.009735.44548,1.514587.370819,1.274017.741638,2.548035,1.113159,3.824463,1.080418,0,2.089634.046844,3.089622-.028473.300083-.022614.788315-.355225.82312-.598297.140697-.982605.138084-1.985748.188377-2.981293,0,0,.000004.000031.000008.000031ZM20.270523,130.723346c-.512886,1.626648-1.033834,3.250793-1.535219,4.880951-.245493.798187-.454618,1.607513-.680199,2.411804-.233393.733704-.466785,1.467407-.700169,2.201111-.746883,2.445374-1.508638,4.886322-2.235033,7.337738-.430883,1.454132-.806023,2.924805-1.206224,4.388-.476086,1.596497-.952169,3.193024-1.428259,4.78952-.624598,1.938293-1.252145,3.875702-1.872742,5.815247-.415692,1.299225-.82149,2.601532-1.240092,3.929047,1.352884,0,2.533824,0,3.714147.000519.535254-.01123,1.070509-.022491,1.605762-.033783.369705.030457.744871.030853,1.108099.096893,1.124372.204346,1.581305-.244232,1.904705-1.36908,1.49044-5.18399,3.106512-10.331879,4.677536-15.492737.282787-1.056946.565577-2.113953.84837-3.170898.144995-.25885.343212-.501587.427118-.77887,1.689745-5.58493,3.366335-11.173798,5.045439-16.761322.243458-.721161.486916-1.442322.73037-2.163483.734989-2.308624,1.494125-4.609863,2.198883-6.927673.889412-2.925079,1.749126-5.859497,2.580368-8.801544.105556-.373627.490379-.992584-.358967-1.131805l-1.857803.043732c-.061646-.010803-.119762-.000885-.174347.029724-.68557.010773-1.371143.021606-2.056713.032379-.36554-.359497-.871967-.65625-1.066288-1.09201-.365894-.820526-.551804-1.721161-.812534-2.588501-.091507.011475-.18301.022919-.274513.034424-1.021818,3.378296-2.043638,6.756653-3.065187,10.134949-.437725,1.429535-.87545,2.859039-1.313173,4.288574-.319258,1.018097-.656298,2.031006-.95359,3.05542-.443869,1.529541-.85973,3.067169-1.287514,4.601379-.240744.746735-.481485,1.49353-.722225,2.240265,0,0,0,.000031-.000004.000031ZM74.772114,158.255481c1.026039,3.078735,2.048668,6.15863,3.088722,9.232635.049202.145447.253113.238617.384972.356079.104462.600555.122772,1.237946.355972,1.783569.092682.216858.661423.230591,1.013435.336761,1.119934-.013458,2.239876-.026855,3.359741-.040131.467239-.004852.934479-.009766,1.401726-.014648h3.035652c-.094658-.350128-.141029-.56546-.210701-.773041-2.684212-7.996094-5.364601-15.993469-8.060699-23.985535-.692924-2.054047-1.436226-4.091125-2.156387-6.136017-.164963-.500702-.32991-1.001404-.494881-1.502106-.041046-.293457-.03537-.602997-.130165-.87796-1.311287-3.804016-2.636383-7.603271-3.958099-11.403717-.151367-.481598-.302734-.963226-.454102-1.444824-1.058868-3.229675-2.117737-6.459351-3.176613-9.688995-.271736-.763885-.54348-1.52774-.815224-2.291626-.428871-1.27124-.861374-2.54126-1.285896-3.813965-1.123024-3.36673-2.242607-6.73465-3.363556-10.102112-.335068-1.062378-.670143-2.124786-1.005211-3.187164-.091324-.150696-.182648-.301422-.273979-.452118l.011543.008759c-.092613-.471954-.133629-.961243-.285744-1.413177-1.69297-5.029846-3.39621-10.056244-5.11348-15.07785-.433998-1.269104-.927605-2.517822-1.393826-3.775909l-1.330963-4.087769c-1.944256-5.883575-3.8885-11.767181-5.832756-17.650757-.235847.214905-.253716.364319-.233261.508331.696419,4.902466,1.39389,9.80481,2.096607,14.70639,1.016739,7.09198,2.031662,14.184235,3.062126,21.274261.191589,1.318176.452847,2.626221.681938,3.938995.102528,1.063812.205055,2.127594.307583,3.191406.077065.514008.083595,1.050934.241848,1.538635,2.184757,6.733002,4.38142,13.462189,6.599152,20.184448.396721,1.202484.90181,2.369293,1.356873,3.552582.163811.578308.327621,1.156616.491425,1.734924.449715,1.407898.875122,2.824097,1.353241,4.22229,2.475861,7.240143,4.958099,14.478149,7.453789,21.711456.841194,2.438049,1.728409,4.860291,2.594589,7.289734.228203.716064.456406,1.432098.684608,2.148132v-.000031.000061ZM45.97089,159.858356c-.006439-.850037-.012882-1.700012-.019318-2.550049.010365-4.202881.020718-8.405701.031078-12.608582-.00211-1.852509-.004223-3.705048-.006329-5.557526-.010513-1.22583-.021027-2.451691-.031345-3.676392l-.064606-10.402527c.009182-.130096.018368-.260162.027546-.390228-.027557-2.694519-.055107-5.389038-.082661-8.083588-.00843-4.354309-.009392-8.708618-.027927-13.062897-.012138-2.851227-.049747-5.702332-.075855-8.553528-.011173-.556854-.02235-1.113647-.033524-1.670502l-.00256-15.051758c.060772-.062714.061317-.125977.001625-.189728-.000793-.511414-.001591-1.022827-.002243-1.53476.014584-4.525024.030956-9.050079.038189-13.575104.00034-.2146-.08036-.429352-.12331-.643982.005661-5.009949.006367-10.019897.023064-15.029785.002178-.651184-.035458-1.174286-.909508-.863403-.559746.004761-1.119488.009552-1.679234.014343-.974781.024017-1.949558.048004-2.923466.071869-.601803.026581-1.203598.053162-1.805397.079742l-.875278-.013916c-.139133.004608-.278259.009186-.417389.013763-.159168.003143-.31834.006256-.477512.009399-.064842-.060059-.130733-.061218-.197662-.003479-.809372-.166779-.741074.355774-.683899.869598.07262,7.051636.145241,14.103271.217865,21.154877.004425,2.607025.008846,5.214081.013268,7.821136-.002018.835815-.004044,1.6716-.006062,2.507385.016068,3.741028.032131,7.482056.048191,11.223083-.010017.846039-.020039,1.692108-.030056,2.538147.000805.524597.001606,1.049225.00235,1.573425-.018459.185944-.053562.372009-.052986.557861.02446,7.877808.051239,15.755676.083851,23.633453.000908.219971.068535.439667.105053.659485-.007774.128296-.015549.256622-.023327.384949-.017231,4.373383-.034939,8.746765-.04715,13.120178-.000183.064697.067936.129578.104172.194336-.012325.059601-.005638.116974.020061.17215.003426.680878.006844,1.361725.010265,2.042603.000664,4.969666.001331,9.939301.001995,14.908997-.005947,1.010559-.021164,2.021149-.016285,3.031677.023708,4.910278.052799,9.820618.079975,14.730896l.012054.412292c-.006676,1.300385-.013351,2.600769-.02002,3.901123.162106.14563.3246.417664.486267.417175,1.468124-.004486,2.936104-.056519,4.403458-.094238.449165.003448.898327.006927,1.347485.010345,1.005623.0159,2.013683.073914,3.01503.015961.229568-.013306.624531-.425385.625031-.654633.008648-3.953125-.032619-7.906372-.06295-11.859589l-.000015-.000031v-.000031ZM34.635723,10.174503c-.647854-2.103317-1.29845-4.205826-1.942863-6.310196-.531994-1.737259-1.720669-2.450989-3.566021-2.141174-.470562.00499-.941128.009964-1.41169.014969-1.035429-.004807-2.070854-.009583-3.106283-.014374-.391954.005295-.783909.01059-1.175863.015869h-1.592035c.054222.294235.067945.476135.121738.645325,4.113398,12.935852,8.228575,25.87117,12.348593,38.804916.370789,1.164001.774433,2.317535,1.162815,3.475922,1.584675.020813,3.169342.041595,4.754017.062408l.059193.010315s.054424-.025452.055347-.025665l1.647522-.014191.077858.023682.080841-.00946c.391945-.001099.783882-.002197,1.175819-.003296h2.34346c-2.894299-8.964111-5.728905-17.743271-8.563503-26.522461l-.425884-1.441879c-.429939-1.423492-.859886-2.84697-1.289673-4.270081-.251133-.766891-.502262-1.533768-.753387-2.300644l.000004-.000015-.000004.000031ZM83.668942,90.000171c-.241074-.885376-.35582-1.351868-.494858-1.811005-7.188492-23.739136-14.38327-47.476349-21.551109-71.22171-.241302-.799377-.583191-1.026642-1.41011-1.015015-6.909657.097076-13.820084.139679-20.730247.201538-.324558.002899-.648891.032288-1.150936.05867.471813,1.474838.909958,2.81604,1.330227,4.162766,2.928543,9.384506,5.738354,18.807922,8.806637,28.146545,4.485439,13.651886,9.163624,27.240479,13.726131,40.867249.267059.797607.629311,1.036102,1.439453,1.008575,4.691521-.159698,9.384392-.284882,14.077499-.390503,1.905952-.042908,3.813667-.00708,5.957321-.00708l-.000008-.000031ZM1.894787,16.476093c.094175.456726.120106.673737.183993.878922,1.483375,4.764542,2.989461,9.522125,4.453638,14.292557,2.873602,9.362488,5.705832,18.737701,8.589441,28.097107,3.17098,10.292114,6.391043,20.569122,9.551985,30.864288.236301.769653.569771.993225,1.336592.960541,2.288401-.097565,4.580534-.182526,6.869738-.154114,1.104488.013702,1.362583-.36322,1.355774-1.425659-.082767-12.910614-.115883-25.821533-.172062-38.7323-.001762-.404327-.055954-.826782-.181206-1.209564-3.581875-10.947876-7.183548-21.889297-10.75046-32.84201-.227251-.697815-.521133-.928726-1.257887-.918335-6.196129.087326-12.392867.131638-18.589432.18808-.404936.003693-.809933.000488-1.390114.000488ZM93.581463,106.37926c0-2.657623.012131-5.090485-.023621-7.522644-.002792-.18924-.336891-.530914-.523712-.535675-1.671349-.042175-3.3442-.024597-5.131134-.024597.789497,2.675201,1.507927,5.15094,2.269386,7.613373.062668.202698.411331.436768.637802.448425.965561.049652,1.935143.021088,2.771286.021088l-.000008.000031Z"/>
      <path class="cls-3" d="M83.668942,90.000171c-2.143654,0-4.051369-.035828-5.957321.00708-4.693115.105591-9.385979.230774-14.077499.390503-.810143.027557-1.172394-.210938-1.439453-1.008575-4.5625-13.62677-9.240692-27.215363-13.726131-40.867249-3.068279-9.338623-5.878094-18.762024-8.806633-28.14653-.420265-1.346725-.85841-2.687912-1.330227-4.162766.502045-.026382.826374-.055786,1.150936-.05867,6.910164-.061859,13.820591-.104462,20.730251-.201538.826927-.011612,1.168816.215637,1.41011,1.015015,7.167839,23.745346,14.362625,47.482559,21.551109,71.221725.139038.459106.253784.925598.494858,1.811005,0,0-.000008,0,0,0Z"/>
      <path class="cls-3" d="M1.894787,16.476093c.580182,0,.98518.003204,1.390115-.000488,6.196567-.056442,12.393304-.100754,18.589435-.18808.736753-.010376,1.030636.22052,1.257887.918335,3.566912,10.952728,7.168581,21.894135,10.75046,32.84201.125252.382782.179443.805237.181206,1.209564.056179,12.910797.089291,25.821716.172062,38.73233.006813,1.062439-.251286,1.439362-1.355774,1.425659-2.289204-.028442-4.581337.056519-6.869736.154114-.766819.032715-1.10029-.190857-1.336592-.960541-3.160944-10.295166-6.381006-20.572174-9.551989-30.864288-2.88361-9.359406-5.715839-18.734589-8.589441-28.097107-1.464178-4.770416-2.970263-9.528-4.453637-14.292557-.063887-.205185-.089818-.422211-.183993-.878922v-.000015l-.000002-.000015Z"/>
      <path class="cls-1" d="M53.689011,92.681812c-.229099-1.312714-.490356-2.620789-.681946-3.938965-1.030464-7.090027-2.045391-14.182251-3.06213-21.274261-.702717-4.901581-1.400192-9.803925-2.096607-14.70639-.020454-.143982-.002586-.293427.233261-.508331,1.944256,5.883606,3.8885,11.767181,5.832756,17.65097-.073215.478882-.205677.957062-.209988,1.436371-.02721,3.02356-.1078,6.049957-.013062,9.070465.113628,3.623047.984959,7.086853,2.924072,10.185669,1.772137,2.83197,3.869164,5.40387,6.690628,7.292511,1.120949,3.367462,2.240532,6.735382,3.363556,10.102112.424522,1.272705.857033,2.542725,1.285896,3.814331-.244774.376282-.600555.722717-.710083,1.134552-.198631.746857-.269028,1.530457-.360474,2.302582-.344963,2.912659-.826218,5.820038-.959099,8.74295-.083206,1.830017.386833,3.682037.570686,5.527985.395706,3.973053,1.999969,7.483582,4.087296,10.814911,1.966919,3.139099,4.082352,6.196442,5.868217,9.435242,3.464378,6.282959,5.576965,13.042755,6.523018,20.15976-1.119934.013458-2.239876.026855-3.359879.040314.136253-.424011.381447-.845398.391739-1.272461.086525-3.58844-.19001-7.125183-2.426414-10.133026-.861382-1.158508-1.751411-2.461761-3.492973-2.451721-.866188-2.429443-1.753403-4.851685-2.594589-7.289734-2.495682-7.233307-4.977921-14.471313-7.453789-21.711456-.478127-1.398193-.903526-2.814362-1.353233-4.222382.195633-.170837.447685-.306702.578339-.517639,1.688583-2.725708,2.257011-5.794586,2.26059-8.899384.003708-3.211212-1.235123-6.13681-3.093597-8.749603-2.35965-3.317383-4.781197-6.590851-7.176125-9.883209-.521885-.717438-1.044044-1.434753-1.56609-2.1521l.000004-.000031.000019-.000031Z"/>
      <path class="cls-1" d="M41.046959,172.345874c-1.468021.038116-2.936001.090149-4.404125.094635-.161663.000488-.324158-.271545-.486305-.417358.67432-.237823.970272-.633331,1.155743-1.413391.786549-3.308289,1.625515-6.612793,2.65126-9.853577,1.772392-5.599792,3.716511-11.143127,4.320721-17.03894.454342-4.433441.013714-8.748138-1.649445-12.893951-1.574497-3.924835-3.343071-7.775391-4.811676-11.738037-1.170624-3.15863-1.863697-6.431183-1.754612-9.882446.144527-4.57254.015221-9.15387-.00983-13.731384-.002186-.399506-.104115-.798431-.15971-1.197632-.000805-.524597-.001606-1.049225-.002438-1.573822.220219.268585.521873.503632.648369.810822,1.639252,3.979889,2.151718,8.228455,2.931553,12.413574.916191,4.91684,1.696323,9.86557,2.826927,14.73288.480145,2.067047,1.568123,4.039429,2.647766,5.899506.465477.801971.875668,1.457825.870953,2.410522-.010715,2.165588.075733,4.331573.122692,6.497437.010506,1.22583.021019,2.451691.031567,3.67691.002129,1.852264.004211,3.705231.006294,5.558136-.010365,4.202881-.020718,8.405701-.031052,12.608795-1.100586,1.609467-2.433376,3.109802-3.251358,4.851654-1.501068,3.196289-1.813984,6.673645-1.653282,10.18573l-.000011-.000061Z"/>
      <path class="cls-1" d="M45.721367,94.97301c.026211,2.851166.06382,5.702271.075954,8.553528.018536,4.354279.019501,8.708588.027855,13.062347.027534,2.694336.055134,5.389191.082733,8.084106-.009178.130096-.018356.260162-.027397.390564-.19096-.188019-.4771-.342529-.558071-.570007-.625603-1.757355-1.404881-3.489624-1.772572-5.303345-1.006699-4.96579-1.784706-9.977478-2.751503-14.951904-.653545-3.36264-1.36533-6.722443-2.266685-10.02475-.421162-1.542999-1.072632-3.130676-2.605064-4.051758-.01606-3.741028-.032127-7.482056-.04821-11.222961.142689.098419.363098.165771.416588.299683,1.008671,2.525635,2.10746,5.022766,2.962231,7.600433,1.018021,3.069946,2.269901,5.923492,5.139381,7.72049.379143.237457.880177.280487,1.32476.413605v-.000031Z"/>
      <path class="cls-1" d="M35.884487,76.431323c-.004425-2.607025-.008846-5.214081-.013268-7.821503,1.192593-2.397919,2.541344-4.7323,3.543976-7.206726,1.85857-4.586884,2.855835-9.289307.794903-14.131409-.097809-.229767-.069859-.513031-.100475-.771362.974781-.024017,1.949558-.048004,2.924343-.072235.24118,4.088318-.012566,8.146179-1.023308,12.117615-.874516,3.436188-1.934471,6.824738-2.860138,10.248505-.71756,2.653992-.897266,5.310852.425407,7.860107,1.224411,2.359924,4.065762,2.505005,5.530148.31192.12709-.190308.382668-.294983.578548-.439423.000797.511414.001598,1.022827.002525,1.533783-.018139.017944-.05418.039734-.051441.054138.008911.046783.032028.090912.049679.136047.000854,5.017242.001705,10.034515.002659,15.052032-.281075-.05426-.667839-.009735-.826698-.178955-1.274811-1.357574-2.564289-2.697662-3.148182-4.556946-.514534-1.638367-1.126633-3.248779-1.755154-4.848145-1.025902-2.610596-2.065907-5.221405-4.073517-7.287445,0,0-.000011,0-.000008,0Z"/>
      <path class="cls-1" d="M24.546751,116.537738c1.021822-3.378357,2.043644-6.756683,3.065462-10.13501.091503-.011475.18301-.022919.274513-.034424.260727.86731.44664,1.767975.812534,2.588501.194321.43576.700745.732513,1.066387,1.09201-.092724.354095-.142174.726776-.284992,1.059448-1.653618,3.851562-2.990797,7.779083-2.612278,12.057556.181641,2.053131.513714,4.092407,1.835522,5.801117-1.679243,5.588104-3.355833,11.176941-5.045578,16.761871-.083902.277283-.28212.52005-.427164.779144-.436436.348907-.964111.627777-1.293549,1.058136-1.499107,1.958466-3.048822,3.890991-4.382975,5.959961-2.538229,3.936279-3.767584,8.361267-4.467289,12.950684h-3.714759c.418602-1.327515.8244-2.629822,1.240092-3.929047.620597-1.939575,1.248144-3.876953,1.872824-5.815643.427584-.394684.948366-.725525,1.267405-1.193634,1.998962-2.932983,3.970009-5.885406,5.916388-8.853638,1.555035-2.371399,3.189306-4.704376,4.553057-7.183685,1.275354-2.318665,1.857895-4.924561,1.666536-7.578461-.370169-5.133911-.886427-10.257233-1.342136-15.384949l.000004.000031-.000004.000031Z"/>
      <path class="cls-1" d="M76.984539,139.015186c.720161,2.044891,1.463455,4.08197,2.156387,6.136017,2.696091,7.992096,5.376488,15.989471,8.060699,23.985535.069672.20755.116051.422943.210701.773041-1.069244,0-2.052452,0-3.035751.000031-.020042-.374603-.019089-.751678-.063057-1.123505-.746017-6.308014-2.477814-12.34903-5.444206-17.953339-1.957153-3.697662-4.234543-7.238037-6.537048-10.73822-3.326721-5.057037-4.90374-10.563477-4.66835-16.583191.069885-1.787354.346489-3.567871.55661-5.348206.160271-1.357971.36512-2.710693.550148-4.065735,1.058884,3.229675,2.117752,6.459351,3.176598,9.688904-.274887.336609-.679497.631775-.802956,1.016937-.661613,2.064178-.721291,4.200043-.435318,6.323669.229233,1.702271.574295,3.413239,1.699501,4.805237,1.203362,1.488708,2.468323,2.919708,4.576035,3.082855l.000008.000031v-.000061Z"/>
      <path class="cls-1" d="M36.011502,119.509113c.007774-.128296.015549-.256622.023113-.385223.135372.199738.313736.382965.400082.602356,1.231785,3.129761,2.362934,6.30246,3.695831,9.388275,1.666092,3.857208,2.864601,7.791962,2.728622,12.037811-.155811,4.864899-1.379002,9.530762-2.825306,14.132111-1.288673,4.099854-2.934601,8.093018-3.481369,12.400848-.02018.158966-.245945.29187-.375889.43692-.004017-.137451-.008034-.274872-.012138-.412109.041813-.364746.119839-.729645.120083-1.094604.002834-4.162018-.032764-8.32431.013554-12.485748.007923-.711761.204685-1.507141.565212-2.115265,2.284718-3.85379,3.338917-8.016418,3.008251-12.456024-.202038-2.712738-1.000484-5.253571-3.782963-6.562714-.0257-.055176-.032391-.112549-.020016-.172302-.01899-4.438232-.038033-8.876251-.057068-13.314362v.000031Z"/>
      <path class="cls-1" d="M71.238522,106.785846c-.932228.030609-2.047302.386871-2.743172-.003418-.643456-.360901-.901817-1.497467-1.214844-2.335358-.446312-1.194611-.78772-2.428314-1.173965-3.645233.176521.051819.361412.084595.528381.158081,2.70237,1.189026,5.396492,1.169403,7.856148-.475037,1.377403-.920898,2.595604-2.142792,3.701347-3.391846,1.780945-2.01178,3.914223-2.901459,6.5662-2.602692,1.082703,3.317017,2.166763,6.633545,3.246864,9.951416.19165.588715.366875,1.18277.606346,1.957764-.565002,0-.956421,0-1.347641.000061-.450577-.668427-.85054-1.378723-1.361275-1.997803-1.835884-2.225464-4.162376-3.746704-7.099838-3.280182-3.406654.540955-5.701324,2.892914-7.564552,5.664246Z"/>
      <path class="cls-1" d="M40.341748,44.713062l-.054424.025452s-.059193-.010315-.059776-.010284c-1.036404.000061-2.072224.000061-3.098156.000061-.120228-1.795593-.325035-3.389557-.314911-4.982147.028629-4.505768-1.273792-8.734711-2.814365-12.860825-1.293076-3.463242-2.993233-6.777405-4.563953-10.133804-2.249569-4.807007-3.666157-9.874893-4.827295-15.027756,1.035429.004776,2.070854.009567,3.106371.014313-.055305.742188-.252014,1.506302-.140926,2.222794.417034,2.689651.81897,5.392166,1.468102,8.030502.281456,1.143967,1.017529,2.252426,1.783493,3.182632,1.050247,1.275421,2.167377,1.177032,3.167244-.154892.435722-.580414.649536-1.324921.984135-1.984787.103279-.203705.272598-.373962.411678-.55954.429947,1.423492.85989,2.84697,1.289608,4.270538-.344067.195816-.856869.308075-1.002281.601898-.601833,1.216064-1.330677,2.443436-1.569687,3.747772-.383694,2.093903.191109,4.16539.930851,6.138947,1.271225,3.391449,2.760906,6.710083,3.855915,10.155426.749008,2.35672.983746,4.876709,1.448391,7.3237h-.000011Z"/>
      <path class="cls-4" d="M68.770672,114.097553c-.185028,1.355042-.389877,2.707794-.550148,4.065735-.210121,1.780334-.486725,3.560852-.55661,5.348206-.23539,6.019745,1.341629,11.526184,4.66835,16.583191,2.302513,3.500153,4.579895,7.040558,6.537048,10.73822,2.966393,5.604309,4.698189,11.645355,5.444206,17.953339.043976.371826.043015.748901.063057,1.123505-.467148.004852-.934395.009766-1.401588.014526-.946022-7.117065-3.058609-13.876862-6.522987-20.159821-1.785866-3.2388-3.901299-6.296173-5.868217-9.435242-2.087326-3.331329-3.691597-6.841888-4.087296-10.814911-.183846-1.845947-.653885-3.697937-.570686-5.527985.132881-2.922882.614136-5.830292.959099-8.74295.091454-.772095.161842-1.555725.360474-2.302582.10952-.411835.465309-.75827.710083-1.134552.271736.763519.54348,1.527374.815216,2.29126v.000061Z"/>
      <path class="cls-4" d="M36.176586,168.122211c.129948-.14505.355709-.277954.375889-.43692.546768-4.307831,2.192696-8.301025,3.481369-12.400848,1.446304-4.601349,2.669502-9.267181,2.825306-14.132111.135979-4.24588-1.062534-8.180603-2.728622-12.037811-1.332897-3.085815-2.464046-6.258514-3.695831-9.388275-.086349-.21936-.264713-.402588-.400085-.602356-.036308-.219513-.103931-.43924-.104839-.65921-.032612-7.877777-.059391-15.755646-.083851-23.633453-.000576-.185913.034527-.371918.053017-.557709.05563.399445.157555.79837.15974,1.197845.025055,4.577484.154362,9.158813.00983,13.731384-.109081,3.451263.583988,6.723816,1.754612,9.882446,1.468609,3.962646,3.237183,7.813202,4.811676,11.738037,1.663158,4.145844,2.103786,8.460541,1.649445,12.893951-.60421,5.895782-2.548328,11.439178-4.320721,17.03894-1.025742,3.240814-1.864712,6.545319-2.65126,9.853577-.185471.78009-.481426,1.175598-1.155743,1.413391.00671-1.300201.01339-2.600586.020061-3.90097h.000008v.000092Z"/>
      <path class="cls-1" d="M44.713192,46.413959c.874043-.310852.911678.21225.909508.863403-.016701,5.009918-.017399,10.019867-.023136,15.029022-.014347,3.564789-.024559,7.130371-.04528,10.695892-.006454,1.110962-1.556759,3.401184-2.6134,3.654572-.446281.107025-1.130997-.068207-1.47617-.374908-1.424572-1.2659-1.472942-3.029114-1.177795-4.688721.37833-2.12738.985733-4.223755,1.625507-6.292999,1.385056-4.479767,2.678284-8.96991,2.754383-13.707672.027733-1.725983.031624-3.452393.046383-5.178589Z"/>
      <path class="cls-1" d="M62.194454,121.148914c-.455055-1.183289-.960144-2.350098-1.356865-3.552582-2.217731-6.722229-4.414402-13.451447-6.599152-20.184448-.158253-.487701-.16478-1.024628-.241901-1.538574.139091.107941.317463.18924.411495.327728,1.320374,1.94458,2.625946,3.89917,3.94183,5.846863,1.419353,2.100769,3.084614,4.076355,4.217754,6.32077,2.145248,4.249054,1.414062,8.56604-.373154,12.780273l-.000008-.000031Z"/>
      <path class="cls-1" d="M37.104668,18.187106c2.834599,8.77919,5.669205,17.558365,8.563499,26.522446-.94231,0-1.642879,0-2.343533-.000031-.39196.001068-.783855.002197-1.175755.003296l-.080841.00946s-.077858-.023682-.078232-.023743c-.466949-3.94281-1.247398-7.799866-2.819172-11.481049-1.113911-2.608826-2.17334-5.248672-3.088673-7.932053-.847523-2.484589-.718269-4.934326,1.022697-7.098358l.000008.000031Z"/>
      <path class="cls-4" d="M24.608864,1.723727c1.16114,5.152863,2.577726,10.220749,4.827293,15.027756,1.570728,3.3564,3.270882,6.670563,4.563953,10.133804,1.540573,4.126114,2.842995,8.355057,2.814365,12.860825-.010124,1.59259.194683,3.186584.314911,4.982147,1.025932,0,2.061756,0,3.098156-.000061-1.584087-.020844-3.168758-.041656-4.753494-.062531-.029488-1.740875.064072-3.49411-.110336-5.220337-.643269-6.366699-2.588745-12.349258-5.502064-18.036804-2.466652-4.815506-4.477592-9.818771-5.808033-15.067245-.377859-1.490646-.422932-3.065491-.620621-4.60173.391954-.00528.783909-.010574,1.175863-.015869l.000004-.000015.000002.000061Z"/>
      <path class="cls-1" d="M73.53117,91.85567c1.595238-.086212,3.189941-.184906,4.785889-.255096,1.525948-.067169,3.058395-.044525,4.578064-.175995,1.037117-.089722,1.45694.296844,1.424477,1.287018-3.282616-.110504-5.739616,1.255371-7.849213,3.791565-2.599007,3.124573-4.632172,4.269409-9.332344,2.908173-.491684-.142395-1.030128-.123566-1.546875-.179535-.499496-1.444611-.999001-2.88916-1.498558-4.33316.311371-.049744.663162-.219391.927361-.130157,1.236382.417786,2.430038.965881,3.673599,1.357513,2.206795.694977,4.197929-.09317,4.834885-1.99231.229042-.682953.014702-1.514343.002716-2.278015v-.000031.000031Z"/>
      <path class="cls-1" d="M13.913674,151.94295c.400208-1.463226.775345-2.933838,1.20623-4.388.726397-2.451416,1.48815-4.892395,2.235125-7.337799,3.90324-.731964,6.804102-7.496613,3.637722-11.7341.42778-1.53421.843643-3.071838,1.287514-4.601379.297293-1.024414.634333-2.037354.953495-3.055328.08279.311829.216864.619812.240294.935974.157003,2.118408.277006,4.239594.435963,6.357849.119848,1.597046.44359,3.196747.388424,4.785309-.121555,3.500244-1.520245,6.583282-3.496119,9.428131-2.150497,3.096222-4.290289,6.19989-6.444742,9.293335-.097696.14032-.29369.21225-.443901.31604,0,0,0-.000031-.000004-.000031Z"/>
      <path class="cls-4" d="M13.913674,151.94295c.150211-.10379.346205-.17572.443901-.31604,2.154453-3.093445,4.294243-6.197113,6.444744-9.293335,1.975872-2.844849,3.374563-5.927887,3.496119-9.428131.055162-1.588501-.268578-3.188232-.388424-4.785309-.158957-2.118256-.278959-4.239441-.435963-6.357849-.023432-.316162-.157503-.624146-.240294-.935974.437819-1.429626.875544-2.859131,1.313131-4.288635.455572,5.127747.971832,10.251099,1.342003,15.38501.191355,2.6539-.391184,5.259827-1.666536,7.578461-1.36375,2.479309-2.998022,4.812286-4.553057,7.183685-1.946381,2.968231-3.917429,5.920624-5.916388,8.853638-.319038.468109-.839821.79895-1.267405,1.193634.476006-1.596161.952091-3.192657,1.428171-4.789154l-.000004.000031v-.000031Z"/>
      <path class="cls-1" d="M23.433001,1.739612c.197693,1.53624.242762,3.111084.620621,4.60173,1.330442,5.248474,3.341383,10.251724,5.808035,15.067245,2.913319,5.687546,4.858795,11.670105,5.502064,18.036804.174412,1.726196.080845,3.479462.11034,5.220337-.388325-1.158325-.791973-2.311859-1.162758-3.475861-4.120018-12.933746-8.235195-25.869049-12.348595-38.804901-.053797-.169189-.067518-.351089-.121738-.645325h1.592035l-.000006.000015.000002-.000046Z"/>
      <path class="cls-4" d="M44.713192,46.413959c-.014767,1.726196-.018661,3.452606-.046387,5.178589-.076099,4.737762-1.369328,9.227905-2.754383,13.707672-.639774,2.069275-1.247177,4.165649-1.625511,6.292999-.295147,1.659637-.246777,3.422821,1.177795,4.688721.345177.306702,1.029884.481934,1.476166.374908,1.056644-.253387,2.606953-2.54364,2.6134-3.654572.020725-3.565521.030937-7.131134.04528-10.695892.04303.215454.123726.430206.123386.644775-.007233,4.525055-.023605,9.050079-.038254,13.575348-.195957.144714-.451534.249359-.578617.439697-1.464386,2.193085-4.305733,2.048004-5.530144-.31192-1.32267-2.549255-1.142967-5.206116-.425407-7.860107.925667-3.423737,1.985619-6.812317,2.860134-10.248505,1.010742-3.971436,1.264492-8.029297,1.023308-12.117615.559746-.004547,1.119488-.009338,1.679234-.01413v.000031Z"/>
      <path class="cls-4" d="M35.926617,90.161792c1.532429.921082,2.183903,2.508759,2.605064,4.051758.90136,3.302307,1.613148,6.662109,2.266685,10.02475.966789,4.974426,1.744801,9.986115,2.751503,14.951904.367691,1.813721,1.146973,3.54599,1.772572,5.303345.080971.227448.367107.381958.558071.570007.021393,3.467194.042927,6.934723.064369,10.401672-.047054-2.166412-.133499-4.332428-.122791-6.497986.004715-.952698-.405476-1.608551-.870953-2.410522-1.079636-1.860077-2.167614-3.832458-2.647766-5.899506-1.130604-4.86731-1.910732-9.81604-2.826927-14.73288-.779835-4.18512-1.292301-8.433655-2.931553-12.413574-.126495-.307159-.42815-.542236-.648373-.810822.010044-.846039.020069-1.692139.030087-2.538147l.000008-.000031.000004.000031Z"/>
      <path class="cls-4" d="M62.194454,121.148914c1.787224-4.214264,2.518402-8.53125.373154-12.780273-1.133141-2.244415-2.798401-4.219971-4.217754-6.32077-1.315887-1.947662-2.621464-3.902283-3.94183-5.846863-.094028-.138489-.272408-.219757-.411495-.327728-.10247-1.063873-.204998-2.127625-.307514-3.191498.522041.717316,1.044205,1.434631,1.56609,2.152069,2.394928,3.292358,4.816471,6.565826,7.176121,9.883209,1.858475,2.612793,3.097305,5.538391,3.093597,8.749603-.003586,3.104797-.572014,6.173676-2.26059,8.899384-.130653.210938-.382706.346802-.578339.517639-.163818-.578186-.327629-1.156494-.491447-1.734802,0,0,0,.000031.000008.000031Z"/>
      <path class="cls-1" d="M37.429817,46.566028c.291759.004639.583519.009277.875423.013855.107147.358612.16716.740082.328545,1.072418,1.366356,2.813446,1.379986,5.75.573792,8.664948-.839352,3.034851-1.905697,6.006989-2.872784,9.006561l-.401237-.087219c-.019268-.388763-.054192-.777435-.055428-1.16626-.016365-5.143402-.024021-10.286835-.048622-15.430176-.001888-.395203-.114838-.789917-.176159-1.184814-.057171-.513824-.125469-1.036377.683475-.869751.065742.001129.13192.00238.19809.003632.159168-.003113.31834-.006256.477158-.009491.139015-.004639.278381-.009155.417747-.013672v.000031-.000061Z"/>
      <path class="cls-4" d="M37.104668,18.187106c-1.740963,2.164017-1.870213,4.613754-1.022694,7.098358.915333,2.683395,1.974762,5.323227,3.088673,7.932053,1.57177,3.681213,2.352219,7.538239,2.819172,11.481049-.548801.004791-1.097977.009521-1.64761.014343-.465107-2.446869-.699841-4.966858-1.448853-7.323578-1.095009-3.445343-2.58469-6.763977-3.855915-10.155426-.739742-1.973557-1.314545-4.045044-.930851-6.138947.239014-1.304321.967854-2.531723,1.569687-3.747772.145412-.293823.658211-.406067,1.002281-.601898.142185.480545.284145.961166.426109,1.441788v.000031Z"/>
      <path class="cls-4" d="M63.306004,97.88985c-2.821465-1.888641-4.918491-4.460571-6.690628-7.292511-1.939114-3.098846-2.81044-6.562622-2.924072-10.185669-.094738-3.020508-.014156-6.046875.013062-9.070465.004307-.479309.136772-.957489.209988-1.436371.443653,1.362366.887306,2.724976,1.330986,4.087646-.069984.31311-.215004.63031-.198048.938599.128819,2.3414.146996,4.701172.47419,7.016479.460987,3.262024,1.233593,6.483521,3.359447,9.133301.929249,1.158234,2.097645,2.124847,3.157444,3.178497,0,0-.011543-.008759-.011528-.008759.091331.150696.182648.301422.273964.452118.335068,1.062378.670128,2.124786,1.005203,3.187164l-.000008-.000031Z"/>
      <path class="cls-1" d="M31.822258,110.016437c.054585-.030579.112701-.040466.174427-.029572.619289-.014526,1.238506-.029175,1.857723-.043854.84935.139221.464527.758179.358967,1.131805-.831242,2.942047-1.690952,5.876434-2.580368,8.801544-.704758,2.31781-1.463894,4.61908-2.199165,6.92749-.338261-1.353333-.880371-2.692108-.976948-4.062256-.324146-4.598877,1.395523-8.705688,3.365356-12.725159v-.000031l.000008.000031Z"/>
      <path class="cls-1" d="M29.126839,1.723163c1.846832-.310287,3.035507.403442,3.566021,2.141144.644413,2.104385,1.29501,4.206863,1.942444,6.310135-.356964.808044-.660419,1.645599-1.087284,2.414719-.32634.588013-.808807,1.089493-1.221825,1.629471-.453899-.550766-1.08062-1.032516-1.332966-1.663742-1.387009-3.469482-1.799957-7.124924-1.866398-10.831757l.000004.000015.000004.000015Z"/>
      <path class="cls-1" d="M62.038365,94.259357c-1.059792-1.053619-2.228203-2.020294-3.15744-3.178497-2.125851-2.64975-2.89846-5.871246-3.359447-9.133301-.327194-2.315308-.345375-4.675079-.47419-7.016479-.016956-.308289.128063-.625488.198044-.938599.466202,1.258026.959808,2.506775,1.393806,3.775848,1.717274,5.021606,3.420513,10.048004,5.113483,15.07785.152122.451935.193138.941223.285744,1.413177Z"/>
      <path class="cls-4" d="M35.653351,47.45531c.061317.394928.174267.789612.176155,1.184814.024597,5.143341.032257,10.286804.048622,15.430206.00124.388824.036163.777496.055428,1.16626l.401237.087219c.967087-2.999573,2.033432-5.97171,2.872784-9.006561.806194-2.914948.792564-5.851532-.573792-8.664978-.161381-.332306-.221394-.713776-.328545-1.072388.601658-.02652,1.203453-.053101,1.804821-.07962.030178.258423.002228.541656.100037.771423,2.060936,4.842102,1.063667,9.544556-.794903,14.131439-1.002632,2.474426-2.351379,4.808807-3.543976,7.206726-.072632-7.05127-.145248-14.102905-.217873-21.15451,0,0,0-.000031.000004-.000031Z"/>
      <path class="cls-1" d="M22.382834,149.678638c-1.571022,5.160858-3.187094,10.308777-4.677536,15.492737-.3234,1.124847-.780334,1.573425-1.904705,1.36908-.363228-.06604-.738394-.066437-1.107801-.096497.807526-4.500519,1.988403-8.874756,4.600368-12.713867.953936-1.4021,2.055477-2.703918,3.089672-4.051453v-.000031l.000002.000031Z"/>
      <path class="cls-4" d="M93.581463,106.37926c-.836143,0-1.805717.028564-2.771286-.021088-.226471-.011627-.575134-.245728-.637802-.448425-.761459-2.462433-1.479889-4.938171-2.269386-7.613373,1.786942,0,3.459801-.017609,5.131134.024597.186829.00473.520935.346405.523712.535675.035751,2.432129.023621,4.86499.023621,7.522644l.000008-.000031Z"/>
      <path class="cls-4" d="M65.591183,99.23183c.516747.055969,1.055191.03714,1.546875.179535,4.700172,1.361237,6.73333.2164,9.332336-2.908173,2.109596-2.536194,4.566597-3.902069,7.849213-3.791565.146385.593262.292755,1.186157.439072,1.77887-2.652031-.29895-4.785301.590698-6.566254,2.602539-1.105751,1.249084-2.323959,2.470947-3.701347,3.391846-2.459648,1.64447-5.15377,1.664093-7.856148.475037-.166969-.073456-.35186-.106232-.528381-.158081-.171776-.523407-.343575-1.046722-.515366-1.570038v.000031Z"/>
      <path class="cls-4" d="M36.088589,132.995746c2.782478,1.309174,3.580925,3.850006,3.782963,6.562744.330669,4.439636-.723534,8.602234-3.008251,12.456024-.360527.608124-.557289,1.403503-.565212,2.115265-.046318,4.161407-.010719,8.32373-.013554,12.485748-.000248.36496-.078274.729858-.120083,1.094604-.027092-4.910492-.056183-9.820801-.079887-14.73111-.004879-1.010498.010338-2.021088.016262-3.032043.208408-.279968.512169-.530273.608669-.844208.406029-1.320831.817905-2.646393,1.102543-3.996552.557522-2.644562,1.041466-5.328857-.099174-7.931366-.348492-.795105-1.065674-1.428802-1.614006-2.136444-.003426-.680878-.006844-1.361725-.010265-2.042603l-.000004-.000031v-.000031Z"/>
      <path class="cls-4" d="M22.382834,149.678638c-1.034197,1.347565-2.135738,2.649353-3.089674,4.051453-2.611963,3.839111-3.792843,8.213348-4.600368,12.713867-.535553.010864-1.070807.022125-1.605755.033112.70001-4.589691,1.929363-9.014709,4.467594-12.950989,1.33415-2.06897,2.883867-4.001495,4.382977-5.959961.329437-.430359.857113-.709229,1.293547-1.058136-.282743,1.056671-.565531,2.113678-.848322,3.170624l.000002.000031Z"/>
      <path class="cls-1" d="M45.97089,159.858356c.030331,3.953217.071598,7.906433.06295,11.859589-.000504.229248-.395458.641296-.625031.654633-1.001347.057953-2.009407-.000061-3.014488-.015747.213882-3.092682.39143-6.207245,1.571075-9.114227.48753-1.201385,1.326412-2.260437,2.005489-3.384186v-.000031l.000004-.000031Z"/>
      <path class="cls-1" d="M34.198353,93.53844c.005482,1.152588.010975,2.305206.016541,3.457306-.003014.230438-.006107.461395-.009205.692322-.003323.089844-.006645.179718-.010296.26944-.463371-.121002-.93272-.221985-1.388386-.36618-2.018356-.638855-4.042503-1.233673-6.199135-1.064148-.352219-1.044983-.704441-2.090027-1.1376-3.375153.872883,0,1.493752.016388,2.113491-.003082,1.874264-.058929,3.747791-.154053,5.622349-.178192.328892-.004242.661331.266693.991879.409637-.000256-.000885-.051418.078094-.051418.078094l.051785.080017-.000004-.000031v-.000031Z"/>
      <path class="cls-4" d="M35.884484,76.431323c2.007614,2.06604,3.047619,4.676849,4.073521,7.287445.628517,1.599396,1.240616,3.209808,1.755154,4.848145.583893,1.859283,1.873375,3.199341,3.148182,4.556946.158859.16922.545624.124695.826691.178955.011086.556549.022263,1.113373.033386,1.670227-.444633-.133087-.945671-.176178-1.32481-.413605-2.86948-1.796997-4.121357-4.650543-5.139381-7.72049-.854771-2.577637-1.95356-5.074799-2.962231-7.600433-.05349-.133911-.273899-.201233-.416588-.299683.002037-.835938.004063-1.671722.006081-2.507507l-.000004.000031v-.000031Z"/>
      <path class="cls-4" d="M29.126839,1.723148c.066441,3.706848.479389,7.362274,1.866398,10.831772.252346.631226.879066,1.112991,1.332966,1.663742.413017-.539978.895481-1.041458,1.221825-1.629471.426865-.769135.73032-1.606674,1.087284-2.414719.251545.766937.502674,1.533813.753727,2.300522-.13916.185379-.308475.355637-.411758.559341-.334595.659851-.548412,1.404358-.984135,1.984787-.999866,1.331909-2.117001,1.430313-3.167244.154892-.765965-.930206-1.502033-2.038666-1.783493-3.182632-.649132-2.638336-1.051067-5.340836-1.468102-8.030502-.111092-.716476.085621-1.480606.140926-2.222794.470478-.004929.94104-.009903,1.411606-.014893v-.000046Z"/>
      <path class="cls-4" d="M71.238522,106.785846c1.86322-2.771332,4.157898-5.12326,7.564552-5.664246,2.937469-.466522,5.263954,1.054718,7.099838,3.280182.510735.61908.910706,1.329376,1.361275,1.997803-.665855.00824-1.33152.016479-1.997459.024811-.644859-.754486-1.196167-1.621918-1.950142-2.244019-3.307564-2.729187-7.351875-1.139679-9.574966,2.511627-.834366.031311-1.668732.062561-2.503098.093842Z"/>
      <path class="cls-4" d="M31.822258,110.016467c-1.969833,4.01947-3.689503,8.126282-3.365356,12.725159.096581,1.370148.638687,2.708954.976948,4.062256-.243176.721313-.486629,1.442474-.730019,2.163361-1.321739-1.708954-1.653812-3.74826-1.835453-5.801392-.378521-4.278442.958656-8.205994,2.612278-12.057556.142822-.332672.192272-.705353.284992-1.059418.685467-.010803,1.37104-.021606,2.056614-.03241v.000031l-.000004-.000031Z"/>
      <path class="cls-1" d="M73.741619,106.692004c2.223091-3.651337,6.26741-5.240814,9.574966-2.511627.753975.622101,1.305275,1.489532,1.950142,2.243988-2.498917.065765-4.998116.131561-7.496872.197357-1.030556.024292-2.061562.048523-3.092567.072754-.31189-.000824-.623779-.001648-.935669-.002502v.000031Z"/>
      <path class="cls-1" d="M28.578762,103.117084c-.52058-1.7453-1.041161-3.490662-1.561617-5.236115,2.400434.607086,4.800745,1.214264,7.201056,1.821442.012108.900635.024216,1.801239.036339,2.701385-.022923.014526-.067474.037689-.065372.043243.016792.044281.042408.085236.065327.127197-.004295.154907-.008583.309814-.012817.464661-1.8876.026001-3.775261.052124-5.662914.078217v-.000031Z"/>
      <path class="cls-4" d="M76.984539,139.015186c-2.107704-.163147-3.372673-1.594147-4.576035-3.082855-1.125206-1.391968-1.470276-3.102936-1.699501-4.805237-.285973-2.123627-.226295-4.25946.435318-6.323669.123459-.385162.528061-.680328.802956-1.016937.15139.48172.30275.963318.454163,1.445007-.020485.782654.03286,1.575439-.073853,2.346069-.573547,4.14209.470238,7.587341,4.162086,9.935516.164963.500702.32991,1.001404.494873,1.502106v-.000031l-.000008.000031Z"/>
      <path class="cls-4" d="M74.087506,156.107318c1.741562-.01004,2.631584,1.293213,3.492973,2.451721,2.23642,3.007843,2.512947,6.544617,2.426414,10.133026-.010292.427032-.255486.84845-.391739,1.272491-.351952-.106232-.920692-.119934-1.013374-.336823-.233192-.545654-.251511-1.183014-.355965-1.7836.164482-3.263153-.284157-6.361053-2.500404-8.952545-.241737-.282684-.644974-.427429-.973305-.636139-.228203-.716064-.456413-1.432098-.684601-2.148132Z"/>
      <path class="cls-1" d="M36.098854,135.038348c.548328.707642,1.265514,1.34137,1.614006,2.136444,1.14064,2.602509.656696,5.286804.099174,7.931366-.284637,1.350159-.696514,2.67572-1.102543,3.996552-.0965.313934-.400261.56424-.608669.844208-.000641-4.969299-.001308-9.938934-.001965-14.9086l-.000004.000031Z"/>
      <path class="cls-4" d="M45.97089,159.858356c-.679077,1.123779-1.517963,2.1828-2.005489,3.384186-1.179649,2.907013-1.357197,6.021545-1.571075,9.114227-.449707-.003632-.898869-.00708-1.347702-.010712-.16037-3.512299.15255-6.989624,1.653614-10.185913.817989-1.741821,2.15078-3.242188,3.251366-4.851654.006409.849823.012852,1.699829.019291,2.549835,0,0,0,.000031-.000004.000031Z"/>
      <path class="cls-1" d="M76.489666,137.513049c-3.691841-2.348175-4.735626-5.793427-4.162079-9.935516.106697-.77063.053368-1.563446.073853-2.346069,1.321678,3.800354,2.646774,7.59964,3.958061,11.403625.094795.274933.089119.584503.130165.87796v-.000031.000031Z"/>
      <path class="cls-4" d="M73.53117,91.85567c.011993.763672.226334,1.595062-.002716,2.278015-.636955,1.899139-2.628082,2.687317-4.834885,1.99231-1.243561-.391632-2.43721-.939728-3.673599-1.357513-.264198-.089233-.615997.080414-.927361.130157-.17762-.650909-.355293-1.301239-.532913-1.951599.366531.044922.751762.032501,1.096169.144928,1.342758.438385,2.653587.984039,4.011436,1.364532,2.374695.665375,3.359367-.046265,3.658455-2.5159.401802-.02832.803604-.05661,1.205406-.0849v.000031l.000008-.000061Z"/>
      <path class="cls-4" d="M20.992745,128.483081c3.166382,4.237518.265516,11.002167-3.637722,11.7341.233294-.733673.466686-1.467377.70015-2.201599,2.001572-.641022,3.630674-5.26416,2.215347-7.292236.240744-.746735.481485-1.49353.722225-2.240265Z"/>
      <path class="cls-1" d="M34.23877,104.847949c-.050293.995514-.04768,1.998627-.188377,2.981232-.034805.243073-.523037.575684-.82312.598297-.999989.075317-2.009205.028473-3.089626.028473-.371521-1.276428-.74234-2.550446-1.113087-3.824463,1.738125.072113,3.476166.144287,5.214211.216461Z"/>
      <path class="cls-1" d="M72.325772,91.940601c-.299088,2.469666-1.283752,3.181305-3.658455,2.5159-1.357849-.380493-2.668678-.926147-4.011436-1.364532-.344406-.112427-.729637-.100006-1.096169-.144928-.416878-.691101-.187592-.987305.583572-.961517.287209.009644.574959.003326.861603.004303,1.242676-.029419,2.486206-.058838,3.729729-.088257.185699-.00235.371414-.0047.556259-.007233.414482-.004608.829834-.009094,1.245171-.013489.596573.019897,1.193146.039856,1.789719.059784l.000008-.000031Z"/>
      <path class="cls-4" d="M34.218205,99.702411c-2.400311-.607178-4.800621-1.214386-7.201054-1.821442-.136494-.451202-.272852-.902496-.409248-1.353821,2.156605-.169525,4.180752.425323,6.199108,1.064148.455666.144196.925018.245178,1.388386.36618.00782.581726.015312,1.163361.022808,1.744934Z"/>
      <path class="cls-1" d="M74.772114,158.255481c.328331.20871.73156.353455.973305.636139,2.216248,2.591492,2.664886,5.689392,2.500397,8.952545-.131866-.117462-.335777-.210632-.384972-.356079-1.040054-3.074036-2.062683-6.1539-3.088722-9.232635l-.000008.000031Z"/>
      <path class="cls-4" d="M34.23877,104.847949c-1.738045-.072174-3.476086-.144318-5.214203-.216461-.148571-.504822-.297066-1.009705-.445683-1.514465,1.887535-.026001,3.775196-.052124,5.662796-.078125-.001011.603088-.001957,1.206055-.002911,1.809082v-.000031Z"/>
      <path class="cls-1" d="M20.270523,130.723346c1.415329,2.028076-.213778,6.651215-2.215353,7.292236.225515-.803772.434641-1.613098.680134-2.411285.501385-1.630157,1.022333-3.254303,1.535219-4.880951Z"/>
      <path class="cls-4" d="M36.011502,119.509113c.019043,4.43808.038086,8.876129.057079,13.314362-.036289-.064636-.104404-.129517-.104221-.194214.012211-4.373383.029915-8.746765.047146-13.120178,0,0,0,.000031-.000004.000031Z"/>
      <path class="cls-4" d="M45.90791,124.672992c-.027599-2.694916-.055195-5.389801-.082733-8.084106.027626,2.695068.055176,5.389587.082733,8.084106Z"/>
      <path class="cls-4" d="M74.677288,106.694476c1.031006-.024231,2.062012-.048462,3.092567-.072754-1.031151.024231-2.061852.048492-3.092567.072754Z"/>
      <path class="cls-4" d="M45.982651,144.699695c-.002083-1.852905-.004169-3.705841-.006294-5.558136.002071,1.853119.004185,3.705627.006294,5.558136Z"/>
      <path class="cls-4" d="M68.734616,91.901569c-1.24353.029419-2.487061.058838-3.729729.088257,1.243813-.029449,2.486771-.058838,3.729729-.088257Z"/>
      <path class="cls-4" d="M33.854412,109.943042c-.619217.014648-1.238434.029327-1.857723.043854.61919-.014679,1.238457-.029266,1.857723-.043854Z"/>
      <path class="cls-4" d="M70.536045,91.880817c-.415344.004425-.830688.008881-1.245171.013489.415619-.004364.830399-.008942,1.245171-.013489Z"/>
      <path class="cls-4" d="M42.148888,44.712848c.391899-.001129.783787-.002228,1.175755-.003296-.391872.001129-.78381.002197-1.175755.003296Z"/>
      <path class="cls-4" d="M34.205689,97.688068c.003098-.230927.006191-.461884.009205-.692322-.00312.23111-.006161.4617-.009205.692322Z"/>
      <path class="cls-1" d="M62.300801,94.702686c-.091316-.150696-.182632-.301422-.273964-.452118.091309.150696.182632.301422.273964.452118Z"/>
      <path class="cls-4" d="M37.429817,46.566028c-.139366.004517-.278732.009033-.417747.013641.139488-.004486.278618-.009064.417747-.013641Z"/>
      <path class="cls-4" d="M34.254502,102.574207c-.022919-.041962-.048534-.082916-.065327-.127197-.002102-.005524.04245-.028717.065369-.043243.046532.057159.04652.1138-.000042.170441Z"/>
      <polygon class="cls-4" points="34.198353 93.53844 34.146572 93.458423 34.197994 93.380359 34.245415 93.460712 34.198353 93.53844"/>
      <path class="cls-4" d="M36.534912,46.589191c-.066174-.001251-.132347-.002502-.19809-.003632.067356-.057587.133244-.056427.19809.003632Z"/>
      <path class="cls-4" d="M45.685379,78.250751c-.017651-.045135-.040764-.089233-.049679-.136047-.002747-.014404.033302-.036194.051441-.054138.059559.064209.059017.127472-.001762.190186Z"/>
    </g>
  </g>
</svg>