<?xml version="1.0" encoding="UTF-8"?>
<svg id="Layer_2" xmlns="http://www.w3.org/2000/svg" viewBox="0 0 96.393046 77.100399">
  <defs>
    <style>
      .cls-1 {
        fill: #232221;
      }

      .cls-2 {
        fill: #e5cd4c;
      }

      .cls-3 {
        fill: #181b0f;
      }

      .cls-4 {
        fill: #f3e61b;
      }
    </style>
  </defs>
  <g id="Layer_1-2" data-name="Layer_1">
    <g>
      <path class="cls-1" d="M96.393046,59.578678c-.458923.258896-.889465.650757-1.381256.7556-3.857086.822235-7.727249,1.582779-11.590836,2.374832-14.82901,3.040009-29.654404,6.097778-44.486511,9.122559-8.428093,1.718781-16.866211,3.388474-25.300781,5.075531-1.852615.370544-1.860085.362396-2.21817-1.442017C8.046855,58.490467,4.680896,41.515217,1.312297,24.540486c-.387253-1.951401-.787888-3.900131-1.178604-5.850845-.313805-1.566704-.167007-1.788223,1.447716-2.116066,14.430443-2.929825,28.861465-5.856857,43.292381-8.784431,12.296249-2.494514,24.592361-4.989693,36.888992-7.482262,3.174942-.64357,2.673721-.421753,3.177719,2.098404,3.25386,16.270805,6.483292,32.546501,9.720596,48.82061.468674,2.356049.937607,4.712051,1.403748,7.068588.065552.331253.115753.665543.173065.998428.051712.095245.103424.190506.155121.285751l.000015.000015ZM3.409098,25.364399l.01004.030243c.292595,1.490005.585197,2.980011.877785,4.470016l.08007.481598c.359764,1.851929.719528,3.703857,1.0793,5.555786l.018303.084244c.06163.287277.123253.574554.184891.861832.01899.185852.023102.374634.059128.557114,1.366081,6.91954,2.734871,13.838547,4.103767,20.757538,1.048485,5.299423,2.094002,10.599442,3.151711,15.897018.110542.553635.050201,1.17807,1.064552.969406,15.076515-3.101303,30.162231-6.157867,45.245392-9.226898,10.852707-2.208252,21.702408-4.431198,32.55899-6.620239,2.495056-.503098,2.504578-.451279,1.949356-2.993027-.063995-.292892-.107681-.590164-.167297-.884079-1.006775-4.962067-2.014542-9.923904-3.022125-14.885803-.043182-.199829-.08638-.399673-.129578-.599503-.017395-.093063-.03479-.186142-.052185-.279205-.001404-.148376.020416-.301315-.007629-.444489-.918655-4.689926-1.832016-9.380951-2.767181-14.067612-1.468384-7.359055-2.962097-14.713089-4.414368-22.075287-.155304-.787262-.36618-1.035782-1.244064-.856125-10.005524,2.047623-20.023773,4.033165-30.033875,6.058578-15.456932,3.127525-30.910141,6.273407-46.365143,9.410561-1.204765.244553-2.411049.481705-3.745804.74807.468246,2.10305.913338,4.102112,1.358429,6.101181l.053352.313599c.051392.211838.102791.423676.154182.635513v-.000031Z"/>
      <path class="cls-4" d="M3.254908,24.728871c-.017784-.104538-.035576-.209061-.053291-.31308-.09642-1.433136-.048683-2.896622-.337418-4.290512-.211029-1.018806.181801-1.312935.970558-1.470428,4.645065-.92749,9.294395-1.833641,13.939354-2.761627,3.254616-.650223,6.507927-1.307945,9.755516-1.992188,2.408852-.507538,4.79686-1.118439,7.213104-1.585342,4.612778-.891365,9.248291-1.666237,13.85704-2.577065,4.206711-.831367,8.385788-1.801552,12.585526-2.669525,6.754929-1.39608,13.519318-2.746544,20.272308-4.151932.73317-.15258,1.116669.101631,1.265671.720947.260788,1.084076.431763,2.189445.653793,3.283173.556259,2.740303,1.121384,5.478821,1.680435,8.218567.707458,3.466881,1.415253,6.933693,2.117294,10.401665.425323,2.101044.850327,4.202255,1.256714,6.307007.459,2.377274.883286,4.761383,1.36676,7.13353.044693.219284.407715.373764.62291.558334.017395.093063.03479.186142.052078.278656.043152.199661.086411.399857.129669.600052,1.007584,4.961899,2.015366,9.923752,3.022125,14.885803.059631.293915.103317.591187.167297.884079.555222,2.541748.545715,2.489944-1.949356,2.993027-10.856567,2.189041-21.706284,4.411987-32.55899,6.620239-15.08316,3.069031-30.168884,6.125595-45.245399,9.226898-1.014351.208664-.95401-.415771-1.064552-.969406-1.057716-5.297577-2.103233-10.597595-3.151711-15.897018-1.368896-6.918991-2.737694-13.837982-4.103767-20.757538-.036026-.18248-.040138-.371262-.059006-.55658-.061584-.287109-.123299-.574738-.185005-.862366,0,0-.018303-.084244-.018219-.083633-.166565-1.568588-.307961-3.14122-.52166-4.703964-.04155-.303848-.364555-.569275-.557724-.852417-.026688-.160538-.053375-.32106-.079994-.481277-.109207-1.063019-.178879-2.13266-.346527-3.186737-.070732-.444763-.347954-.856735-.531326-1.2836,0,0-.01004-.030243-.009895-.029877-.051346-.211716-.102844-.423798-.154327-.63588l.000015.000015ZM28.788768,35.804798c.310036,3.890198.95787,7.653046,2.210533,11.29599.993019,2.887894,2.230888,5.675598,4.386009,7.914688,3.090881,3.211304,7.65918,3.222321,10.219101-.171814,1.013779-1.344116,1.613281-3.145584,1.946304-4.828751.860184-4.347565.184937-8.669495-.757172-12.940643-.833054-3.776779-2.226959-7.308273-4.655617-10.383636-2.468391-3.125671-6.026703-3.83342-9.284653-1.761551-1.603172,1.019531-2.580093,2.570221-2.99337,4.352707-.496651,2.142014-.726028,4.345901-1.071136,6.52301ZM57.588725,42.410725c-.078308.0121-.156631.0242-.23494.036285-.136978-.240799-.298859-.470947-.407227-.723969-1.535553-3.58577-3.05835-7.176956-4.595703-10.761948-1.108826-2.585663-2.201294-5.179169-3.364655-7.740326-.768814-1.692581-2.727005-1.922577-3.820908-.510208-.753937.973434-.32402,1.932861.079269,2.865494,2.874069,6.64653,5.750198,13.292221,8.649368,19.927856.96106,2.199615,1.942947,4.393005,3.008041,6.543365.690353,1.393799,1.459061,1.668091,2.850677,1.297195,1.320465-.351913,1.76297-.957962,1.798965-2.598038.207504-9.454437.405334-18.909073.600098-28.36377.01001-.485992.013229-.982193-.070053-1.45797-.181747-1.038322-.834137-1.661392-1.869995-1.837532-1.079422-.18354-1.84938.337318-2.276321,1.262161-.224701.486748-.265213,1.090584-.2686,1.642288-.039291,6.417465-.055695,12.835068-.077881,19.25264-.001328.388824-.000168.777664-.000168,1.166489v-.000015h.000031ZM70.758067,31.505375c-.605637-3.059631-1.212479-6.023727-1.740982-9.001709-.039307-.221466.442352-.71637.751541-.789391,2.154373-.508812,4.32843-.93383,6.493576-1.397888,1.367996-.293198,2.024734-1.239311,1.76712-2.509781-.283112-1.396194-1.188461-2.013283-2.604797-1.718163-3.086807.643188-6.16954,1.306099-9.252029,1.969818-1.77919.383102-2.352036,1.27906-2.004089,3.082863,1.037308,5.377708,2.067474,10.756798,3.109833,16.133537.735352,3.79303,1.469543,7.586426,2.237564,11.372925.332352,1.638519,1.116516,2.272949,2.69223,1.959885,3.53244-.701843,7.048965-1.490646,10.553726-2.320969,1.168472-.276825,1.602722-1.287231,1.275528-2.477341-.324188-1.179077-1.217407-1.820847-2.32785-1.603195-1.768127.346558-3.527893.735687-5.291412,1.105743-.937332.196671-1.875153.391052-2.86644.597687-.661011-3.453857-1.291977-6.750504-1.937988-10.125885.503815-.118942.896332-.219223,1.292191-.303711,1.504608-.321136,3.02771-.573074,4.510452-.974304,1.317032-.356384,1.825745-1.598938,1.305359-2.861404-.473511-1.148788-1.272186-1.593796-2.497101-1.336502-1.789886.375977-3.573563.781464-5.466415,1.1978h-.000015v-.000015ZM33.195704,57.036152c-.029182-1.754654-1.226318-2.722427-2.771561-2.403778-2.133545.439987-4.274452.849243-6.395012,1.344986-.920265.215149-1.323128.071671-1.517014-.957657-1.208961-6.418503-2.481575-12.825119-3.751144-19.232101-.408249-2.060226-.80603-4.126526-1.333862-6.157532-.307358-1.182587-1.359993-1.718918-2.430946-1.482132-1.165161.257614-1.918839,1.293854-1.78006,2.499939.068512.595413.194374,1.184875.308411,1.774307,1.304672,6.743835,2.606224,13.488297,3.921989,20.22998.438545,2.247009.895172,4.490952,1.382347,6.727844.282555,1.297287.889862,1.89032,1.836647,1.704971,3.685158-.72142,7.362389-1.484741,11.034927-2.268143,1.003075-.213974,1.548607-.879333,1.49527-1.780701h.000008v.000015Z"/>
      <path class="cls-2" d="M90.421183,39.540409c-.215195-.18457-.578217-.339066-.62291-.558334-.483459-2.372147-.907761-4.756256-1.36676-7.13353-.406387-2.104752-.83139-4.205963-1.256714-6.307007-.702042-3.467972-1.409851-6.934784-2.11731-10.401657-.559052-2.739746-1.124176-5.478256-1.680435-8.218567-.222031-1.093727-.393005-2.199097-.653793-3.283173-.148987-.619316-.532501-.873535-1.265671-.720947-6.752975,1.405396-13.517365,2.755859-20.272308,4.151932-4.199738.867981-8.378815,1.838158-12.585526,2.669525-4.608765.91082-9.24427,1.685699-13.857048,2.577065-2.416245.466904-4.804268,1.077805-7.213104,1.585342-3.247597.684242-6.500893,1.341965-9.755516,1.992188-4.644958.927994-9.294296,1.834145-13.939354,2.761627-.788757.157494-1.181587.451622-.970558,1.470428.288734,1.39389.240997,2.857384.337418,4.29052-.445152-1.999588-.890251-3.99865-1.35849-6.1017,1.334755-.266365,2.541031-.503517,3.745804-.74807,15.455002-3.137154,30.908203-6.283035,46.365143-9.410561,10.010101-2.025421,20.028351-4.010963,30.033875-6.058586.877884-.179657,1.08876.068871,1.244064.856125,1.452271,7.362206,2.945984,14.71624,4.414368,22.075294.935165,4.686661,1.848526,9.37767,2.767181,14.067612.028046.143173.006226.296112.007629.444489l.000015-.000015Z"/>
      <path class="cls-2" d="M4.376986,30.346256c.193176.283142.516174.548569.557724.852417.213699,1.562759.355095,3.135391.52166,4.703964-.359848-1.852539-.71962-3.704453-1.079384-5.556381Z"/>
      <path class="cls-2" d="M3.419131,25.394642c.183372.426865.460602.838837.531326,1.2836.167641,1.054077.237312,2.123718.346527,3.186737-.292664-1.490326-.585258-2.980331-.877853-4.470352v.000015Z"/>
      <path class="cls-2" d="M5.474589,35.986286c.061714.287628.123421.575272.185005.862366-.06176-.287811-.123383-.575089-.185005-.862366Z"/>
      <path class="cls-2" d="M3.254908,24.728871c.051483.212082.102982.424149.154327.63588-.051537-.212204-.102936-.424042-.154327-.63588Z"/>
      <path class="cls-2" d="M90.602931,40.419117c-.043259-.200195-.086517-.400406-.129654-.600052.043274.200378.086472.400223.129654.600052Z"/>
      <path class="cls-3" d="M28.788768,35.804798c.345108-2.177094.574493-4.380997,1.071136-6.52301.413277-1.782486,1.390198-3.333176,2.99337-4.352707,3.257957-2.071869,6.816261-1.36412,9.284653,1.761551,2.428658,3.075348,3.822563,6.606857,4.655617,10.383636.942093,4.271149,1.617355,8.593079.757172,12.940643-.333023,1.683167-.932526,3.484634-1.946304,4.828751-2.559937,3.394135-7.128227,3.383118-10.219109.171814-2.155113-2.23909-3.39299-5.026794-4.386009-7.914688-1.252663-3.64296-1.900497-7.405792-2.210533-11.296005l.000008.000015ZM43.609248,46.121861c-.3172-5.041367-1.383842-9.854126-3.42334-14.433655-.404182-.907516-.97776-1.796402-1.664642-2.509827-1.503235-1.561325-3.42775-1.205444-4.215706.809525-.470207,1.202454-.828453,2.52774-.861809,3.807571-.124672,4.78392.781075,9.424561,2.55423,13.85791.588715,1.471939,1.407425,2.948792,2.461617,4.116226,1.756165,1.944824,3.713043,1.420685,4.438377-1.119308.416458-1.458328.485703-3.015686.711273-4.528458v.000015Z"/>
      <path class="cls-3" d="M57.588725,42.410725c0-.388824-.001175-.777664.000168-1.166489.022186-6.417572.038589-12.835175.077881-19.25264.003387-.551704.0439-1.15554.2686-1.642281.426941-.924843,1.196899-1.445702,2.276321-1.262161,1.035858.176132,1.688263.799202,1.869995,1.837532.083282.475769.080063.97197.070053,1.457962-.194778,9.454697-.392609,18.909348-.600098,28.36377-.035995,1.640076-.4785,2.246124-1.798965,2.598038-1.391617.37088-2.160324.096603-2.850677-1.297195-1.065094-2.15036-2.046967-4.343735-3.008041-6.543365-2.89917-6.63562-5.775299-13.281311-8.649368-19.927856-.403275-.932632-.833206-1.892059-.079269-2.865494,1.093903-1.412369,3.052094-1.182381,3.820908.510208,1.163361,2.561172,2.255829,5.154663,3.364655,7.740326,1.537354,3.584976,3.06015,7.176178,4.595703,10.761948.108353.253036.270233.483185.407227.723969.078308-.0121.156631-.024185.23494-.036285v.000015h-.000031Z"/>
      <path class="cls-3" d="M70.758067,31.505375c1.892853-.416336,3.676529-.821823,5.466415-1.1978,1.224915-.257294,2.02359.187698,2.497101,1.336502.520386,1.262466.011673,2.50502-1.305359,2.861404-1.482742.40123-3.005844.653168-4.510452.974304-.395859.084503-.788376.184769-1.292191.303711.646011,3.375381,1.276962,6.672028,1.937988,10.1259.991287-.206619,1.929108-.401001,2.86644-.597687,1.763535-.370056,3.5233-.759186,5.291412-1.105743,1.110443-.217667,2.003662.424103,2.32785,1.603195.327209,1.190094-.107056,2.200516-1.275528,2.477341-3.504745.830307-7.021271,1.619125-10.553726,2.320969-1.575699.313065-2.359879-.321365-2.69223-1.959885-.768021-3.786484-1.502213-7.57988-2.237564-11.372925-1.042374-5.376724-2.07254-10.755814-3.109833-16.13353-.347931-1.803795.224915-2.69976,2.004089-3.082863,3.082489-.663719,6.165222-1.326637,9.252029-1.969818,1.416351-.295113,2.321686.321968,2.604797,1.718163.257614,1.27047-.399124,2.216583-1.76712,2.509781-2.165131.46405-4.339203.889069-6.493576,1.397888-.309189.073029-.790848.567917-.751541.789383.528503,2.977982,1.135345,5.942078,1.740982,9.001709h.000015Z"/>
      <path class="cls-3" d="M33.195704,57.036152c.053337.901367-.492188,1.566711-1.49527,1.780701-3.672546.783401-7.349762,1.546738-11.034927,2.268143-.946777.185349-1.5541-.407684-1.836647-1.704971-.487183-2.236893-.943794-4.48085-1.382347-6.727844-1.315765-6.741684-2.617325-13.486145-3.921989-20.22998-.114029-.589432-.239899-1.178894-.308411-1.774307-.138786-1.2061.614899-2.24234,1.78006-2.499939,1.070953-.236786,2.123589.299545,2.430946,1.482132.527847,2.031006.925613,4.097321,1.333862,6.157532,1.269569,6.406982,2.542183,12.813599,3.751144,19.232101.193871,1.029327.596741,1.172806,1.517014.957657,2.120567-.495743,4.261475-.904999,6.39502-1.344986,1.545235-.318665,2.742371.649124,2.771561,2.403778h-.000023l.000008-.000015Z"/>
      <path class="cls-4" d="M43.609248,46.121861c-.225571,1.512772-.29483,3.070114-.711273,4.528458-.725327,2.540009-2.682205,3.064133-4.438377,1.119308-1.054192-1.167435-1.87291-2.644287-2.461617-4.116226-1.773155-4.43335-2.678902-9.07399-2.55423-13.85791.033356-1.279831.391602-2.605118.861809-3.807571.787956-2.014969,2.712463-2.37085,4.215706-.809525.686874.713425,1.26046,1.60231,1.664642,2.509827,2.039497,4.579514,3.10614,9.392288,3.42334,14.43364Z"/>
    </g>
  </g>
</svg>