<?xml version="1.0" encoding="UTF-8"?>
<svg id="Layer_2" xmlns="http://www.w3.org/2000/svg" viewBox="0 0 96.757802 74.167873">
  <defs>
    <style>
      .cls-1 {
        fill: #f7f8f8;
      }

      .cls-2 {
        fill: #fada16;
      }

      .cls-3 {
        fill: #2b2a2b;
      }

      .cls-4 {
        fill: #fcda18;
      }
    </style>
  </defs>
  <g id="Layer_1-2" data-name="Layer_1">
    <g>
      <path class="cls-3" d="M81.765632,41.243321c2.779526.367035,5.387909,1.182617,7.67572,2.7836,5.304794,3.712311,7.849426,8.821167,7.223328,15.281189-.612518,6.319702-3.981888,10.781586-9.766754,13.419281-2.265366,1.032928-4.646896,1.423004-7.123779,1.422974-21.980011-.000519-43.960037.029877-65.940018.011719-7.368813-.006073-12.770035-4.547211-13.723907-11.396759-.833199-5.982971,3.145546-12.171753,8.952301-13.863159,1.213303-.353424,2.468719-.562561,3.845291-.869537-.23175-.395233-.436478-.818481-.706879-1.194672-7.276566-10.123718-6.978416-25.86441,2.353439-36.42276C24.551155-.895443,40.518745-2.969448,52.70446,4.074345c5.884262,3.401306,10.264877,8.263641,12.635437,14.763428.106171.291168.423904.65741.698807.712891,10.060135,2.030029,16.730682,11.281189,15.622849,21.359619-.007263.066101.041153.138367.104095.333099l-.000015-.000031v-.000031ZM46.895561,72.454075v.009674c11.006058,0,22.012131-.004303,33.018173.002014,4.690109.002686,8.647369-1.616943,11.756866-5.191803,5.417923-6.228699,4.286957-16.406708-2.317429-21.353363-2.536011-1.899445-5.368286-2.801849-8.468369-2.991669-.8685-.053162-1.188782-.307404-1.051575-1.235931.163742-1.108368.212418-2.244873.193665-3.367249-.211105-12.638-12.911423-21.395599-25.760635-15.759949-5.420761,2.377502-8.642487,6.817627-9.883347,12.639832-.278458,1.306488-.557251,1.439545-1.629166.674194-3.840851-2.742371-8.071518-3.098083-12.481171-1.95755-6.835144,1.767853-11.27858,8.401306-10.693069,15.787506.110107,1.389008-.074829,1.429626-1.41983,1.11676-1.811859-.421448-3.675125-.888519-5.51358-.877655-4.870438.028809-9.077515,3.438507-10.515129,8.225342-1.347359,4.486298.442284,9.354797,4.405457,12.19278,2.213959,1.585388,4.688408,2.092926,7.34095,2.09082,11.006073-.00885,22.012131-.003754,33.018204-.003754h-.000015ZM42.995536,33.991581c1.074646-4.712341,3.724274-8.328735,7.546326-11.135925,3.862534-2.836975,8.229065-3.906555,13.058884-3.600586-.101715-.3573-.142807-.612122-.24382-.840546-3.100815-7.011444-8.245438-12.01059-15.353348-14.745972C35.859703-1.004848,23.273094,2.583927,14.993934,12.543278c-7.664398,9.219879-8.296669,23.493042-1.255264,33.71283,1.011169,1.467621,2.059113,2.63559,4.138351,2.481354-.3685-6.510193,2.605804-11.345886,8.00766-14.63858,5.54628-3.380737,11.302536-3.293457,17.11087-.1073h-.000015Z"/>
      <path class="cls-1" d="M46.895561,72.454075c-11.006073,0-22.012131-.005127-33.018204.003754-2.652542.002136-5.126984-.505432-7.34095-2.09082-3.963181-2.837982-5.752815-7.706451-4.405457-12.19278,1.437622-4.786835,5.644699-8.196533,10.515129-8.225342,1.838455-.010864,3.701736.456238,5.51358.877655,1.345001.312805,1.529938.272217,1.41983-1.11676-.58551-7.386169,3.857925-14.019653,10.693069-15.787506,4.409653-1.140503,8.640305-.784821,12.481171,1.95755,1.071915.76535,1.350708.632294,1.629166-.674194,1.24086-5.822205,4.46257-10.262329,9.883347-12.639832,12.849213-5.635651,25.54953,3.121948,25.760635,15.759949.018753,1.122406-.029907,2.258881-.193665,3.367249-.137192.928558.183075,1.18277,1.051575,1.235931,3.100082.18985,5.932358,1.092224,8.468369,2.991669,6.604385,4.946686,7.735367,15.124664,2.317429,21.353363-3.109482,3.574829-7.066757,5.194489-11.756866,5.191803-11.006073-.006287-22.012115-.002014-33.018173-.002014v-.009674h.000015Z"/>
      <path class="cls-2" d="M42.995536,33.991581c-5.808334-3.186157-11.56459-3.273438-17.11087.1073-5.401855,3.292694-8.376144,8.128387-8.00766,14.63858-2.079239.154205-3.127182-1.013733-4.138351-2.481354-7.041412-10.219757-6.409134-24.49295,1.255264-33.71283C23.273078,2.583897,35.859687-1.004879,48.003562,3.668553c7.107895,2.735382,12.252533,7.734558,15.353348,14.745972.100998.228424.142105.483246.24382.840546-4.829819-.305939-9.196335.763641-13.058884,3.600586-3.822037,2.80719-6.471664,6.423584-7.54631,11.135925h.000015-.000015ZM9.362411,30.212742c.199921,1.794312.330154,4.074524.729805,6.306549.718994,4.015625,2.538834,7.55304,5.170822,10.657227.246826.291138.843903.417358,1.25705.380615.20726-.018402.471878-.557861.530457-.893127.393417-2.251801.957748-4.419159,2.1633-6.415405,1.389603-2.301086,3.071213-4.252411,5.23819-5.896088,2.347321-1.780487,4.931519-2.918274,7.774689-3.182465,2.884415-.268036,5.83667-.27005,8.57666,1.053558.884262.427216,1.448044.07608,1.911682-.750427.674713-1.202667,1.319885-2.462433,2.214218-3.492828,1.684875-1.941162,3.437897-3.848419,5.350723-5.559753,1.875397-1.677826,4.13205-2.811035,6.64801-3.273529,1.499756-.275665,3.015762-.477966,4.532227-.641357.730835-.078705,1.069992-.33667.819977-1.068726-.11972-.350586-.333023-.669861-.509491-1.000366-1.562119-2.92569-3.841446-5.28656-6.32283-7.381897-1.865784-1.575531-3.967453-2.996582-6.182724-4.008331-4.54953-2.07785-9.374054-2.799835-14.421356-2.390625-3.500351.283752-6.770798,1.219635-9.867706,2.699982-4.322159,2.06601-7.763763,5.18692-10.623184,9.08609-3.37542,4.602814-4.754189,9.732635-4.990517,15.770813v.000092Z"/>
      <path class="cls-4" d="M9.362411,30.212742c.236328-6.038147,1.615097-11.167999,4.990517-15.770813,2.859421-3.899139,6.301025-7.020081,10.623184-9.08609,3.096924-1.480377,6.367371-2.416229,9.867706-2.699982,5.047318-.40918,9.871826.312775,14.421356,2.390625,2.215271,1.01178,4.31694,2.4328,6.182724,4.008331,2.4814,2.095337,4.760712,4.456207,6.32283,7.381897.176468.330505.389755.64975.509491,1.000366.250015.732056-.089142.990021-.819977,1.068726-1.516464.163361-3.032471.365692-4.532227.641357-2.515961.462463-4.772614,1.595703-6.64801,3.273529-1.912842,1.711304-3.665848,3.618591-5.350723,5.559753-.894333,1.030365-1.539505,2.290131-2.214218,3.492828-.463638.826538-1.02742,1.177643-1.911682.750427-2.740005-1.323639-5.692261-1.321594-8.57666-1.053558-2.84317.264191-5.427368,1.402008-7.774689,3.182465-2.166977,1.643677-3.848587,3.595001-5.23819,5.896088-1.205551,1.996246-1.769882,4.163605-2.1633,6.415405-.058578.335236-.323181.874725-.530457.893127-.413147.036713-1.010223-.089508-1.25705-.380615-2.631989-3.104187-4.451828-6.641632-5.170822-10.657257-.399651-2.232025-.529877-4.512268-.729805-6.306549v-.000061Z"/>
    </g>
  </g>
</svg>