<?xml version="1.0" encoding="UTF-8"?>
<svg id="Layer_2" xmlns="http://www.w3.org/2000/svg" viewBox="0 0 91.565067 89.65542">
  <defs>
    <style>
      .cls-1 {
        fill: #3f4141;
      }

      .cls-2 {
        fill: #ed6925;
      }

      .cls-3 {
        fill: #597dbd;
      }

      .cls-4 {
        fill: #1c1a19;
      }

      .cls-5 {
        fill: #212121;
      }

      .cls-6 {
        fill: #7d5b2e;
      }
    </style>
  </defs>
  <g id="Layer_1-2" data-name="Layer_1">
    <g>
      <path class="cls-5" d="M79.761176,48.655561c0-2.369629.115387-4.745941-.02121-7.107666-.446198-7.716034-2.878693-14.72464-7.756409-20.795044-.283478-.352814-.889832-.674744-1.317719-.642059-1.503571.114899-2.806763-.27063-3.921814-1.243774-4.117767-3.593811-8.881744-5.877075-14.240356-6.826752-9.513672-1.686096-18.33313-.104431-26.117798,5.904816-1.741455,1.344299-3.475525,2.553284-5.865891,2.137634-.271805-.047241-.711304.409729-.954361.724518-4.878891,6.318695-7.31633,13.518799-7.636307,21.45517-.082855,2.05481-.012497,4.115814.140335,6.265228,1.828445-2.928497,4.962524-2.593292,7.627594-3.304871,2.424744-.6474,4.647919.032379,6.132629,1.976807,1.697449,2.223083,3.379486,4.568909,4.481049,7.115234,3.480225,8.044495,5.340729,16.472443,4.723267,25.29306-.134064,1.915527-.723969,3.832092-1.336182,5.670837-.490387,1.472717-1.683929,2.432861-3.224182,2.850159-1.663422.450623-3.338287.859375-4.998566,1.320984-1.434937.398926-2.680573.096924-3.876129-.773499-.432816-.315125-1.060013-.546326-1.585327-.522705-4.381302.196899-8.336258-1.085144-11.757416-3.70575C-.254113,77.928845-2.564431,65.68797,3.108741,56.591107c.989594-1.586792,1.037659-2.845673.811951-4.492004-1.296951-9.460724-.157684-18.625153,3.861679-27.319641,1.73027-3.742889,4.055161-7.149506,7.010025-10.089783.43985-.437653.619263-1.125397.982239-1.654144.786545-1.145782,1.405579-2.530426,2.457275-3.35083C27.142554,2.733747,37.27436-.558764,48.588355.077405c8.376038.470978,16.036163,3.12439,22.886932,8.00116,1.109344.789673,2.228729,1.621185,3.134003,2.622589.645599.714203.938934,1.746094,1.392181,2.634827.189667.371918.304932.826569.592072,1.09729,4.604156,4.341431,7.501251,9.731171,9.358368,15.671509,2.425415,7.758209,2.958923,15.674652,1.380951,23.694824-.081299.413239-.040833.996185.196869,1.304535,3.627502,4.705933,4.589355,10.071503,3.754425,15.786011-.808014,5.530212-3.352081,10.208008-7.879272,13.573181-3.51828,2.615173-7.526123,3.976685-11.998932,3.697937-.406555-.02533-.919556.148254-1.233154.409424-1.176544.97998-2.448395,1.323181-3.940277.917786-1.550354-.421326-3.105927-.829956-4.673706-1.178955-2.275818-.506592-3.558319-2.010559-4.257477-4.114197-1.124207-3.382568-1.118164-6.88147-.844147-10.363464.595398-7.565521,2.275909-14.877289,5.79071-21.655457.944855-1.822052,2.205994-3.520172,3.540039-5.089935,1.490509-1.753845,3.495209-2.45993,5.830536-1.907776.571838.135193,1.149475.250092,1.728729.348969,2.37738.405884,4.80838.701294,6.004608,3.390015.136414-.087372.272827-.174713.409271-.262085h.000061l.000031-.000031ZM32.865119,80.991712l.122833-.951721c.053101-.767212.106171-1.534424.159241-2.301636-.144684-2.092957-.250397-4.189514-.441772-6.278229-.455536-4.970764-1.641693-9.774841-3.43335-14.429199-1.100037-2.857697-2.355438-5.6362-4.338684-8.01886-1.100586-1.322205-2.379822-2.343018-4.226608-2.019897-1.654861.289581-3.287888.70636-4.927124,1.082031-1.059616.242828-1.756516.919708-1.920273,1.978363-.274094,1.772339-.631561,3.560242-.631851,5.341644-.001282,8.481995,1.696381,16.654572,5.044479,24.434662,1.022873,2.376831,2.552032,4.545959,3.949707,6.74646.524292.8255,1.470551,1.240295,2.478943.979675,1.930481-.498901,3.851257-1.046204,5.748444-1.658936.948242-.306213,1.487244-1.026184,1.652496-2.074524.13858-.879089.471619-1.727539.718536-2.589539.014984-.080078.029999-.160217.045013-.240295h-.000031ZM78.327827,55.50694c-.046906-.008545-.093781-.01709-.140656-.025635-.078827-1.347107-.131042-2.696381-.24234-4.040802-.190918-2.306427-.865753-3.06424-3.195801-3.627411-1.065277-.257477-2.144501-.45694-3.210815-.710358-1.774384-.421692-3.402283-.001068-4.443878,1.417755-1.494293,2.035461-2.987152,4.147858-4.012268,6.437012-2.777435,6.202087-4.176361,12.786011-4.665558,19.553986-.211823,2.930359-.156616,5.848145.614197,8.731506.435394,1.628662,1.241791,2.717346,2.953705,3.073792.994507.207092,1.95871.555298,2.944885.807556,3.224945.82489,3.892242.562927,5.728271-2.219482.23703-.359192.453369-.732971.663574-1.108826,3.319-5.933228,4.74649-12.494843,6.107361-19.040314.626801-3.014984.619232-6.161774.899353-9.24881l-.000031.000031ZM44.8086,1.877362c-1.469025.175049-4.127441.376465-6.743256.825806-6.984833,1.199829-13.156616,4.271881-18.753815,8.529602-1.955978,1.487915-2.233337,3.79306-.855515,5.471649,1.489868,1.815094,3.645615,1.972198,5.618973.444672,10.098389-7.817047,21.246674-9.673492,33.368622-5.792786,3.890717,1.245575,7.329834,3.338623,10.470032,5.933716.853455.705292,1.800018,1.117554,2.931458.874298,1.565002-.336456,2.812927-1.147797,3.206421-2.752808.391968-1.598785-.08078-3.022125-1.419067-4.087372-7.792236-6.202637-16.68634-9.274658-27.823883-9.446777h.000031ZM72.213691,85.931287c5.812439.553955,14.446838-3.875122,16.646271-13.389832,2.116791-9.157318-1.619049-17.784424-8.808472-20.675507.484497,5.925415-.136597,11.732117-1.45697,17.475677-1.329102,5.781799-3.051697,11.417419-6.380798,16.589661h-.000031ZM19.134025,85.987256c-5.937592-10.719299-8.31282-22.146179-7.754517-34.241791-8.906097,4.650421-10.807083,13.630432-8.248077,22.154694,2.712448,9.0354,11.355438,12.564636,16.002594,12.087097ZM15.890327,16.45567c-7.300018,5.171844-13.218384,27.253998-9.749176,36.628723.406433-.361328.719666-.806305,1.145859-.991638,2.747955-1.195099,2.794678-3.321686,2.677612-5.981293-.390366-8.868835,1.588303-17.191284,6.709213-24.606262.526123-.76181,1.064133-1.515411,1.532227-2.181183-.80687-.999451-1.534241-1.90036-2.31572-2.868347h-.000015ZM85.508185,52.950238c2.994781-10.681305-2.877502-32.779205-9.559662-36.288727-.834808.938049-1.654419,1.859009-2.489319,2.79718.009827.031372.013123.119812.057953.173706,3.653168,4.392853,5.991516,9.439056,7.210785,14.980988,1.047638,4.761719,1.416382,9.592255.867645,14.467499-.046509.413055.006561,1.038818.268372,1.250153,1.140533.920715,2.375366,1.724701,3.644196,2.619202h.000031Z"/>
      <path class="cls-2" d="M32.820106,81.232007c-.246918.862-.579956,1.710449-.718536,2.589539-.165253,1.04834-.704254,1.76825-1.652496,2.074524-1.897186.612732-3.817932,1.160034-5.748444,1.658936-1.008392.26062-1.954651-.154175-2.478943-.979675-1.397659-2.2005-2.926819-4.369629-3.949692-6.74646-3.348068-7.78006-5.045776-15.952667-5.044479-24.434631.00029-1.781403.357758-3.569305.631851-5.341644.163773-1.058655.860672-1.735504,1.920273-1.978363,1.639221-.375671,3.272232-.79248,4.927124-1.082031,1.846802-.323151,3.126038.697693,4.226593,2.019897,1.983246,2.38269,3.238678,5.161163,4.338684,8.01886,1.791626,4.654388,2.977814,9.458435,3.43335,14.429199.191406,2.088684.297119,4.185242.441803,6.27771-.05307.767029-.106171,1.534607-.159271,2.302185-.040955.317261-.081909.634521-.12265.951355-.024597.020691-.06958.041138-.070221.062927-.00174.05896.01535.118469.025024.177795l.000031-.000122ZM30.2042,72.453931c-.227081-4.345276-1.17099-8.497742-2.793091-12.468018-.636383-1.557495-1.581329-3.055145-2.665588-4.34494-1.080841-1.285736-2.759644-.842133-3.334244.755981-.297989.828796-.438431,1.749268-.466171,2.634094-.120071,3.831665.628632,7.550293,1.646637,11.217621.670929,2.416992,1.455017,4.79126,3.092072,6.780579,1.395721,1.696045,3.098694,1.515808,3.815002-.567261.435669-1.26709.483368-2.66748.705353-4.007996h.000031v-.000061Z"/>
      <path class="cls-2" d="M78.327827,55.50694c-.28009,3.087036-.272522,6.233826-.899353,9.24881-1.36087,6.545471-2.788361,13.107117-6.107361,19.040344-.210205.375793-.426575.749573-.663574,1.108826-1.83606,2.78241-2.503326,3.044312-5.728271,2.219482-.986145-.252258-1.950378-.600464-2.944885-.807556-1.711914-.356445-2.518311-1.445129-2.953705-3.073792-.770813-2.883362-.826019-5.801147-.614197-8.731506.489197-6.767975,1.888153-13.351929,4.665558-19.553986,1.025116-2.289154,2.517975-4.40155,4.012268-6.437012,1.041595-1.418823,2.669495-1.839447,4.443878-1.417755,1.066345.253418,2.145569.452881,3.210815.710358,2.330048.563171,3.004883,1.320984,3.195801,3.627411.111267,1.344391.163513,2.693695.24234,4.040802.046875.008545.093781.01709.140656.025635l.000031-.000061ZM61.305152,73.186536c.126892.765259.234283,2.098633.586029,3.364136.461273,1.659729,2.148132,2.079163,3.385895.868774.602905-.589539,1.120209-1.317627,1.505432-2.070374,2.579102-5.039948,3.650177-10.451233,3.781647-16.06778.019806-.845551-.109161-1.730927-.358948-2.539337-.63559-2.05722-2.214935-2.429718-3.716339-.911072-.434082.439056-.822479.953003-1.11792,1.49469-2.598663,4.764496-3.733826,9.916718-4.065796,15.860962Z"/>
      <path class="cls-3" d="M44.8086,1.877362c11.137543.172089,20.031647,3.24411,27.823883,9.446777,1.338257,1.065247,1.811035,2.488586,1.419067,4.087372-.393494,1.605011-1.641449,2.416351-3.206421,2.752808-1.131439.243256-2.078003-.169006-2.931458-.874298-3.140198-2.595093-6.579285-4.68811-10.470032-5.933716-12.121948-3.880707-23.270233-2.024261-33.368622,5.792786-1.973358,1.527557-4.129105,1.370422-5.618988-.444672-1.377823-1.678558-1.100464-3.983734.855515-5.471649,5.597183-4.257721,11.768997-7.329773,18.75383-8.529633,2.615814-.449341,5.274231-.650757,6.743256-.825806h-.000031v.000031Z"/>
      <path class="cls-2" d="M72.213691,85.931287c3.329102-5.172241,5.051697-10.807861,6.380798-16.58963,1.320374-5.743591,1.941467-11.550262,1.45697-17.475677,7.189423,2.891083,10.925293,11.518188,8.808472,20.675476-2.199432,9.514709-10.833832,13.943787-16.646271,13.389832h.000031Z"/>
      <path class="cls-2" d="M19.134025,85.987256c-4.647156.477539-13.290161-3.051697-16.002594-12.087097-2.55899-8.524292-.65802-17.504303,8.248093-22.154724-.558304,12.095642,1.816925,23.522522,7.754517,34.241821h-.000015Z"/>
      <path class="cls-3" d="M15.890327,16.45567c.781479.967987,1.50885,1.868896,2.31572,2.868347-.468079.665802-1.006104,1.419403-1.532227,2.181183-5.120911,7.414978-7.099609,15.737396-6.709213,24.606262.117065,2.659607.070358,4.786194-2.677612,5.981293-.426178.185333-.739426.63031-1.145859.991638-3.469208-9.374725,2.449173-31.456879,9.749176-36.628723h.000015Z"/>
      <path class="cls-3" d="M85.508185,52.950238c-1.268829-.894501-2.503662-1.698456-3.644196-2.619202-.26178-.211334-.31485-.837097-.268372-1.250153.548706-4.875275.179962-9.70578-.867676-14.467529-1.219269-5.541931-3.557617-10.588135-7.210785-14.980988-.04483-.053925-.048126-.142365-.057953-.173706.8349-.938171,1.65451-1.8591,2.489319-2.79718,6.682159,3.509521,12.554443,25.607422,9.559662,36.288727h.000031l-.000031.000031Z"/>
      <path class="cls-6" d="M32.987983,80.03999c.053101-.767578.106201-1.535156.159271-2.302185-.053101.767761-.106171,1.534973-.159271,2.302185Z"/>
      <path class="cls-6" d="M32.820106,81.232007c-.009644-.059326-.026764-.118835-.025024-.177795.00061-.02179.045624-.042236.070221-.062927-.015167.080505-.030212.160583-.045197.240662v.000061Z"/>
      <path class="cls-4" d="M30.2042,72.453931c-.221985,1.340515-.269684,2.740906-.705353,4.007996-.716309,2.08313-2.419281,2.263367-3.815002.567261-1.637054-1.989319-2.421143-4.363525-3.092072-6.780579-1.018021-3.667328-1.766724-7.385956-1.646652-11.217621.02774-.884827.168182-1.805267.466171-2.634094.574615-1.598114,2.253387-2.041718,3.334259-.755981,1.084259,1.289795,2.029205,2.787445,2.665588,4.34494,1.622131,3.970245,2.56601,8.122742,2.793091,12.468018h-.000031v.000061ZM23.539313,57.13667c-.191986.092346-.383972.184723-.575958.277069-.349091,6.543182,1.057922,12.68515,4.447266,18.430939.364136-.529968.541565-1.049805.564056-1.576172.229889-5.374481-.962189-10.464722-3.180511-15.329407-.298828-.655243-.830811-1.204193-1.254852-1.802399v-.000031Z"/>
      <path class="cls-4" d="M61.305152,73.186536c.33197-5.944244,1.467133-11.096497,4.065796-15.860992.295471-.541687.683838-1.055634,1.11792-1.49469,1.501404-1.518646,3.080719-1.146149,3.716339.911072.249756.808411.378784,1.693787.358948,2.539337-.13147,5.616547-1.202545,11.027832-3.781647,16.067749-.385223.752747-.902527,1.480835-1.505432,2.070374-1.237762,1.210388-2.924622.790894-3.385895-.868774-.351746-1.265503-.459137-2.598877-.586029-3.364136v.000061ZM63.715034,75.815442c2.667389-1.240723,6.016266-15.46637,4.431976-18.521606-2.714264,1.387573-5.694885,13.715637-4.431976,18.521606Z"/>
      <path class="cls-1" d="M23.539313,57.13667c.424042.598175.956024,1.147125,1.254852,1.802399,2.218323,4.864685,3.410431,9.954926,3.180511,15.329437-.022491.526428-.199951,1.046204-.564056,1.576172-3.389343-5.745789-4.796326-11.887756-4.447266-18.430939.191986-.092346.383972-.184723.575958-.277069Z"/>
      <path class="cls-1" d="M63.715034,75.815442c-1.262909-4.805939,1.717712-17.134033,4.431976-18.521606,1.58429,3.055237-1.764618,17.280884-4.431976,18.521606Z"/>
    </g>
  </g>
</svg>