<?xml version="1.0" encoding="UTF-8"?>
<svg id="Layer_2" xmlns="http://www.w3.org/2000/svg" viewBox="0 0 91.374496 66.275227">
  <defs>
    <style>
      .cls-1 {
        fill: #3f4141;
      }

      .cls-2 {
        fill: #eae6d4;
      }

      .cls-3 {
        fill: #1c1a19;
      }

      .cls-4 {
        fill: #212121;
      }

      .cls-5 {
        fill: #8e8889;
      }

      .cls-6 {
        fill: #b9bbb9;
      }
    </style>
  </defs>
  <g id="Layer_1-2" data-name="Layer_1">
    <g>
      <path class="cls-4" d="M23.854595,10.025714c2.524506,0,4.908447.026733,7.2901-.035095.2854-.007385.671753-.444641.81839-.769653.91629-2.031677,1.654877-4.152954,2.69165-6.118347C35.715344,1.09212,37.571331.037494,39.858776.024371c6.428284-.036926,12.857086-.031433,19.28537.013367,2.437469.016968,4.320648,1.173767,5.392395,3.35437.91275,1.857117,1.63031,3.812866,2.377533,5.746887.261963.678101.578003.949524,1.361023.940674,4.899109-.055603,9.799194-.070923,14.698578-.041931,5.021149.029724,8.355682,3.435852,8.356995,8.489014.003021,11.912781-.007263,23.825623-.010742,35.738342-.000366,1.175598-.075806,2.358826.029205,3.525391.370575,4.118164-3.3638,8.489807-8.305023,8.421143-10.463959-.145508-20.931274-.057861-31.397186-.05011-14.268402.010559-28.538208-.072876-42.804443.112854C3.734753,66.3409-.044346,62.519794.000393,57.476215c.112946-12.734741.023407-25.47113.054825-38.206787.003036-1.235901.106369-2.525818.468369-3.696289,1.024033-3.311279,3.802933-5.380615,7.27919-5.495544.980606-.032471,1.368683-.242737,1.378708-1.308594.026825-2.857605,1.37352-4.127502,4.215073-4.14447,1.959839-.011719,3.919861-.000977,5.87973-.011475,3.026855-.016174,4.472809,1.362854,4.577179,4.383118.009247.2677.00119.536072.00119,1.029663l-.000031-.000061-.000031-.000061ZM22.126293,12.39101c-4.583069-.034241-9.166092-.088501-13.749191-.096497-3.741318-.006531-6.064987,2.230103-6.076416,5.967041-.040573,13.246521-.049332,26.493225-.026703,39.739746.006241,3.646973,2.37149,5.920898,6.004044,5.930847,4.273117.011719,8.546265.006165,12.819427.000916.348877-.000427.697723-.056519,1.04657-.086731.467224.032959.934418.094299,1.401642.094727,11.997253.011475,23.994476.017029,35.99173.022644,7.958954.003723,15.917938.017883,23.876862.002502,2.708313-.00531,4.600983-1.36377,5.371216-3.897766.257141-.845947.326416-1.776245.328308-2.668335.028168-12.973572.039246-25.947205.018768-38.920776-.001404-.88269-.127899-1.832275-.469269-2.634705-1.059753-2.491333-2.995789-3.643677-5.744629-3.638977-19.250397.03302-38.500854.022095-57.751312.035828-1.013672.000732-2.027283.097412-3.041107.149536h.000061ZM64.880261,9.771442c-.680115-1.623718-1.178802-3.05896-1.864319-4.398743-1.33017-2.599609-2.112946-3.308044-4.801178-2.705566-.150391.033691-.309692.051636-.463196.043884-2.762146-.138977-5.522644-.34729-8.286407-.409363-3.170807-.071167-6.347198-.086426-9.515106.033813-.911194.034607-2.06369.375366-2.651245,1.001709-1.652588,1.761475-2.259735,4.083374-2.89917,6.434265h30.480621v-.000061.000061ZM17.105725,10.008136c0,.003723-.000015.007385-.000015.011047,1.211563,0,2.423569.016663,3.634445-.012512.279663-.006775.683258-.08429.812134-.275757.760651-1.130005-.18515-2.87793-1.554108-2.891479-1.014526-.010071-2.029633.065491-3.044754.076782-1.485016.016479-2.971603-.027649-4.454971.025269-1.042984.03717-1.251709.567444-1.229904,2.202881.01358,1.019592.656204.864197,1.273956.863892,1.521072-.000549,3.04216-.000183,4.563232-.000183h0l-.000015.000061Z"/>
      <path class="cls-2" d="M22.126537,12.390949c1.013611-.052063,2.027252-.148743,3.040894-.149475,19.250458-.013672,38.500916-.002747,57.751312-.035828,2.74884-.0047,4.684845,1.147644,5.744629,3.638977.34137.802429.467834,1.752075.469269,2.634705.020477,12.973572.009399,25.947205-.018768,38.920776-.001923.89209-.071198,1.822327-.328308,2.668335-.770233,2.533997-2.662903,3.892456-5.371216,3.897766-7.958923.015442-15.917938.001221-23.876862-.002502-11.997253-.005615-23.994476-.011169-35.99173-.022644-.467255-.000427-.934448-.061768-1.401672-.094727-.012543-1.167175-.025024-2.334351-.037506-3.501587.227142-.597656.65097-1.194885.652496-1.793152.033691-13.165161.029755-26.330444-.011353-39.495605-.002014-.645935-.407135-1.29071-.624542-1.936035.001099-1.576355.002258-3.15271.003387-4.729065l-.000031.000061ZM29.264172,38.87514c.02533,11.447693,9.037476,20.381104,20.530396,20.350891,10.978699-.028809,20.052429-9.14679,20.036682-20.134338-.016052-11.20459-9.171234-20.231567-20.489349-20.202393-10.905396.028076-20.101654,9.182251-20.077728,19.98584ZM76.927685,25.354388c0,.008545.000031.01709.000031.025635,1.799927,0,3.600403.027588,5.399658-.007629,1.834381-.03595,3.00177-1.15033,3.107574-2.985291.067505-1.169617.064087-2.347595.016815-3.518738-.083527-2.0672-1.267334-3.294373-3.334137-3.317993-3.481354-.039795-6.964569-.014221-10.445587.053711-1.767792.034485-2.763763.966736-2.911072,2.744141-.11908,1.436584-.117035,2.895142-.021454,4.334229.101044,1.521484,1.367615,2.633362,2.906555,2.663879,1.759888.034973,3.520996.008118,5.281616.008118h.000031l-.000031-.000061Z"/>
      <path class="cls-6" d="M22.106518,60.344745c.012482,1.167175.024933,2.334412.037506,3.501587-.348816.030212-.697662.086304-1.046539.086731-4.273148.00531-8.54631.010803-12.819443-.000916-3.632553-.009949-5.997803-2.283875-6.004044-5.930847-.022644-13.246582-.01387-26.493286.026703-39.739746.011429-3.736938,2.335068-5.973633,6.076416-5.967041,4.583099.007996,9.166138.062256,13.749268.096497-.001007,1.576294-.002167,3.15271-.003296,4.729065-1.306824.14502-1.554779.423584-1.556396,1.94519-.01413,13.203186-.013611,26.406433-.035522,39.609558-.001831,1.113586.408813,1.717285,1.575317,1.669983l.000031-.000061Z"/>
      <path class="cls-1" d="M64.880261,9.771442h-30.480621c.639435-2.350891,1.246582-4.672791,2.89917-6.434265.587585-.626343,1.740051-.967102,2.651245-1.001709,3.167908-.120239,6.34433-.105042,9.515106-.033813,2.763763.062012,5.524231.270325,8.286407.409363.153503.007751.312805-.010193.463196-.043884,2.688232-.602478,3.470978.105957,4.801178,2.705566.685516,1.339722,1.184204,2.774963,1.864319,4.398743v.000061-.000061Z"/>
      <path class="cls-5" d="M17.105725,10.008136c-1.521072,0-3.04216-.000427-4.563232.000183-.617752.000244-1.260376.155701-1.273956-.863892-.02182-1.635498.18692-2.16571,1.229904-2.202881,1.483368-.052917,2.969955-.008789,4.454971-.025269,1.015137-.01123,2.030212-.086792,3.044769-.076782,1.368927.01355,2.314789,1.761475,1.554108,2.891479-.128876.191467-.532471.269043-.812134.275757-1.210846.029175-2.422882.012512-3.634445.012512,0-.003723.000015-.007385.000015-.011047h0v-.000061Z"/>
      <path class="cls-4" d="M29.264172,38.87514c-.023926-10.803589,9.172333-19.957764,20.077728-19.98584,11.318115-.029175,20.473297,8.997803,20.489349,20.202393.015747,10.98761-9.057983,20.10553-20.036682,20.134338-11.49292.030212-20.505066-8.903198-20.530396-20.350891ZM67.574139,39.093768c-.147308-10.018188-8.134033-17.97699-17.966034-18.002441-10.055908-.026062-18.381439,8.242249-18.163971,18.337219.209259,9.715088,8.249146,17.656921,18.081299,17.67157,10.450806.015625,18.079865-8.658264,18.048706-18.006348Z"/>
      <path class="cls-4" d="M22.106518,60.344745c-1.166504.047363-1.577148-.556396-1.575287-1.669983.021912-13.203186.021393-26.406372.035522-39.609558.001648-1.521667.249573-1.800171,1.556396-1.94519.217407.645325.622559,1.290039.624542,1.936035.041107,13.165161.045044,26.330444.011353,39.495605-.001526.598267-.425385,1.195435-.652527,1.793152v-.000061Z"/>
      <path class="cls-4" d="M76.927685,25.354388c-1.76062,0-3.521729.026917-5.281616-.008118-1.53894-.030518-2.805511-1.142456-2.906555-2.663879-.095581-1.439087-.097626-2.897705.021454-4.334229.147308-1.777466,1.14325-2.709656,2.911072-2.744141,3.481049-.067932,6.964233-.093506,10.445587-.053711,2.066772.023621,3.25061,1.250793,3.334137,3.317993.047272,1.171204.05069,2.349121-.016815,3.518738-.105804,1.834961-1.273163,2.949341-3.107574,2.985291-1.799255.035217-3.599731.007629-5.399658.007629,0-.008545-.000031-.01709-.000031-.025635h-.000031l.000031.000061ZM77.053326,23.210407v-.009521c1.723785,0,3.447754-.014954,5.171234.00708.729675.009338,1.098389-.264465,1.083832-1.025635-.020996-1.096191-.010223-2.192932-.014862-3.28949-.003326-.778137-.464752-1.184692-1.174408-1.18927-3.407562-.021729-6.815491-.010986-10.223114.014587-.676025.005066-1.082458.344299-1.055206,1.109863.037628,1.056152.030029,2.114441.01944,3.17157-.008636.863708.306641,1.269287,1.257751,1.229736,1.642548-.068298,3.289948-.018921,4.935333-.018921Z"/>
      <path class="cls-6" d="M67.574139,39.093768c.031158,9.348083-7.5979,18.021973-18.048706,18.006348-9.832153-.014648-17.87204-7.956482-18.081299-17.67157-.217468-10.09491,8.108063-18.36322,18.163971-18.337219,9.832001.025452,17.818726,7.984253,17.966034,18.002441ZM49.568615,51.409259c6.979675-.083374,12.390594-5.535095,12.334412-12.427551-.055878-6.857666-5.748474-12.368164-12.672394-12.266968-6.711823.098083-12.187622,5.805054-12.091095,12.601562.095947,6.755554,5.664703,12.173767,12.429108,12.092957h-.000031Z"/>
      <path class="cls-2" d="M77.053326,23.210407c-1.645355,0-3.292755-.049377-4.935333.018921-.951141.039551-1.266388-.365967-1.257751-1.229736.01059-1.057129.018188-2.115417-.01944-3.17157-.027252-.765503.379211-1.104797,1.055206-1.109863,3.407623-.025574,6.815521-.036377,10.223114-.014587.709625.004517,1.171051.411072,1.174408,1.18927.004669,1.096558-.006134,2.193298.014862,3.28949.014557.761169-.354156,1.034973-1.083832,1.025635-1.72348-.022034-3.447479-.00708-5.171234-.00708v.009521Z"/>
      <path class="cls-3" d="M49.568615,51.409259c-6.764404.080811-12.33316-5.337341-12.429108-12.092957-.096527-6.796448,5.379303-12.503418,12.091095-12.601562,6.92395-.101196,12.616516,5.409241,12.672394,12.266968.056183,6.892395-5.354736,12.344116-12.334412,12.42749h.000031v.000061ZM49.527538,29.089496c-4.909668-.240417-10.06546,3.985718-9.980774,10.052979.078796,5.644287,4.813324,9.995178,9.94281,9.96582,5.47403-.03125,9.995056-4.549316,10.056488-9.970703.063995-5.653015-4.897247-10.311279-10.018463-10.048096h-.000061Z"/>
      <path class="cls-1" d="M49.527538,29.089496c5.121216-.263184,10.08252,4.395142,10.018494,10.048096-.061432,5.421326-4.582458,9.939453-10.056488,9.970703-5.129456.029297-9.863983-4.321533-9.94281-9.96582-.084686-6.0672,5.071106-10.293396,9.980774-10.052979h.000031Z"/>
    </g>
  </g>
</svg>