<?xml version="1.0" encoding="UTF-8"?>
<svg id="Layer_2" xmlns="http://www.w3.org/2000/svg" viewBox="0 0 81.10531 96.972976">
  <defs>
    <style>
      .cls-1 {
        fill: #1c1a19;
      }

      .cls-2 {
        fill: #5faa6a;
      }

      .cls-3 {
        fill: #f5f5f4;
      }

      .cls-4 {
        fill: #4fa860;
      }
    </style>
  </defs>
  <g id="Layer_1-2" data-name="Layer_1">
    <g>
      <path class="cls-1" d="M66.092928,58.569055c-.225479.0271-.450974.054138-.676498.081238-.559662.047119-1.119308.094238-1.678955.141357-.707718.001648-1.415421.003296-2.123184.004944-.709244-.058105-1.418472-.11615-2.127686-.174194-.153564-.018433-.307144-.036804-.460754-.055298-.324219-.052673-.648392-.105286-.972565-.157898-.145721-.029053-.291443-.058167-.43721-.087219-2.048752-.607971-4.097443-1.216003-6.146118-1.823914-.074188-.028809-.148376-.057556-.22261-.086365-.076614-.036316-.153198-.072571-.229797-.108826-.185089-.084778-.370148-.169556-.555252-.254211-.369461-.16626-.738861-.33252-1.108261-.498779-.055069-.063904-.12468-.092896-.208893-.086914-.082855-.045959-.16568-.091919-.248505-.137878-.069427-.035156-.138824-.070312-.208282-.105469-.087036-.051636-.174026-.103271-.261047-.154907-.048798-.064636-.113617-.094604-.194565-.089966-.091644-.049927-.183243-.099854-.274811-.149841-.050308-.062317-.115433-.09082-.195419-.08551-.091751-.050598-.183441-.101135-.275131-.151733-.356277-.198975-.712555-.397949-1.068893-.596924-.195938-.116882-.3918-.233643-.587662-.350464-.29776-.181885-.59552-.36377-.893341-.545715-.090668-.055908-.181274-.111816-.271866-.167664-.626434-.407959-1.252853-.815857-1.879318-1.223816-.080322-.058716-.160629-.117432-.240936-.176147-1.28595-1.020935-2.571899-2.041931-3.998184-3.174316-5.180603,6.18512-9.844528,12.764465-14.209122,19.639404.376633-.287231.742691-.589661,1.13147-.859314,5.04924-3.502075,10.492935-5.972656,16.752045-6.117371,4.138611-.095703,8.117218.612732,11.694168,2.880188,6.356247,4.029236,6.728485,11.239136.815872,15.936707-3.960388,3.146484-8.535294,4.265625-13.514221,4.203369-7.633438-.095459-14.187378-3.233215-20.499878-7.10022-.565063-.34613-1.116425-.714661-1.858536-1.191101-.970352,1.531982-1.956253,3.011719-2.865128,4.537354-3.106949,5.215271-6.182022,10.449524-9.283752,15.667908-.349335.587708-.699905,1.382019-1.614044.845947-.919434-.539124-.665794-1.308472-.233353-2.035034,3.985413-6.696106,7.976944-13.388611,11.964127-20.08374.037582-.06311.04068-.14679.086502-.323425-.909149-.659119-1.868103-1.318726-2.788727-2.027954-4.504044-3.470032-8.616035-7.322937-11.184792-12.495178-2.633667-5.302917-3.951431-10.859253-2.019104-16.695984.564751-1.705811,1.511436-3.377991,2.632256-4.788269,2.479073-3.119324,6.590866-3.916931,10.210693-2.196167,5.154877,2.450439,7.965759,6.79657,9.509766,12.07196,1.502762,5.134521,1.228256,10.297913-.037323,15.445251-.115585.470032-.127243.965637-.18721,1.44928-.051941.009827-.103851.019775-.155746.029724.02536.043579.050705.087158.07605.130737.021164-.059631.042343-.119263.063522-.178955.925552-1.235229,1.846954-2.473633,2.777374-3.7052,3.5177-4.65625,7.038513-9.310181,10.55632-13.96637.06987-.092468.117798-.201477.222717-.384216-.592529-.484009-1.204742-.95813-1.788528-1.464966-4.511841-3.917358-8.517456-8.241455-10.749756-13.905823-1.977448-5.0177-2.61409-10.170105-1.023911-15.419983,1.079132-3.562622,3.112518-6.451538,6.68428-7.873901,2.550369-1.015625,5.106354-.694458,7.430511.799133,5.139404,3.302856,7.527847,8.26355,8.223328,14.130615.592209,4.995789-.289856,9.837585-1.927841,14.55957-.074265.214111-.13092.434326-.000153.791199,1.462296-1.682251,2.813614-3.480164,4.415909-5.016479,1.864944-1.788147,2.512421-3.763855,2.642853-6.376587.320587-6.422302,2.062241-12.536194,5.767075-17.902771,3.119965-4.519409,7.200607-7.893066,12.694595-9.061279,1.787491-.380066,3.780716-.405823,5.568024-.04303,3.422562.694641,5.529572,3.039551,6.254623,6.435791.810089,3.794617.066254,7.40271-1.782593,10.786194-3.609375,6.605469-9.491959,10.303284-16.435028,12.433533-2.972763.912109-6.130508,1.215088-9.193863,1.845032-.53598.110229-1.155396.348206-1.505234.735657-1.375946,1.523987-2.649948,3.139465-3.981598,4.704163-.655502.770203-1.354233,1.503662-2.033432,2.253784-.395477.348938-.790939.697876-1.186386,1.046753.065384.098145.130768.19635.196152.294495.502747-.277588,1.005493-.555115,1.508224-.832703,1.001389-.500183,2.002808-1.000427,3.004242-1.500549.096436-.047913.192856-.095947.289261-.143982.766449-.286865,1.532883-.57373,2.299347-.860596.085449-.033997.170883-.067993.256317-.10199.690536-.20874,1.381088-.41748,2.071671-.626221.167664-.042358.335312-.084717.502945-.127075.14624-.031677.29248-.063416.438751-.095093.244904-.051453.489761-.102966.734634-.154419.146805-.031616.29364-.063293.440491-.09491.168457-.037781.336899-.075562.505356-.113342.223541-.043518.447083-.087036.670639-.130615.247009-.03479.493988-.06958.740982-.10437.459076-.04126.918167-.08252,1.377274-.123779,1.278915.002502,2.557816.005005,3.836716.007568.381241.034546.762466.069153,1.143738.103699.323822.052795.647583.10553.971375.158325.146454.0271.292892.054138.439392.081238.168335.041138.336639.082275.504944.123413.14595.033813.291916.067688.437881.101562.167999.03894.335983.077881.503952.116821.45961.116821.919189.233582,1.378845.350403.167145.048889.334229.097839.501358.14679.417816.156494.835602.312988,1.253464.469421.206818.095154.41362.190308.620422.285461.270538.132019.541077.263977.811661.395996.197006.117493.393951.234985.590927.352417.023438.0672.070709.098633.1418.094421.18576.133667.37149.267334.55722.401001.017517.063965.059326.092957.125443.086914.192947.128967.385864.257874.578781.386841.019287.063293.061783.091064.127594.083496.191238.132568.382446.265076.573654.397583.466782.474365.933533.948792,1.40033,1.423157.148804.172791.297607.345581.446442.518311.509659.836487,1.019302,1.673035,1.528961,2.509521.060455.164673.120895.329285.181335.493958.042084.14563.084152.29126.126266.43689.039474.16748.078964.3349.118454.50238.035645.225098.071259.450195.106903.675293.002335.65094.004654,1.301941.007019,1.952881-.03476.225464-.069489.450867-.104248.676331-.041016.167053-.082047.334106-.123047.501099-1.20546,3.770996-3.951889,6.030518-7.431046,7.571411-1.653976.460388-3.307922.920776-4.961868,1.381104l.000015.000061-.000046-.000122ZM14.181017,52.173914c.04509.0755.090179.151001.135239.22644.26091.929138.521805,1.858215.782715,2.787354.01535.191711.006973.388855.04953.574341,1.106308,4.821716,2.216919,9.642456,3.332901,14.461914.037048.159973.137756.305176.320236.695923.385895-1.242615.681793-2.240479,1.005219-3.229309,1.821838-5.570007,2.956497-11.230713,1.79425-17.09137-.97821-4.932617-3.210922-9.128967-7.613693-11.919617-3.012268-1.909302-6.105072-1.717773-8.556587.805908-.899185.925659-1.604164,2.148865-2.07592,3.36145-1.900887,4.885864-1.231621,9.720886.754807,14.3974,1.937393,4.561157,5.180984,8.171753,8.885376,11.383301,1.120316.971252,2.310135,1.862366,3.556961,2.861389.062775-.325989.10434-.407715.087814-.475159-1.384872-5.65564-2.779221-11.309021-4.155029-16.966919-.127396-.523987-.138687-1.076111-.203888-1.615234.061172-.084534.122314-.169067.183487-.253601.384171-.123535.768356-.247009,1.152527-.370544.114853.04425.229721.088501.344589.132751-.000305.083557.04129.122742.124802.117554.000778.063782.032333.102478.094696.116028h-.000031ZM55.263368,45.067224c.543381-.000916,1.086746-.001831,1.630112-.002747,1.281387.024719,2.563049.039612,3.844086.07666,1.442596.041748,1.834885.786987,1.085938,2.03479-.819412.039856-1.638458.102417-2.458313.115723-4.812576.078064-9.625473.136292-14.437912.221436-1.103027.019531-2.204636.118286-3.530121.193176.331619.360596.455582.555359.63063.676331,1.652573,1.141968,3.274872,2.334351,4.981247,3.390564,2.991852,1.851868,6.132538,3.381775,9.662704,3.932007l1.591919.353394c.293015.095276.584747.268494.879227.273315,2.146667.035095,4.31366.225403,6.436234.003418,3.113632-.325562,5.978683-1.376709,8.395935-3.547791,3.010422-2.703796,3.466965-6.478943.906097-9.611328-.682693-.835022-1.5354-1.579285-2.432861-2.182556-4.280487-2.877441-9.026413-3.486389-14.05127-2.835327-4.670776.605164-8.767822,2.672791-12.825546,4.845703-1.151001.616394-2.17363,1.472351-3.515884,2.398254,3.849365-.118774,7.353973-.22699,10.858597-.335144.783051,0,1.566116,0,2.349182.000061h.000015l-.000015.000061ZM35.47896,81.100366c.146835.022705.293671.045349.440491.068054.266357.048035.53273.096008.799072.144043l.614212.099854,1.074829.124146,2.005341.160034c.804749.000061,1.609482.000183,2.41423.000305.627182-.041748,1.254364-.083374,1.881546-.125122,4.099442-.47998,7.729141-1.942627,10.39772-5.22052,2.28978-2.812561,2.232697-6.726868-.306152-8.93689-1.504166-1.309326-3.278717-2.499329-5.13829-3.173096-5.194214-1.882141-10.413818-1.321045-15.499481.62384-4.512421,1.725647-8.319595,4.613098-12.088608,7.545471-.025253.019653.019745.129578.040024.242371,1.39122-.178345,2.779205-.37793,4.172348-.53064,3.694931-.40509,7.392059-.789917,11.088333-1.182739.421799-.033142.843582-.066223,1.265381-.099426.20636-.02771.412704-.05542.619064-.083191.462021.002686.966995-.110535,1.374069.040344.413193.153137.957733.525269,1.022202.87854.059982.328674-.395309.797302-.704971,1.128479-.160477.171631-.496887.178833-.753799.260315-6.09819.538513-12.196381,1.077087-18.294556,1.615601l-.02948.435425c1.206314.699097,2.402618,1.416199,3.620926,2.093811,3.149826,1.75177,6.43512,3.163208,9.985489,3.890991h.000061ZM35.044908,33.151636c-.543427-3.394226-1.096939-6.786804-1.622131-10.183838-.110886-.717224-.342056-1.624023.709579-1.808411.962967-.168884,1.220856.601868,1.379135,1.387817.300735,1.493225.629074,2.980896.945938,4.470825.508514,3.87738,1.020874,7.754211,1.523697,11.632324.19725,1.521362.373154,3.045471.558792,4.568359.611374-.685486.96312-1.404541,1.285324-2.136536,2.564453-5.826355,4.084732-11.83728,3.198196-18.267395-.623489-4.522278-2.469208-8.371704-6.140915-11.238159-2.922729-2.281738-6.469864-2.084778-8.994263.59198-2.377777,2.52124-3.323395,5.631104-3.461243,9.009644-.278717,6.832092,2.311707,12.617249,6.679642,17.689941,1.501251,1.743469,3.180283,3.333984,5.004089,5.229248.081085-.643616.152954-.866577.128677-1.078552-.143387-1.252258-.317551-2.500977-.465256-3.752808-.185532-1.572693-.355545-3.147217-.532257-4.721008l-.061981-.543274c-.045013-.283325-.090012-.566711-.135025-.850037h.000015l-.000015-.000122ZM59.837053,23.877222c-1.687515,1.749512-3.375061,3.498962-5.062607,5.248413,1.088379.088135,2.006424-.067871,2.919998-.246643,5.422104-1.061157,10.510574-2.913635,14.680389-6.671387,3.818451-3.44104,6.496292-7.519348,6.463211-12.923035-.030777-5.02887-3.540314-7.926758-8.523758-7.067261-5.445465.939148-9.237305,4.284302-12.334091,8.549438-2.53006,3.484558-3.903275,7.475159-4.565231,11.712341-.27919,1.787109-.51619,3.580811-.772354,5.371521.086792.025635.173569.051208.260376.076782,3.787384-4.034973,7.574783-8.069946,11.362183-12.104919.523788.224182,1.192581.329773,1.512238.720764.168442.205994-.148148,1.02063-.459167,1.371094-1.791718,2.018982-3.647232,3.981384-5.481155,5.962891h-.000031Z"/>
      <path class="cls-4" d="M59.837084,23.877222c1.833893-1.981567,3.689407-3.94397,5.481125-5.962952.311035-.350464.627609-1.1651.459167-1.371094-.319656-.39093-.988449-.496582-1.51239-.72113-.185944-.057495-.460434-.222778-.543564-.154663-.692047.567017-1.391373,1.136414-2.008621,1.781494-2.233475,2.33429-4.429062,4.704834-6.663467,7.038208-.166336.173706-.526627.161743-.796753.236145-.066818-.257507-.22728-.531128-.186218-.770142.486023-2.829041.957779-5.63446,2.091125-8.334778,2.107346-5.020874,5.270905-9.017517,10.265991-11.32489,2.255447-1.04187,4.616882-1.876953,7.230042-1.287964,2.119034.4776,3.916672,1.848206,4.11264,3.803467.195084,1.946655.231812,3.980286-.110886,5.895508-.828979,4.63269-3.912064,7.840515-7.539398,10.467896-2.888779,2.092407-6.250198,3.35083-9.658875,4.389832-1.098389.334778-2.257812.469482-3.389313.69574-.041458-.12439-.082916-.248779-.124374-.37323.902542-1.010559,1.827576-2.002563,2.689743-3.046509.184875-.223877.141953-.635742.203964-.960999h.000015l.000046.000061Z"/>
      <path class="cls-4" d="M38.640016,70.840051c-.421799.033142-.843582.066284-1.265259.099426-.312088-.143188-.635269-.429504-.934784-.406616-2.054474.157104-4.104858.370361-6.154816.582397-2.061508.213196-4.121002.445862-6.348923.688293.184219-.25592.244614-.40271.353928-.482605,3.031876-2.215759,6.204254-4.186951,9.710251-5.58075,5.219421-2.07489,10.510529-2.570984,15.881577-.650208,2.386627.853516,4.50795,2.254944,5.557632,4.582642,1.465088,3.24884.37529,5.60376-2.697632,8.035461-3.946976,3.123413-8.729828,3.705505-13.555603,3.318176-4.759323-.381958-9.146835-2.203064-13.387451-4.330811-.490173-.245911-.911179-.629639-1.499237-1.044739.401276-.215759.585495-.387451.787781-.412415,2.083694-.256653,4.168457-.507629,6.256622-.724548,2.514664-.261169,5.036331-.45874,7.546463-.755798.456329-.054016.871735-.453552,1.30603-.693604.256927-.081482.593323-.088684.753799-.260315.309662-.331116.764938-.799805.704971-1.128479-.064468-.353271-.609009-.725403-1.022202-.87854-.407074-.150879-.912048-.037659-1.373764-.040405-.206253.02771-.412811.055481-.61937.083252l-.000015.000061v.000122Z"/>
      <path class="cls-4" d="M61.823488,47.175928c.748962-1.247803.356674-1.993042-1.085938-2.03479-1.281021-.037109-2.562683-.052002-3.843857-.076599-.235214-.219238-.472687-.630798-.705795-.628357-2.654572.027893-5.308258.127197-7.962631.189026-1.063812.02478-2.128708.004089-3.193115.004089-.027496-.126282-.054993-.252563-.082474-.378845,1.662262-.90094,3.291962-1.869324,4.993042-2.689819,4.659409-2.247314,9.526642-3.375854,14.733475-2.569214,3.655075.566223,7.024078,1.661011,9.609253,4.529663,1.43808,1.595764,2.041809,4.572815.991257,6.439575-1.092163,1.940674-2.575424,3.583435-4.763153,4.273438-1.918854.605286-3.89183,1.106689-5.87825,1.407837-1.474792.223572-3.010574.019409-4.516724.073914-.621628.022522-1.236816.223145-1.854919.342773-.53064-.117798-1.061279-.235596-1.591858-.353394-.357376-.240356-.683121-.581604-1.077209-.705383-3.726181-1.170105-7.082214-3.077698-10.352509-5.153198-.477798-.303223-.857742-.760559-1.492874-1.337158,2.023026-.129883,3.650787-.303528,5.280548-.32489,3.566177-.046753,7.133423-.006653,10.700089-.027527.538589-.003113,1.098389-.078369,1.604309-.250061.220459-.074829.329636-.477356.489349-.731079h-.000015Z"/>
      <path class="cls-4" d="M13.961519,51.940332c-.114868-.04425-.229736-.088501-.344452-.132629-.178345-.188721-.356812-.377563-.535309-.566406-.20578.312256-.411575.624512-.61734.936707-.061172.084534-.122314.169067-.183533.253479-.863571.099426-.539886.752441-.470444,1.172302.12561.759338.4021,1.49231.578812,2.244873.791794,3.371948,1.617386,6.737305,2.310806,10.129578.123978.606567-.318237,1.328796-.499039,1.99762-.528854-.238464-1.161545-.363831-1.567444-.736206-1.318298-1.209412-2.629303-2.442932-3.807022-3.786438-4.002296-4.565674-6.040306-9.916565-5.724968-15.985474.119202-2.294373.161469-4.711548,2.810524-6.223389,1.513252-.863586,2.806747-1.710754,4.584396-1.555542.3759.032837.764557-.122314,1.150299-.150574.6828-.049988,1.49794-.320435,2.024612-.048096,1.055664.545776,2.141083,1.241821,2.884796,2.146545,3.035782,3.69281,4.807129,7.935913,4.806229,12.771179-.000381,2.017151-.151382,4.058838-.493607,6.044678-.377869,2.192505-1.053558,4.33374-1.599518,6.497375-.140213.000183-.280426.000366-.420639.00061-.174149-.399597-.404633-.784424-.513382-1.201111-.807022-3.091614-1.569092-6.195129-2.40242-9.27948-.126526-.468323-.548553-.856812-.833908-1.282227-.26091-.929138-.521805-1.858215-.782532-2.787109-.045029-.075439-.09021-.151062-.135406-.226746-.062347-.01355-.093918-.052246-.094345-.115479-.043884-.036499-.085693-.07605-.125153-.118103h0l-.000015.000061Z"/>
      <path class="cls-4" d="M35.179933,34.001733c.02066.181091.041321.362183.061996.54303-.880112.663086-.371094,1.532532-.321915,2.318115.100586,1.60614.249496,3.209351.378479,4.813721-.102737.04364-.205475.087219-.308228.130859-.272476-.244324-.563965-.470642-.814087-.736023-1.0177-1.079773-2.038651-2.157227-3.029221-3.261658-2.380875-2.65448-4.068405-5.713806-5.066772-9.123413-.918152-3.135681-1.169815-6.356567-.670074-9.592896.386993-2.506226,1.182816-4.893372,3.15361-6.631348,1.053604-.929138,2.181808-1.823975,3.845901-1.02948.797943.38092,1.813095.296997,2.724442.454773.500885.086731,1.115509.089355,1.466095.383423,3.943268,3.307739,5.886688,7.6026,5.945236,12.712097.050873,4.43866-.562103,8.787537-2.345505,12.900024-.185501.427734-.66098.729919-1.001907,1.090332-.210602-.423279-.543625-.827637-.612259-1.272827-.508881-3.300964-.951309-6.612122-1.462692-9.912659-.044022-.284119-.435532-.514465-.665619-.769775-.316864-1.489929-.645203-2.9776-.945938-4.470825-.158279-.785889-.416168-1.556641-1.379135-1.387817-1.051636.184387-.820435,1.091248-.709579,1.808411.525192,3.397034,1.078705,6.789673,1.622055,10.183289.044968.283142.090042.566895.135117.850647h0Z"/>
      <path class="cls-2" d="M15.098955,55.187708c.285355.425415.707382.813904.833908,1.282227.833328,3.084351,1.595398,6.187866,2.40242,9.27948.108749.416626.339233.801514.513382,1.201111.140213-.000183.280411-.000366.420639-.00061.545959-2.163574,1.221649-4.30481,1.599518-6.497375.342224-1.98584.493225-4.027527.493607-6.044678.000916-4.835266-1.770462-9.078369-4.806229-12.771179-.743713-.904663-1.829132-1.600708-2.884796-2.146545-.526672-.272339-1.341812-.001892-2.024612.048096-.385742.028259-.774399.183411-1.150299.150574-1.777649-.155273-3.071144.691895-4.584396,1.555542-2.649055,1.51178-2.691322,3.928955-2.810524,6.223389-.315338,6.068909,1.722672,11.4198,5.724968,15.985474,1.177704,1.343506,2.488724,2.577026,3.807022,3.786438.405914.372437,1.038589.497742,1.567444.736206.180801-.668823.623016-1.391052.499039-1.99762-.69342-3.392273-1.519012-6.757629-2.310806-10.129578-.176712-.752625-.453201-1.485535-.578812-2.244873-.069427-.4198-.393127-1.072876.470459-1.172302.065231.539246.076508,1.09137.203918,1.615356,1.375809,5.657898,2.770142,11.311218,4.155029,16.966919.016525.067444-.02504.14917-.087814.475159-1.246826-.999023-2.436646-1.890137-3.556976-2.861389-3.704391-3.211609-6.947983-6.822205-8.885376-11.383301-1.98642-4.676514-2.655678-9.511536-.754807-14.3974.471756-1.212585,1.176727-2.43573,2.07592-3.36145,2.451523-2.523682,5.544319-2.71521,8.556587-.805908,4.402771,2.790649,6.635498,6.987,7.613693,11.919617,1.162247,5.860657.027588,11.521362-1.79425,17.09137-.32341.988831-.619308,1.986694-1.005219,3.229309-.182495-.390747-.283203-.53595-.320236-.695923-1.115982-4.819458-2.226593-9.640198-3.332901-14.461914-.042557-.185486-.03418-.382629-.04953-.574341h.000015l.000015.000122Z"/>
      <path class="cls-2" d="M40.196581,73.064539c-.434296.240051-.849686.639587-1.30603.693604-2.510117.297058-5.031799.494629-7.546463.755798-2.088181.216919-4.172928.467834-6.256622.724548-.202301.024902-.386505.196594-.787781.412415.588074.4151,1.009079.798767,1.499237,1.044739,4.240616,2.127686,8.628113,3.948853,13.387451,4.330811,4.825775.387268,9.608627-.194824,13.555603-3.318176,3.072922-2.431702,4.162704-4.786621,2.697632-8.035461-1.049683-2.327637-3.171005-3.729065-5.557632-4.582642-5.371033-1.920837-10.662155-1.424683-15.881577.650208-3.505997,1.393738-6.678391,3.364929-9.710251,5.58075-.109299.079895-.169708.226624-.353928.482605,2.227921-.242371,4.287415-.475037,6.348923-.688293,2.049973-.212036,4.100357-.425293,6.154816-.582397.299515-.022888.622681.263367.934784.406616-3.696396.392822-7.393524.777649-11.08847,1.182739-1.393127.15271-2.781128.352295-4.172348.53064-.020279-.112854-.065277-.222717-.040024-.242371,3.769012-2.932373,7.576172-5.819824,12.088608-7.545471,5.085663-1.944824,10.305267-2.505981,15.499481-.623779,1.859558.673828,3.634109,1.86377,5.13829,3.173096,2.538849,2.209961,2.595917,6.124268.306152,8.93689-2.668579,3.277893-6.298279,4.74054-10.397888,5.220459-.627228.041687-1.254303.083435-1.881363.125122-.804749-.000122-1.609482-.000183-2.414139-.000122-.668411-.053284-1.336929-.10675-2.005447-.160217-.358276-.041382-.716553-.082764-1.074539-.123779-.204636-.033203-.409576-.066711-.614487-.100281-.266357-.048035-.53273-.096008-.798798-.143677-.146729-.022522-.293747-.045471-.440765-.06842-3.550385-.727844-6.835663-2.139221-9.985489-3.890991-1.218307-.677612-2.414612-1.394714-3.620926-2.093811.009827-.145142.019638-.290283.02948-.435425,6.09819-.538513,12.196381-1.077087,18.294571-1.615601h-.000031l-.000031-.000122Z"/>
      <path class="cls-2" d="M36.457445,27.01803c.230087.25531.621582.485657.665604.769775.511383,3.300537.953812,6.611694,1.462692,9.912659.068634.445129.401657.849548.612259,1.272827.340927-.360413.816391-.662537,1.001907-1.090332,1.783401-4.112488,2.396378-8.461365,2.345505-12.900024-.058533-5.109497-2.001953-9.404358-5.945236-12.712097-.350586-.294067-.96521-.296692-1.466095-.383423-.911362-.157837-1.926498-.073853-2.724442-.454773-1.664093-.794434-2.792297.100342-3.845901,1.02948-1.970795,1.737976-2.766602,4.125122-3.15361,6.631348-.499756,3.236267-.248077,6.457214.670074,9.592896.998352,3.409607,2.685898,6.468933,5.066757,9.123413.99057,1.104431,2.011505,2.181885,3.029221,3.261658.250107.265381.541611.49176.814087.736023.102737-.04364.20549-.087219.308228-.130859-.128998-1.60437-.277878-3.20752-.378479-4.813721-.049194-.785522-.558197-1.654968.321915-2.318115.176697,1.573914.346725,3.148499.532242,4.721191.14769,1.251831.321869,2.500549.465256,3.752808.024261.211975-.047592.434937-.128677,1.078552-1.823807-1.895264-3.502823-3.485718-5.004089-5.229248-4.36795-5.072693-6.958374-10.857849-6.679642-17.689941.137848-3.378479,1.083466-6.488403,3.461243-9.009644,2.524399-2.676758,6.071533-2.873779,8.994263-.59198,3.671707,2.866455,5.517426,6.715942,6.140915,11.238159.886536,6.430115-.633743,12.441101-3.198196,18.267395-.322189.731995-.67395,1.45105-1.285324,2.136536-.185638-1.522827-.361542-3.046997-.558792-4.568359-.502808-3.878113-1.015167-7.754944-1.523697-11.632324h-.000015l.000031.000122Z"/>
      <path class="cls-2" d="M59.837068,23.877222c-.062012.325256-.019089.737122-.203964.960999-.862152,1.043945-1.787201,2.03595-2.689743,3.046509.041458.12439.082916.248779.124374.37323,1.1315-.226257,2.290924-.360962,3.389297-.69574,3.408676-1.03894,6.770096-2.297424,9.658875-4.389832,3.627335-2.62738,6.710419-5.835205,7.539398-10.467896.342712-1.915222.305954-3.948853.110886-5.895508-.195969-1.955261-1.993607-3.325806-4.11264-3.803467-2.613174-.588989-4.974609.246094-7.230042,1.287964-4.995087,2.307373-8.158646,6.304016-10.265991,11.32489-1.133362,2.700256-1.605133,5.505737-2.091125,8.334778-.041061.239014.119385.512634.186218.770142.270142-.074341.630432-.062439.796753-.236145,2.234406-2.333374,4.430008-4.703918,6.663467-7.038208.617233-.645081,1.316559-1.214478,2.008621-1.781494.08313-.068115.35762.097168.543564.154663-3.787247,4.035339-7.574646,8.070312-11.36203,12.105347-.086792-.025635-.173569-.051208-.260376-.076782.256165-1.79071.493164-3.584412.772354-5.371521.661957-4.237244,2.035172-8.227722,4.565231-11.712341,3.096786-4.265137,6.888626-7.610291,12.334091-8.549438,4.983444-.859497,8.492981,2.038452,8.523758,7.067261.033096,5.403687-2.64476,9.481995-6.463211,12.923035-4.169815,3.75769-9.25827,5.610229-14.680374,6.671387-.913574.178772-1.831604.334778-2.919998.246643,1.687546-1.749451,3.375076-3.498901,5.062622-5.248413h.000015l-.000031-.000061Z"/>
      <path class="cls-2" d="M58.263643,56.058618c.618118-.119629,1.233292-.320312,1.854919-.342773,1.506149-.054504,3.041931.149658,4.516724-.073914,1.986404-.301147,3.959396-.802551,5.87825-1.407837,2.187729-.690063,3.67099-2.332825,4.763153-4.273438,1.050552-1.86676.446823-4.84375-.991257-6.439575-2.585175-2.868652-5.954178-3.96344-9.609253-4.529663-5.206833-.806641-10.074066.321899-14.733475,2.569214-1.701096.820435-3.33078,1.788879-4.993042,2.689819.027481.126282.054977.252563.082474.378845,1.064407,0,2.129288.020691,3.193115-.004089,2.654358-.061768,5.30806-.161133,7.962631-.189026.233109-.002441.470581.409119.705795.628357-.543594.000854-1.08696.00177-1.630402.002747-.783066,0-1.566101-.000061-2.349106-.000122-3.504623.108154-7.009216.216309-10.858597.335144,1.342255-.925964,2.364883-1.781921,3.515884-2.398254,4.057724-2.172913,8.15477-4.24054,12.825546-4.845703,5.024857-.651062,9.770782-.042114,14.05127,2.835327.897461.603271,1.750168,1.347534,2.432861,2.182556,2.560852,3.132385,2.104309,6.907532-.906097,9.611328-2.417282,2.171082-5.282303,3.222229-8.39595,3.547791-2.122574.221985-4.289566.031677-6.436234-.003418-.294479-.004822-.586227-.17804-.879227-.273315h.000015Z"/>
      <path class="cls-2" d="M61.823488,47.175928c-.159714.253723-.26889.65625-.489365.731079-.50592.171692-1.06572.246887-1.604309.250061-3.566666.020874-7.133911-.019226-10.700089.027527-1.629761.021362-3.257507.195007-5.280548.32489.635132.576599,1.01506,1.033936,1.492874,1.337158,3.270309,2.0755,6.626343,3.983093,10.352509,5.153198.394089.123779.719833.465027,1.077209.705383-3.530228-.550171-6.670929-2.080139-9.662766-3.932007-1.706375-1.056213-3.328659-2.248535-4.981247-3.390564-.175034-.120972-.299011-.315796-.63063-.676331,1.32547-.07489,2.427094-.173706,3.530121-.193176,4.812439-.085144,9.625336-.143311,14.437912-.221436.819855-.013306,1.638901-.075928,2.458313-.115723l.000015-.000061Z"/>
      <path class="cls-2" d="M12.464403,52.178064c.20578-.312256.411575-.624512.61734-.936768.178497.188843.356964.377686.535309.566406-.384308.123352-.768478.246826-1.152649.370361Z"/>
      <path class="cls-4" d="M52.914186,45.067163c.783005.000061,1.56604.000122,2.349106.000122-.78299-.000061-1.566055-.000061-2.349106-.000122Z"/>
      <path class="cls-4" d="M38.407564,81.536462c.668518.053467,1.337021.106934,2.005447.160217-.668549-.053528-1.33699-.106873-2.005447-.160217Z"/>
      <path class="cls-4" d="M42.827165,81.696802c.627075-.041748,1.254135-.083435,1.881363-.125122-.627014.041748-1.254196.083435-1.881363.125122Z"/>
      <path class="cls-2" d="M35.179933,34.001733c-.045074-.283752-.090134-.567444-.135117-.850647.04509.283936.090088.567261.135117.850647Z"/>
      <path class="cls-2" d="M38.640016,70.840051c.206558-.027771.413116-.055542.61937-.083252-.20665.027832-.41301.055542-.61937.083252Z"/>
      <path class="cls-4" d="M36.718538,81.312463c.204926.033508.409866.067078.614487.10022-.205017-.033691-.40976-.066956-.614487-.10022Z"/>
      <path class="cls-4" d="M35.47896,81.100366c.147003.022949.294037.045837.440765.06842-.147095-.023071-.293945-.045715-.440765-.06842Z"/>
      <path class="cls-3" d="M23.032701,65.09762c-.021179.059631-.042358.119263-.063522.178955-.02536-.043579-.050705-.087158-.07605-.130737.051895-.009949.103806-.019897.155746-.029724.000061.000122-.016159-.018494-.016174-.018494Z"/>
      <path class="cls-2" d="M13.961519,51.940332c.039444.042053.081268.081604.125153.118103-.083847.004639-.125443-.034546-.125153-.118103Z"/>
      <path class="cls-2" d="M14.181017,52.173914c.045197.075684.090378.151306.135406.226746-.045242-.075745-.090332-.151245-.135406-.226746Z"/>
    </g>
  </g>
</svg>