<?xml version="1.0" encoding="UTF-8"?>
<svg id="Layer_2" xmlns="http://www.w3.org/2000/svg" viewBox="0 0 80.553 120.623316">
  <defs>
    <style>
      .cls-1 {
        fill: #f09d50;
      }

      .cls-2 {
        fill: #232221;
      }

      .cls-3 {
        fill: #f9f8f8;
      }

      .cls-4 {
        fill: #b2b4b0;
      }

      .cls-5 {
        fill: #444648;
      }

      .cls-6 {
        fill: #3d3c3c;
      }
    </style>
  </defs>
  <g id="Layer_1-2" data-name="Layer_1">
    <g>
      <path class="cls-2" d="M30.741409,37.785737c0,5.969666-.17688,11.94632.059265,17.906647.171021,4.315277-.950836,8.031891-3.463837,11.479919-1.767029,2.424469-3.33551,4.993774-4.983032,7.50473-.839874,1.279938-1.325684,2.644012-1.303711,4.225769.141235,10.174713.235504,20.350098.352295,30.525208.003296.292084-.021362.688354.146851.858612,1.564911,1.583527,1.578003,3.669037,1.879639,5.654999.168854,1.112061.247742,2.237579.373993,3.356262.082947.73468-.201294,1.169861-.973236,1.185669-2.816925.057648-5.634094.145233-8.450989.139496-1.12149-.002258-1.433502-.456848-1.295227-1.610535.245605-2.049103.471222-4.104034.82959-6.134583.144226-.816986.632324-1.570099.931366-2.364563.127167-.337616.245331-.707672.241089-1.061432-.119629-9.987244-.279572-19.974121-.366241-29.961609-.015533-1.786041-.59259-3.321747-1.554443-4.730743-1.777466-2.603943-3.574768-5.197906-5.463165-7.721741-2.228577-2.978424-3.457977-6.177094-3.481262-9.99054-.078003-12.765656-.345947-25.530182-.539825-38.295135-.007965-.525574-.048798-1.056122.006256-1.575836.07608-.718781-.057678-1.096771-.876923-1.360199C.798996,15.169465-.397446,12.690461.120773,10.574678c.500458-2.043549,2.430359-3.31131,4.610565-3.061218,7.691528.882233,15.37265.736938,23.04248-.266815,1.277771-.167206,2.531403-.316223,3.707031.451141,1.413879.922943,2.145264,2.210327,2.058289,3.878967-.086365,1.655365-.888489,2.975311-2.396912,3.676544-.82605.384003-1.03476.818237-1.014069,1.696777.16391,6.944366.265839,13.890198.386871,20.835541l.226562.000183h-.000061l-.000122-.000061ZM28.302108,15.8891c-.492218.024078-.821869.051208-1.151794.054504-1.643677.016418-1.526306-.071442-1.498627,1.664337.106934,6.718994.210876,13.438049.283813,20.15744.01059.974121-.062103,1.874908.617493,2.741577.915863,1.167999.800568,2.284973.049133,3.542908-.301758.505188-.511292,1.153168-.511353,1.736206-.00058,3.79129.107941,7.582642.096191,11.373749-.005249,1.699097-.022614,3.473145-.975189,4.959351-2.00177,3.123199-4.008606,6.252625-6.207123,9.236908-1.312134,1.781097-1.430054,1.830048-2.798004-.002808-1.866516-2.500977-3.629608-5.078766-5.461456-7.605988-1.049683-1.448151-1.889679-2.975067-1.916351-4.81131-.060028-4.129089-.06366-8.259277-.160248-12.38736-.015137-.64856-.266998-1.37619-.633148-1.915588-.989716-1.457855-1.027496-2.960052-.065033-4.395966.305298-.455475.52832-1.073608.521667-1.613983-.0849-6.869141-.231781-13.737457-.330322-20.606445-.024323-1.695465.027771-1.663177-1.664459-1.740875-.77536-.035583-1.042816.165314-1.027618.992828.255402,13.962921.488861,27.9263.699921,41.889954.024139,1.598541.429047,3.058411,1.320953,4.349304,2.151123,3.113281,4.43454,6.137909,6.511627,9.298706,1.357269,2.065338,2.598969,4.167664,2.594543,6.872406-.01532,9.384796.144104,18.769836.228546,28.154816.021606,2.407013.007233,2.407898,2.444733,2.282257.063446-.003235.123688-.070374.29541-.174347,0-.638489.008545-1.342682-.001312-2.04657-.132538-9.421844-.247314-18.844025-.416351-28.265228-.042053-2.346191.445343-4.44928,1.842377-6.393677,2.007507-2.794098,3.859283-5.69928,5.816406-8.530212,1.631256-2.359619,2.109558-4.956451,2.056732-7.790192-.235718-12.648895-.383209-25.299408-.559326-37.949402-.013489-.968597-.00174-1.937531-.00174-3.077209l-.000031-.000061-.000061-.000031ZM9.987075,27.673829c.115082.000061-.02948,1.332092.085602,1.332153,0,3.452545.022888,5.49118.251129,9.025604.045166.699402.081024,1.101562.969543,1.075165,3.790924-.112762,7.584412-.204224,11.376373-.186981,1.213379.005524,1.520325-.385651,1.497528-1.540436-.134247-6.790863-.213135-13.582855-.281799-20.374756-.007477-.739777-.310638-.850159-.958252-.833099-3.978546.104767-7.958038.186523-11.937592.239044-.750946.009918-1.038483.186096-1.025208,1.020752.05426,3.413452.022675,6.828247.022675,10.242554l.000031-.000031-.000031.000031ZM17.692276,70.214113c2.177948-3.292175,4.277283-6.390411,6.274933-9.552795.370697-.586853.462097-1.432495.460175-2.158081-.01062-4.012085-.088745-8.024048-.150391-12.03598-.002716-.174713-.070801-.348419-.085724-.417603-4.390137,0-8.69812.00824-13.006012-.007782-.757416-.002808-.709473.455048-.698578.970917.057892,2.736969.273834,5.484497.109253,8.208679-.206482,3.416321.497345,6.370605,2.821167,9.006714,1.548798,1.756897,2.749664,3.820099,4.275085,5.985962h.000031l.000061-.000031ZM13.203628,14.138612c-.000183-.002228-.000397-.004456-.00061-.006683,4.236938,0,8.474365.035828,12.71048-.020538,1.373108-.01828,2.764404-.176025,4.107819-.458221,1.147766-.241119,1.828552-1.488892,1.651306-2.598358-.201477-1.260895-.988647-1.955292-2.362579-1.882721-2.051422.108398-4.094818.373474-6.146393.474152-3.439514.168823-6.882751.353912-10.324524.355804-2.839661.001556-5.678497-.278839-8.519592-.382416-1.672211-.060944-2.371338.605865-2.387482,2.116699-.015106,1.416718.907715,2.380707,2.394409,2.394257,2.958893.027008,5.918152.007996,8.877228.007996l-.000061.000031ZM17.218582,44.329103c-.000031-.074524-.000031-.149048-.000122-.223541,2.103119,0,4.206299.010254,6.309326-.003906,1.231445-.008301,1.912567-.705048,1.876526-1.867432-.033295-1.077271-.661652-1.642609-1.84787-1.628876-.750732.008698-1.500854.070374-2.251617.079437-3.45575.041809-6.912048.056244-10.367401.117554-1.339661.023773-2.096893.708313-2.058136,1.728424.041351,1.084686.876495,1.792969,2.142395,1.796692,2.065613.006073,4.131226.001617,6.196838.001617l.000031.000031h.000031ZM21.895095,118.677247c-.261444-1.597046-.437225-2.989807-.72702-4.358398-.340912-1.609894-1.107605-2.183594-2.694092-2.182343-.636536.000488-1.276855-.037537-1.907654.022858-.227753.02182-.595612.255188-.62326.434479-.271057,1.761871-.512024,3.53006-.67981,5.304199-.022461.237854.400513.737396.62912.74472,1.900208.060852,3.803131.034485,6.002655.034485h.000061Z"/>
      <path class="cls-2" d="M47.877456,65.668855c-1.422424-3.349792-2.913635-6.670349-4.33374-10.021088-.677002-1.597382-.731201-3.268494-.433105-4.978546,2.378174-13.645752,4.730896-27.295959,7.122681-40.939331.140869-.803925.081116-1.241669-.712646-1.702728-1.864319-1.082855-2.479858-3.49823-1.572937-5.54483.893616-2.01651,2.841553-2.919556,5.030273-2.2789,7.710327,2.256836,15.5625,3.672638,23.595581,4.056458,2.150696.102753,3.794739,1.746368,3.963867,3.881409.179993,2.271912-1.217102,4.269623-3.33252,4.668945-.578979.109283-.80072.327148-.900513.91452-2.131836,12.545654-4.286621,25.087402-6.440063,37.629425-.254028,1.479614-.514954,2.958191-.791199,4.433807-.492371,2.629974-2.07196,4.624939-3.855408,6.487091-2.544678,2.656891-5.159485,5.249146-7.632019,7.970917-.718933.791443-1.331665,1.880005-1.5224,2.918701-1.790039,9.74707-3.480896,19.51239-5.191284,29.274017-.20752,1.184601-.124817,2.301941.070862,3.545837.424805,2.700226.162842,5.51416.105347,8.280029-.013245.637482-.553467.965027-1.22644.840454-2.769409-.512573-5.539185-1.02475-8.30365-1.563232-.980164-.190857-1.312439-.874603-1.011292-1.769806.729309-2.16803,1.118286-4.598907,2.389038-6.398834,1.584778-2.244781,1.780701-4.688019,2.227783-7.134247,1.552368-8.493591,3.027405-17.001312,4.525757-25.5047.084473-.479034.113464-.967773.168274-1.452057.082336-.037231-1.169128-3.797241-1.940308-5.613281l.000061-.000031ZM52.210098,9.11255c-.072327.157318-.142517.252991-.160645.357697-2.335266,13.456238-4.645996,26.916809-7.016418,40.366821-.454102,2.576691-.219238,4.982361.936035,7.333923,1.108704,2.256714,2.064514,4.589813,3.210083,6.826691,1.897583,3.705597,2.747253,7.383087,1.840637,11.676605-1.812866,8.586365-3.12384,17.278809-4.632385,25.929108-.407288,2.335419-.391296,2.339081,1.94812,2.643311.062805.008209.134094-.049103.258545-.098572.047729-.178284.120789-.387848.159241-.603546,1.763733-9.900574,3.540833-19.798859,5.270447-29.705414.312439-1.789673.888977-3.432526,2.138245-4.750671,2.452454-2.587585,4.897888-5.187805,7.466064-7.658295,2.232361-2.147339,3.497437-4.643097,4.005859-7.713165,1.931213-11.661041,3.996704-23.299805,6.008118-34.947571.336121-1.946899.652771-3.897186.991455-5.923523-.701782-.085876-1.293457-.134338-1.875854-.236023-.627563-.109558-.846252.137329-.951904.75351-1.236145,7.211792-2.507263,14.417633-3.741028,21.629852-.077393.452454-.013672.979614.145874,1.412537.524292,1.422394.389221,2.699768-.540771,3.924805-.325134.428253-.599792.962646-.696045,1.485657-.678955,3.689087-1.302307,7.388397-1.950378,11.083221-.352356,2.009186-.789673,3.964355-2.328796,5.496368-2.474854,2.46344-4.882568,4.99411-7.344727,7.47052-1.276917,1.284241-1.654907,1.259064-2.44281-.347595-1.734741-3.536987-3.453369-7.085907-5.018311-10.699249-.420166-.970154-.491333-2.223328-.332458-3.288452.614136-4.118622,1.40802-8.210236,2.074158-12.321747.093811-.578613-.03241-1.259338-.258179-1.810364-.625183-1.525757-.312195-3.176819.852478-4.358337.334351-.339203.612427-.840332.693787-1.30603,1.168213-6.690552,2.286072-13.389862,3.444092-20.082214.4104-2.371704.444763-2.365753-2.152527-2.539734l-.000061-.000031.000061-.000092ZM70.209671,12.339692c-.524841-.090912-.885254-.154541-1.246155-.215668-3.738892-.633362-7.485901-1.223907-11.211487-1.927856-.987915-.186676-1.31958.009613-1.47699.996918-.690979,4.335266-1.453308,8.65918-2.188721,12.987396-.450684,2.652344-.899353,5.305023-1.365662,8.056061,4.549866.834167,8.987915,1.647858,13.578308,2.489441,1.314453-7.524719,2.598328-14.873962,3.910583-22.386292v.000031l.000122-.000031ZM65.183731,41.651185c-4.438049-.78775-8.686096-1.532776-12.929382-2.304443-.663452-.120667-.858215.161469-.954041.744263-.62677,3.812225-1.297607,7.617401-1.893799,11.434265-.118591.758606-.203003,1.655212.083679,2.322083,1.505981,3.50351,3.136108,6.953705,4.656006,10.275574,2.499146-2.390991,4.988892-4.663574,7.329468-7.080536.679565-.701752,1.098511-1.774597,1.344971-2.750977.494629-1.960083.796387-3.969391,1.162537-5.961151.405029-2.202911.793213-4.408936,1.200439-6.679077h.000122ZM75.864944,11.046602c.003052-.021942.006104-.043854.009155-.065796.225281,0,.453369.022858.675415-.003876,1.145142-.137848,2.082458-1.31488,2.050842-2.559875-.031311-1.237152-.796082-2.082123-1.973694-2.181-1.748901-.146881-3.515625-.183746-5.242981-.46347-3.704041-.599915-7.485962-.639893-11.12677-1.731659-2.643494-.792725-5.35675-1.365448-8.060425-1.934692-.535217-.112732-1.26178.094208-1.735229.404755-.850342.557709-1.131775,1.482605-.888672,2.479431.296753,1.216583,1.220886,1.713562,2.371948,1.931183,4.691467.887115,9.371521,1.838501,14.073853,2.66391,3.266968.573425,6.563354.97998,9.846497,1.46106h.000061v.000031ZM64.77034,39.784456c1.328735.106842,1.811768-.47995,2.019653-1.312225.22406-.896759.015564-1.693878-.969543-1.98587-.85907-.254669-1.752686-.399933-2.636902-.56189-3.435425-.629364-6.874451-1.239655-10.309326-1.871887-.927795-.170746-1.676697.043335-2.02533.965515-.341003.902252-.115662,1.730438.696411,2.28302.322876.219696.766907.291016,1.167847.362061,3.135254.555481,6.273621,1.092407,9.410339,1.63974.998047.174164,1.993652.362366,2.646912.481506l-.000061.000031ZM49.191177,113.016237c.10553-1.398315.278442-2.72641.290894-4.056.026062-2.774353.39917-2.501587-2.621643-2.912384-.712036-.096832-1.640015-.476044-2.087952-.169647-.555115.379791-.755249,1.322296-1.034729,2.050079-.474854,1.236969-.891785,2.496124-1.356079,3.811066,2.356506.441864,4.502869.84433,6.809448,1.276825v.000031l.000061.000031Z"/>
      <path class="cls-4" d="M28.302108,15.8891c0,1.139648-.011719,2.108612.00174,3.077209.176117,12.649994.323669,25.300537.559326,37.949402.052856,2.83374-.425476,5.430573-2.056732,7.790192-1.957153,2.830933-3.808929,5.736145-5.816406,8.530212-1.397003,1.944397-1.88443,4.047485-1.842377,6.393677.169037,9.421204.283813,18.843414.416351,28.265228.009857.703888.001312,1.408051.001312,2.04657-.171753.103973-.231964.171112-.29541.174347-2.4375.125671-2.423096.124756-2.444733-2.282257-.084442-9.38501-.243866-18.77005-.228546-28.154816.004425-2.704712-1.237244-4.807037-2.594543-6.872406-2.077087-3.160797-4.360504-6.185425-6.511627-9.298706-.891937-1.290894-1.296753-2.750732-1.320953-4.349304-.21109-13.963654-.444519-27.927002-.699921-41.889954-.015198-.827515.252258-1.028442,1.027618-.992828,1.692291.077667,1.640137.04541,1.664459,1.740875.098541,6.868988.245422,13.737335.330322,20.606476.006653.540405-.21637,1.158539-.521667,1.613983-.962524,1.435883-.924744,2.93808.065033,4.395966.36615.539398.618011,1.267029.633148,1.915588.096527,4.128082.100159,8.25827.160248,12.38736.026703,1.836243.866699,3.363159,1.916351,4.81131,1.831879,2.527222,3.59491,5.105011,5.461456,7.605988,1.36795,1.832886,1.48584,1.783936,2.798004.002808,2.198486-2.984283,4.205353-6.113708,6.207123-9.236908.952576-1.486206.970001-3.260284.975189-4.959351.01178-3.791138-.09671-7.582489-.096191-11.373749.000031-.583069.209595-1.231018.511353-1.736206.751373-1.257935.86673-2.374878-.049133-3.542908-.679596-.866669-.606903-1.767426-.617493-2.741577-.072937-6.719391-.176849-13.438446-.283813-20.15744-.02771-1.735809-.14505-1.647919,1.498627-1.664337.329926-.003296.659576-.030426,1.151794-.054504l.000031.000061h.000061Z"/>
      <path class="cls-3" d="M9.987075,27.673829c0-3.414307.031586-6.829102-.022675-10.242554-.013245-.834656.274231-1.010834,1.025208-1.020752,3.979553-.052521,7.959045-.134277,11.937592-.239044.647644-.017029.950775.093323.958252.833099.068665,6.791931.147491,13.583954.281799,20.374756.022797,1.154755-.284149,1.545929-1.497528,1.540436-3.791992-.017273-7.585449.074219-11.376373.186981-.888519.026398-.97345-.374329-.969543-1.075165.018982-3.452423.008606-6.905029.008606-10.357574-.115082-.000061-.230255-.000122-.345337-.000183h-.000031.000031Z"/>
      <path class="cls-3" d="M17.692276,70.214113c-1.525452-2.165863-2.726257-4.229065-4.275085-5.985962-2.323853-2.636108-3.027649-5.590393-2.821167-9.006714.164581-2.724182-.051361-5.471741-.109253-8.208679-.010895-.515869-.058838-.973724.698578-.970917,4.307831.016052,8.615875.007782,13.006012.007782.014923.069214.083008.24292.085724.417603.061646,4.011932.139771,8.023865.150391,12.03598.001923.725586-.089447,1.571259-.460175,2.158081-1.99765,3.162384-4.097015,6.26062-6.274933,9.552795h-.000031l-.000061.000031Z"/>
      <path class="cls-5" d="M13.203628,14.138612c-2.959045,0-5.918335.018982-8.877228-.007996-1.486664-.01355-2.409485-.97757-2.394409-2.394257.016144-1.510834.715302-2.177673,2.387482-2.116699,2.841095.103577,5.679932.383972,8.519592.382416,3.441803-.001892,6.88501-.186981,10.324524-.355804,2.051514-.100677,4.09494-.365753,6.146393-.474152,1.373932-.072601,2.161163.621826,2.362579,1.882721.177307,1.109497-.503479,2.357239-1.651276,2.598358-1.343414.282196-2.73468.439941-4.107819.458221-4.236115.056366-8.473541.020538-12.71048.020538.000214.002228.000427.004456.00061.006683l.000031-.000031Z"/>
      <path class="cls-1" d="M17.218582,44.329103c-2.065613,0-4.131226.004456-6.196838-.001617-1.265961-.003754-2.101105-.712006-2.142395-1.796692-.038757-1.020142.718475-1.704651,2.058136-1.728424,3.455353-.06131,6.911652-.075745,10.367401-.117554.750824-.009094,1.500885-.07074,2.251617-.079437,1.186249-.013733,1.814575.551605,1.84787,1.628876.036011,1.162354-.645111,1.8591-1.876526,1.867432-2.103058.01416-4.206238.003906-6.309326.003906.000031.074524.000031.149048.000122.223541l-.000031-.000031h-.000031Z"/>
      <path class="cls-6" d="M21.895095,118.677247c-2.199493,0-4.102448.026337-6.002655-.034485-.228668-.007355-.651611-.506897-.62912-.74472.167755-1.774139.408691-3.542328.67981-5.304199.027618-.179291.395477-.412659.62326-.434479.630798-.060394,1.271118-.022369,1.907654-.022858,1.586487-.001251,2.35318.572479,2.694092,2.182343.289795,1.368591.465576,2.761353.72702,4.358398h-.000061Z"/>
      <path class="cls-4" d="M52.210098,9.11255c2.59729.174011,2.562927.16806,2.152527,2.539734-1.15802,6.692352-2.275879,13.391663-3.444092,20.082214-.08136.465668-.359436.966827-.693787,1.30603-1.164734,1.181549-1.477722,2.832611-.852478,4.358337.225769.551025.352051,1.23175.258179,1.810364-.666138,4.111511-1.459961,8.203125-2.074158,12.321747-.158813,1.065125-.087708,2.318298.332458,3.288452,1.564941,3.613312,3.283508,7.162262,5.018311,10.699249.787964,1.606659,1.165955,1.631836,2.44281.347595,2.462158-2.47641,4.869934-5.00708,7.344727-7.47052,1.539124-1.532013,1.976501-3.487183,2.328796-5.496368.648071-3.694824,1.271362-7.394135,1.950378-11.083221.096252-.52298.370911-1.057373.696045-1.485657.929932-1.225037,1.065063-2.502411.540771-3.924805-.159607-.432892-.223267-.960083-.145874-1.412537,1.233704-7.212219,2.504822-14.41806,3.741028-21.629852.105652-.61618.324341-.863098.951904-.75351.582397.101685,1.174072.150146,1.875854.236023-.338684,2.026337-.655273,3.976624-.991455,5.923523-2.011353,11.647766-4.076904,23.28656-6.008118,34.947571-.508423,3.070099-1.773499,5.565857-4.005859,7.713165-2.568176,2.47052-5.01355,5.070709-7.466064,7.658295-1.249268,1.318176-1.825806,2.960999-2.138245,4.750671-1.729614,9.906525-3.506714,19.80481-5.270447,29.705414-.038452.215729-.111511.425293-.159241.603546-.124451.049438-.19574.106781-.258545.098572-2.339417-.30423-2.355347-.307892-1.94812-2.643311,1.508545-8.650299,2.819519-17.342743,4.632385-25.929108.906616-4.293518.056946-7.971039-1.840637-11.676605-1.145569-2.236847-2.101379-4.569977-3.210083-6.826691-1.155273-2.351562-1.390137-4.757233-.936035-7.333923,2.370422-13.450012,4.681152-26.910614,7.016418-40.366821.018188-.104675.088318-.200348.160645-.357697l.000061.000031-.000061.000092Z"/>
      <path class="cls-3" d="M70.209671,12.339692c-1.312317,7.512329-2.59613,14.861572-3.910583,22.386292-4.590454-.841583-9.028442-1.655273-13.578308-2.489441.466248-2.751068.914978-5.403748,1.365662-8.056061.735474-4.328217,1.497681-8.65213,2.188721-12.987396.15741-.987305.489075-1.183563,1.47699-.996918,3.725586.703949,7.472534,1.294495,11.211487,1.927856.360901.061127.721252.124756,1.246155.215668v-.000031l-.000122.000031Z"/>
      <path class="cls-3" d="M65.183731,41.651185c-.407227,2.270111-.79541,4.476166-1.200439,6.679077-.366211,1.99176-.667969,4.001068-1.162537,5.961151-.24646.976349-.665466,2.049194-1.344971,2.750977-2.340576,2.416931-4.830322,4.689514-7.329468,7.080536-1.519897-3.321869-3.149963-6.772064-4.656006-10.275574-.286743-.666901-.202271-1.563477-.083679-2.322083.596191-3.816864,1.267029-7.62204,1.893799-11.434265.095825-.582764.290649-.864899.954041-.744263,4.243286.771698,8.491333,1.516724,12.929382,2.304443h-.000122Z"/>
      <path class="cls-5" d="M75.864944,11.046602c-3.283203-.48111-6.57959-.887634-9.846497-1.46106-4.702271-.825378-9.382324-1.776764-14.073853-2.66391-1.151062-.217682-2.075195-.7146-2.371948-1.931183-.243103-.996826.03833-1.921722.888672-2.479431.473511-.310547,1.200012-.517487,1.735229-.404755,2.703613.569244,5.416931,1.141968,8.060425,1.934692,3.640747,1.091766,7.422729,1.131744,11.12677,1.731659,1.727356.279755,3.49408.316589,5.242981.46347,1.177673.098907,1.942383.943848,1.973694,2.181.031616,1.244995-.905701,2.422058-2.050842,2.559875-.222107.026733-.450195.003876-.675415.003876-.002991.021942-.006042.043854-.009155.065796h-.000061v-.000031Z"/>
      <path class="cls-1" d="M64.77034,39.784456c-.653198-.119141-1.648804-.307343-2.646912-.481506-3.136658-.547363-6.275085-1.08432-9.410339-1.63974-.400879-.071045-.84491-.142365-1.167847-.362061-.812134-.552582-1.037415-1.380768-.696411-2.28302.348633-.92215,1.097595-1.136261,2.02533-.965515,3.434875.632233,6.873901,1.242523,10.309326,1.871887.884216.161957,1.777832.30722,2.636902.56189.985107.291992,1.193604,1.089111.969543,1.98587-.207886.832245-.690979,1.419067-2.019653,1.312225l.000061-.000031Z"/>
      <path class="cls-5" d="M49.191177,113.016237c-2.306641-.432495-4.453003-.834961-6.809448-1.276825.464233-1.314941.881226-2.574097,1.356079-3.811096.27948-.727814.479614-1.670288,1.034729-2.050079.447876-.306427,1.375854.072815,2.087952.169647,3.020874.410767,2.647705.138,2.621643,2.912384-.012451,1.32959-.185425,2.657623-.290894,4.056v-.000031h-.000061Z"/>
    </g>
  </g>
</svg>