<?xml version="1.0" encoding="UTF-8"?>
<svg id="Layer_2" xmlns="http://www.w3.org/2000/svg" viewBox="0 0 77.404384 73.537826">
  <defs>
    <style>
      .cls-1 {
        fill: #ee96bf;
      }

      .cls-2 {
        fill: #1c1a19;
      }
    </style>
  </defs>
  <g id="Layer_1-2" data-name="Layer_1">
    <g>
      <path class="cls-2" d="M38.726464,12.266013c1.182281-1.699707,2.168121-3.45636,3.470551-4.934143,8.230957-9.339294,21.508179-9.673096,29.845673-1.334106,2.892609,2.893127,4.684296,6.497986,5.035583,10.51886.369659,4.231323.462616,8.544739.081848,12.768677-.453827,5.034302-2.785126,9.509705-5.516571,13.72229-5.214233,8.041687-11.928131,14.716003-19.297394,20.740356-3.937134,3.218628-8.104156,6.155701-12.15509,9.236023-.969818.737427-1.771362.739685-2.834381-.000488-10.241089-7.13031-19.729095-15.092712-27.610474-24.832336-4.209442-5.201904-7.664154-10.859741-8.925903-17.525818-1.094269-5.781128-1.248779-11.658203.498077-17.343323C4.354119,3.402366,15.600609-2.268533,25.485192.86373c5.918121,1.875366,10.241669,5.58136,13.019806,11.11554.050293.100159.138702.181213.221497.286621h0l-.000031.000122ZM74.604027,21.075827c-.041199-5.165344-1.176758-8.93573-2.982727-11.405273-6.251953-8.54895-18.754028-9.416382-26.18811-1.857239-2.179047,2.215698-3.763306,4.78064-5.065094,7.573425-.29541.633728-.894928,1.386047-1.501648,1.55481-.963196.267883-1.150604-.799377-1.525482-1.463623-.941589-1.668396-1.786591-3.409119-2.889557-4.965576-4.076324-5.751953-9.627777-8.445679-16.71286-7.66571-6.936584.763611-12.318756,5.478638-14.085724,12.212219-1.414276,5.389832-.356598,10.499023,1.781525,15.457336,2.376648,5.511536,6.150665,10.042297,10.161133,14.437805,6.8302,7.485901,14.910461,13.503662,22.799255,19.75238.175201.138794.67868.087097.882935-.067993,3.024902-2.296692,6.068085-4.572632,9.022797-6.957703,7.86087-6.34552,15.266052-13.158386,20.913116-21.629639,3.317749-4.976929,5.384949-10.426453,5.390411-14.97522h.000031Z"/>
      <path class="cls-1" d="M74.604027,21.075827c-.005493,4.548706-2.072662,9.99823-5.390411,14.97522-5.647064,8.471252-13.052246,15.284058-20.913116,21.629639-2.954712,2.385071-5.997894,4.661072-9.022797,6.957703-.204254.15509-.707764.206787-.882935.067993-7.888794-6.248718-15.969025-12.266479-22.799255-19.75238-4.010498-4.395508-7.784485-8.92627-10.161133-14.437805-2.138153-4.958313-3.195831-10.067505-1.781555-15.457336,1.766937-6.733582,7.149139-11.448608,14.085724-12.212219,7.085022-.779968,12.636505,1.913757,16.71286,7.66571,1.103027,1.556458,1.947968,3.297119,2.889557,4.965576.374939.664307.562286,1.731567,1.525482,1.463623.60672-.168701,1.206207-.921082,1.501648-1.55481,1.301788-2.792725,2.886047-5.357727,5.065094-7.573425,7.434082-7.559143,19.936096-6.691711,26.18811,1.857239,1.805969,2.469543,2.941528,6.239929,2.982727,11.405273h-.000031.000031Z"/>
    </g>
  </g>
</svg>