<?xml version="1.0" encoding="UTF-8"?>
<svg id="Layer_2" xmlns="http://www.w3.org/2000/svg" viewBox="0 0 109.026047 88.520179">
  <defs>
    <style>
      .cls-1 {
        fill: #232221;
      }

      .cls-2 {
        fill: #a15d95;
      }

      .cls-3 {
        fill: #444648;
      }

      .cls-4 {
        fill: #3d3c3c;
      }
    </style>
  </defs>
  <g id="Layer_1-2" data-name="Layer_1">
    <g>
      <path class="cls-1" d="M88.659327,9.694464c-2.042175-.053772-3.108765-1.005333-2.951416-2.447479.174805-1.601837,2.044922-2.976875,3.714478-2.731071,1.536316.226181,2.128052,1.252296,1.718994,3.310852,1.269836-.897308,2.391357-1.689796,3.698547-2.613556-2.168152-.092781-3.215637-.990952-3.063904-2.392914.183105-1.691582,2.075806-3.044258,3.902893-2.789307,1.482788.206917,2.02002,1.208946,1.625977,3.353416.770874-.605164,1.440491-1.061226,2.024109-1.608719.569336-.534081,1.114502-.583626,1.706299-.129913,1.697266,1.301414,3.399597,2.597641,5.061707,3.942886.395142.319778.782715.77861.932068,1.249947.723816,2.286133,1.420837,4.5849,1.984009,6.913811.09845.40744-.383545,1.100578-.783386,1.448036-.574158.498901-1.318909.801567-2.057007,1.226028,2.11853.610214,2.817871,1.51046,2.412903,2.997818-.435486,1.59938-2.361084,2.782875-3.958008,2.432678-1.318542-.289154-1.825623-1.521545-1.432739-3.704002-1.287842.778557-2.48822,1.504204-3.674683,2.221481.720764.371239,1.621338.566315,2.028809,1.122292.390015.532143.505066,1.504013.32373,2.168953-.451538,1.65567-2.406494,2.587204-3.963318,2.077568-1.363831-.446457-1.789001-1.621948-1.275757-3.509636-.946289.347649-1.892883.711693-2.852722,1.036652-.23938.081055-.547302.113739-.779846.036591-1.726257-.572723-2.878418.473213-4.128479,1.361366-4.223511,3.000687-8.471375,5.967072-12.712585,8.942841-3.902527,2.738113-7.808838,5.470825-11.711182,8.209137-.147278.103348-.270752.24057-.457153.408752,1.376892,2.154205,2.127136,4.50618,2.277832,7.002701.466614,7.729141-3.632202,13.030075-11.38031,14.834442-2.403015.559586-4.796906,1.257919-6.431946,3.221008-.988342,1.186539-1.721771,2.61676-2.405731,4.017426-1.134552,2.323273-1.953644,4.81514-3.226776,7.053543-5.411072,9.513504-16.864197,13.697311-27.444427,6.60054-4.750671-3.186539-8.240845-7.507217-11.04715-12.420822-2.216003-3.879944-3.897705-7.942291-4.264496-12.467529-.893372-11.020935,7.055908-19.007126,16.58847-20.164169,2.336945-.283646,4.723785-.133636,7.083038-.264679,1.563812-.086853,3.164368-.143082,4.668945-.525482,2.575317-.654572,4.293854-2.511948,5.703644-4.672485,1.585205-2.429474,3.509491-4.541321,6.173737-5.773499,4.726807-2.186028,9.288879-1.66143,13.569366,1.216553,1.110138.746429,2.034668,1.764145,3.09491,2.592789.23111.180634.781799.243423,1.010956.093811,6.319672-4.125595,12.616547-8.285881,18.917572-12.440048,2.413574-1.591217,4.861633-3.13369,7.218262-4.805138.605713-.429634,1.083191-1.208015,1.336609-1.925934.374939-1.062668.794678-2.006386,1.788513-2.625145.460632-.286835.871887-.652657,1.436646-1.082382l-.000061-.000008h.000061ZM50.11825,40.216261c-.960571-2.154663-1.068756-1.859299.893799-3.098999,1.639771-1.035736,3.231201-2.147934,4.995331-3.327499-.720001-.660248-1.300537-1.229019-1.918579-1.753494-4.412872-3.744354-11.144135-4.244415-15.481659-.267761-1.368011,1.25415-2.533997,2.765778-3.6185,4.283661-2.539001,3.553635-5.927612,5.279846-10.286926,5.195953-2.064819-.039749-4.137909-.08905-6.196106.041412-6.026489.38205-10.89624,2.938065-14.268555,8.022888-2.744568,4.138321-3.146149,8.774582-2.044006,13.435577,2.048065,8.661072,6.835205,15.607697,14.072784,20.796555,8.208923,5.885239,19.295837,3.671127,24.510071-4.973038,1.518799-2.517883,2.609894-5.308228,3.752258-8.034317,1.434814-3.424179,3.614777-6.04538,7.213165-7.266464,1.419464-.481674,2.880066-.844299,4.327606-1.24057,8.524719-2.33371,10.702209-11.65535,6.486084-18.773193-1.531677,1.075745-3.062195,2.142609-4.584076,3.221375-1.420105,1.006546-2.71106.930161-3.872894-.229202-1.030914.724823-2.047363,1.487808-3.11438,2.171936-.65741.421463-.835144.890137-.740723,1.67894.420776,3.513504-.828796,6.401428-3.723114,8.396393-2.960297,2.040527-6.142548,2.201782-9.387878.524338-.300751-.155502-.851318-.123825-1.143738.054169-.959961.584351-1.852875,1.278229-2.7742,1.926346-2.140839,1.506088-4.283203,3.01004-6.493195,4.562759.858429,1.269424,1.595306,2.485977,2.462646,3.601257.677826.871521.427246,1.356049-.390839,1.882034-1.104065.70993-2.186737,1.460602-3.223267,2.265076-.559692.434341-.89093.376083-1.269165-.183212-3.301178-4.881775-6.60968-9.75856-9.926086-14.62999-.406158-.596558-.311462-1.008728.29422-1.39299,1.046143-.663742,2.067719-1.366058,3.097595-2.055161,1.24408-.832458,1.351166-.81105,2.198486.457077.76004,1.137466,1.520966,2.274338,2.259644,3.378799,3.2995-2.163147,6.480591-4.22081,9.616669-6.34491.338623-.22934.590271-.84462.58847-1.279678-.027161-6.62114,6.531525-10.998947,12.605164-8.397552.301788.129257.78006.21315,1.018005.064819,1.365173-.8508,2.682434-1.778229,4.065765-2.713257v-.000015l.000122-.000061ZM89.79806,20.481237c.389282.393631.646973.892685.985596.955345,1.460876.270302,2.905334.596199,4.363831-.280792,3.953552-2.37719,7.970032-4.649719,11.939331-7.001266.210388-.124611.362854-.6343.292297-.897964-.444702-1.662025-.923279-3.31752-1.472778-4.947578-.183716-.545166-.51532-1.11319-.939453-1.491425-1.342407-1.19696-2.741272-2.334328-4.170532-3.426384-.209656-.160172-.789429-.072388-1.05188.110237-1.78595,1.242676-3.534729,2.538643-5.291443,3.822937-2.090637,1.528358-4.182861,3.054726-6.263428,4.596672-1.238647.918007-1.33606,2.285866-1.412842,3.701721,1.053711-.565308,2.025391-1.180046,2.91748-1.894173.266968-.213722.470886-.724869.428406-1.065483-.133606-1.072433.309814-1.750862,1.245117-2.133156.959839-.392319,1.697998-.074081,2.260986.897072.120544.208.229248.422859.539246.997925.465515-.620857.772766-1.095909,1.14502-1.513008.698425-.782562,1.592407-1.358162,1.031311-2.742134-.377502-.931435.357422-1.750587,1.268921-2.104889.854004-.33197,1.53894.151939,2.03717.820839.633057.85006.219788,2.082893-.754578,2.831757-1.538147,1.182129-3.035156,2.420464-4.509827,3.68148-1.677612,1.434692-3.261841,2.982605-4.985413,4.357758-.862671.688225-.73468,1.118561-.011658,1.74736.326294-.18264.615662-.348991.908997-.508049,2.041016-1.10675,4.108948-2.16729,6.116272-3.332092,1.551331-.900253,3.393372-1.340988,4.426208-3.089973.526367-.891335,1.862793-.840919,2.602417-.164894.783569.716232.810059,1.897026.060852,2.716751-.848022.92791-1.745178.985603-2.639099.21653-.222168-.19117-.640259-.444801-.811279-.358589-1.118591.563698-2.194031,1.212898-3.28302,1.833862.86969,1.407661.716309,2.330902-.43512,3.01886-1.038818.620659-1.782654.263474-2.735352-1.381996-1.203857.641777-2.411377,1.285583-3.801575,2.026749h-.000061l-.000122-.000008ZM54.829951,44.132048c11.12973-7.82695,22.118988-15.555176,33.151337-23.313606-.250671-.441154-.444763-.782852-.646484-1.137917-11.176147,7.691833-22.270813,15.327576-33.431763,23.008942.289703.450851.565033.879333.926941,1.442581h-.000031ZM86.142542,17.756056c-11.284912,7.540672-22.504272,15.037491-33.80722,22.590179.413971.542358.649841.85141.922241,1.208282,7.518524-5.151611,14.954498-10.234894,22.377045-15.33786,3.356445-2.307571,6.683777-4.65757,10.030334-6.979599.479431-.332642.914062-.646584.477539-1.480995l.000061-.000008ZM22.686793,62.681379c-.318298-.536865-.522278-1.033051-.866058-1.397537-.17511-.185562-.675415-.276337-.898712-.160202-.450378.234268-.867828.825653-1.293701.117798-.436127-.724899.317047-.922195.742401-1.229904.108826-.078735.230377-.139893.391937-.236588-.772003-1.166763-1.501648-2.269623-2.249054-3.399185-.360626.273346-.620728.48494-.895081.67598-1.014069.70607-1.181763,1.558914-.503204,2.558517,2.484192,3.644867,4.961548,7.294464,7.474487,10.919449.212311.306213.794891.704269.991425.610703.713348-.339584,1.335571-.870422,1.985748-1.324661-.800995-1.190979-1.496948-2.225769-2.244568-3.337296-.307526.334457-.494751.638474-.766846.796997-.168762.098282-.52478.053741-.68924-.069717-.160706-.120667-.305206-.469254-.241364-.634872.099854-.258987.371002-.45871.587372-.664948.798248-.760941-.100769-1.198044-.361084-1.718307-.293793-.587128-.668915-.273712-1.104858-.035492-.278687.152252-.738037-.02562-1.116364-.055481.141541-.342255.255005-.700623.437622-1.019363.080658-.140671.30188-.200897.61908-.39592h.000031l.000031.000031ZM38.142969,57.504804c2.842163,1.808151,5.814667.76857,7.818451-.783081,2.019928-1.564178,2.918335-3.741653,2.654053-6.576141-3.589355,2.522339-6.991455,4.913055-10.472504,7.359222ZM35.471186,55.444136c.622406.583862,1.069489,1.003326,1.456268,1.366119,3.850494-2.704178,7.579529-5.323044,11.289215-7.928329-.57959-1.771637-.735077-1.798813-2.188232-.770416-2.045837,1.447815-4.128998,2.842697-6.189758,4.269653-1.40625.973816-2.801331,1.963715-4.367523,3.062958l.000031.000015ZM24.180262,61.832502c2.972382-2.084259,5.802429-4.054291,8.607544-6.059235.266479-.190445.563538-.629776.519379-.900299-.085114-.521576-.403931-1.005066-.656006-1.572174-3.315155,2.209396-6.544128,4.361282-9.855103,6.567902.52063.738556.944397,1.339844,1.384186,1.963806h-.000031.000031ZM46.432429,46.335035c-.562256-1.241226-1.101746-1.507751-1.858002-.992935-3.088257,2.102234-6.175049,4.206467-9.264771,6.306503-1.251099.850296-1.296722,1.204315-.229553,2.52919,3.785431-2.615158,7.576782-5.234467,11.352325-7.842758ZM26.183893,64.528303c3.103424-2.189316,6.17337-4.354996,9.313049-6.569855-.521576-.612946-.97052-1.140503-1.482422-1.742035-2.642578,1.879807-5.197784,3.704773-7.761169,5.518082-1.553619,1.099014-1.559662,1.091171-.346466,2.557892.0466.056396.112366.097.277008.235901v.000015ZM55.646998,45.140211c.988953.286285,32.928955-22.267677,33.116455-23.346779-11.038818,7.782265-22.077637,15.564522-33.116455,23.346779ZM34.472407,50.698332c3.206879-2.180237,6.338257-4.309189,9.601562-6.527817-5.259918-1.028137-10.5289,2.62352-9.601562,6.527817ZM83.424891,18.208883c-1.57666.206291-31.605133,20.265526-31.9133,21.175285,10.74588-7.130173,21.32962-14.152733,31.9133-21.175285ZM49.791071,47.873884c1.264435-.891068,2.473114-1.742874,3.767303-2.654922-.41745-.593781-.788696-1.12178-1.195068-1.699738-.828003.613831-1.539307,1.150574-2.260406,1.673737-.947296.687149-1.051147,1.580795-.311798,2.680923h-.000031ZM46.743403,43.828474c.499115.590317.873596,1.033218,1.261719,1.492264,1.362579-.959229,2.542175-1.789658,3.786285-2.665573-.349579-.553528-.619202-.980331-.956512-1.514404-1.388092.911865-2.68634,1.764679-4.091553,2.687714h.000061ZM95.885706,1.4429c-1.312622-.060226-2.663025.741943-2.660706,1.499924.000854.288651.373779.702827.676331.838371.694824.311264,1.791321-.399033,2.209778-1.331902.030701-.068336.104858-.150681.087219-.201668-.107788-.310295-.236389-.61338-.312622-.804726h-.000061.000061ZM107.103419,18.507528c-.229736-.148407-.81665-.693375-.963013-.593483-.647034.441307-1.167358,1.068169-1.733521,1.627831.335632.259918.658691.71788,1.009521.740318.841553.053825,1.723328-.800713,1.687012-1.774666ZM98.363795,24.17275c1.485168.004921,2.250854-.489075,2.151733-1.266197-.03717-.291649-.572571-.692879-.920837-.738388-.92395-.12075-2.025635.6353-1.898621,1.275932.070496.355476.567139.626534.667725.728653ZM87.818445,8.179838c1.161682.026939,2.21344-.759735,2.050964-1.400864-.087952-.346741-.621582-.824928-.946716-.81929-.820068.014214-1.563049.433006-1.623596,1.362633-.021057.322754.400513.674286.519348.857521ZM91.532618,14.674833c-.220459-.218742-.303955-.322426-.318848-.313339-1.223938.743965-2.448242,1.4879-3.648438,2.268738-.079346.051674-.041382.446793.067688.577362.103516.124001.454956.21801.555359.140785,1.125427-.866356,2.223267-1.76841,3.344299-2.673546h-.000061ZM85.464686,16.826803c-.086365-.107933-.172668-.215866-.259033-.323799-.27832.219429-.556763.438858-.835144.658287.067261.085274.134521.17054.201782.255814.297485-.196762.59491-.393532.892395-.590302ZM84.041224,17.644949c-.047363-.062759-.078064-.142242-.119324-.148216-.052124-.007545-.112915.044807-.170044.071342.050415.064369.100891.128738.151367.193108.045593-.038399.091125-.07679.138-.116234Z"/>
      <path class="cls-2" d="M50.11825,40.216261c-1.383331.935043-2.700592,1.862457-4.065765,2.713257-.237946.148331-.716156.064438-1.018005-.064819-6.073669-2.601395-12.632355,1.776413-12.605164,8.397552.001831.435059-.249847,1.050339-.58847,1.279678-3.136078,2.1241-6.317169,4.181778-9.616669,6.344925-.738647-1.104462-1.499573-2.241333-2.259644-3.378799-.847351-1.268127-.954407-1.289536-2.198486-.457077-1.029846.689117-2.051483,1.391418-3.097595,2.055161-.605621.384262-.700378.796432-.29422,1.39299,3.316406,4.871429,6.624908,9.748215,9.926086,14.62999.378174.55928.709473.617554,1.269165.183212,1.03656-.804459,2.119171-1.55513,3.223267-2.265076.818085-.525986,1.068634-1.010498.390839-1.882034-.86734-1.11528-1.604248-2.331833-2.462646-3.601257,2.210022-1.552719,4.352356-3.056686,6.493195-4.562759.921326-.648117,1.81424-1.341995,2.7742-1.926346.29248-.177994.843018-.209671,1.143738-.054169,3.245331,1.677444,6.427521,1.51619,9.387878-.524338,2.894318-1.994965,4.14386-4.882889,3.723114-8.396393-.094391-.788803.083344-1.257492.740723-1.67894,1.067047-.684128,2.083466-1.447113,3.11438-2.171936,1.163574,1.16188,2.454559,1.238281,3.872894.229202,1.521881-1.078766,3.052338-2.14563,4.584076-3.221375,4.216064,7.117859,2.038635,16.439499-6.486115,18.773193-1.44754.396271-2.908142.758911-4.327606,1.24057-3.598389,1.221085-5.778351,3.842285-7.213165,7.266464-1.142303,2.726105-2.233459,5.516434-3.752258,8.034317-5.214233,8.644165-16.301117,10.858276-24.510071,4.973038-7.23764-5.188858-12.024719-12.135483-14.072784-20.796555-1.102142-4.660995-.700592-9.297256,2.044006-13.435577,3.372314-5.084824,8.242065-7.640854,14.268555-8.022888,2.058136-.130463,4.131256-.081146,6.196106-.041412,4.359314.083908,7.747925-1.642319,10.286926-5.195953,1.084473-1.517883,2.250488-3.02951,3.6185-4.283661,4.337524-3.976639,11.068787-3.476593,15.481659.267761.618103.524475,1.198578,1.093246,1.918579,1.753494-1.76416,1.179565-3.355591,2.291763-4.995331,3.327499-1.962524,1.2397-1.85437.944336-.893799,3.099014l-.000092.000046Z"/>
      <path class="cls-2" d="M89.79806,20.481237c1.390198-.741165,2.597717-1.384972,3.801575-2.026749.952698,1.64547,1.696533,2.002663,2.735352,1.381996,1.151428-.687958,1.30481-1.611198.43512-3.01886,1.088989-.620964,2.164429-1.270164,3.28302-1.833862.171021-.086205.589111.167419.811279.358589.893982.769081,1.791077.71138,2.639099-.21653.749207-.819725.722717-2.000519-.060852-2.716751-.739624-.676025-2.07605-.72644-2.602417.164894-1.032837,1.748985-2.874817,2.18972-4.426208,3.089973-2.007263,1.164803-4.075195,2.225342-6.116211,3.332092-.293335.159058-.582703.325401-.908997.508049-.722961-.628799-.850952-1.059135.011658-1.74736,1.723633-1.375153,3.3078-2.923058,4.985413-4.357758,1.474609-1.261017,2.971619-2.499352,4.509827-3.68148.974365-.748863,1.387634-1.981705.754578-2.831757-.49823-.6689-1.183167-1.152809-2.03717-.820839-.91156.354309-1.646484,1.173454-1.268921,2.104889.561035,1.383972-.332886,1.959572-1.031311,2.742134-.372253.417091-.679565.892151-1.14502,1.513008-.309998-.575058-.418701-.789925-.539246-.997917-.562988-.971153-1.301147-1.289391-2.260986-.897072-.935242.382294-1.378723,1.060722-1.245117,2.133156.04248.340614-.161438.851761-.428406,1.065483-.89209.714119-1.863831,1.328865-2.91748,1.894173.076782-1.415855.174194-2.783714,1.412842-3.701721,2.080627-1.541954,4.172852-3.068314,6.263428-4.596672,1.756714-1.284294,3.505615-2.580261,5.291443-3.822937.262451-.182632.842224-.270409,1.05188-.110237,1.42926,1.092056,2.828186,2.229424,4.170532,3.426384.424133.378235.755737.946259.939453,1.491425.549438,1.630058,1.028076,3.285553,1.472778,4.947578.070557.263664-.081909.773354-.292297.897964-3.969299,2.351547-7.985779,4.624077-11.939331,7.001266-1.458496.876991-2.902954.551094-4.363831.280792-.338623-.06266-.596375-.561714-.985596-.955345h.000122Z"/>
      <path class="cls-4" d="M54.829951,44.132048c-.361908-.563232-.637238-.99173-.926941-1.442581,11.16098-7.681381,22.255585-15.317108,33.431732-23.008942.201721.355064.395813.696762.646484,1.137917-11.032288,7.75843-22.021606,15.486656-33.151306,23.313606h.000031Z"/>
      <path class="cls-4" d="M86.142542,17.756056c.436523.834412.001892,1.148354-.477539,1.480995-3.346558,2.322021-6.673889,4.67202-10.030334,6.979591-7.422546,5.102966-14.858582,10.186249-22.377075,15.33786-.27243-.356873-.50827-.665909-.922241-1.208282,11.302979-7.552689,22.522278-15.0495,33.807251-22.590172l-.000061.000008Z"/>
      <path class="cls-4" d="M22.686793,62.681379c-.31723.195023-.538422.255249-.61908.39592-.182587.318741-.296021.677109-.437622,1.019363.378326.029877.837677.207733,1.116364.055496.435944-.23822.811066-.551636,1.104858.035492.260315.520264,1.159332.957352.361084,1.718307-.21637.206238-.487549.405945-.587372.664948-.063843.165619.080658.514221.241364.634872.16449.123459.520477.167999.68924.069717.272064-.158524.459259-.46254.766846-.796997.74762,1.111526,1.443573,2.146317,2.244568,3.337296-.650177.454239-1.2724.985077-1.985748,1.324661-.196564.093567-.779114-.304489-.991425-.610703-2.512939-3.624985-4.990295-7.274597-7.474487-10.919449-.681244-.999512-.513519-1.852356.503204-2.558517.274353-.19104.534454-.402634.895081-.67598.747406,1.129562,1.477051,2.232422,2.249054,3.399185-.16156.096695-.283112.157852-.391937.236588-.425415.307724-1.178528.505005-.742401,1.229904.425873.70784.843323.11647,1.293701-.117798.223236-.116135.723602-.02536.898712.160202.343781.364471.547791.860672.866058,1.397537h-.000031l-.000031-.000046Z"/>
      <path class="cls-4" d="M38.142969,57.504804c3.481049-2.446167,6.883118-4.836868,10.472504-7.359222.264252,2.834473-.634125,5.011963-2.654053,6.576141-2.003784,1.551651-4.976288,2.591232-7.818451.783081Z"/>
      <path class="cls-4" d="M35.471186,55.444136c1.566162-1.099243,2.961273-2.089142,4.367523-3.062958,2.06076-1.426956,4.143921-2.821823,6.189758-4.269653,1.453156-1.028397,1.608612-1.001221,2.188232.770416-3.709686,2.605286-7.438721,5.224152-11.289215,7.928329-.386719-.362808-.833862-.782272-1.456268-1.366135h-.000031Z"/>
      <path class="cls-2" d="M24.180262,61.832502c-.439789-.623962-.863586-1.225235-1.384186-1.963806,3.311005-2.206619,6.539917-4.35849,9.855103-6.567902.252075.567108.570923,1.050598.656006,1.572174.044159.270523-.252899.709839-.519379.900299-2.805145,2.004929-5.635193,3.974976-8.607544,6.059235h.000031-.000031Z"/>
      <path class="cls-4" d="M46.432429,46.335035c-3.775543,2.608292-7.566895,5.2276-11.352325,7.842758-1.067169-1.324875-1.021545-1.678894.229553-2.52919,3.089722-2.100021,6.176544-4.204254,9.264771-6.306503.756256-.514832,1.295715-.248291,1.858002.992935Z"/>
      <path class="cls-2" d="M26.183893,64.528303c-.164703-.138916-.230408-.179504-.277008-.235916-1.213226-1.466721-1.207153-1.458862.346466-2.557892,2.563385-1.813309,5.118591-3.63829,7.761169-5.518082.511902.601532.960846,1.129074,1.482422,1.742035-3.139648,2.214859-6.209625,4.380539-9.313049,6.56987v-.000015Z"/>
      <path class="cls-3" d="M55.646998,45.140211c11.038818-7.782257,22.077576-15.564514,33.116455-23.346779-.187561,1.079102-32.127533,23.633064-33.116455,23.346779Z"/>
      <path class="cls-4" d="M34.472407,50.698332c-.927338-3.904282,4.341644-7.555939,9.601562-6.527817-3.263306,2.218628-6.394745,4.34758-9.601562,6.527817Z"/>
      <path class="cls-3" d="M83.424891,18.208883c-10.583679,7.022552-21.167419,14.045113-31.9133,21.175285.308167-.90976,30.336639-20.969002,31.9133-21.175285Z"/>
      <path class="cls-2" d="M49.791071,47.873884c-.740845-1.102203-.636932-1.99585.311798-2.680923.721161-.523163,1.432404-1.059891,2.260406-1.673737.406311.577942.777588,1.105942,1.195068,1.699738-1.294189.912048-2.50293,1.763855-3.767303,2.654922h.000031Z"/>
      <path class="cls-2" d="M46.743403,43.828474c1.405151-.923035,2.7034-1.775848,4.091553-2.687714.337311.534058.606903.960876.956512,1.514404-1.244171.8759-2.423767,1.706329-3.786285,2.665573-.388123-.459045-.762573-.901947-1.261719-1.492264h-.000061Z"/>
      <path class="cls-3" d="M95.885706,1.4429c.076172.191338.204773.494423.312622.804726.0177.050987-.056519.133331-.087219.201668-.418457.932869-1.514954,1.643166-2.209778,1.331902-.302551-.135544-.675415-.549721-.676331-.838371-.002319-.757973,1.348083-1.560143,2.660706-1.499924h.000061-.000061Z"/>
      <path class="cls-4" d="M107.103419,18.507528c.036316.973953-.845459,1.828491-1.687012,1.774666-.35083-.022438-.673828-.4804-1.009521-.740303.566162-.559677,1.086487-1.186539,1.733521-1.627846.146423-.099892.733337.445076.963013.593483Z"/>
      <path class="cls-4" d="M98.363795,24.17275c-.100647-.102119-.597229-.373177-.667725-.728653-.127014-.64064.97467-1.39669,1.898621-1.275932.348267.045517.883606.446747.920837.738388.099182.777122-.666565,1.271126-2.151733,1.266197Z"/>
      <path class="cls-3" d="M87.818445,8.179838c-.118835-.183228-.540344-.53476-.519348-.857521.060486-.929626.803528-1.348427,1.623596-1.362633.325134-.005638.858704.472549.946716.81929.162537.641129-.889221,1.427811-2.050964,1.400864Z"/>
      <path class="cls-2" d="M91.532618,14.674833c-1.121033.905136-2.218872,1.80719-3.344299,2.673546-.100342.077225-.451782-.016785-.555359-.140785-.10907-.130569-.147095-.525696-.067688-.577362,1.200256-.780838,2.424622-1.524773,3.648438-2.268738.014893-.009087.098389.094597.318848.313339h.000061Z"/>
      <path class="cls-3" d="M85.464686,16.826803c-.297485.19677-.59491.393532-.892395.590294-.067261-.085274-.134521-.17054-.201782-.255814.27832-.219429.556763-.43885.835144-.658287.086365.107933.172668.215866.259033.323807Z"/>
      <path class="cls-3" d="M84.041224,17.644949c-.046875.039444-.092407.077843-.138.116234-.050476-.064369-.100952-.128738-.151367-.193115.057129-.02652.11792-.07888.170044-.071335.04126.005966.07196.085457.119324.148216Z"/>
    </g>
  </g>
</svg>