<?xml version="1.0" encoding="UTF-8"?>
<svg id="Layer_2" xmlns="http://www.w3.org/2000/svg" viewBox="0 0 64.894327 90.491785">
  <defs>
    <style>
      .cls-1 {
        fill: #d0a76a;
      }

      .cls-2 {
        fill: #aa8043;
      }

      .cls-3 {
        fill: #1c1a19;
      }

      .cls-4 {
        fill: #8e8889;
      }

      .cls-5 {
        fill: #e1a954;
      }

      .cls-6 {
        fill: #d1a769;
      }

      .cls-7 {
        fill: #e1a953;
      }
    </style>
  </defs>
  <g id="Layer_1-2" data-name="Layer_1">
    <g>
      <path class="cls-3" d="M33.031758.012764c6.722305.05072,13.402237.450684,19.865761,2.519897.927528.296936,1.836498.679138,2.710297,1.110474,1.500427.740662,2.439938,1.932373,2.652699,3.634399.029137.233154.092628.462891.109547.696472.127171,1.755859.565811,3.102905,2.558567,3.813293,1.746136.622437,2.7719,2.16748,2.920841,4.203674.087402,1.194763.494469,2.368103.777428,3.546326.625427,2.604309.23703,3.751282-2.056465,5.105591-.98008.578735-1.362816,1.216919-1.509129,2.357544-2.342819,18.264099-4.750774,36.519775-7.142334,54.777649-.050873.388367-.098801.778259-.121452,1.169006-.124466,2.147095-1.2589,3.525024-3.185665,4.396423-4.282822,1.93689-8.813595,2.717529-13.459362,3.000061-5.860012.356323-11.686741.126099-17.401133-1.308594-1.886837-.473694-3.687639-1.289001-5.529165-1.944214-1.834771-.652771-2.69418-2.01825-2.933628-3.890137-.621414-4.85791-1.278346-9.711243-1.906055-14.568359-1.732469-13.40564-3.457241-26.812256-5.185129-40.218506-.005011-.038818-.015834-.077576-.015876-.116394-.002128-1.804077-.548919-3.128357-2.30917-4.12561-1.986031-1.125183-2.170954-2.407043-1.570256-4.638672.344024-1.278076.593106-2.588867.782395-3.899719.31834-2.20459,1.729708-3.465698,3.636364-4.233887,1.027534-.414001,1.546382-.963806,1.633447-2.111145.082086-1.081726.260616-2.236145.740296-3.184998.466922-.923645,1.220421-2.010925,2.108612-2.355774,2.720429-1.056152,5.513127-2.151489,8.374541-2.570068C22.682259.430793,33.022335-.090081,33.031765.013008l-.000008-.000061v-.000183ZM37.115486,11.097724c.238533-.009949.477058-.019836.715405-.02948,1.870811-.119385,3.74551-.196411,5.611637-.367126,3.781292-.345886,7.535732-.870361,11.010105-2.523987.60899-.289856,1.055336-.921265,1.576801-1.394958-.516228-.493774-.94915-1.208313-1.564186-1.440247-1.89893-.716248-3.836353-1.388-5.8144-1.826599-6.59124-1.461426-13.293602-1.536438-20.003206-1.360413-5.142847.134888-10.255953.560547-15.226015,1.992554-1.195894.344604-2.384752.80127-3.479033,1.388611-1.397361.749939-1.371387,1.644226-.006081,2.405212.713525.397705,1.474109.752075,2.256081.979431,6.606661,1.920776,13.373362,2.435913,20.217588,2.226196.711983-.002563,1.423962-.005066,2.135944-.007629.856457-.013855,1.712902-.02771,2.569355-.041565h.000004ZM2.687942,18.147773c-.162747.600708-.290578,1.082092-.423683,1.562012-.520185,1.875671-.27842,2.546753,1.488404,3.399353,1.369445.660828,2.779876,1.274414,4.229211,1.725647,6.291259,1.95874,12.812533,2.497681,19.336322,2.760498,8.387428.337891,16.767593.105896,25.035675-1.586182,3.263378-.667786,6.536915-1.375305,9.365784-3.267334.522163-.349243,1.130058-1.036926,1.141556-1.5802.020393-.963623-.385925-1.936218-.572235-2.728699-1.81308.831482-3.477989,1.807983-5.271961,2.379822-6.65387,2.120789-13.548317,2.933594-20.487278,3.009216-5.549652.060486-11.127102-.138-16.651314-.656738-5.946764-.558472-11.91669-1.382263-17.19047-5.017456h-.000008l-.000002.000061ZM8.318334,9.195869c-.084487.730835-.120756,1.304871-.220901,1.867554-.361151,2.029175.420062,3.428406,2.343637,4.197632.217132.08667.44601.14386.669467.214661,5.007007,1.585815,10.172036,2.113525,15.388238,2.391296,7.730431.411743,15.431107.298218,23.037209-1.277405,2.247444-.465576,4.439049-1.243164,6.607864-2.013855.506569-.179993,1.171864-.932678,1.148399-1.39032-.066387-1.294617-.452087-2.572815-.686642-3.732117-1.533043.610535-2.934868,1.292664-4.408897,1.733521-5.221909,1.561829-10.622295,2.044739-16.024052,2.045959-5.473576.001282-10.961918-.25238-16.415945-.719421-3.907738-.334595-7.852929-.916809-11.438376-3.317627l-.000002.000122ZM5.973342,26.405098c.258836,1.80719.514657,3.45575.728817,5.10968,2.232713,17.243225,4.450131,34.488403,6.723018,51.726379.078098.592285.568005,1.352478,1.082352,1.622559,1.409975.740356,2.89052,1.427979,4.422884,1.840149,7.374842,1.983643,14.870747,2.060181,22.390018,1.081604,3.143501-.409058,6.266514-.995605,9.079884-2.633545.758217-.441467,1.114071-.999878,1.215401-1.852905.263245-2.216064.595997-4.423828.885666-6.636902,2.073589-15.842102,4.144268-31.68457,6.211811-47.527466.113609-.870483.190998-1.745667.30444-2.796265-8.745361,2.822693-17.586506,3.50769-26.50631,3.458069-8.907331-.049561-17.748831-.728699-26.537979-3.391296h-.000006l.000005-.000061ZM5.649841,13.006965c-.409519.235229-.616575.332581-.799337.463684-.381516.273743-.783931.530823-1.117734.856262-.919243.896179-.920675,1.601624.133428,2.315796.932718.631958,1.948315,1.178894,2.992561,1.602783,5.412753,2.197205,11.150541,2.834534,16.898148,3.273071,6.850027.522583,13.708643.442566,20.552691-.234619,4.697147-.464783,9.325157-1.277466,13.737938-3.004883,1.109333-.434265,2.140667-1.115234,3.126076-1.800415.580231-.403442.847473-1.140869.31427-1.756104-.558411-.644409-1.275764-1.151123-1.923653-1.718018l-.303352.128296c.283932,2.029236-1.121212,2.802734-2.527954,3.400391-1.649719.700989-3.359715,1.347595-5.107178,1.717041-11.561142,2.444214-23.196148,2.542603-34.825527.628235-2.983778-.491211-5.89262-1.543518-8.769246-2.531921-1.334462-.458496-2.484072-1.401123-2.381124-3.339661h0l-.000007.000061Z"/>
      <path class="cls-4" d="M60.845337.338203c-.035965.13855-.071918.277161-.109646.416077-.055447-.107666-.109131-.215698-.162819-.32373.09082-.030762.181648-.061523.272465-.092346Z"/>
      <path class="cls-2" d="M2.687942,18.147773c5.27378,3.635193,11.243705,4.458984,17.190469,5.017456,5.524212.518738,11.101662.717224,16.651314.656738,6.938961-.075562,13.833405-.888428,20.487274-3.009216,1.793976-.571777,3.458889-1.54834,5.271961-2.379822.186302.792419.592621,1.765015.572235,2.728699-.011497.543213-.619392,1.230896-1.141556,1.5802-2.828865,1.892029-6.102409,2.599548-9.365784,3.267334-8.268082,1.692078-16.648247,1.924072-25.035673,1.586182-6.523785-.262878-13.045061-.801758-19.336319-2.760498-1.449335-.451233-2.859766-1.064819-4.229211-1.725647-1.766824-.852539-2.008588-1.523682-1.488403-3.399353.133104-.47998.260936-.961365.423683-1.562012h.000007l.000002-.000061Z"/>
      <path class="cls-2" d="M8.318334,9.195869c3.585448,2.400757,7.530639,2.982971,11.438376,3.317627,5.454029.46698,10.942371.720642,16.415947.719421,5.401752-.001221,10.802139-.484131,16.024048-2.045959,1.47403-.440857,2.875858-1.122986,4.408897-1.733521.234547,1.159302.620255,2.4375.686642,3.732117.023464.457642-.641838,1.210327-1.148399,1.39032-2.168808.770691-4.360416,1.548279-6.607864,2.013855-7.606102,1.575623-15.306774,1.689148-23.037209,1.277405-5.216202-.277771-10.381231-.805481-15.388238-2.391296-.223457-.070801-.452335-.127991-.669467-.214661-1.927488-.769165-2.7087-2.168396-2.343637-4.197632.100145-.562683.136414-1.136658.220902-1.867554l.000002-.000122Z"/>
      <path class="cls-6" d="M37.831082,11.068c-.238541.009888-.477066.019836-.715485.029785-.865738-.563965-1.723648-.635559-2.569473.041504-.711983.002502-1.423962.005066-2.135838.007629-.201057-.134583-.392097-.364929-.605125-.387451-1.080399-.114319-2.174847-.120728-3.245579-.286499-.325012-.050232-.590008-.488037-.882484-.748413.062092-.640564.287287-1.318787.149815-1.913208-.232588-1.005737-.694458-1.958435-1.059925-2.933411-.032648-.308228-.015472-.632385-.107843-.921509-.223948-.700989.093437-.939941.731199-.97052,1.59495-.076477,3.19244-.257507,4.783955-.214294,2.917545.079163,5.848827.142822,8.742481.483643,3.388016.399048,6.758327,1.006836,10.102871,1.688171,1.389706.283081,2.69286.990784,4.035374,1.505432l-.034332.468018c-.504169.331177-.968105.775452-1.520252.971619-1.501865.533569-3.011631,1.154053-4.571461,1.393005-3.412609.522766-6.859505.819702-10.287724,1.246399-.288021.035828-.540947.353455-.810169.5401h-.000004Z"/>
      <path class="cls-7" d="M5.973342,26.405098c8.789151,2.662598,17.630651,3.341736,26.53798,3.391296,8.919804.049622,17.760944-.635437,26.50631-3.458069-.113438,1.050598-.190826,1.925842-.30444,2.796265-2.067539,15.842834-4.138226,31.685364-6.211815,47.527466-.289669,2.213074-.622425,4.420837-.885666,6.636902-.101337.853027-.457188,1.411377-1.215401,1.852905-2.813366,1.638-5.936386,2.224548-9.079884,2.633545-7.519272.978516-15.015175.902039-22.390018-1.081604-1.532362-.41217-3.012907-1.099731-4.422882-1.840149-.514347-.270081-1.004253-1.030273-1.082352-1.622559-2.272887-17.237915-4.490304-34.483093-6.723017-51.726379-.21416-1.653931-.46998-3.302551-.728817-5.10968h0v.000061ZM6.91917,27.623848c.222244,1.733765.436874,3.456604.665149,5.177673.352535,2.657898.729258,5.312744,1.068328,7.972412.373526,2.92981.691664,5.866821,1.078946,8.794739.397432,3.0047.889214,5.997253,1.266048,9.004333.377055,3.00885.623044,6.034058.99817,9.043213.581574,4.6651,1.195823,9.32666,1.860604,13.980469.163734,1.146179-.026077,2.584656,1.35112,3.166138,3.985592,1.682861,8.204571,2.633545,12.480574,2.808594,4.394575.179932,8.820471-.135071,13.219599-.428955,3.046898-.203613,5.966614-1.119141,8.771179-2.354553.935471-.412109,1.266518-1.099915,1.353889-2.115723.189617-2.204651.520157-4.397644.81361-6.592651.334694-2.50354.714245-5.001221,1.033527-7.506592.427483-3.354431.790234-6.717102,1.227215-10.070251.587399-4.507324,1.222698-9.008423,1.830791-13.513123.623791-4.620911,1.252869-9.24115,1.849598-13.86554.151299-1.172485.188438-2.35968.276848-3.524475-17.064835,4.140808-33.951218,3.792847-51.145191.024353l-.000005-.000061Z"/>
      <path class="cls-1" d="M5.649841,13.006965c-.102948,1.938477,1.046662,2.881104,2.381124,3.339661,2.876625.988403,5.785469,2.04071,8.769245,2.531921,11.629379,1.914368,23.264385,1.815979,34.825527-.628235,1.747471-.369446,3.457462-1.016052,5.107178-1.717041,1.406746-.597717,2.81189-1.371155,2.527954-3.400391l.303352-.128296c.647884.566895,1.365234,1.073608,1.923653,1.718018.533203.615234.265953,1.352722-.31427,1.756104-.985405.68512-2.016743,1.36615-3.126072,1.800415-4.412781,1.727417-9.040791,2.5401-13.737938,3.004883-6.844048.677185-13.70266.757202-20.552689.234619-5.747606-.438538-11.485394-1.075928-16.898148-3.273071-1.044246-.423889-2.059843-.970825-2.992561-1.602783-1.054103-.714172-1.052671-1.419617-.133428-2.315796.333803-.325439.736219-.58252,1.117734-.856262.182762-.131165.389819-.228455.799337-.463684h-.000003l.000005-.000061Z"/>
      <path class="cls-1" d="M27.6771,9.724617c.292479.260315.557474.69812.882484.748413,1.07073.165771,2.165178.17218,3.245581.286499.213032.022522.404072.25293.605125.387451-6.844332.209717-13.611034-.30542-20.217695-2.226196-.78197-.227356-1.542556-.581726-2.256081-.979431-1.365307-.760986-1.391281-1.655212.006081-2.405212,1.094281-.58728,2.283139-1.044006,3.479033-1.388611,4.970062-1.432007,10.083168-1.857666,15.226017-1.992554,6.709602-.176025,13.411964-.100952,20.003208,1.360413,1.978039.438538,3.91547,1.110352,5.8144,1.826599.615032.231995,1.047958.946472,1.564186,1.440247-.521465.473633-.967812,1.105042-1.576801,1.394958-3.474373,1.653687-7.228809,2.178101-11.010105,2.523987-1.866123.170715-3.740822.247742-5.611546.366943.269325-.186829.522251-.504395.810272-.540222,3.428223-.426697,6.875118-.723694,10.287727-1.246399,1.55983-.238953,3.069595-.859375,4.571461-1.393005.552147-.196167,1.016083-.640503,1.520252-.971619l.034332-.468018c-1.342514-.514648-2.645672-1.222351-4.035374-1.505432-3.344547-.681335-6.714851-1.289185-10.102867-1.688171-2.89365-.34082-5.824936-.40448-8.742477-.483643-1.591515-.043213-3.189009.137756-4.783955.214294-.637766.030579-.955147.269531-.731199.97052.092375.289185.075195.613281.107859.921509-1.06106-1.159546-2.359407-1.570679-3.908054-1.299805-.535053.093567-1.103079.00238-1.636473.101196-2.181616.404114-4.380482.757568-6.51675,1.336975-.607504.164795-1.49065,1.101929-1.420706,1.558289.106535.695007.883074,1.333496,1.476355,1.887634.282345.263733.790751.315796,1.209658.397888,1.572338.308228,3.140442.747192,4.727915.843201,2.317997.140198,4.651352.026733,6.978155.021362h-.000011l-.000006-.000061Z"/>
      <path class="cls-1" d="M34.546128,11.139289c.845821-.677002,1.703735-.605408,2.569473-.041504-.856567.013794-1.713017.027588-2.569473.041504Z"/>
      <path class="cls-3" d="M27.6771,9.724617c-2.326801.005371-4.660154.118835-6.978155-.021362-1.587475-.096008-3.155577-.534973-4.727917-.843201-.418905-.082092-.927313-.134094-1.209658-.397888-.593279-.554138-1.36982-1.192627-1.476355-1.887634-.069946-.45636.813198-1.393555,1.420706-1.558289,2.136269-.579407,4.335135-.932861,6.51675-1.336975.533394-.098816,1.101421-.007629,1.636473-.101196,1.548645-.270874,2.846994.140259,3.908054,1.299805.365454.975037.827324,1.927734,1.059912,2.933472.137472.594421-.087723,1.272644-.149815,1.913208h.000004v.000061ZM25.825352,8.253425c-.60507-2.53125-.972137-2.87085-3.148399-2.704956-1.668367.127136-3.325644.408569-4.984726.643433-.549417.077759-1.089094.224365-1.633224.339478-.00201.145081-.004017.290161-.006027.435242,3.202143.421631,6.404282.843323,9.772377,1.286804Z"/>
      <path class="cls-5" d="M6.91917,27.623848c17.193974,3.768494,34.080361,4.116394,51.145192-.024353-.088413,1.164734-.125549,2.35199-.276848,3.524475-.596729,4.624451-1.225811,9.244629-1.849598,13.86554-.608093,4.5047-1.243393,9.005798-1.830791,13.513123-.436981,3.353088-.799732,6.71582-1.227215,10.070251-.319283,2.505432-.69883,5.003113-1.033527,7.506592-.293453,2.195007-.623993,4.388062-.81361,6.592712-.087372,1.015808-.418423,1.703613-1.353889,2.115723-2.804565,1.235413-5.724281,2.151001-8.771183,2.354553-4.399128.293884-8.825024.608887-13.219601.428955-4.276007-.175049-8.494984-1.125732-12.480574-2.808594-1.377197-.581482-1.187387-2.019897-1.351122-3.166138-.664783-4.65387-1.279032-9.315369-1.860604-13.980469-.375126-3.009094-.621116-6.034363-.99817-9.043213-.376835-3.00708-.868615-5.999634-1.266048-9.004333-.387282-2.927917-.705421-5.864929-1.078946-8.794739-.33907-2.659607-.715794-5.314453-1.068328-7.972412-.228275-1.721069-.442905-3.443909-.665137-5.177673Z"/>
      <path class="cls-2" d="M25.825352,8.253425c-3.368093-.443542-6.570236-.865173-9.772377-1.286804.00201-.145081.004017-.2901.006027-.435242.54413-.115112,1.083807-.261719,1.633224-.339478,1.659082-.234863,3.316362-.516296,4.984726-.643433,2.17626-.165833,2.543327.173706,3.148399,2.704956Z"/>
    </g>
  </g>
</svg>