<?xml version="1.0" encoding="UTF-8"?>
<svg id="Layer_2" xmlns="http://www.w3.org/2000/svg" viewBox="0 0 93.796773 69.290197">
  <defs>
    <style>
      .cls-1 {
        fill: #eb443f;
      }

      .cls-2 {
        fill: #eae6d4;
      }

      .cls-3 {
        fill: #597dbd;
      }

      .cls-4 {
        fill: #1c1a19;
      }

      .cls-5 {
        fill: #ed443f;
      }
    </style>
  </defs>
  <g id="Layer_1-2" data-name="Layer_1">
    <g>
      <path class="cls-4" d="M8.858343,32.603677c-1.817207-.664673-3.302322-1.271729-4.828362-1.74762-1.432106-.446533-2.340363-1.368774-2.893562-2.706726-1.495338-3.616577-1.526382-7.232056-.025391-10.862854.590591-1.428589,1.588715-2.370361,3.020851-2.935486,7.399025-2.919678,14.787209-5.866821,22.184135-8.791809,4.55452-1.800964,9.103531-3.618103,13.691498-5.330261.764908-.285461,1.792847-.305176,2.570572-.052246,13.043106,4.241943,26.067993,8.539978,39.091415,12.842224,3.385849,1.11853,6.762558,2.267029,10.118256,3.471802.506683.181946,1.267914.809509,1.218979,1.122742-.080475.514893-.642044,1.110107-1.153885,1.369202-.995651.504089-1.543137,1.175964-1.803101,2.275269-.468948,1.983154-.533752,3.942444-.189606,5.944092.204803,1.190979.749924,1.99353,1.939301,2.393921.821777.276672,1.955688.431824,1.981323,1.548828.026657,1.162048-1.197495,1.199524-1.957764,1.565186-1.503708.723206-3.057098,1.343079-4.915649,2.146484,1.396378.488708,2.477066.862793,3.554581,1.245728.553925.196838,1.140289.344177,1.641006.635742.39888.232239,1.00148.695496.960114.973999-.071548.481873-.492401,1.175598-.907028,1.295471-1.526001.441223-1.972565,1.525391-2.271317,2.908508-.431778,1.998901-.420197,3.945068.061249,5.932129.263,1.08551.852783,1.718323,1.882339,2.016907.225815.065491.493073.085388.664474.22229.457016.36499.872177.78241,1.304001,1.178894-.373367.403015-.670959.969788-1.132111,1.183044-3.555878,1.644165-7.134232,3.240845-10.723083,4.812317-7.07106,3.096313-14.153198,6.167358-21.231308,9.24762-2.011856.875549-4.003174,1.805664-6.051941,2.584534-.627838.238647-1.495361.27063-2.118134.037292-16.036163-6.009216-32.04924-12.079895-48.083-18.09552-1.804565-.677063-2.929779-1.844482-3.563637-3.612793-1.357216-3.786194-1.183067-7.489502.727318-11.023071.406021-.750977,1.24147-1.406799,2.032898-1.783752,1.575584-.750427,3.258003-1.276733,5.204521-2.012024l-.000023-.000061h.000069ZM48.929479,31.324197c1.512604.620178,3.018692,1.257141,4.544159,1.843811.254288.097778.62735.056946.887253-.055054,4.100143-1.766785,8.181641-3.577026,12.285583-5.334839,7.416641-3.176758,14.845825-6.324097,22.26683-9.490601.225235-.09613.417953-.268433.753586-.489319-.412262-.150879-.659241-.250305-.91185-.332275-2.720001-.882935-5.446014-1.74762-8.160461-2.647217-5.87384-1.946655-11.737167-3.92511-17.613495-5.864258-6.844238-2.258484-13.692642-4.5047-20.555969-6.704163-.613235-.196472-1.424103-.202637-2.017212.027405-10.663101,4.135925-21.306503,8.32251-31.955154,12.495728-.626778.245667-1.262146.469421-2.221115.824829,1.011978.315125,1.681808.488098,2.326004.729553,9.940567,3.72522,19.87352,7.470886,29.818207,11.185059,3.40744,1.272644,6.842346,2.471802,10.264709,3.704529.096283.035645.192581.071289.288879.106873l.000031.000061.000015-.000122ZM51.664525,66.673928c.043182-.221619.107635-.343628.079514-.437988-1.051071-3.526184-1.157547-7.004944.404922-10.439575.089539-.196777-.235001-.804504-.489227-.901978-5.043411-1.933716-10.104523-3.821289-15.162781-5.716309-10.703018-4.009827-21.408119-8.01416-32.104706-12.041016-.523216-.19696-.834442-.273865-1.11232.328308-1.413795,3.064087-1.58976,6.168335-.464233,9.362122.422806,1.199768,1.171295,1.957092,2.370972,2.400574,4.664185,1.724182,9.311493,3.494019,13.962967,5.252502,10.545654,3.986755,21.089798,7.977539,31.636353,11.961975.270996.102356.56282.149719.878525.231384h.000015ZM89.645986,37.909402c-1.904297-.615479-3.55661-1.173645-5.227997-1.667175-.297607-.087891-.704132.024658-1.010452.158691-9.618835,4.207642-19.226273,8.441467-28.858368,12.618469-.563171.244202-1.363831.201477-1.973724.021057-1.120819-.331543-2.169739-.897339-3.269638-1.30957-11.667252-4.372803-23.356094-8.689026-34.991226-13.145569-1.877876-.719238-3.503426-1.027954-5.30854-.014282-.776253.435913-1.682716.640076-2.793869,1.045898.54039.277893.764458.42157,1.007988.514099,3.442719,1.308105,6.884529,2.618713,10.333496,3.910217,11.77684,4.410034,23.55423,8.818787,35.343414,13.195679.452362.167908,1.095825.158447,1.537415-.031067,11.414139-4.898621,22.813492-9.831726,34.21376-14.762634.264923-.114563.511368-.27179.997726-.533752l.000015-.000061ZM88.230916,20.680276c-.787109.346619-1.37796.610657-1.971832.867676-10.024033,4.33905-20.032562,8.714722-30.089828,12.975403-1.510406.639832-2.335526,1.533081-2.681305,3.057312-.442551,1.950806-.668594,3.892212-.171799,5.978149.513535-.198059.911972-.33429,1.296219-.502747,3.298615-1.446472,6.588882-2.911987,9.892578-4.346741,7.576797-3.290344,15.162003-6.561462,22.732544-9.866028.316772-.138306.784897-.596558.736954-.801575-.563522-2.409668-.481018-4.793274.256439-7.36145h.000031ZM88.184103,40.824136c-1.900436.811523-3.551285,1.505066-5.193024,2.219482-8.903168,3.874329-17.789291,7.788513-26.721222,11.595337-1.398788.59613-2.295471,1.385742-2.673004,2.822449-.545059,2.074402-1.029297,4.1474-.339096,6.306946.208649-.028076.331802-.017883.431076-.061768,6.122406-2.704712,12.234955-5.431885,18.365936-8.116943,4.98439-2.182983,9.995407-4.305237,14.977463-6.493469.373825-.164185.916885-.706604.862457-.963196-.50412-2.376221-.458939-4.719055.289429-7.308838h-.000015ZM52.279577,34.909219c-.254745-.123413-.386749-.201233-.528107-.253845-6.127487-2.281982-12.255554-4.562439-18.384079-6.841614-9.506226-3.5354-19.017586-7.057068-28.512039-10.623779-.975914-.366638-1.452812-.113953-1.813736.776733-1.2491,3.082581-1.350906,6.183838-.05452,9.255981.247726.587097.845108,1.125732,1.41526,1.454041.804993.463562,1.731071.720642,2.6119,1.048462,9.505783,3.537415,19.017853,7.057983,28.517517,10.611694,5.244064,1.961731,10.467346,3.978882,15.703674,5.961426.154877.058594.351379.007385.636642.007385-1.215714-3.877014-1.255219-7.626953.407471-11.396362h0l.000015-.000122ZM54.153768,67.138528c12.090469-5.257263,24.092545-10.476135,36.09465-15.694946-.003433-.161133-.006882-.322205-.010315-.483337-.693329-.073914-1.504395-.421326-2.062576-.181213-11.186462,4.811768-22.340118,9.699646-33.513687,14.541565-.918365.39801-1.097687.862244-.508072,1.817932ZM90.276784,31.111367c-.716629-.846619-1.353699-.775818-2.059006-.469482-11.235611,4.880066-22.470795,9.761047-33.717438,14.615723-.934235.403259-.885147.893127-.392776,1.70459,12.029739-5.271973,24.016266-10.524902,36.169189-15.85083h.000031Z"/>
      <path class="cls-5" d="M48.929479,31.324197c-.096298-.035645-.192596-.071289-.288559-.106628-.163544-.136536-.30603-.328613-.494614-.401489-1.638412-.633301-3.295471-1.219177-4.92717-1.868896-3.463242-1.378906-6.8853-2.866516-10.378204-4.164429-4.287491-1.59314-8.647415-2.990845-12.942749-4.563782-2.808823-1.028625-5.562904-2.207886-8.332458-3.341675-.904587-.3703-1.780655-.810181-2.815063-1.284912.344154-.267639.450264-.396973.585976-.448975,4.772491-1.829102,9.558464-3.623596,14.31974-5.481384,5.161713-2.014038,10.291122-4.111023,15.458801-6.109314.912048-.352661,2.049622-.769653,2.90097-.524597,4.752457,1.367737,9.462616,2.888489,14.160538,4.437927,4.329422,1.427917,8.61557,2.98645,12.938202,4.435547,4.913345,1.647156,9.846161,3.236023,14.770065,4.851685,1.105347.362671,2.208679.731445,3.566299,1.181335-.483261.257629-.673935.376831-.877914.465393-4.334732,1.882324-8.676544,3.748474-13.005524,5.643921-5.975906,2.616516-11.947647,5.242676-17.908783,7.892578-1.36319.606018-2.622253.720825-4.020935.008911-.800751-.407532-1.799225-.427002-2.708649-.621155h.000015l.000015-.000061Z"/>
      <path class="cls-3" d="M51.664525,66.673928c-.315689-.081665-.607529-.129028-.878525-.231384-10.54657-3.984436-21.090714-7.975159-31.636353-11.961975-4.651482-1.758484-9.298782-3.52832-13.962967-5.252502-1.199669-.44342-1.948174-1.200806-2.370972-2.400574-1.125526-3.193787-.949562-6.298035.464233-9.362122.277878-.602173.589104-.525269,1.11232-.328308,10.696602,4.026855,21.401688,8.031189,32.104706,12.041016,5.058258,1.89502,10.11937,3.782593,15.162766,5.716309.254227.097473.578766.7052.489227.901978-1.562454,3.434631-1.455994,6.913391-.404922,10.439575.028137.09436-.036331.216431-.079514.437988h.000015-.000015Z"/>
      <path class="cls-3" d="M89.645986,37.909402c-.486374.261902-.732803.419189-.997726.533752-11.400269,4.930908-22.799637,9.864014-34.21376,14.762634-.441589.189514-1.085052.198914-1.537415.031067-11.789185-4.376892-23.566574-8.785645-35.343414-13.195679-3.448967-1.291504-6.890778-2.602112-10.333496-3.910217-.24353-.092529-.467606-.236206-1.007988-.514099,1.111153-.405762,2.017616-.609985,2.793869-1.045898,1.805115-1.013672,3.430672-.704956,5.30854.014282,11.635117,4.456482,23.323959,8.772766,34.991226,13.145569,1.099884.412231,2.148819.978027,3.269638,1.30957.609894.180359,1.410553.223083,1.973724-.021057,9.632095-4.177002,19.239517-8.410828,28.858353-12.618469.306335-.134033.71283-.246582,1.010452-.158691,1.671402.49353,3.3237,1.051697,5.227997,1.667175v.000061Z"/>
      <path class="cls-2" d="M88.230916,20.680276c-.737442,2.568115-.819962,4.951782-.256439,7.36145.047943.205017-.420197.663269-.736954.801575-7.570557,3.304626-15.155746,6.575684-22.732544,9.866028-3.303696,1.434692-6.593964,2.900269-9.892578,4.346741-.384262.168518-.782684.304688-1.296219.502747-.496796-2.085938-.270752-4.027344.171799-5.978149.345779-1.524231,1.170898-2.417419,2.681305-3.057312,10.057251-4.260681,20.065796-8.636353,30.089828-12.975403.593872-.257019,1.184708-.521118,1.971832-.867676h-.000031Z"/>
      <path class="cls-2" d="M88.184103,40.824136c-.748337,2.589783-.793533,4.932678-.289429,7.308838.054443.256531-.488632.79895-.862457.963196-4.982071,2.188232-9.993073,4.310486-14.977463,6.493469-6.130981,2.685059-12.24353,5.412231-18.365936,8.116943-.099274.043884-.222443.033691-.431076.061768-.690201-2.159607-.205963-4.232605.339096-6.306946.377533-1.436707,1.274216-2.226318,2.673004-2.822449,8.931931-3.806824,17.818054-7.721008,26.721222-11.595337,1.641739-.714417,3.292618-1.407959,5.193024-2.219482h.000015Z"/>
      <path class="cls-1" d="M48.929479,31.324197c.909439.194153,1.907898.213623,2.708649.621155,1.398682.711914,2.657761.597046,4.020935-.008911,5.961136-2.649902,11.932877-5.276001,17.908783-7.892578,4.328979-1.895447,8.670792-3.761536,13.005524-5.643921.203979-.088623.394653-.207825.877914-.465393-1.357651-.449951-2.460983-.818726-3.566299-1.181335-4.923904-1.615601-9.856735-3.204529-14.770081-4.851685-4.322632-1.449036-8.60878-3.007629-12.938202-4.435547-4.697922-1.549438-9.408081-3.07019-14.160538-4.437927-.851349-.244995-1.988922.171936-2.90097.524597-5.167694,1.998291-10.297104,4.095215-15.458801,6.109314-4.761276,1.857788-9.547256,3.652283-14.31974,5.481384-.135712.052063-.241821.181335-.585976.448975,1.034409.474731,1.910477.914612,2.815063,1.284912,2.769554,1.13385,5.523636,2.313049,8.332458,3.341675,4.295334,1.572937,8.655258,2.970703,12.942749,4.563782,3.492905,1.297852,6.914963,2.785461,10.378204,4.164429,1.631714.649719,3.288757,1.235657,4.92717,1.868896.188583.072876.33107.264954.494614.401489-3.422684-1.232971-6.85759-2.432129-10.265045-3.704773-9.944687-3.714172-19.87764-7.459839-29.818207-11.185059-.644203-.241455-1.314026-.41449-2.326004-.729553.958969-.355408,1.594337-.579163,2.221115-.824829,10.648651-4.173157,21.292053-8.359802,31.955154-12.495728.593109-.230042,1.403976-.223877,2.017212-.027405,6.863327,2.199463,13.711731,4.44574,20.555969,6.704163,5.876312,1.939087,11.739655,3.917542,17.61348,5.864258,2.714447.899597,5.44046,1.764282,8.160431,2.647217.252609.08197.499573.181396.91185.332275-.335648.220886-.528336.393188-.753586.489319-7.421036,3.166504-14.85022,6.313843-22.266846,9.490601-4.103943,1.757812-8.185425,3.568054-12.285583,5.334839-.259903.112-.63295.152893-.887253.055054-1.525467-.586731-3.03157-1.223694-4.544159-1.843811h-.000015l.000031.000122Z"/>
      <path class="cls-1" d="M52.279577,34.909219c-1.662689,3.769409-1.623184,7.519287-.407471,11.396362-.285263,0-.481766.05127-.636642-.007385-5.236328-1.982483-10.459625-3.999695-15.703674-5.961426-9.499664-3.55365-19.011734-7.07428-28.517525-10.611694-.880836-.32782-1.806908-.584839-2.6119-1.048462-.570152-.328308-1.167534-.866943-1.41526-1.454041-1.296394-3.072144-1.19458-6.17334.05452-9.25592.360924-.890686.837814-1.143372,1.813736-.776733,9.494453,3.566711,19.005806,7.088379,28.512047,10.623779,6.128525,2.279236,12.256607,4.559631,18.384079,6.841614.141357.052612.273376.130432.528107.253845l-.000015.000061ZM50.685903,45.303262c.043488-.437805.119736-.641663.072205-.81073-.811035-2.883789-.446701-5.697388.445709-8.493408.224045-.702026-.158157-1.030884-.834015-1.261719-2.987778-1.020386-5.966812-2.068726-8.929535-3.159668-5.895416-2.170898-11.776779-4.380005-17.666275-6.566956-6.255081-2.322815-12.529732-4.594666-18.752945-6.999695-1.035515-.400208-1.301437-.144775-1.597366.707581-.695114,2.002197-.739975,4.019653-.423599,6.105164.401367,2.645935,1.239288,3.594238,3.804214,4.367188,2.61438.787903,5.20298,1.674744,7.764214,2.622681,6.259499,2.316406,12.496132,4.694641,18.74308,7.045044,3.580963,1.347351,7.161285,2.696533,10.747314,4.030457,2.14595.798218,4.302338,1.56842,6.627029,2.414124h-.000015l-.000015-.000061Z"/>
      <path class="cls-3" d="M54.153768,67.138528c-.589615-.955688-.410309-1.419922.508072-1.817932,11.173553-4.841919,22.327225-9.729858,33.513672-14.541565.558212-.240112,1.369247.1073,2.062576.181213.003433.161133.006882.322205.010315.483337-12.002075,5.218811-24.004166,10.437683-36.094635,15.694946h-.000015.000015Z"/>
      <path class="cls-1" d="M90.276784,31.111367c-12.152924,5.325867-24.139465,10.578918-36.169205,15.85083-.492371-.811462-.541473-1.301392.392776-1.70459,11.246643-4.854614,22.481812-9.735657,33.717422-14.615723.705307-.306335,1.342377-.377136,2.059006.469482Z"/>
      <path class="cls-5" d="M50.685903,45.303262c-2.324692-.845703-4.481079-1.615906-6.627029-2.414124-3.586029-1.333862-7.166351-2.683044-10.747314-4.030457-6.246933-2.350403-12.483566-4.728638-18.743073-7.045044-2.561234-.947876-5.149834-1.834778-7.764214-2.622681-2.564934-.772949-3.402847-1.721252-3.804214-4.367188-.316383-2.08551-.271515-4.102966.423599-6.105164.295929-.852356.561852-1.107788,1.597366-.707581,6.223213,2.405029,12.497871,4.676941,18.752953,6.999695,5.889496,2.186951,11.770859,4.396057,17.666275,6.566956,2.962738,1.091003,5.941772,2.139282,8.929535,3.159668.675873.230835,1.058075.559692.834015,1.261719-.89241,2.796021-1.256744,5.60968-.445709,8.493408.047531.169006-.028717.372925-.072205.81073h.000015v.000061Z"/>
    </g>
  </g>
</svg>