<?xml version="1.0" encoding="UTF-8"?>
<svg id="Layer_2" xmlns="http://www.w3.org/2000/svg" viewBox="0 0 84.202249 65.310189">
  <defs>
    <style>
      .cls-1 {
        fill: #3f4141;
      }

      .cls-2 {
        fill: #eae6d4;
      }

      .cls-3 {
        fill: #1c1a19;
      }

      .cls-4 {
        fill: #fbd918;
      }

      .cls-5 {
        fill: #eebc1d;
      }
    </style>
  </defs>
  <g id="Layer_1-2" data-name="Layer_1">
    <g>
      <path class="cls-3" d="M63.399898,20.884995c1.088783-.230713,2.085953-.413818,3.064514-.668274.261925-.068115.559731-.306519.684593-.547668,2.434303-4.701965,8.299919-6.008118,12.385979-4.871338,4.205643,1.170044,5.958084,5.286499,3.62896,8.557678-2.711754,3.808594-8.822891,5.435303-12.984161,3.276978-1.242493-.64447-2.273048-.685547-3.534775-.316956-2.097977.612915-2.105202.554016-2.069489,2.747864.120514,7.401794-3.106907,13.093567-9.152264,17.132935-2.450073,1.637085-5.228233,2.797363-7.907024,4.069519-.763081.362427-1.014359.642517-.723186,1.460999.260208.731506.3829,1.519531.501312,2.292542.954639,6.231995-3.055889,11.051575-9.373737,11.28241-5.443069.198914-9.31612-3.103882-9.988701-8.498169-.119102-.955261-.000273-2.226135-.55761-2.755981-.503195-.478394-1.781509-.155151-2.718174-.162354-3.988422-.030579-7.896427-.504822-11.62534-2.02832-6.014707-2.457458-9.753388-7.02655-11.62255-13.071472-2.198321-7.109375-1.897724-14.175171,1.431182-20.937317,2.961795-6.016479,7.857347-9.954773,13.96058-12.487854,1.689411-.701172,3.186035-1.543823,4.647215-2.752441C24.272684.270615,27.861793-.244461,31.454472.094284c1.509411.142334,2.96368.859924,4.446243,1.305298.251541.075562.520794.143799.77956.13623,9.042904-.262451,16.582592,2.825623,22.193993,10.069519,1.883965,2.432068,3.155441,5.22345,4.138653,8.137939.122112.362.245243.723633.386978,1.141602h0v.000122ZM19.546417,6.55864c-5.581648,1.93512-10.165232,4.9823-13.407074,9.815002-3.742323,5.578796-4.371825,11.783936-3.524918,18.273254.145991,1.118652.630671,1.838379,1.5854,2.422119,3.239987,1.980957,6.829226,2.716431,10.529792,2.994995,13.277497.999512,26.008145-1.290344,38.18224-6.613403,2.871914-1.255737,5.578255-2.885559,7.682964-5.31134,1.12476-1.296326,1.859558-2.689453,1.248234-4.498901-.424667-1.257019-.663876-2.577271-1.099857-3.829712-3.549873-10.197632-11.848366-16.15625-22.909149-16.179504-.206379-.000427-.413013.125-.682655.212158.159016.399658.290329.721497.415501,1.045654.88163,2.282959.571407,3.906128-1.452003,5.245544-4.328182,2.865112-9.070335,3.508606-14.044308,2.006531-1.695793-.512146-2.457167-1.852966-2.520571-3.590515-.022421-.614441-.00359-1.230408-.00359-1.991943h0l-.000006.000061ZM3.904774,39.688156c.130523-.148132.081716-.11792.082765-.089539.004289.115845-.003145.242981.041639.34491,1.615402,3.677307,3.941436,6.730225,7.485455,8.788757,3.311196,1.92334,6.949955,2.579773,10.672203,2.94281,5.119629.499329,10.169529-.145569,15.199982-1.022827,5.791546-1.01001,11.393696-2.571594,16.397877-5.794128,3.452103-2.223145,6.100121-5.147278,7.523335-9.056274.744045-2.043579,1.21603-4.14679,1.133602-6.638489-2.922531,3.506653-6.5821,5.432922-10.420204,7.057434-7.644341,3.235596-15.674412,4.9552-23.889744,5.856567-5.548517.608765-11.120296.757202-16.62998-.288696-2.537987-.48175-4.99902-1.368652-7.596928-2.100586v.000061ZM44.711803,51.531113c-.412853-.026611-.647491-.089111-.862698-.048584-3.898224.734192-7.794544,1.478455-11.69009,2.226746-.761171.14624-1.912352.086853-2.176449.536987-.334942.570862-.025867,1.582214.14563,2.373291.301258,1.389648.380409,2.837524,1.457136,3.997009,2.231951,2.403442,4.949522,2.972595,8.010439,2.282227,3.205891-.723083,5.388805-2.881348,5.68507-6.05835.161373-1.730469-.355625-3.52417-.569038-5.309204h-.000004l.000004-.000122ZM74.252201,25.56871c1.978691-.209412,4.202621-.838135,5.675003-1.993774,1.176643-.923523,2.35141-2.017822,2.120331-3.690247-.195038-1.411499-1.199966-2.431824-2.535896-2.843079-3.190987-.9823-7.153961-.521606-9.616806,2.502869-1.435875,1.763306-.932159,4.196838,1.14048,5.081299,1.020546.435486,2.141418.636047,3.216888.942932ZM25.97485,6.914413c2.672703-.174744,5.260761-.532043,7.530556-1.997559.55162-.356201.844723-1.112488,1.256702-1.684875-.564358-.303101-1.097092-.761597-1.698242-.883789-3.650639-.742126-7.065647.015808-10.249842,1.86084-.38814.224915-.844093.791931-.809992,1.157715.034513.370178.584984.865967,1.004019.991699.958269.287476,1.974253.38269,2.966799.555969h0ZM35.763626,6.156601c-4.374817,2.955322-9.021301,3.650085-14.024998,2.358643.029194,1.191223.703047,1.739746,1.70924,1.947815.454441.093933.938183.039001,1.39801.115417,3.72934.619873,7.11334-.375,10.289532-2.238647.766373-.449646,1.072632-1.198547.628216-2.183228ZM66.68211,22.440353c-.586189.129578-1.069557.23407-1.551826.343445-1.447182.328186-1.500336.441406-.829231,1.913269.892044-.244629,1.797173-.492798,2.789658-.764954-.152153-.555542-.26947-.983826-.4086-1.49176Z"/>
      <path class="cls-4" d="M19.546417,6.55864c0,.761475-.018831,1.377441.00359,1.991943.0634,1.737549.824778,3.078369,2.520571,3.590515,4.973974,1.502075,9.716124.858582,14.04431-2.006531,2.023415-1.339417,2.333637-2.962524,1.452003-5.245544-.125168-.324158-.256481-.645935-.415501-1.045654.269642-.087097.476276-.212585.682655-.212158,11.060787.023254,19.35928,5.981873,22.909153,16.179504.435982,1.25238.67519,2.572693,1.099857,3.829712.61132,1.809448-.123474,3.202576-1.248234,4.498901-2.10471,2.425781-4.81105,4.055542-7.682964,5.31134-12.174095,5.323059-24.904749,7.612915-38.18224,6.613403-3.700566-.278564-7.289806-1.013977-10.529791-2.994995-.954729-.58374-1.439409-1.303528-1.5854-2.422119-.846906-6.489319-.217405-12.694519,3.524918-18.273254,3.241842-4.832703,7.825426-7.879883,13.407074-9.815002h0l-.000002-.000061ZM6.652761,27.458908c0,.723999-.142768,1.202942.032041,1.485474.293198.473938.788694.822754,1.199067,1.224182.318796-.427917.691783-.827698.934438-1.295166.128948-.248352.028566-.614075.037547-.926697.150578-5.242188,2.315208-9.383118,6.681971-12.361877.594812-.405762,1.694901-.779053.973471-1.866516-.670738-1.010986-1.434769-.307129-2.145927.045959-.104654.051941-.20627.113525-.30032.182861-4.667887,3.439514-7.151084,8.051453-7.412284,13.511658l-.000003.000122Z"/>
      <path class="cls-5" d="M3.904774,39.688156c2.597907.731934,5.058942,1.618835,7.596928,2.100586,5.509686,1.045898,11.081462.8974,16.629981.288696,8.215328-.901367,16.245403-2.620972,23.889744-5.856567,3.8381-1.624573,7.497669-3.550842,10.420204-7.057434.08242,2.491699-.389557,4.594849-1.133602,6.638489-1.423218,3.908997-4.071236,6.83313-7.523335,9.056274-5.004173,3.222595-10.606331,4.784119-16.397873,5.794128-5.030449.877258-10.080351,1.522156-15.19998,1.022827-3.72225-.363037-7.361008-1.01947-10.672204-2.94281-3.544018-2.058533-5.870052-5.11145-7.485455-8.788757-.044783-.101929-.03735-.229065-.041639-.34491-.001048-.028381.047759-.058594-.082766.089539l-.000004-.000061Z"/>
      <path class="cls-1" d="M44.711803,51.531113c.213413,1.785095.730408,3.578796.569038,5.309204-.296268,3.177002-2.479179,5.335266-5.685074,6.05835-3.060917.690369-5.778488.121216-8.010439-2.282227-1.076731-1.159485-1.155882-2.607361-1.457136-3.997009-.171495-.791016-.480572-1.802429-.14563-2.373291.264097-.450134,1.415277-.390747,2.176449-.536987,3.895538-.748291,7.791862-1.492554,11.69009-2.226746.215206-.040527.449844.021973.862698.048584h0l.000004.000122ZM37.962917,61.098129c2.048637.008057,3.811306-1.572144,3.879589-3.477905.068165-1.902649-1.764706-3.792969-3.694645-3.810364-2.280331-.02063-3.824085,1.462097-3.818573,3.667603.005104,2.040527,1.582874,3.612671,3.633633,3.620728h-.000004v-.000061Z"/>
      <path class="cls-1" d="M74.252201,25.56871c-1.075462-.306885-2.196335-.507446-3.216881-.942932-2.072639-.884521-2.576355-3.317993-1.14048-5.081299,2.462837-3.024475,6.425819-3.485107,9.616806-2.502869,1.335922.411255,2.340858,1.43158,2.535896,2.843079.231079,1.672424-.943687,2.766785-2.120331,3.690308-1.472382,1.155579-3.696304,1.784302-5.675003,1.993774l-.000008-.000061Z"/>
      <path class="cls-1" d="M25.97485,6.914413c-.992544-.173279-2.00853-.268494-2.966801-.555969-.419035-.125732-.969503-.62146-1.004019-.991699-.0341-.365723.421852-.9328.809992-1.157715,3.184196-1.845032,6.599201-2.602905,10.24984-1.86084.601151.122192,1.133884.580688,1.698242.883789-.411983.572327-.705082,1.328674-1.256702,1.684814-2.269793,1.465515-4.857851,1.822815-7.530554,1.997559h.000004l-.000002.000061Z"/>
      <path class="cls-1" d="M35.763626,6.156601c.444416.98468.138157,1.733521-.628216,2.183228-3.176193,1.863708-6.560192,2.858582-10.289532,2.238647-.459831-.076416-.943569-.021423-1.39801-.115417-1.006193-.208008-1.680046-.756531-1.70924-1.947815,5.003698,1.291382,9.650181.59668,14.024998-2.358643Z"/>
      <path class="cls-2" d="M66.68211,22.440353c.13913.507935.256432.936218.408592,1.49176-.992485.272156-1.897614.520325-2.789658.764954-.671104-1.471802-.61795-1.585083.829231-1.913269.482269-.109375.965637-.213867,1.551834-.343445Z"/>
      <path class="cls-2" d="M6.652761,27.458908c.261201-5.460205,2.744397-10.072205,7.412283-13.511658.094051-.069275.195667-.13092.30032-.182861.71116-.353088,1.47519-1.056946,2.145927-.045959.72143,1.087402-.378658,1.460754-.97347,1.866516-4.366762,2.978699-6.531392,7.119629-6.681972,12.361877-.008981.312561.091401.678284-.037547.926697-.242654.467407-.615641.867249-.934438,1.295166-.410373-.401428-.905869-.750244-1.199067-1.224182-.174807-.282532-.032041-.761475-.03204-1.485474l.000003-.000122Z"/>
      <path class="cls-3" d="M37.962917,61.098129c-2.050758-.008057-3.628525-1.5802-3.633629-3.620728-.005516-2.205505,1.538239-3.688171,3.818573-3.667603,1.929939.017456,3.762814,1.907715,3.694645,3.810364-.068279,1.905762-1.830948,3.485962-3.879589,3.477905h0v.000061ZM39.671154,57.406662c-.03019-.845703-.844753-1.567566-1.746006-1.547302-.791584.017822-1.510967.803589-1.505421,1.644348.005615.848938.818962,1.563232,1.737663,1.52594.847351-.034363,1.543812-.781067,1.513763-1.622986Z"/>
      <path class="cls-2" d="M39.671154,57.406662c.030052.841919-.666409,1.588623-1.51376,1.622986-.918697.037292-1.732048-.677002-1.737663-1.52594-.005547-.840759.713833-1.626587,1.505421-1.644348.901253-.020264,1.715816.701599,1.746002,1.547302Z"/>
    </g>
  </g>
</svg>