<?xml version="1.0" encoding="UTF-8"?>
<svg id="Layer_2" xmlns="http://www.w3.org/2000/svg" viewBox="0 0 77.064804 70.940808">
  <defs>
    <style>
      .cls-1 {
        fill: #1c1a19;
      }

      .cls-2 {
        fill: #5b4236;
      }
    </style>
  </defs>
  <g id="Layer_1-2" data-name="Layer_1">
    <g>
      <path class="cls-1" d="M11.08577,57.878719c-.069244-4.45813,2.310242-7.881836,5.594696-10.847351,1.858154-1.677734,3.815857-3.260437,5.539185-5.066711,1.060669-1.111694,1.87674-2.504395,2.604126-3.87616,1.503204-2.834839,3.22522-5.439453,5.882965-7.358704,5.611938-4.052551,14.009003-2.968933,18.305969,2.463745.942749,1.191956,1.871216,2.442444,2.53537,3.798523,1.87619,3.830933,4.722168,6.747009,8.028107,9.361389,3.769623,2.981018,6.279968,6.738708,6.351624,11.78064.108734,7.656677-5.853699,13.380188-13.493103,12.736816-1.960907-.165161-3.933929-.714783-5.799438-1.375427-4.147675-1.468811-8.29834-2.361389-12.648315-1.028259-1.385162.4245-2.755676.898071-4.126923,1.366638-2.786957.952393-5.637146,1.415894-8.559845.881165-6.241669-1.141907-10.219193-6.095703-10.214447-12.836365h.000046l-.000015.000061ZM53.170517,68.791317c.030762-.087097.061462-.174194.092224-.261353.776276-.067871,1.57782-.034058,2.32489-.219604,6.334961-1.573486,8.677856-6.747498,7.587677-12.3927-.708527-3.669189-3.169403-6.139648-5.93399-8.428589-1.735016-1.436523-3.454712-2.970947-4.838715-4.730713-1.557098-1.979858-2.773865-4.236023-4.058899-6.418945-2.503967-4.253479-7.46521-6.402405-12.272705-5.310913-3.886963.882507-6.479614,3.33313-8.217102,6.759827-2.086578,4.115112-4.961456,7.489929-8.625061,10.3172-2.604889,2.010254-4.788147,4.414124-5.483582,7.914368-.957306,4.818481,1.126007,9.504822,5.583557,11.591492,3.288757,1.539551,6.63739.992554,9.928284-.117249,2.809814-.947571,5.572388-2.008301,8.602631-2.123901,3.242157-.123718,6.240326.795959,9.259338,1.781006,1.984283.647461,4.032074,1.10022,6.051453,1.640137h.000031l-.000031-.000061Z"/>
      <path class="cls-1" d="M40.711533,14.56805c.075256-4.575989,1.442993-8.659363,4.858429-11.829529,5.645172-5.239868,11.701721-2.297974,13.917938,3.2547,2.51416,6.299133,1.28775,12.120422-2.941986,17.263245-4.327606,5.261841-11.650482,4.15918-14.484558-2.061279-.957947-2.102539-1.392365-4.314575-1.349823-6.627136h-.000031.000031ZM58.192245,11.830684c-.05835-3.005798-.679077-5.87561-3.167175-8.028992-1.31366-1.136963-2.784637-1.735168-4.522766-1.22467-2.955322.868042-4.78891,2.984436-6.024292,5.666626-1.059631,2.300537-1.35144,4.732117-1.206146,7.274963.109039,1.908569.340393,3.748169,1.331726,5.388123,2.392456,3.957825,6.443298,4.347534,9.447357,1.480896,3.007812-2.8703,4.054504-6.459045,4.141296-10.556946Z"/>
      <path class="cls-1" d="M16.414993,12.331295c-.011993-3.576782.81134-6.455017,2.673798-9.024841C21.536392-.070744,25.945084-.867802,29.544876,1.227047c5.315369,3.09314,7.603577,10.396729,6.666412,16.218018-.46225,2.871155-1.523712,5.396851-3.811462,7.320129-3.220337,2.707275-7.561005,2.312195-10.628418-.403381-3.729675-3.30188-5.188263-7.613403-5.356445-12.030457h.000031v-.000061ZM34.088608,14.704952c-.215851-1.340454-.326447-2.708435-.669098-4.015625-.750092-2.861267-2.157959-5.373779-4.581268-7.153687-3.605621-2.648254-7.36911-.443237-8.980164,3.059814-1.24234,2.701294-1.225006,5.584473-.657196,8.483704.547302,2.794434,1.692444,5.272278,3.763641,7.246338,3.265015,3.111877,7.553406,2.384521,9.662872-1.602844.990845-1.872925,1.349609-3.890381,1.461273-6.0177h-.000061Z"/>
      <path class="cls-1" d="M77.064804,28.740719c-.178192,5.497986-1.877136,9.635132-5.768555,12.724243-5.059509,4.016418-11.275787,2.13501-13.138763-4.048035-1.250732-4.151001-.319397-8.057129,1.781158-11.73291,1.370972-2.399048,3.223053-4.3797,5.720795-5.582825,4.54892-2.191223,9.289307.165405,10.80365,5.332764.370422,1.263916.478638,2.604675.601685,3.306763h.000031ZM74.723312,29.09106c-.15448-.809753-.304138-1.889526-.570648-2.939697-1.090759-4.297302-5.357758-5.784119-8.844238-3.069885-3.842712,2.991516-5.461182,7.034058-5.244965,11.804199.087677,1.934082.696747,3.82135,2.307739,5.081482,2.113953,1.653564,4.515106,1.667114,6.86731.080933,3.768677-2.541321,5.054077-6.375793,5.484772-10.95697h.000031v-.000061Z"/>
      <path class="cls-1" d="M.000015,30.062557c.040665-4.247314,1.017502-7.240784,3.843613-9.395996,1.850052-1.410828,3.934875-1.680542,6.129349-1.067017,2.38855.667786,4.284515,2.116516,5.771515,4.052551,3.404816,4.432861,4.803253,9.322266,2.83963,14.760254-1.666412,4.61499-6.531158,6.464355-10.871689,4.179016-5.351883-2.817749-7.290817-7.661865-7.712433-12.52887h.000015v.000061ZM17.263412,34.111873c-.31601-4.26825-1.76236-7.877136-4.964111-10.635071-1.43428-1.235474-3.153503-2.109497-5.151382-1.721069-2.697052.524353-4.637726,3.153381-4.748932,6.336426-.160217,4.5849,1.333145,8.466003,4.872177,11.515442,2.890045,2.490173,7.032501,2.044983,8.741089-1.179993.686523-1.295898.849762-2.868835,1.25119-4.315674l-.000031-.000061Z"/>
      <path class="cls-2" d="M53.170517,68.791317c-2.019379-.539917-4.067169-.992676-6.051453-1.640137-3.019012-.985046-6.017151-1.904724-9.259338-1.781006-3.030243.115601-5.792816,1.176331-8.602631,2.123901-3.290894,1.109741-6.639526,1.656799-9.928284.117249-4.45755-2.08667-6.540833-6.77301-5.583557-11.591492.695435-3.500244,2.878693-5.904114,5.483582-7.914368,3.663605-2.827271,6.538483-6.202026,8.625061-10.3172,1.737488-3.426697,4.33017-5.877319,8.217102-6.759827,4.807465-1.091431,9.768738,1.057434,12.272705,5.310913,1.285034,2.182922,2.501801,4.439148,4.058899,6.418945,1.384003,1.759766,3.103699,3.294189,4.838715,4.730713,2.764587,2.288879,5.225464,4.759338,5.93399,8.428528,1.090179,5.645203-1.252747,10.819214-7.587677,12.3927-.74707.185547-1.548584.151733-2.32489.219604-.030762.087097-.061462.174194-.092224.261353h-.000031l.000031.000122Z"/>
      <path class="cls-2" d="M58.192245,11.830684c-.086792,4.0979-1.133484,7.686646-4.141296,10.556946-3.004059,2.866699-7.054871,2.476929-9.447357-1.480896-.991333-1.639954-1.222687-3.479553-1.331726-5.388123-.145294-2.542847.146484-4.974426,1.206116-7.274963,1.235413-2.682129,3.069-4.798584,6.024292-5.666626,1.738129-.510559,3.209106.087646,4.522766,1.22467,2.488068,2.153381,3.108795,5.023193,3.167175,8.028992h.000031Z"/>
      <path class="cls-2" d="M34.088608,14.704952c-.111664,2.12738-.470428,4.144775-1.461273,6.0177-2.109467,3.987305-6.397858,4.714722-9.662872,1.602844-2.071167-1.97406-3.216339-4.451904-3.763641-7.246338-.56778-2.899231-.585144-5.782349.657196-8.483704,1.611053-3.503052,5.374512-5.708069,8.980164-3.059814,2.42334,1.779846,3.831177,4.292419,4.581268,7.153687.342682,1.30719.453247,2.675232.669098,4.015625h.000061Z"/>
      <path class="cls-2" d="M74.723312,29.09106c-.430725,4.581177-1.716125,8.415649-5.484772,10.95697-2.352234,1.586182-4.753357,1.572632-6.86731-.080933-1.610992-1.260132-2.220062-3.1474-2.307739-5.081482-.216217-4.770142,1.402252-8.812683,5.244965-11.804199,3.486481-2.714172,7.753479-1.227356,8.844238,3.069885.26651,1.050171.416199,2.129944.570648,2.939697h-.000031v.000061Z"/>
      <path class="cls-2" d="M17.263412,34.111873c-.401398,1.446838-.564636,3.019775-1.25119,4.315674-1.708557,3.224976-5.851044,3.670227-8.741089,1.179993-3.539047-3.049438-5.032379-6.930542-4.872177-11.515442.111206-3.183044,2.05188-5.812073,4.748932-6.336426,1.997879-.388428,3.717102.485657,5.151382,1.721069,3.201782,2.757935,4.648102,6.366821,4.964111,10.635071h0l.000031.000061Z"/>
    </g>
  </g>
</svg>