<?xml version="1.0" encoding="UTF-8"?>
<svg id="Layer_2" xmlns="http://www.w3.org/2000/svg" viewBox="0 0 69.893204 65.267267">
  <defs>
    <style>
      .cls-1 {
        fill: #f1efee;
      }

      .cls-2 {
        fill: #232221;
      }

      .cls-3 {
        fill: #e5cd4c;
      }

      .cls-4 {
        fill: #fcda18;
      }

      .cls-5 {
        fill: #076952;
      }
    </style>
  </defs>
  <g id="Layer_1-2" data-name="Layer_1">
    <g>
      <path class="cls-2" d="M15.045843,30.259574c-.425842.481873-.662598.753326-.903137,1.021362-1.179932,1.314606-2.570862,2.322144-4.305847,2.742798-3.010956.730225-5.525574-1.772125-4.610931-4.733063.42981-1.391632,1.365845-2.630219,2.099915-3.922607.170868-.300781.453522-.538147.804169-.942322-1.286224-.093781-2.357086-.111633-3.407104-.268494-.770172-.115051-1.538605-.34906-2.262512-.641937C1.024389,22.934501.106298,21.851341.009374,20.289909c-.095123-1.532532.533081-2.926422,1.911804-3.568573,1.463226-.681519,3.105194-.983368,4.675781-1.42749.269806-.076294.572906-.035034,1.151093-.061249-.545197-.585114-.994324-.958435-1.306671-1.423523-.809875-1.206207-1.773315-2.370209-2.288391-3.700745-1.043976-2.69696.980011-5.332916,3.829651-4.844177,1.625061.278778,3.119446,1.333984,4.662476,2.061157.287048.135284.525482.373535.918884.661163.077759-1.028839.021057-1.935669.239136-2.770844.317444-1.215698.659241-2.484802,1.301025-3.543243,1.223694-2.018127,3.690369-2.20694,5.424316-.581665,1.452576,1.361603,2.018494,3.121979,2.259674,5.027954.050018.39502.104279.789551.156555,1.184265.171143.126099.342224.252197.513336.378265.318451-.50351.524475-1.174072.977081-1.478302,1.225281-.823669,2.476105-1.769135,3.860199-2.163086,2.735535-.778595,4.909729,1.312073,4.599457,4.156647-.19635,1.800049-1.183563,3.212921-2.240997,4.592163-.180237.235077-.364197.467316-.651306.835327.393951.039764.663086.062408.931061.094788,1.188812.143738,2.404999.177277,3.559937.460114,2.170105.531372,3.60199,2.186646,3.60321,3.942291.001282,1.817963-1.441437,3.581238-3.549652,4.1651-1.250153.346252-2.548157.519958-3.916351.789307.744415.867706,1.506317,1.669525,2.162048,2.550262.441315.592804.83194,1.262543,1.073944,1.957489,1.086731,3.120178-.805908,5.533752-4.096008,5.285095-.183472-.013885-.367432-.020508-.746429-.041168,2.910339,5.403717,4.889923,11.025726,6.416229,16.898438,2.189056-6.631348,5.198059-12.863068,8.773956-18.932129-.350922-.120728-.621643-.206848-.88739-.306427-1.818878-.681366-2.669769-2.580963-1.754517-4.301361.533997-1.003693,1.378296-1.845947,2.108765-2.739807.223297-.273224.531982-.476685.959198-.849762-.598206-.121185-1.020966-.125275-1.365112-.291687-1.065765-.515381-2.259247-.916718-3.115204-1.68335-1.631592-1.461334-1.3284-4.1073.651367-5.033905,1.398895-.654663,3.062592-.744171,4.638977-1.092804-.301758-.708038-.854645-1.65683-1.096008-2.679108-.204987-.868073-.271301-1.89032-.009674-2.722076.567169-1.803162,2.379883-2.621063,4.078308-1.782166,1.277863.631195,2.36264,1.652679,3.596344,2.54599.042542-.116119.114105-.381683.233032-.624054.508392-1.036102.886414-2.176178,1.577026-3.07489,1.590454-2.069733,4.327881-1.777313,5.347687.635101.575317,1.360779.64502,2.935028.962646,4.51355.1427-.08194.505066-.280609.858185-.494507,1.255768-.760651,2.57843-1.210754,4.074249-.935028,1.974854.363983,3.090485,2.235931,2.487732,4.149811-.424927,1.349182-1.287964,2.353912-2.394836,3.18338-.255493.191498-.507721.387543-.709351.541656,1.213013.495667,2.417816.88678,3.524139,1.465973,1.338745.700836,2.059967,1.900909,1.888184,3.433105-.17511,1.561401-1.226044,2.506714-2.687378,2.828003-1.215454.267212-2.488922.270752-3.785675.395813.349884.701141.764954,1.405273,1.063446,2.15567.815491,2.049835.436615,3.986603-.908508,4.926422-1.341095.937012-3.164062.678436-4.84436-.764465-.61496-.528076-1.119507-1.18457-1.796112-1.913574-.136078.481689-.192078.914368-.375397,1.284027-.494934.997986-.906281,2.081787-1.599487,2.92807-1.56424,1.909698-3.993073,1.599182-5.202332-.552368-.107941-.192108-.219055-.382446-.516296-.900696-2.458282,4.834991-4.803497,9.447601-7.148682,14.060211l.297852.220459c.239868-.183441.495972-.349243.717255-.552826,4.785614-4.401367,10.486633-6.769348,16.886383-7.547577,1.601166-.194702,3.218689-.313049,4.830994-.342834,1.639374-.030273,2.035248.46051,1.715729,2.074402-.796051,4.021057-2.296326,7.780243-4.570221,11.188873-5.006805,7.505127-12.193237,11.336273-21.052216,12.260254-2.491638.259857-4.98584.497925-7.481476.715302-8.403992.732056-16.069885-1.109894-22.573944-6.700775-3.841644-3.302246-6.360321-7.551483-8.229767-12.207672-.363403-.905121-.684967-1.82785-1.001556-2.750793-.505127-1.472748-.073151-2.255768,1.553436-2.327209,2.056427-.090302,4.13739-.082336,6.182953.12619,5.751648.586304,11.120026,2.323425,15.638489,6.051941,1.806122,1.490326,3.340118,3.31012,4.924927,4.906433.203857-1.765198-4.051056-14.074677-6.056305-17.181915-.22522.397095-.408478.737549-.607544,1.068512-1.648041,2.740936-5.006744,2.830261-6.530396.030304-.765778-1.407288-1.03537-3.086273-1.508728-4.648621-.090393-.29837-.084442-.625946-.15744-1.221252l-.000122.000061.000153.000031ZM64.100256,42.347679c-8.637939,6.737549-17.275818,13.475098-26.117249,20.371368.900085-.044373,1.491882-.052612,2.079559-.105927,3.444458-.312592,6.811584-.9245,9.97229-2.428925,5.000061-2.379944,8.893555-5.989594,11.492767-10.830109,1.165771-2.170959,1.730743-4.664124,2.56842-7.011017.026855-.008453.057465-.011627.079102-.027252.013214-.009552.012573-.03833.018066-.058533-.030975.030121-.061951.060242-.092987.090393h.000031ZM21.896978,11.529106c-.138153-.024231-.276276-.048462-.414429-.072693-.063721-.638275-.17215-1.275818-.183044-1.914978-.03653-2.150055-.120728-4.286652-1.148682-6.251343-.460327-.879791-1.081787-1.556427-2.178711-1.498138-1.082672.057465-1.648254.743103-2.025574,1.687073-.694061,1.736298-.636353,3.526428-.445648,5.32962.074951.708862.225708,1.411987.259094,2.121674.011566.24527-.1716.631409-.368652.717102-.190247.082794-.543427-.092316-.768799-.239807-.210602-.137787-.329346-.40741-.519623-.585907-1.697083-1.592621-3.351776-3.255432-5.72644-3.833191-.901764-.219391-1.880737-.148346-2.312714.683746-.315002.606628-.2323,1.489838-.126587,2.220795.075958.525116.386841,1.093323.758881,1.484802,1.338165,1.407928,2.75238,2.743408,4.124176,4.119873.291168.292175.524872.64151.785004.964539-.425476.137848-.844421.366241-1.277649.397583-1.683044.121613-3.401184.016144-5.045654.32135-1.077911.200043-2.174316.809448-3.038544,1.510956-.915558.743195-.835632,1.900299.09967,2.641663.676819.536469,1.56131,1.058746,2.384918,1.113739,1.968903.131592,3.956451-.028473,5.936676-.040192.334259-.001953.669342.148956,1.004089.229248-.136292.329041-.236115.680664-.421234.979523-.13266.214203-.391083.346558-.573608.534546-1.439758,1.483154-2.91922,2.948608-3.608856,4.964539-.354309,1.035645-.41626,2.113647.488159,2.927979.914154.82309,1.904816.422211,2.839935-.026672,2.028076-.973541,3.455627-2.600739,4.766998-4.367432.31076-.418671.79541-.708405,1.200104-1.057465.124451.545471.28302,1.085785.367157,1.63739.309052,2.026245.478912,4.08194.927063,6.075836.302307,1.34491,1.507812,2.235565,2.460907,2.128143,1.294098-.145874,1.76593-1.17337,2.0914-2.232819.218048-.709808.367157-1.467072.382782-2.206573.024506-1.15921-.108948-2.320801-.138458-3.48233-.01828-.719604.032166-1.440887.051758-2.161438.608734.419739,1.279175.773315,1.814728,1.271637,1.572784,1.463623,3.10553,2.966858,5.294983,3.481842.892334.209869,1.747864.150513,2.366486-.615509.606018-.750366.625031-1.62027.161285-2.429443-.518646-.904938-1.035278-1.850098-1.742828-2.598389-.997833-1.055328-2.185272-1.929535-3.256256-2.919403-.2435-.225067-.34201-.60675-.507233-.916382.289215-.119507.570618-.309448.869446-.342865.519623-.058044,1.056183.031647,1.574829-.030701,1.707642-.2052,3.434326-.342926,5.107697-.713867,1.414337-.313507,2.179657-1.335266,2.167175-2.400452-.012421-1.060669-.699615-1.990906-2.172943-2.219147-1.870026-.289703-3.792023-.241486-5.690979-.349823-.70282-.0401-1.403839-.110901-2.105682-.167694.410553-.541229.792023-1.107697,1.237122-1.618958,1.404541-1.613586,2.925385-3.152985,3.38736-5.353577.190216-.906036.245087-1.831024-.590698-2.482422-.860748-.670837-1.797607-.448975-2.657501-.008209-.694946.356232-1.409454.757629-1.958069,1.298279-1.092773,1.077057-2.077545,2.263458-3.106628,3.405029-.266693.295837-.532135.592865-.798126.889343l.000031.000031-.000061-.000061ZM50.686682,30.354576c.035034.007782.070099.015503.105133.023285,0,.337616-.01532.676056.002716,1.012756.075378,1.411804.64032,2.460266,1.488159,2.514313,1.230377.078522,1.853394-.862152,2.1586-1.811066.466278-1.449646.675659-2.980591,1.023193-4.470306.09317-.399414.291779-.774231.441956-1.16037.356079.27478.770111.499664,1.058075.833282,1.096832,1.270996,2.088715,2.639191,3.252625,3.842712.552948.571777,1.416046.976318,2.249298.357697.871368-.646851.793335-1.546082.489014-2.452454-.107117-.318878-.223389-.648193-.406677-.92572-.844513-1.278839-1.725067-2.533875-2.564209-3.816101-.146484-.223877-.156158-.537109-.229095-.809082.269226-.061737.539856-.178009.807434-.171448.332886.00824.660645.151886.995209.178284,1.635498.128693,3.277893.359711,4.906097.288269.576355-.025299,1.353424-.695404,1.621216-1.266693.368561-.786102-.291779-1.533325-1.006561-1.765594-1.726471-.561188-3.513733-.933838-5.268646-1.411194-.439789-.119659-.850159-.347595-1.274048-.525757.269531-.331299.494232-.716461.816528-.984467,1.291748-1.074371,2.666656-2.054443,3.903992-3.186096.715637-.65448,1.148926-1.628418.447845-2.527588-.665527-.853638-1.722656-.835297-2.57843-.362213-1.401123.774536-2.694397,1.74176-4.06134,2.58197-.37085.227936-.842804.291534-1.268402.430573-.03418-.419525-.104828-.839813-.096313-1.258484.03714-1.82309.189941-3.650787.089844-5.46524-.028137-.510712-.714905-1.291565-1.206177-1.384338-.494049-.093292-1.164978.45816-1.671753.841492-.265808.20108-.414886.631195-.497986.985626-.33316,1.420807-.595398,2.858368-.937317,4.276886-.114777.476105-.388611.913971-.589752,1.369324-.333252-.315155-.704315-.599365-.993011-.95108-1.019562-1.241943-1.934723-2.5802-3.04361-3.734039-.600525-.624908-1.500092-1.09845-2.430573-.379822-.887939.685852-.809357,1.656281-.397919,2.455627.750854,1.45874,1.701294,2.814026,2.546814,4.225464.207184.345886.330536.741882.492432,1.114838-.406677.050568-.820343.175842-1.218781.138641-1.598236-.149353-3.189056-.44928-4.788055-.492188-.93924-.025208-1.926453.362335-2.137054,1.47937-.22229,1.17865.575348,1.897491,1.539734,2.186279,1.460754.437469,2.991364.63916,4.486603.966675.450165.098602.881653.282135,1.321747.426727-.29187.391541-.572021.792725-.881683,1.169617-.115082.140015-.309479.21167-.450531.334259-1.126465.978851-2.370026,1.860992-3.316528,2.991241-.416595.497467-.500305,1.630707-.217651,2.232574.194977.415283,1.272003.525238,1.96579.561188.483765.025055,1.041901-.219818,1.469299-.495178,1.163544-.749725,2.264587-1.595642,3.415405-2.366119.27182-.181976.64209-.217194.967102-.319916.062561.346985.222839.709595.170227,1.038116-.195282,1.217865-.460724,2.424561-.699799,3.635437h-.000183v.000031ZM31.633154,63.328605c-9.348389-6.371796-18.420654-12.555389-27.67923-18.865967,4.346344,13.42572,15.951813,19.704529,27.67923,18.865967ZM32.278692,61.679374c.085663-.043976.171387-.087952.25708-.131927-1.778687-5.824066-5.348053-10.397339-10.235077-13.949066-5.033936-3.658447-10.85556-4.679749-16.893036-4.792694-.062347.124817-.124664.249634-.186981.37442,9.019348,6.166412,18.038666,12.332825,27.058014,18.499237v.000031ZM37.155615,61.097679c8.582672-6.694275,17.165314-13.38858,25.862488-20.172211-10.85672-.315826-22.920074,7.0047-25.862488,20.172211ZM24.185613,30.240684c.193573.9888.20993,1.758331.497681,2.407867.726624,1.640228,1.727844,3.17041,2.34433,4.845581,1.419708,3.85788,2.778412,7.744904,3.966797,11.678925.9599,3.177704,1.601227,6.450287,2.453918,9.662231.296539,1.116943.802795,2.178314,1.213318,3.265076.27887-.335205.353546-.618408.329224-.892883-.243866-2.750885-.293701-5.539673-.800598-8.242401-1.296539-6.91333-3.635681-13.496399-6.816254-19.778625-.649536-1.282867-1.605072-2.189026-3.188324-2.945801l-.000092.000031ZM36.301672,56.39376c.115173.013184.230347.026398.34549.039551.733917-1.669037,1.498352-3.325439,2.195312-5.009735,1.388-3.354431,2.590515-6.794586,4.146393-10.067963,1.588898-3.342743,3.523499-6.520538,5.273224-9.788544.351746-.656982.552948-1.39444.823578-2.094849-.152679-.093323-.305389-.186676-.458038-.279968-.924255.779785-2.086395,1.400085-2.734314,2.365173-4.275543,6.368134-6.965729,13.475983-9.387695,20.695038-.457428,1.363373-.491913,2.753662-.203949,4.141388l-.000031-.000031.000031-.000061Z"/>
      <path class="cls-1" d="M21.896978,11.529106c.265991-.296509.531433-.593536.798126-.889343,1.029053-1.141571,2.013855-2.327972,3.106628-3.405029.548615-.540649,1.263062-.942047,1.958069-1.298279.859894-.440796,1.796783-.662659,2.657501.008209.835785.651428.780914,1.576385.590698,2.482422-.461945,2.200623-1.982819,3.740021-3.38736,5.353577-.445038.51123-.826569,1.077728-1.237122,1.618958.701843.056793,1.402863.127594,2.105682.167694,1.898956.108337,3.820953.06012,5.690979.349823,1.473328.228241,2.160522,1.158478,2.172943,2.219147.012482,1.065186-.752869,2.086975-2.167175,2.400452-1.67337.370911-3.400055.508636-5.107697.713867-.518616.062317-1.055237-.027344-1.574829.030701-.298828.033417-.5802.223358-.869446.342865.165222.309601.263763.691315.507233.916382,1.071014.989868,2.258484,1.864044,3.256256,2.919403.707489.748322,1.224121,1.693481,1.742828,2.598389.463745.809143.444733,1.679077-.161285,2.429443-.618622.766022-1.474213.825378-2.366486.615509-2.189453-.515015-3.722198-2.01828-5.294983-3.481842-.535522-.498291-1.205963-.851898-1.814728-1.271637-.019592.720551-.070068,1.441833-.051758,2.161438.02948,1.16153.162964,2.323151.138458,3.48233-.015625.739502-.164734,1.496765-.382782,2.206573-.32547,1.059418-.797333,2.086945-2.0914,2.232819-.953094.107422-2.1586-.783234-2.460907-2.128143-.448151-1.993896-.618011-4.049591-.927063-6.075836-.084137-.551605-.242706-1.091919-.367157-1.63739-.404694.34906-.889313.638794-1.200104,1.057465-1.311371,1.766693-2.738922,3.39389-4.766998,4.367432-.93512.448883-1.925812.849762-2.839935.026672-.904388-.814331-.842407-1.892334-.488159-2.927979.689636-2.01593,2.169067-3.481384,3.608856-4.964539.182495-.188019.440948-.320374.573608-.534546.18512-.298859.284943-.650482.421234-.979523-.334747-.080292-.66983-.231201-1.004089-.229248-1.980194.011688-3.967743.171783-5.936676.040192-.823578-.054993-1.708069-.57724-2.384918-1.113739-.935303-.741364-1.015228-1.898499-.09967-2.641663.864227-.701508,1.960632-1.310913,3.038544-1.510956,1.64447-.305206,3.36261-.199738,5.045654-.32135.433197-.031342.852112-.259705,1.277649-.397583-.260162-.322998-.493835-.672363-.785004-.964539-1.371857-1.376434-2.786072-2.711945-4.124176-4.119873-.37207-.391479-.682953-.959656-.758881-1.484802-.105713-.730957-.188416-1.614166.126587-2.220795.431976-.832062,1.41098-.903137,2.312714-.683746,2.374664.577759,4.029327,2.24057,5.72644,3.833191.190247.178497.309021.44812.519623.585907.225403.147491.578552.322601.768799.239807.197083-.085693.380188-.471832.368652-.717102-.033386-.709656-.184113-1.412842-.259094-2.121674-.190704-1.803192-.248413-3.593292.445648-5.32962.377319-.94397.942871-1.629578,2.025574-1.687073,1.096924-.058289,1.718414.618378,2.178711,1.498169,1.027985,1.964691,1.112152,4.101288,1.148682,6.251343.010864.63916.119324,1.276703.183044,1.914978.138153.024231.276276.048462.414429.072693l-.000031-.000031.000061.000031ZM13.309728,18.918693c-.019897,3.174164,2.454468,5.755463,5.531342,5.770386,3.235931.015686,5.903015-2.55722,5.90686-5.698334.003754-3.065063-2.623016-5.616516-5.832092-5.664948-3.003479-.045349-5.586914,2.531982-5.606079,5.592926l-.000031-.000031Z"/>
      <path class="cls-1" d="M50.686682,30.354576c.239075-1.210907.504517-2.417572.699799-3.635437.052673-.328522-.107635-.691132-.170227-1.038116-.325012.102692-.695251.137909-.967102.319916-1.150848.770477-2.251892,1.616394-3.415405,2.366119-.427399.275391-.985535.520264-1.469299.495178-.693756-.03595-1.770782-.145905-1.96579-.561188-.282654-.601898-.199005-1.735107.217651-2.232574.946503-1.130219,2.190002-2.01239,3.316528-2.991241.141083-.122589.335449-.194244.450531-.334259.309662-.376923.589844-.778076.881653-1.169617-.440063-.144592-.871582-.328094-1.321716-.426727-1.495239-.327484-3.025848-.529205-4.486603-.966675-.964355-.288818-1.762024-1.00766-1.539734-2.186279.210632-1.117065,1.197845-1.504578,2.137054-1.47937,1.598938.042908,3.189789.342804,4.788055.492188.398438.037201.812134-.088074,1.218781-.138641-.161896-.372986-.285248-.768982-.492432-1.114838-.84552-1.411438-1.795898-2.766724-2.546814-4.225464-.411438-.799377-.48999-1.769806.397919-2.455627.930511-.718628,1.830078-.245087,2.430573.379822,1.108887,1.153778,2.024048,2.492065,3.04361,3.734039.288696.351715.659729.635925.993011.95108.201141-.455353.474945-.893188.589752-1.369324.341919-1.418518.604156-2.856079.937317-4.276886.083099-.354462.232117-.784576.497986-.985626.506775-.383301,1.177704-.934784,1.671753-.841492.491333.092773,1.17807.873627,1.206177,1.384338.100128,1.814423-.052673,3.642151-.089844,5.46524-.008484.418671.062134.838928.096344,1.258484.425568-.139038.897522-.202637,1.268372-.430573,1.366943-.84021,2.660217-1.807434,4.06134-2.58197.855743-.473083,1.912903-.491394,2.57843.362213.701111.89917.267792,1.873138-.447845,2.527588-1.237335,1.131622-2.612274,2.111725-3.903992,3.186096-.322266.267975-.546967.653168-.816528.984467.42392.178162.834259.406067,1.274048.525757,1.754883.477325,3.542175.850006,5.268616,1.411194.714813.232269,1.375183.979492,1.006561,1.765594-.267792.571289-1.044861,1.241364-1.621216,1.266693-1.628265.071442-3.27066-.159576-4.906097-.288269-.334564-.026398-.662292-.170074-.995209-.178284-.267578-.006592-.538208.10968-.807434.171448.072906.271942.082611.585205.229095.809082.839172,1.282227,1.719727,2.537292,2.564209,3.816101.183289.277557.299561.606873.406677.92572.304321.906372.382355,1.805603-.489014,2.452454-.833252.618622-1.69635.214081-2.249298-.357697-1.16391-1.203522-2.155792-2.571716-3.252625-3.842712-.287903-.333588-.701935-.558472-1.058075-.833282-.150177.386139-.348785.760956-.441956,1.16037-.347565,1.489655-.556976,3.02066-1.023193,4.470306-.305206.948914-.928192,1.889587-2.1586,1.811066-.847778-.054047-1.412781-1.102509-1.488159-2.514313-.017975-.33667-.002716-.67511-.002716-1.012756-.035034-.007782-.070099-.015503-.105133-.023285h.000183l.000031-.000031ZM59.187872,20.372032c.054871-2.854797-2.093567-5.003998-5.036804-5.038727-2.165894-.025543-4.381897,2.175934-4.442261,4.413116-.077759,2.88446,2.075684,5.186401,4.882446,5.219238,2.428253.028412,4.548492-2.090454,4.596619-4.593658v.000031Z"/>
      <path class="cls-5" d="M31.633154,63.328605c-11.727386.838593-23.332886-5.440216-27.67923-18.865967,9.258575,6.310577,18.330811,12.494141,27.67923,18.865967Z"/>
      <path class="cls-5" d="M32.278692,61.679374c-9.019348-6.166412-18.038696-12.332825-27.058014-18.499237.062317-.124817.124664-.249634.186981-.37442,6.037476.112946,11.859161,1.134247,16.893036,4.792694,4.887024,3.551727,8.45639,8.125,10.235077,13.949066-.085724.043976-.171387.087952-.25708.131927v-.000031Z"/>
      <path class="cls-5" d="M64.096014,42.342979c-.837585,2.346954-1.402557,4.840118-2.568329,7.011108-2.599213,4.840515-6.492706,8.450134-11.492767,10.830109-3.160706,1.504425-6.527802,2.116333-9.97229,2.428925-.587708.053345-1.179504.061584-2.079559.105927,8.841431-6.896271,17.479309-13.63385,26.117249-20.371368l-.004242-.004669h-.000031l-.000031-.000031Z"/>
      <path class="cls-5" d="M37.155615,61.097679c2.942413-13.167511,15.005768-20.488037,25.862488-20.172211-8.697174,6.78363-17.279846,13.477905-25.862488,20.172211Z"/>
      <path class="cls-5" d="M24.185613,30.240684c1.583252.756775,2.538849,1.662933,3.188324,2.945801,3.180573,6.282196,5.519714,12.865295,6.816254,19.778595.506927,2.702759.556763,5.491516.800598,8.242401.024323.274475-.050323.557648-.329224.892883-.410492-1.086761-.916779-2.148102-1.213318-3.265076-.852631-3.211945-1.494019-6.484528-2.453857-9.662231-1.188324-3.934021-2.547058-7.821045-3.966797-11.678925-.616486-1.675232-1.617706-3.205383-2.34433-4.845581-.287689-.649536-.304108-1.419067-.497681-2.407867l.000031-.000031v.000031Z"/>
      <path class="cls-5" d="M36.301672,56.39376c-.287964-1.387726-.253479-2.777985.203949-4.141388,2.421997-7.219055,5.112152-14.326874,9.387695-20.695038.647888-.965057,1.810028-1.585388,2.734314-2.365173.15271.093323.305389.186676.458038.279968-.270599.700409-.471832,1.437897-.823578,2.094879-1.749725,3.268005-3.684326,6.445801-5.273224,9.788544-1.555908,3.273376-2.758423,6.713531-4.146423,10.067963-.69696,1.684296-1.461365,3.340729-2.195312,5.009735-.115173-.013184-.230377-.026398-.34549-.039551l.000031.000031v.000031Z"/>
      <path class="cls-5" d="M64.100256,42.347679c.030975-.030151.061951-.060242.092987-.090393-.005524.020203-.004852.04895-.018066.058533-.021606.015656-.052246.018829-.079163.027252,0-.000061.004242.004608.004242.004608Z"/>
      <path class="cls-2" d="M13.309728,18.918693c.019165-3.060974,2.6026-5.638275,5.606079-5.592926,3.209106.048431,5.835846,2.599915,5.832092,5.664948-.003845,3.141113-2.670929,5.71402-5.90686,5.698334-3.076813-.014893-5.551239-2.596222-5.531342-5.770386l.000031.000031ZM18.855566,23.028007c2.290466.025391,4.149902-1.761108,4.151489-3.988556.001526-2.233276-1.744446-3.983063-3.98941-3.998108-2.221924-.014893-4.008606,1.746155-4.032349,3.974365-.02298,2.156494,1.744446,3.988739,3.87027,4.012299Z"/>
      <path class="cls-2" d="M59.187872,20.372032c-.048126,2.503204-2.168365,4.62207-4.596619,4.593658-2.806763-.032837-4.960205-2.334778-4.882446-5.219238.060333-2.237213,2.276306-4.43866,4.442261-4.413116,2.943237.034698,5.091675,2.183929,5.036804,5.038727v-.000031ZM54.485937,23.271476c1.617798.027954,3.009125-1.311951,3.057343-2.944427.051971-1.76004-1.406952-3.352081-3.073334-3.353638-1.692932-.001587-2.963837,1.251282-3.011597,2.968506-.051239,1.845978,1.270081,3.299133,3.027496,3.329529l.000031.000031h.000061Z"/>
      <path class="cls-4" d="M18.855566,23.028007c-2.125824-.023529-3.893219-1.855804-3.87027-4.012299.023712-2.228241,1.810425-3.989288,4.032349-3.974365,2.245026.015045,3.990936,1.764832,3.98941,3.998108-.001526,2.227478-1.860962,4.013947-4.151489,3.988556Z"/>
      <path class="cls-3" d="M54.485937,23.271476c-1.757446-.030396-3.078735-1.483551-3.027496-3.329529.047699-1.717255,1.318634-2.970093,3.011597-2.968506,1.666382.001526,3.125275,1.593597,3.073334,3.353638-.048218,1.632477-1.439545,2.972412-3.057343,2.944427l-.000031-.000031h-.000061Z"/>
    </g>
  </g>
</svg>