<?xml version="1.0" encoding="UTF-8"?>
<svg id="Layer_1" xmlns="http://www.w3.org/2000/svg" viewBox="0 0 554.186259 619.618672">
  <defs>
    <style>
      .cls-1 {
        fill: #cecdcd;
      }

      .cls-2 {
        fill: #f0f0ef;
      }

      .cls-3 {
        fill: #eacf3b;
      }

      .cls-4 {
        fill: #eed043;
      }

      .cls-5 {
        fill: #433e2c;
      }

      .cls-6 {
        fill: #c3c2c2;
      }

      .cls-7 {
        fill: #412e2c;
      }

      .cls-8 {
        fill: #5fa56a;
      }

      .cls-9 {
        fill: #f1f0f0;
      }

      .cls-10 {
        fill: #5e7cb3;
      }

      .cls-11 {
        fill: #d1d1d0;
      }

      .cls-12 {
        fill: #4a382e;
      }

      .cls-13 {
        fill: #c7c6c5;
      }

      .cls-14 {
        fill: #4a473c;
      }

      .cls-15 {
        fill: #483e19;
      }

      .cls-16 {
        fill: #363434;
      }

      .cls-17 {
        fill: #3a3740;
      }

      .cls-18 {
        fill: #e17231;
      }

      .cls-19 {
        fill: #36a974;
      }

      .cls-20 {
        fill: #fefefe;
      }

      .cls-21 {
        fill: #e894b9;
      }

      .cls-22 {
        fill: #e54b47;
      }

      .cls-23 {
        fill: #f3f3f3;
      }

      .cls-24 {
        fill: #efefee;
      }

      .cls-25 {
        fill: #60a76d;
      }

      .cls-26 {
        fill: #9481b1;
      }

      .cls-27 {
        fill: #e0dfdd;
      }

      .cls-28 {
        fill: #b2b1b1;
      }

      .cls-29 {
        fill: #333c32;
      }

      .cls-30 {
        fill: #f4d625;
      }
    </style>
  </defs>
  <path class="cls-16" d="M106.825479,612.665202c-7.058524-2.646204-9.816364-7.753335-9.805982-15.244705.102057-73.766609.066468-147.53354-.039603-221.300149-.00487-3.385221.991189-5.681048,3.535042-7.878512,10.276289-8.877086,20.344558-17.994785,30.599387-26.897185,2.044057-1.774518,2.960242-3.551338,2.904263-6.319293-.180138-8.906735-.076797-17.81957-.04755-26.729971.03492-10.637529,5.923614-16.558869,16.454939-16.567967,10.955474-.009446,21.913571-.134114,32.864924.079018,3.610822.070295,6.239044-.970612,8.958352-3.37829,20.334229-18.004097,40.641432-36.046967,61.323281-53.647385,14.660299-12.476054,32.774427-12.289841,47.416958.281366,20.385498,17.501759,40.411041,35.422209,60.705882,53.030708,1.939725,1.682924,4.702596,2.410729,7.067889,3.6124,1.009171.512747,2.197891.899247,2.934233,1.688891,25.165266,26.987254,54.354854,49.581026,81.283613,74.638402,1.964611,1.828089,2.988873,4.66674,4.450317,7.035618-.134007,1.881445-.384199,3.76273-.385216,5.644175-.038532,71.706471-.073211,143.412995-.054962,215.119466.003211,12.534869-4.140988,16.804084-16.753832,16.803549-41.622346-.00182-83.244692-.008081-124.867038-.003586-69.514975.007492-139.029922.021942-208.544897.033448ZM453.651515,376.991177c-.157982-.35241-.315911-.704873-.473893-1.057283-.390139.246821-.780332.493695-1.170471.740515-3.707072,2.626242-7.414198,5.252484-11.121323,7.878726-.863123.52741-1.760764,1.006067-2.584392,1.589242-38.195382,27.046176-76.383486,54.102521-114.574801,81.154316-5.425986,3.843327-10.863906,7.669902-16.507546,11.653336,1.552101,1.449991,2.789201,2.678207,4.101118,3.820368,21.79883,18.977251,43.583371,37.971039,65.42084,56.903656,16.972984,14.7151,34.014631,29.351155,51.025719,44.022318,8.009575,7.093631,16.019203,14.187315,24.028778,21.280946.503702-.132883,1.007405-.265712,1.511107-.398595.111797-4.251233.223594-8.50252.335445-12.753807.058762-1.599785.1689-3.199516.168793-4.799301-.002783-40.554467.000589-81.108934-.035214-121.663401-.025635-29.025397-.106392-58.050741-.162638-87.076138.013379-.399719.026759-.799384.040138-1.199103l-.001659-.095796ZM421.61466,374.147014c-.286102.009258-.572151.018517-.858306.027775-.376867,6.61385-.753788,13.227701-1.204615,21.1395,3.480267-2.612863,5.85043-4.392251,8.220593-6.171639,6.970595-4.797428,13.941244-9.594803,21.771483-14.983863-8.297978,0-15.478467,0-22.658902.000054-1.75675-.00396-3.513501-.007867-5.270251-.011827ZM426.923711,370.399804c7.275107-.013647,14.550214-.027294,21.825321-.040994.367073-.044045.734093-.088143,1.101167-.132187-.340957-.466669-.681914-.933337-1.022925-1.400006-6.974876-6.150446-13.949806-12.300893-20.924683-18.451339-2.490897-2.27228-4.981741-4.544614-7.759704-7.07886v27.103386h6.780824ZM100.524436,404.83861c-.104064,1.447101-.297287,2.894095-.29916,4.341303-.043215,33.31725-.085039,66.6345-.085895,99.95175-.000722,28.348567.027856,56.697188.107221,85.045594.009687,3.46175.414891,6.922376.636773,10.383484l1.405625.164404c48.147091-41.802538,96.294181-83.605022,144.651166-125.589732-49.046552-34.779122-97.698923-69.278724-146.356807-103.782232v20.702212c-.019641,2.927757-.039282,5.85546-.058922,8.783217ZM424.055733,585.257357c-.832083-.809873-1.626222-1.66347-2.501708-2.423359-41.237023-35.788988-82.481807-71.568986-123.723753-107.352301-13.197892-11.451149-28.893076-11.224772-42.27702.446225-26.519328,23.12525-53.114195,46.163856-79.652441,69.267539-18.380135,16.001329-36.717643,32.051679-55.074203,48.080087-5.44065,4.681564-10.881273,9.363128-16.321923,14.044638.172566.416095.345131.832137.51767,1.248232,2.390954.249175,4.781668.713168,7.172863.715898,47.762142.053945,95.524312.05646,143.286481.065612,61.638149.011827,123.276351.032485,184.9145-.007653,2.914378-.001873,5.828488-.556631,8.742705-.853864.092156-.454199.184313-.908398.276523-1.362597-8.453231-7.289503-16.906462-14.578953-25.359694-21.868456ZM416.252038,345.237909c-.548336-.166438-1.096725-.332822-1.64506-.499261-1.141304.011453-2.282555.022905-3.42386.034358-8.456282-.077279-16.91267-.140054-25.368738-.235421-11.428939-.128869-18.393487-7.192744-18.487945-18.694574-.062294-7.587432-.15156-15.174678-.228732-22.762003v-8.046796c-1.36249,0-2.496891.000107-3.631292,0-29.052316-.00289-58.104686-.009981-87.157002-.00768-41.899163.003318-83.798353.004442-125.697516.027722-9.091395.005057-13.122888,3.957211-13.259142,12.981228-.079339,5.254598-.04474,10.511283-.029702,15.766924.067271,23.499923.145968,46.999792.220517,70.499715-1.097715,3.830054,2.288362,4.706771,4.343845,6.171211,33.998442,24.221975,68.054254,48.363353,102.106079,72.51035,1.860226,1.319195,3.798051,2.528948,5.83887,3.881805,7.63624-7.987633,16.295351-13.258634,27.44041-13.145445,11.092906.112546,19.574769,5.814466,27.120993,13.200086,9.515063-6.715265,18.701478-13.182211,27.871034-19.673026,27.040825-19.141495,54.092781-38.267523,81.060394-57.511771,1.381971-.986159,2.017914-3.017773,3.001236-4.562703-.024778-16.644925-.049557-33.289796-.074389-49.93472ZM193.795573,291.454029h165.969172c-.148563-.340074-.186079-.629039-.350483-.773402-20.068517-17.616981-39.987454-35.409044-60.277317-52.767592-14.53357-12.433829-30.217944-12.090276-44.649377.321504-10.731987,9.230058-21.372112,18.567337-32.014913,27.900496-9.386729,8.231697-18.720423,16.523896-28.677081,25.318994ZM370.735417,299.294249c0,8.92774-.108907,18.85574.037676,28.780048.100505,6.802659,5.122866,12.579823,11.872489,12.852011,10.267513.414061,20.563978.108372,30.904862.108372-14.424342-14.062299-28.853768-28.129602-42.815027-41.740431ZM133.865394,343.370164c-10.290391,9.048876-20.042508,17.624394-30.622025,26.927475h30.622025v-26.927475ZM133.830554,374.352626h-28.988444c10.024625,7.029089,19.333781,13.556456,28.988444,20.326148v-20.326148Z"/>
  <path class="cls-13" d="M106.825479,612.665202c69.514975-.011506,139.029922-.025956,208.544897-.033448,41.622346-.004495,83.244692.001766,124.867038.003586,12.612843.000535,16.757043-4.26868,16.753832-16.803549-.018249-71.706471.01643-143.412995.054962-215.119466.001017-1.881445.251209-3.76273.385216-5.644175,5.749497,1.373408,6.228688,6.166823,6.935809,10.772339.175911,1.145425.112974,2.331791.112974,3.499372.002355,71.453121.010168,142.906296-.019587,214.359417-.002729,6.623537-1.43811,12.597538-8.705778,15.02475-1.620068.541057-3.398975.854453-5.104884.855095-110.759624.042064-221.519275.044847-332.278899.034465-6.550781-.000589-10.39384-2.379796-11.54558-6.948385Z"/>
  <path class="cls-29" d="M430.628268,83.794852c4.742948,0,9.487073-.055537,14.228095.040619,1.128139.022879,2.276615.469184,3.363386.864568,4.670379,1.699059,7.857479,5.898073,7.432394,9.703376-.455912,4.081156-4.51047,7.479382-9.77339,7.888707-8.062289.627006-14.742982-2.707641-20.787411-7.648228-1.012221-.8274-1.921101-1.781181-3.225472-3.002012-3.429212,3.637661-6.82535,7.240241-10.221488,10.842848.192822.308927.38559.617854.578359.926808,2.587067-.470816,5.244189-1.559487,7.745629-1.275713,4.362495.494899,9.163028.911556,12.817974,3.024837,6.425149,3.714939,5.460237,11.34457-1.356764,14.352361-5.404419,2.384532-10.934014,1.695366-16.163646-.498913-4.10647-1.722981-7.945247-4.083939-12.253048-6.345275-3.840437,4.835854-7.971685,10.037898-12.102933,15.239942-.430331-.311871-.860715-.623741-1.291099-.935638,3.980812-5.308677,7.961624-10.617353,11.598695-15.46763-3.145143-4.173446-6.922751-7.727246-8.800664-12.097367-1.800046-4.188833-2.230751-9.238246-2.127677-13.884288.078563-3.543912,2.655569-6.558367,6.466197-7.451767,3.853548-.903475,6.785587,1.066688,9.114541,3.932151,3.452599,4.247915,4.005965,9.248387,3.498356,14.479357-.138074,1.423018-.288778,2.844832-.400093,3.937517,3.37532-3.434028,6.855319-6.974529,9.909216-10.081541-2.49277-4.405898-6.052028-9.140845-7.876264-14.469751-1.208682-3.5308-.46121-8.02947.387677-11.879433.789805-3.582257,3.870781-6.583279,7.575605-6.05742,2.899875.4116,6.140064,2.576926,8.045378,4.923929,3.306497,4.072995,2.987321,9.268697,2.108679,14.262854-.235743,1.339545-.662166,2.645508-1.001036,3.966884.419306.258835.838612.51767,1.257918.776519,1.242719-1.921422,2.707588-3.737162,3.682561-5.785995,2.104879-4.423264,3.519816-9.231249,6.032655-13.388854,2.75875-4.564348,7.431537-6.907565,12.776285-7.514087,5.765231-.654246,9.553435,3.333951,8.738798,9.051605-.759514,5.330365-3.70552,9.406463-8.368942,11.583309-4.004841,1.869457-8.570541,2.517482-12.855918,3.812554-3.143698.950061-6.235057,2.073197-9.349749,3.119201.199083.351326.398113.702639.597197,1.053965ZM419.686762,86.734329c.178907.146597.357868.293193.536776.439776-.033234-.292698-.066522-.585396-.099756-.878094v-16.096335c.371515-.021701.743084-.043389,1.114599-.06509.331324,5.084761.662648,10.169523,1.040157,15.962863,5.656912-5.875877,7.115091-16.792083,3.092964-22.198281-1.475947-1.98377-4.486548-4.207845-6.547543-3.987515-2.082295.222618-4.581005,3.0005-5.626675,5.249714-3.026014,6.509238-.111369,15.326439,6.489477,21.572961ZM403.632612,106.705459c4.518819-4.979279,5.471047-18.619168.450292-23.909435-3.534319-3.72405-8.795366-3.522719-11.049397.660762-3.55289,6.594103.920654,19.59643,8.264477,23.238425-.507502-4.931863-.998575-9.704192-1.489647-14.476521.476355-.037168.952657-.074335,1.429012-.111476.783329,4.774068,1.566658,9.548136,2.395262,14.598246ZM407.999121,111.333185c-.011613.531799-.02328,1.063598-.034893,1.595423,6.83418,4.230255,13.874668,8.028654,22.343848,4.989849,5.460076-1.959125,6.181593-7.097511,2.07614-11.042493-4.341035-4.171279-19.433002-4.236436-23.772592,2.923181h14.198232c-.008295.511355-.016537,1.022684-.024832,1.534039h-14.785903ZM437.5454,77.685025c3.089325-.391664,4.970984-.526019,6.80999-.881506,7.702441-1.489045,13.628758-6.932785,14.18876-12.944074.423801-4.549631-1.37587-6.542579-5.913098-6.548319-8.204805-.010409-15.933523,8.309043-16.36776,17.915152,3.358623-2.496784,6.574034-4.887083,9.789391-7.277395.259237.342108.518473.684202.77771,1.026296-2.814568,2.640223-5.629137,5.280446-9.284993,8.709845ZM425.608691,91.328299c6.277442,6.362641,13.267678,10.874342,22.402128,8.243819,2.241668-.645549,5.353042-3.340989,5.418494-5.187755.081346-2.296925-2.043067-5.829772-4.161057-6.834889-7.002117-3.32286-14.221726-2.78686-22.173289,1.305214,5.590765.922339,10.054729,1.658788,14.518746,2.395236-.089159.523825-.178319,1.047623-.267425,1.571448-5.245901-.497709-10.491749-.99539-15.737597-1.493072ZM410.49826,103.435862c.040887.172914.081774.3458.122661.518714.441783-.084557.883513-.169087,1.325296-.253617-.051109-.229588-.102271-.459176-.153433-.688764-.431508.141231-.863016.282436-1.294524.423668Z"/>
  <path class="cls-29" d="M64.182295,244.076487c-.993785-4.63388-2.613478-9.240574-2.816201-13.908812-.231541-5.332197,3.531001-9.385231,7.625992-9.758512,4.158301-.379034,8.1994,2.849381,9.661459,7.955603,2.402032,8.389225-.028765,15.781053-5.024367,22.909469,3.899305,2.795757,7.877174,5.647841,12.326822,8.838179-.823494-3.518585-1.877619-6.393012-2.073277-9.324756-.189317-2.836831.086644-5.858618.904411-8.574474,1.402173-4.656572,5.232977-7.557998,8.847893-7.116108,4.532626.554035,6.756607,3.726392,7.873722,7.772923,1.920352,6.955824-.112974,13.245388-3.609404,19.19445-.952336,1.620336-2.211057,3.060613-3.41998,4.707252,4.83299,4.324552,9.643959,8.629436,14.454954,12.93432-.358002.438278-.716005.876582-1.074034,1.31486-4.806928-4.085117-9.613855-8.17026-14.599691-12.407418-2.394058,2.259195-4.537443,4.605516-7.003454,6.540719-4.945724,3.881083-10.441122,6.315145-16.976757,5.490715-3.279337-.41366-6.03006-1.681987-7.082472-4.957899-1.083881-3.374009.138529-6.388142,2.672106-8.715063,4.456016-4.092529,9.864422-5.40185,15.783354-4.953885.858601.06497,1.713455.179416,3.139524-.566317-3.800192-2.824014-7.600384-5.648028-10.82797-8.046502-3.978511,3.718097-7.166173,7.736558-11.27952,10.224592-3.526987,2.133403-8.053459,3.014936-12.24957,3.517354-3.482006.416951-6.503097-1.496791-7.783813-5.149009-1.291366-3.682615.019092-7.202698,2.952656-8.84618,4.183213-2.343538,8.997379-3.60448,13.615873-5.099773,1.319944-.42736,2.895433-.065425,4.881397-.065425-2.928105-3.271417-6.042048-3.989321-9.84636-3.238985-6.322838,1.247134-12.215653-.111449-17.384169-3.928419-1.709789-1.262681-3.27432-2.978678-4.334733-4.816588-3.368015-5.837398-.387584-11.262983,6.33706-11.899488,8.375605-.792748,16.268298,4.841741,19.97711,14.626904,1.099775,2.901614,2.46438,5.192143,5.494434,6.205221.397016.300712.794059.601451,1.191102.902217l-.354096-1.761166ZM60.496764,253.505066c2.098216-.682717,4.196432-1.365434,6.294648-2.048124l-.205104-.776666c-4.390057,0-8.78014,0-13.170223.000027-2.610668,1.441589-5.692046,2.427961-7.67413,4.477477-1.430751,1.479452-2.328299,4.664091-1.737939,6.547195.508733,1.622771,3.327369,3.180063,5.347651,3.550455,6.888941,1.263056,16.767064-5.09806,19.250629-12.150938-4.896301,1.501956-9.634513,2.955372-14.372698,4.408814-.143399-.459016-.286798-.918005-.43017-1.37702,2.232437-.877064,4.464873-1.754155,6.697337-2.631219ZM56.01918,240.300003c-2.75-9.256683-10.457953-15.134727-18.045426-14.298336-3.472681.382781-5.987474,2.079084-5.553223,5.860625.503127,4.381467,3.351987,7.376923,7.26625,9.130195,4.395837,1.968946,8.959757,3.151886,15.048391,1.346542-4.083043-2.520064-6.981084-4.308711-9.879113-6.097384.222497-.388293.444994-.776559.667491-1.164852,3.295633,1.640083,6.591266,3.280193,10.495629,5.22321ZM93.815191,264.08568c5.673636-6.946807,7.776695-13.928533,5.267683-21.671593-.673726-2.079271-3.436891-4.961137-5.113768-4.879015-2.346107.114928-5.372389,2.161179-6.695303,4.267984-3.441521,5.480948-1.420342,14.811457,4.323776,21.014912v-13.743953c1.086958.390594,1.504016.838211,1.532032,1.309.250379,4.207724.432177,8.419542.68558,13.702665ZM72.259917,248.567824c5.727822-6.645559,7.133046-16.043393,3.022268-22.137138-1.269531-1.881927-4.246631-4.069677-6.03683-3.76182-2.08679.358832-4.685096,2.991121-5.391521,5.176677-2.432082,7.524256,1.284168,13.627687,6.048148,19.326369-.323323-4.78049-.64662-9.560981-.969916-14.341471.475659-.036258.951346-.072516,1.427005-.108773.61285,5.108924,1.225701,10.217875,1.900845,15.846156ZM87.385305,266.909453c.074924-.42934.149874-.858654.224798-1.287995-2.722225-.573649-5.435004-1.570083-8.168681-1.631092-5.34167-.119156-10.541038.795451-14.009317,5.527776-2.64516,3.609189-1.4836,7.449064,2.473611,8.793733,6.848951,2.327322,17.789734-2.552817,20.993853-9.575216-4.515501.841368-8.878558,1.654346-13.241642,2.467296-.078938-.400762-.157875-.801525-.23684-1.202287,3.988063-1.030738,7.976127-2.061477,11.964217-3.092215Z"/>
  <path class="cls-17" d="M357.686517,100.443911v-14.398333c-7.356399,1.305214-14.434992,2.561125-22.05919,3.913849,0,8.527526.072569,16.945142-.023387,25.360804-.074068,6.500073-3.025479,10.275326-8.93162,11.834973-5.936432,1.567675-11.922795-1.442927-12.927631-6.501304-1.119844-5.637673,3.186351-11.310399,9.275146-12.129317,1.146977-.15429,2.332487-.022129,4.184926-.022129,0-4.518926-.011292-8.979518.002943-13.440056.015895-4.96681.062401-9.933539.081185-14.900363.01081-2.862493,1.150509-4.570623,4.213076-5.103037,9.18711-1.597216,18.331568-3.438417,27.511668-5.077978,5.904643-1.054553,7.192637-.01069,7.231598,5.848062.072944,10.956223.100933,21.913664.022103,32.869674-.055444,7.698534-5.412928,12.617339-12.930681,12.016128-4.092823-.32731-7.438655-2.118606-8.737246-6.159678-1.345793-4.18803-.002676-8.022901,3.6801-10.345433,2.599804-1.639575,5.778877-2.360664,9.407012-3.765861ZM329.555871,109.632226c-3.764764.903341-7.293089.926193-9.699697,2.580752-2.0276,1.393985-3.768082,4.701044-3.727141,7.129139.03195,1.898972,2.639086,4.627271,4.712657,5.45237,5.771118,2.296202,12.122199-2.188018,12.33616-8.39166.216262-6.269896.090069-12.551914.099328-18.828607q.013807-9.343113,9.271614-10.998288c5.545115-.986613,11.094725-1.948034,17.0942-3.000018v19.418914c-3.611865,1.002856-6.951275,1.292062-9.59293,2.801992-4.86791,2.782324-4.686809,9.361576-.048808,11.766177,5.845025,3.030403,13.649148-.749801,13.819706-7.3081.326079-12.531284-.054159-25.081057-.168151-37.62291-.002034-.225521-.339352-.448018-.665056-.851175-.577235,0-1.31486-.111757-2.007745.016885-9.456943,1.7556-18.903933,3.56477-28.362481,5.311553-2.529697.46719-3.130908,1.973883-3.104524,4.366964.104305,9.467914.042867,18.937622.042867,28.156013Z"/>
  <path class="cls-5" d="M314.852599,185.985126c2.351004-1.292999,4.102617-2.238671,5.836729-3.215277,1.62847-.917068,3.23853-1.866862,5.322538-3.071638-2.334842-3.565439-4.498536-6.869635-7.058309-10.778627,4.626174-.328381,8.49567-.60303,12.670909-.899407-.415346-4.098014-.804896-7.941501-1.277077-12.600347,4.202212,1.85747,7.720048,3.412434,11.804629,5.217912,1.496872-3.932432,2.89067-7.594122,4.567894-12.000287,2.912558,3.644671,5.323394,6.661561,8.022954,10.03969,3.165961-2.858961,6.143222-5.547497,9.725385-8.782281,1.00703,4.371754,1.864213,8.092821,2.84609,12.355186,3.922157-1.009064,7.613495-1.958724,12.451115-3.203316-1.365969,4.615069-2.486509,8.400758-3.715046,12.551406,4.033366.897186,7.943535,1.766972,11.853758,2.636758.376385.547024.752771,1.094022,1.129156,1.64102-3.346421,2.272253-6.692788,4.544507-10.513102,7.138558,4.375339,3.688528,7.32065,6.171479,11.043563,9.309986-4.512557,1.526279-8.250509,2.790539-12.381436,4.187735,1.410121,4.041206,2.720432,7.796229,4.321983,12.386092-3.782371-.719082-6.742077-1.232364-9.678397-1.855677-2.33543-.495782-3.588318.167348-3.744266,2.732928-.183938,3.027941-.585476,6.042663-.971067,9.834024-3.729014-2.66745-6.961711-4.979895-10.495763-7.507879-2.448405,3.41511-4.698422,6.55351-7.440154,10.377731-1.950429-4.204353-3.603838-7.768507-5.480145-11.813138-3.773219,1.968972-7.171177,3.742153-11.563695,6.034288.300552-4.63487.546141-8.422593.836418-12.899668h-13.405591c2.594078-4.288936,4.64255-7.675789,6.843867-11.31535-3.893258-2.190586-7.397019-4.162047-11.552938-6.500421ZM332.659806,158.522427c.209198,2.415786.257792,4.448123.584674,6.434649.602816,3.662546-.490858,5.546854-4.545845,5.229739-1.928005-.150758-3.899626.255758-6.383352.451818,1.252566,1.86234,2.146408,3.169012,3.017559,4.490669,3.158415,4.791568,2.91791,5.7564-2.062493,8.3295-1.477392.763314-2.959814,1.516941-4.965472,2.54412,2.701808,1.440946,4.692374,2.665737,6.81272,3.594472,3.043514,1.333163,3.367774,3.293412,1.779014,5.936672-1.221098,2.031561-2.409765,4.082548-3.789863,6.425256,1.69162,0,2.711066.054025,3.723288-.008589,7.905056-.489066,8.450876.089775,7.482807,7.765056-.149313,1.184065-.020872,2.403103-.020872,3.979768,1.54188-.834786,2.687305-1.435568,3.814695-2.068461,6.267274-3.518478,6.779165-3.342407,9.498366,3.228442.524467,1.26731,1.110746,2.509013,1.874488,4.225465,1.5711-2.361493,2.904049-4.242938,4.107915-6.203669,1.697561-2.764851,3.658853-2.996954,6.092059-.92919,1.741391,1.479827,3.578257,2.847321,5.224227,4.147785,1.007084-3.698269.914606-8.512608,3.149425-10.149293,2.343137-1.716078,6.918898-.383744,10.430418-.383744-.632304-1.550469-1.46428-3.561051-2.273136-5.580918-1.17898-2.943973-.758658-5.052517,2.763139-5.91366,2.210254-.540495,4.327709-1.460614,6.83038-2.329731-2.036538-1.64383-3.672018-3.052478-5.399013-4.338145-2.923154-2.176164-2.937979-4.47175-.381416-6.887777,1.524487-1.440706,3.133155-2.792252,5.355611-4.761144-3.398867-.798341-5.482607-1.359493-7.595995-1.766758-2.908865-.560564-4.000239-1.990379-2.908758-4.952574.815707-2.214,1.345686-4.533349,2.135384-7.264056-2.410622.68649-4.067616,1.208522-5.750192,1.627855-4.611403,1.149225-5.743824.428163-6.662069-4.155197-.353212-1.763333-.700913-3.527763-1.051128-5.291712-.443014-.243074-.885975-.486176-1.328935-.72925-1.32658,1.71672-2.55972,3.516819-4.001095,5.130973-2.257991,2.5286-4.449461,2.313435-6.468123-.419279-1.342582-1.817466-2.781067-3.564101-4.275958-5.469014q-4.467335,10.202034-14.812448,6.059922Z"/>
  <path class="cls-14" d="M200.348949,92.368028c-4.891859-8.862302-5.738579-17.839184.060555-26.703667,10.361034-15.837674,33.195766-14.921823,42.414666,1.57106.866227,1.549653,2.580324,2.881063,4.209062,3.702697,5.75723,2.904357,9.41619,7.082713,10.044239,13.764142.117256,1.247536,1.498691,2.908571,2.706972,3.432182,6.361651,2.75681,10.048949,8.699584,8.878397,14.90542-1.225273,6.496059-6.368261,10.725886-13.425634,10.751333-17.076861.061571-34.154123.030719-51.231198.009526-7.286934-.009018-11.654835-3.008514-12.825841-8.709578-1.052654-5.124872,1.789717-9.171992,8.423904-12.027099.244867-.105375.416175-.381657.744877-.696016ZM206.57464,95.334023c-.908157-.07958-1.541558.013861-2.041702-.201786-5.407041-2.331256-10.914667,1.762236-11.664843,6.540318-.904946,5.763866,2.980792,10.431489,9.376828,10.47655,18.086058.127478,36.177335.150597,54.260021-.162183,8.158807-.141098,12.789396-8.024265,9.805099-15.646859-1.919523-4.902964-6.033806-6.703719-10.676356-7.478111-.962825-10.77757-4.686033-16.002372-11.99614-17.098816-8.123272-1.218382-13.294624,2.358095-17.205382,11.899154-10.786922-5.693197-19.095122.380854-19.857526,11.671733ZM241.559909,69.598908c-4.241654-9.467633-13.476876-14.802038-22.936736-13.454466-10.90292,1.553145-18.876104,9.574146-20.294519,20.416298-.856647,6.547891,2.257162,14.569065,6.304736,16.241045,3.96366-11.708432,8.481247-14.277839,20.909618-11.892477,3.855635-7.753001,7.328811-10.246173,16.016902-11.310399Z"/>
  <path class="cls-7" d="M493.847899,229.385951c2.12468-.856407,4.068954-1.987436,6.158046-2.421566,8.707437-1.809251,16.026375,5.407014,14.418562,14.211933-1.001839,5.4863-3.612668,10.100004-8.206839,13.483325-7.310642,5.383841-15.56677,8.468216-24.444606,9.884197-1.209753.192956-3.264486-.595778-3.86377-1.578753-4.546594-7.457841-9.349963-15.011317-9.893214-23.954149-.279841-4.60656.600782-9.562318,2.16257-13.929095,1.813746-5.071141,6.268826-7.536243,11.832726-7.211877,5.436261.316901,8.726061,3.535389,10.693562,8.356499.428939,1.050941.775034,2.135678,1.142964,3.159486ZM492.465286,232.720839c-.494283-1.673906-.973154-3.31605-1.464226-4.954554-1.479051-4.935155-5.579259-8.105932-10.271259-7.94894-4.796519.160524-8.34213,3.469269-9.264817,8.869139-1.429494,8.365918,1.505702,15.823625,5.111627,23.077673,4.23095,8.511351,4.285003,8.494841,13.167869,5.799267,1.954764-.593183,3.949825-1.122574,5.810613-1.943552,5.905606-2.605638,11.816992-5.321173,15.16855-11.296404,2.042746-3.641755,2.471203-7.543441.050199-11.201786-2.488275-3.760027-6.352045-4.652799-10.453645-3.736614-2.477839.553473-4.76002,1.983047-7.854911,3.335771Z"/>
  <path class="cls-7" d="M93.495614,156.44618c.529391-1.26715.986988-2.488569,1.540381-3.664874,2.245441-4.772784,5.906141-7.519733,11.292417-7.476037,5.185427.042064,8.767028,2.732768,11.023655,7.264082,3.001343,6.026581,3.7307,12.456146,1.242666,18.629925-2.588593,6.423249-5.99423,12.5418-9.409982,18.585961-.661872,1.171247-3.384793,2.335136-4.529254,1.88966-7.801768-3.036771-15.637868-6.115312-23.055651-9.965061-5.307366-2.754522-7.756038-8.165925-8.791914-13.964497-1.697427-9.50171,7.04279-16.580811,16.361472-13.316164,1.46321.512613,2.826904,1.309348,4.326211,2.017004ZM94.990693,159.815613c-2.455683-1.375361-4.024562-2.456084-5.74468-3.175166-3.535978-1.478221-7.061868-1.634036-10.363629.758203-4.85611,3.518451-5.375038,10.670549-.955306,15.871041,6.695865,7.878726,16.17954,10.535017,25.585937,13.217506.743914.212142,2.167414-.313824,2.615271-.956537,6.154728-8.832052,11.517323-18.010118,9.693515-29.43028-.847871-5.309105-4.506162-8.564841-9.340651-8.896058-4.015892-.275131-8.52952,3.148301-10.079507,7.705839-.494203,1.453229-.854079,2.952134-1.41095,4.905453Z"/>
  <path class="cls-16" d="M208.65062,176.891617c.824965-1.51686,1.421172-2.813498,2.192647-3.995743,2.80151-4.293191,6.831424-6.313486,11.899435-5.71546,4.733342.558557,7.928818,3.339035,9.69084,7.763611,2.307173,5.793488,2.957191,11.903422.068609,17.384075-3.693345,7.007549-8.283395,13.559935-12.782225,20.105604-.63704.926862-3.353057,1.468802-4.406299.897481-7.239197-3.926786-14.552836-7.819322-21.31517-12.486945-4.698877-3.243293-6.751416-8.645304-7.390597-14.345378-.544964-4.859856.938742-9.040233,5.179299-11.707308,4.423532-2.782084,9.084465-2.725248,13.642538-.111075.999458.573248,1.908953,1.303434,3.220923,2.211137ZM209.865912,180.325485c-2.637641-1.704304-4.686166-3.393676-7.0205-4.453635-3.839473-1.743398-7.737013-1.55665-11.011346,1.401478-3.102008,2.802367-4.367392,6.584336-2.558302,10.304439,1.796995,3.695218,4.001898,7.746244,7.172809,10.096793,5.553517,4.116692,11.925123,7.163363,18.109097,10.35809.882871.456099,3.285973-.351072,3.876614-1.279218,4.042651-6.352634,7.993948-12.785302,11.514486-19.435785,1.152168-2.176458,1.323396-5.085484,1.266615-7.644482-.120413-5.427538-3.586686-9.568259-8.239805-10.502426-4.58633-.920734-9.179431,1.799912-11.444513,6.834715-.591203,1.314138-1.042378,2.691265-1.665156,4.32003Z"/>
  <path class="cls-13" d="M273.578729,97.567477c6.412814,12.343706-3.553692,24.530661-13.293634,24.74695-19.260222.427762-38.536821.211767-57.805552.088116-4.439854-.028471-7.908722-2.347659-11.146744-6.985178,11.090712,4.74945,21.702499,2.281057,32.119271,2.65771,10.642774.384814,21.329673-.313744,31.961289.202375,9.584046.46525,18.195126-7.89933,18.012151-17.858263-.015573-.846265.087607-1.694697.153219-2.851709Z"/>
  <path class="cls-6" d="M388.420392,132.539741c7.128845.111396,9.140925-6.028749,12.454487-10.266522,2.42079-3.096041,3.957211-3.637045,7.379465-1.504765,6.089544,3.794064,13.006301,5.189013,20.140926,4.198332,9.250154-1.284489,12.758196-5.784176,13.611686-17.101693,9.227997-1.551834,18.223463-3.884107,18.306629-16.30263,5.671362,9.041785-.796815,16.807135-16.483945,20.098032-.084075.483072-.242218,1.033147-.267371,1.589269-.524681,11.621895-9.254381,18.355704-20.635155,15.544454-4.764248-1.176813-9.472356-2.856767-13.9246-4.916343-2.622924-1.213338-3.970055-.711723-5.418922,1.364096-1.998005,2.86268-3.976852,5.749791-6.158581,8.470276-2.557687,3.189214-6.350172,2.75586-9.004617-1.172505Z"/>
  <path class="cls-17" d="M156.860383,243.535135c-3.952341-6.671033-8.099858-13.521483-12.090196-20.462295-2.439334-4.242885-1.914893-4.894214,2.806407-5.163646,2.72755-.155654,5.452397-.750416,8.126911-1.370117,8.070798-1.8701,15.699171,3.577588,16.113393,11.700431.052286,1.025253-.543278,2.083579-.838719,3.126546-1.16025-.356049-2.833594-.345907-3.393489-1.130414-2.670447-3.741671-5.803495-3.153572-9.79493-1.309348,3.404995,5.705345,6.822727,11.234833,10.043597,16.876707,4.457568,7.808244.458026,17.05912-8.238173,19.323988-4.479751,1.166752-9.131694-.365762-11.305556-3.724492-2.259409-3.490917-1.904484-8.833336,1.274401-12.162631,1.968571-2.061691,4.516571-3.570176,7.296353-5.70473ZM169.109445,227.916453c-.433568-5.834375-4.102296-9.79014-9.439952-9.567001-4.533402.189584-9.027202,1.327142-13.909214,2.104237,4.906095,8.483254,9.524455,16.468934,14.01012,24.225132-3.14038,2.005846-5.999341,3.28501-8.127339,5.326204-2.819974,2.704939-3.787642,6.254403-1.577468,9.939507,1.942267,3.23845,6.028187,4.305473,10.048976,2.823907,7.123654-2.624877,9.669245-9.716394,5.77085-16.243119-3.567553-5.972743-7.207836-11.90203-10.757193-17.753423,4.691063-4.323829,7.328463-4.460619,13.981221-.855443Z"/>
  <path class="cls-5" d="M311.959895,56.036658c.431347,4.848885-.703589,6.059949-3.87533,4.298864-.381202-.211633-.797404-.380948-1.133759-.64951-5.535535-4.41925-11.126247-4.518605-17.082748-.667277-1.380151.89237-3.500122.640465-5.27967.915088-.073639-1.805585-.690852-3.806132-.125497-5.382544,2.283893-6.368127,1.096725-11.396629-4.47563-15.518163-1.43324-1.060066-2.060192-3.21022-3.057536-4.859602,1.82172-.656079,3.662921-1.916847,5.461575-1.858781,6.251754.201826,10.620243-1.969788,12.548944-8.220071.378847-1.227801,1.10395-2.377575,1.815833-3.467717,1.408033-2.156202,3.438203-2.498149,4.137884.112292,2.335751,8.714702,7.834842,12.734849,16.734138,13.027106,3.264005.107208,3.635466,2.631072,1.250105,4.420749-6.701939,5.028154-10.351855,10.888257-6.918309,17.849567ZM298.809634,21.338588c-2.862894,10.123953-9.317799,14.339959-19.69454,13.627286,9.002851,5.905887,10.543607,13.565755,6.206318,23.677211,3.598004-1.716613,5.783052-2.538193,7.735407-3.738353,3.640176-2.237775,6.931153-2.366604,10.388301.475512,1.671123,1.373823,3.837279,2.145472,5.779359,3.189776l1.117757-.333063c-3.666827-9.414504-1.349486-16.776215,7.504588-22.450427-10.49876.329103-16.437546-4.480393-19.03719-14.447943Z"/>
  <path class="cls-17" d="M156.766675,57.773835c-2.244585-3.245969-4.48917-6.491939-6.733729-9.737908-1.359092-.832926-2.633279-2.131223-4.095633-2.397938-2.700283-.492504-5.510944-.380118-8.275608-.519731-1.46345-1.266534-2.448298-2.527931-.395946-4.181313,5.927387-4.775179,8.656649-10.509396,5.394224-18.071836-.309703-.717918-.041315-1.685198-.041315-3.60733,2.685378.975736,5.123722,1.363307,6.955236,2.628971,4.055789,2.802661,7.566909,2.386659,11.430063-.367033,1.745218-1.244004,4.110724-1.617807,6.194839-2.386419.162959,2.070146.826892,4.25229.393859,6.189179-1.238866,5.54169.613787,9.376494,5.209269,12.500056,1.448974.984888,2.069905,3.188024,3.069791,4.833619-2.791208.675318-5.550226,1.622262-8.381679,1.957185-3.546735.41956-5.762367,1.812234-6.872418,5.425504-.834465,2.716324-2.535638,5.166388-3.850953,7.734992ZM138.274797,42.351454c4.977781.768598,9.251304.297715,11.908104,2.148121,2.808227,1.955847,4.07634,6.122912,6.675609,10.409988,1.35358-9.757174,6.646549-13.981007,16.182725-13.553446-7.041559-4.982838-10.562713-10.843904-7.488265-19.769584-6.992243,6.465167-13.732367,5.446055-20.963964.755821,4.158943,8.536624,1.237421,14.592559-6.314208,20.0091Z"/>
  <path class="cls-5" d="M133.006285,126.903835c-2.222001-14.444331-10.797465-21.818952-25.353111-22.539238l.79248-1.099213c5.399602-3.059222,12.108097-5.025759,15.830663-9.48496,3.723769-4.460606,4.462465-11.413165,6.81462-18.146359,1.672488,3.843982,3.383776,6.969391,4.409724,10.305563,2.051415,6.670993,6.699959,9.854348,13.236264,11.076837,2.780398.520025,5.484587,1.447556,9.091556,2.425205-6.260798,3.539912-12.807431,5.480226-16.523521,9.835603-3.751786,4.397228-4.696656,11.189344-6.871241,16.932284-.47582.231408-.951613.462842-1.427433.694277ZM152.523068,100.144082c-11.630752-1.040478-18.197347-7.464718-21.264998-18.538077-1.60915,11.026558-6.797521,18.449479-17.967946,21.324897,11.123197,1.71094,17.497344,8.065875,20.853773,18.287711,1.69649-11.196328,7.285008-18.221109,18.379171-21.07453Z"/>
  <path class="cls-7" d="M437.068884,282.622379c-2.055429-.445476-4.226027-.609532-6.142954-1.393744-4.276815-1.749686-7.830239-1.121262-10.944664,2.334253-.966411,1.072267-2.152937,1.964771-3.314899,2.838276-2.204902,1.65753-4.10663.82162-3.690268-1.657262,1.380472-8.219094-2.495393-13.017646-9.406102-16.298803-.647075-.307268-.987604-1.260112-1.754556-2.297513,4.174062-1.920753,9.026078-2.809805,11.587724-5.717012,2.472862-2.806461,2.583535-7.694413,4.045086-12.751908,3.584786,3.938988,5.911225,8.269561,9.473587,9.900466,3.423218,1.56722,8.126349.33879,13.309689.33879-1.274562,2.41394-1.977669,4.612233-3.370396,6.209047-3.228844,3.701801-3.410641,7.307672-.945486,11.456287,1.058514,1.781342,1.457269,3.954696,2.155774,5.949945-.33416.36306-.668321.726119-1.002535,1.089179ZM415.420811,284.151494c5.776095-6.216513,11.960685-7.894513,19.808638-4.042892-4.708108-7.514435-4.215431-14.099708,2.013365-20.791425-8.68191,2.821231-14.611384.320754-18.862029-7.543789-.305208,8.893462-4.746213,13.588325-13.238458,15.320271,7.261621,3.595382,11.601907,8.380421,10.278484,17.057835Z"/>
  <path class="cls-17" d="M28.710717,204.157856c-7.63224-4.64849-14.772979-6.76822-22.72723-3.856144-2.381187.871793-5.516938-1.163193-5.79037-3.783227-.19614-1.879438-.116359-3.787535-.161956-5.682814-.172833-7.182683.142663-7.722831,7.109606-8.543086,7.846549-.923784,15.481437.102619,22.324956,4.236008,1.484095.896357,3.073497,3.479143,2.83536,5.008125-.646941,4.153618-2.247769,8.1587-3.590365,12.621139ZM26.361332,199.63323c1.467932-3.428409,2.809886-6.562581,4.211858-9.836941-8.118281-5.447446-16.656698-6.69244-25.704357-4.777493-1.009291.213613-2.34212,1.742542-2.460152,2.782324-.334749,2.949217-.117283,5.961049-.117283,9.0675,11.533217-2.212502,13.713595-1.958617,24.069933,2.76461Z"/>
  <path class="cls-6" d="M427.302344,178.00223c5.196398.492731,10.183116,1.305334,15.180056,1.37397,13.586104.186694,27.176597.048326,40.765324.057905,13.426838.009473,18.0574-3.781755,21.252849-16.866458,0,2.647675.497923,5.41357-.097348,7.91988-1.527002,6.429698-7.107171,12.416436-17.338077,12.423795-15.926565.011426-31.854308.102458-47.779054-.070241-4.619538-.050092-9.195406-.963869-11.983751-4.838851Z"/>
  <path class="cls-14" d="M434.792911,175.032596c-5.87965-1.329497-9.390208-5.800151-8.720656-11.105696.717664-5.686721,5.088454-8.501985,12.727691-8.197982,2.623245-10.888685,9.517311-15.072888,19.314141-11.451684,3.788579-8.047545,9.737212-12.619426,19.102962-10.376179,6.861046,1.643321,10.653906,7.196731,11.263839,15.81541,9.429115,4.389896,12.459838,8.674738,11.130689,15.737035-1.011954,5.377045-5.621966,9.281006-11.36488,9.624264-.33416-.309382-.668374-.618764-1.002642-.928119.563909-.141285,1.126962-.286557,1.692102-.423373,5.976088-1.446833,9.123479-5.035633,9.230727-10.527338.107783-5.521086-2.910417-9.348224-8.662162-11.02502-.946128-.275854-1.862447-.653791-2.718131-.958089-.172164-9.157168-3.237567-14.099493-10.373209-15.713273-9.319351-2.107715-14.384204,3.167754-17.40963,11.316821-4.29865-3.072842-8.917599-3.476467-12.43415-.382861-3.118545,2.743417-4.958461,6.940144-7.741455,11.055257.330628.047041-.529177-.041128-1.375174-.201599-3.508684-.665591-6.383781.397551-8.357382,3.356161-2.086523,3.12775-2.167815,6.813469.332073,9.305196,2.061744,2.055028,5.423631,2.805551,8.209408,4.134165-.948054.315644-1.896109.631287-2.844163.946904Z"/>
  <path class="cls-29" d="M72.023853,96.43618c-12.110425-2.996393-22.613199-7.368575-29.011924-18.283095-.556751-.94966-.840351-2.925081-.285513-3.512899,2.586947-2.740715,5.422133-5.27848,8.400343-7.590189.549165-.42625,2.718318.161153,3.207544.898872,4.379326,6.60395,10.495923,10.257679,18.173184,11.825635,1.034565.211285,2.487686,2.512411,2.334387,3.656565-.551199,4.113427-1.708104,8.145709-2.81802,13.00511ZM69.101876,92.29851c.929832-2.748742,1.953158-5.168409,2.493172-7.69151.194775-.90991-.582025-2.834878-1.235842-2.995951-7.487436-1.844518-13.592366-5.656591-17.959999-12.609218-1.702672,1.495801-2.879886,2.770537-4.28032,3.713909-3.800085,2.559854-3.338861,5.250223-.540883,8.207615,5.764762,6.093263,12.559875,10.233074,21.523873,11.375155Z"/>
  <path class="cls-5" d="M549.558286,168.95033c-4.840777,2.833112-10.14057,4.533295-13.221439,8.132744-3.072467,3.589656-3.920766,9.083073-6.429484,14.320251-2.594185-11.270208-8.962392-18.268899-22.053518-18.740037,5.978389-3.445427,11.41738-5.112697,14.492202-8.768447,3.018629-3.588907,3.634503-9.198724,5.525581-14.545799,2.621693,5.046952,4.040162,10.571971,7.567578,13.772718,3.442216,3.123362,9.039082,3.872092,14.119081,5.828568ZM514.368796,171.461082c8.661305,1.32345,13.0702,6.67973,15.904302,14.446739,1.131564-8.982622,6.117747-14.285278,14.715261-16.704168-9.338403-.585289-14.035541-6.18467-16.786531-14.268179-1.228002,8.524409-5.233699,14.193014-13.833032,16.525608Z"/>
  <path class="cls-17" d="M465.428208,334.764998c-.963788-2.065597-2.100437-4.070292-2.853475-6.210064-1.351626-3.840758-3.638891-6.3719-7.783947-7.340451-2.26543-.529444-4.345959-1.850084-7.639933-3.3172,4.827077-2.597343,9.301958-3.846966,11.952925-6.757704,2.645669-2.904932,3.464158-7.473923,5.496468-12.291848,1.096618,2.063029,2.18676,3.469804,2.626777,5.056826,1.631039,5.882406,5.291979,9.342123,11.285086,10.625274,1.302872.278931,2.360048,1.705321,3.530412,2.60323-.858467.525216-1.653249,1.283606-2.585622,1.538133-6.696588,1.828249-10.504914,6.078038-11.596394,12.973281-.180459,1.139967-1.590473,2.085292-2.432296,3.120525ZM465.828248,329.865031c.664628-7.430199,5.665689-10.659953,12.966859-13.397885-7.895477-1.100846-12.198086-4.640035-13.842933-11.392521-1.690389,6.328444-5.288661,10.547808-12.625634,12.549453,7.577104,1.789396,11.643864,5.756775,13.501708,12.240954Z"/>
  <path class="cls-17" d="M170.860977,165.427999c-2.057249-8.208846-7.622673-12.833762-15.442959-15.20743-.449623-.136495-.735164-.813539-1.786051-2.049007,9.801299-1.745137,14.772283-7.787506,15.641774-17.499378.449115.149259.89823.298518,1.347372.44775.782125,1.597243,1.816957,3.121997,2.299868,4.805108,1.560664,5.43891,4.987146,8.529225,10.556103,9.677942,1.403458.289474,2.506257,2.036725,3.747183,3.114103-7.364079,2.090135-12.959821,5.839914-13.954757,14.256646-.106419.900398-1.572946,1.640057-2.408535,2.454265ZM171.366258,160.005545c.985302-6.509787,5.675188-9.554104,11.085735-12.296665-6.579599-1.044118-9.960619-5.155538-11.980807-10.946537-1.456868,6.025805-4.699733,9.966399-11.693501,12.13218,6.891256,1.994152,10.642988,5.31732,12.588574,11.111021Z"/>
  <path class="cls-12" d="M515.729574,102.931116c-6.911673,2.443615-12.638157,3.919669-17.809991,6.505238-3.035754,1.517663-4.334078.761333-5.789206-1.455423-.550797-.83904-.84664-1.844625-1.26525-2.771353-4.007356-8.871012-4.05322-9.446401,4.991214-12.957574,4.496877-1.74578,9.563496-2.142689,14.422362-2.750696,1.162123-.145419,3.414387,1.094531,3.63948,2.054947.976847,4.167131,1.388981,8.466584,1.811391,11.37486ZM512.982169,100.051149c-.262341-1.582981-.43793-3.909126-1.106893-6.08347-.285246-.927156-1.57126-2.151011-2.453864-2.194333-7.215543-.35439-13.51284,2.079913-19.244836,6.613797,1.41665,2.983415,2.688215,5.661247,3.535604,7.445773,6.562956-1.969133,12.52941-3.759332,19.269989-5.781767Z"/>
  <path class="cls-13" d="M77.083489,183.805805c8.144572,5.536365,17.183172,8.914789,26.596606,11.652748,4.218053,1.226851,6.260798-.532949,8.328215-3.443313,7.316181-10.298874,13.026584-21.137895,11.734549-34.426471,2.460045,7.503223,2.219111,14.951779-.888784,22.056702-2.388573,5.460398-5.412232,10.657304-8.365651,15.850758-1.674334,2.944133-4.175266,4.902429-7.916134,4.127074-9.965783-2.065437-19.300869-5.580971-27.19597-12.217219-1.043127-.87677-1.629942-2.296416-2.428122-3.464613l.135291-.135666Z"/>
  <path class="cls-17" d="M356.675205,29.734877c-2.892489-1.656928-3.118759-4.11629-2.388252-7.084399,2.258473-9.176501,7.485643-16.177132,15.227151-21.448909,2.623298-1.786399,4.78726-1.720506,6.531541,1.147579,1.953586,3.21224,3.913755,6.420453,5.871087,9.630446-7.268471,3.815458-11.827855,9.630232-13.180873,17.824159-.620209,3.756388-2.423733,4.475189-5.731247,2.51102-1.937317-1.150456-4.20842-1.738715-6.329407-2.579896ZM372.829379,2.006934c-9.296553,5.138533-14.305962,12.63326-16.337897,22.23078-.17179.811626.449811,2.291479,1.147191,2.697299,2.558436,1.488751,5.304502,2.655007,8.257252,4.076099,1.889847-9.018652,5.516751-16.108523,13.864875-20.305196-2.386379-2.994974-4.541135-5.699164-6.931421-8.698981Z"/>
  <path class="cls-7" d="M277.864775,160.108137c-.656226-.767675-1.416703-1.469605-1.949572-2.314987-1.771735-2.810902-4.917039-5.771974-4.733235-8.485582.153514-2.266206,4.167131-4.357144,6.605047-6.363096,4.077838-3.355278,6.729019-7.551523,7.898259-12.677626.776211-3.402774,2.570852-4.56784,5.512684-2.3072,3.1696,2.435641,8.349729,2.47899,9.249297,7.650904-2.655141,5.067529-4.733529,10.568145-8.124958,15.082361-3.502851,4.662458-8.038207,8.749368-14.457522,9.415227ZM273.051532,148.857088c1.496631,2.400186,2.753265,4.039761,3.605684,5.867796,1.389517,2.979936,2.998506,3.289666,5.780483,1.517583,7.325413-4.666098,12.335251-11.058441,14.958496-19.266404.30874-.966116-.354604-2.858399-1.18765-3.454766-2.21384-1.584854-4.766977-2.695761-7.658075-4.249253-2.283144,8.82282-7.212332,15.396559-15.498937,19.585044Z"/>
  <path class="cls-29" d="M417.208816,223.392363c-1.889419-3.732867-3.920338-7.40617-5.539924-11.252628-.297287-.706211.84102-2.791556,1.714097-3.094356,7.57127-2.626055,13.134688-7.284794,16.42133-14.702898.324581-.732595,2.631112-1.450044,3.280434-1.031273,3.397958,2.191282,6.557925,4.751564,9.80063,7.183566-1.882516,10.506921-14.198339,21.489769-25.676568,22.897589ZM413.877647,211.184028c1.179088,2.77229,1.999825,5.283711,3.311367,7.505337.540469.915543,2.411478,1.960543,3.209043,1.668394,8.354706-3.061041,15.128894-8.165818,18.961838-16.411697.494765-1.064374-.184687-3.34725-1.112994-4.25407-1.694992-1.655791-3.983274-2.704136-6.233451-4.139463-4.208794,7.693503-9.890324,13.085453-18.135802,15.631499Z"/>
  <path class="cls-6" d="M238.780823,181.380359c2.193423,12.707836-2.70815,22.498137-9.736891,31.354619-8.467948,10.669934-7.46041,11.317062-21.035088,4.568375-3.764095-1.87133-7.345188-4.132693-10.90466-6.382202-1.340495-.847175-2.381696-2.167922-2.953847-3.880655,5.59617,2.918365,11.152738,5.916042,16.798519,8.734998,7.080706,3.53547,8.604979,2.935276,13.601919-3.175755,6.052724-7.402237,11.328515-15.133924,13.205357-24.719978.35736-1.82544.584139-3.676434,1.024691-6.499404Z"/>
  <path class="cls-13" d="M345.365823,122.455123c3.406306.622885,6.80694,1.732721,10.220043,1.772431,8.41213.097963,14.270159-5.899184,14.332614-14.360068.089427-12.115938.022798-24.232999.815065-36.49643.29825,1.282416.821968,2.558289.85943,3.848277.325812,11.222056.711884,22.445691.784827,33.670784.064381,9.910099-4.686274,15.74137-13.682649,17.459561-5.082407.970665-11.281821-1.717308-13.409605-5.814172l.080276-.080383Z"/>
  <path class="cls-12" d="M94.532721,336.382497c-5.11243-4.037754-10.196763-8.03826-17.115206-8.653224-.858574-.076315-1.746716-2.059389-2.220743-3.310618-.249951-.659812.364424-1.647522.589972-2.48683,2.601945-9.680698,3.388753-10.303396,12.927604-6.484232,4.208928,1.685145,7.965102,4.616862,11.698933,7.299778,1.063732.76433,1.327517,2.641976,1.957975,4.009336-2.612943,3.208775-5.225752,6.417282-7.838534,9.62579ZM99.863072,325.552092c-4.820227-5.194097-10.3202-8.23044-16.870178-9.156713-1.082462-.153059-2.98197.563481-3.375133,1.405304-.998655,2.138113-1.357032,4.575226-1.766999,6.120744,6.062759,2.989355,11.438974,5.640161,17.247072,8.503912,1.278709-1.844358,2.909534-4.196646,4.765238-6.873248Z"/>
  <path class="cls-6" d="M163.012301,100.846841c1.673157,2.19543,1.194607,4.810968-1.559219,6.829685-1.836277,1.346087-3.940059,2.646498-6.114162,3.155231-7.823924,1.830658-11.016243,7.380482-12.474074,14.545451-.231247,1.136568-.295762,2.421298-.89031,3.346394-1.316439,2.048178-2.588298,4.929482-4.504021,5.555096-1.810268.59123-4.420588-1.267364-7.73348-2.413084,3.898369-1.50795,6.916489-1.834243,8.482639-3.51417,1.614984-1.732293,2.266768-4.731201,2.553967-7.265019.937431-8.270925,6.101906-12.169294,13.430744-14.640604,3.009879-1.014924,5.537087-3.461268,8.807915-5.59898Z"/>
  <path class="cls-17" d="M282.572134,205.5029c-4.079283-.320487-8.235042-.448419-12.323075-1.042298-2.468795-.358698-4.143504-1.768578-3.588853-4.860231.684537-3.815524,1.021453-7.693423,1.566658-12.003712,4.795368.492785,9.25596.76516,13.621559,1.55946.854935.155547,1.931644,2.351619,1.891774,3.573467-.136094,4.173553-.724567,8.332363-1.168063,12.773314ZM281.340761,191.249705c-3.887157-.357333-7.320329-.672923-11.105135-1.020838-.393832,3.658211-.771609,7.167538-1.174833,10.912982,3.986752.433354,7.48377.813459,11.180192,1.215265.399398-4.033954.736716-7.440528,1.099775-11.107409Z"/>
  <path class="cls-12" d="M237.681609,32.728179c-.60196-1.300357-1.433802-2.54495-1.765046-3.910959-1.266963-5.225043-4.282862-9.209614-8.479133-12.373569-2.447682-1.845535-2.876407-3.547123-.041395-5.383882.854694-.553727,1.642973-1.212067,2.447896-1.840157,6.407569-4.999776,7.331541-5.247707,12.365113,1.366156,3.27725,4.306182,5.202981,9.640975,7.734176,14.515134-.563722,1.05256-.86513,2.626443-1.737511,3.065296-3.410053,1.715435-7.000618,3.072012-10.5241,4.56198ZM239.876611,29.366158c1.296424-.574706,3.455756-1.187985,5.167178-2.422302.993303-.716393,2.031748-2.652171,1.739893-3.65979-1.857951-6.414446-5.278145-11.843429-11.249657-15.65811-2.370163,1.959366-4.662753,3.854565-6.512543,5.383721,3.625914,5.463528,7.013649,10.568171,10.85513,16.356481Z"/>
  <path class="cls-13" d="M373.387026,211.451292c9.549956,1.982566,9.994843,1.844385,13.830838-3.930185-.20406,2.140601.374887,5.116684-.801846,6.219376-1.629005,1.526627-4.659729,2.440779-6.947208,2.208541-5.814145-.590186-5.596438-.886082-6.148894,4.940399-.185383,1.955406-1.147084,4.848243-2.535798,5.422775-1.739518.719751-4.918002.220303-6.358253-1.034832-3.75117-3.269008-5.889444-2.868888-8.816826,1.1652-3.290656,4.53466-5.661247,4.193756-8.975504-.362177,5.928886.63985,8.09456-3.717936,10.688959-7.844876,3.80351,1.691567,6.895511,7.600089,11.1651,4.408092,2.764262-2.066561,3.265128-7.160741,4.899432-11.192314Z"/>
  <path class="cls-12" d="M371.678548,243.863997c3.561078,3.485833,6.955075,6.143676,9.373885,9.50353.965501,1.341057.49241,4.716992-.588741,6.309124-1.837401,2.705822-4.674928,4.732539-7.844635,7.76436-3.322713-3.584946-6.900006-7.277408-10.205326-11.199164-.471806-.559815.001766-2.552522.675278-3.329536,2.654445-3.062299,5.56315-5.904188,8.589539-9.048314ZM371.155687,262.125297c3.076481-2.554984,5.815162-4.829432,8.761382-7.276231-2.848873-2.776892-5.317132-5.182751-7.37513-7.18873-2.790004,2.424349-5.478486,4.760502-8.503805,7.389312,2.856365,2.839534,5.297759,5.266586,7.117553,7.075649Z"/>
  <path class="cls-6" d="M518.228712,235.522884c2.714652,9.396148-.963039,19.549696-8.333514,25.065939-7.979766,5.972288-17.042449,9.370085-26.829004,10.783524-1.816904.262394-3.798479-.615312-5.732104-.972003,8.534898-3.001771,16.744627-5.35042,24.495554-8.746317,10.625595-4.655367,16.61351-12.917141,16.399067-26.131142Z"/>
  <path class="cls-6" d="M98.002498,279.523099c-1.563072.504692-3.399296.644479-4.643219,1.575569-6.288868,4.707279-12.82734,8.754425-21.083735,7.90123-4.168336-.430759-8.332952-1.416007-10.189833-6.017778l.054935-.054989c12.44967,5.949169,22.027508.10104,32.368767-8.573216,1.137157,1.58464,2.377655,3.31332,3.61818,5.042001l-.125096.127183Z"/>
  <path class="cls-5" d="M33.20073,145.232941c-1.988586-3.694335-4.001791-7.375746-5.955002-11.088678-.927504-1.763173-.767033-2.958288,1.265785-4.205771,10.757555-6.601515,10.714688-6.677991,16.552139,4.290595.544242,1.02263,1.017613,2.082937,1.523925,3.125877-4.462265,2.626055-8.924556,5.252002-13.386847,7.877977ZM34.017386,142.646783c3.561412-1.807993,6.839144-3.471972,10.304787-5.231371-2.07709-3.704771-3.830911-6.832949-5.732625-10.224913-3.375761,1.805959-6.420654,3.434884-9.700459,5.189521,1.741619,3.486689,3.345712,6.698059,5.128298,10.266763Z"/>
  <path class="cls-6" d="M282.964949,64.215146c2.411264-.342723,4.681885-.002489,6.001722-.965407,6.432802-4.693271,12.289333-3.777407,18.644375.36599,3.853441,2.512371,7.270665.256855,8.000638-4.422863.099542-.638351.272883-1.265196.513496-2.357867,1.679525,4.558381,1.261397,7.305719-1.028705,9.475848-2.785348,2.639461-5.721668,1.358584-7.919399-.353574-5.363692-4.178678-10.299569-3.303875-15.601289-.031655-2.812856,1.736066-5.935094,2.5539-8.610839-1.710472Z"/>
  <path class="cls-13" d="M553.902371,171.019272c.854186,2.622469-.22322,4.630776-3.178324,5.751771-.814422.309007-1.54691.890684-2.378565,1.088911-7.227584,1.722847-10.382467,6.5119-11.305369,13.664908-.284818,2.207418-2.421111,4.44336-4.257923,6.032468-.610844.528401-2.941778-.904625-4.464124-1.497755-.153969-.059993-.154397-.514058-.339138-1.213098,6.087724.042974,7.426453-4.132345,8.045967-9.049598.669766-5.315179,3.740199-8.493423,8.85204-10.204068,3.060533-1.024182,5.830093-2.91783,9.025435-4.57354Z"/>
  <path class="cls-13" d="M148.936435,268.031572c12.162685,3.371547,20.941808-.673137,23.973228-11.168017.555935-1.92474.581061-4.002807.834839-5.888721,2.754549,4.568563,1.397651,12.683593-3.359318,16.865281-5.232843,4.600058-11.278262,6.720483-18.093149,3.67646-1.369046-.611539-2.269337-2.272441-3.385461-3.449816.000294-.000321.029863-.035187.029863-.035187Z"/>
  <path class="cls-6" d="M340.854229,116.365874c1.880749,11.589357-6.573177,19.82175-17.322236,18.293651-3.069256-.436298-5.949062-2.204929-8.851452-4.120946,12.792126,2.657255,22.590775.915329,24.781388-14.159352.462441-.004602.927343-.008964,1.392299-.013353Z"/>
  <path class="cls-6" d="M277.864775,160.108137c6.419316-.665859,10.954671-4.752768,14.457522-9.415227,3.391429-4.514216,5.469817-10.014832,8.124958-15.082361.412563,1.055597,1.364042,2.234203,1.155647,3.148461-2.561219,11.239596-9.394382,19.094293-19.662804,24.054092-2.662098,1.285774-3.688395-.33507-4.075323-2.704965Z"/>
  <path class="cls-6" d="M356.675205,29.734877c2.120987.841181,4.39209,1.42944,6.329407,2.579896,3.307514,1.964169,5.111038,1.245368,5.731247-2.51102,1.353018-8.193928,5.912403-14.008702,13.180873-17.824159.378473.983028,1.248285,2.72094,1.064775,2.84039-7.520964,4.89503-11.731204,11.897414-13.511555,20.54427-.067646.328274-.634123.553821-1.813586,1.519202-3.481658-2.266487-7.231384-4.707533-10.981162-7.148579Z"/>
  <path class="cls-6" d="M417.208816,223.392363c11.478229-1.407819,23.794053-12.390667,25.676568-22.897562,3.747049,5.180289-.397471,8.932289-2.897894,12.331906-4.426127,6.017858-10.407888,10.41043-17.718637,12.662133-2.249054.692698-4.376303,1.021614-5.060037-2.096477Z"/>
  <path class="cls-13" d="M413.028278,291.421597c2.996794-1.812114,5.982403-3.106718,8.305043-5.153584,2.787703-2.456753,5.433425-3.667202,8.97058-1.993617.781135.369615,1.656888.545339,2.49657.783918,5.558762,1.57902,7.295818.625962,8.659379-4.739068,2.578933,5.417557.809659,8.297604-4.871014,7.928871-.290919-.018865-.619246.041502-.86719-.072194-6.251272-2.866855-11.252601-1.243067-15.860472,3.697038-2.323657,2.491272-5.246972,2.185047-6.832896-.451363Z"/>
  <path class="cls-6" d="M156.766675,57.773835c1.315315-2.568604,3.016488-5.018668,3.850953-7.734992,1.110051-3.61327,3.325683-5.005944,6.872418-5.425504,2.831453-.334923,5.590471-1.281867,8.381679-1.957185,2.391489,2.29156,2.43045,3.904563-1.274107,4.4647-.427788.064675-.837087.332649-1.258935.342844-6.688212.161876-11.170077,3.003162-12.643188,9.920776-.219741,1.031822-1.620443,1.812154-2.474815,2.708819-.484677-.773147-.969327-1.546308-1.454005-2.319455Z"/>
  <path class="cls-6" d="M453.170075,80.780103c7.384282-4.627351,12.165602-10.879814,12.385557-19.979973.538596.059792,1.077191.119597,1.615787.179389,0,2.925737.521898,5.970295-.111422,8.751843-1.220938,5.362033-3.953144,10.071078-8.91123,12.870046-1.223186.690504-3.180411.08053-4.800211.068408-.059511-.629909-.119022-1.259818-.178479-1.889714Z"/>
  <path class="cls-13" d="M340.854229,116.365874c-.464956.004388-.929859.00875-1.392299.013353-.059939-6.6808-.283801-13.367701-.042493-20.037745.045811-1.265518,1.709977-3.089807,3.021733-3.562951,2.682435-.967535,5.617042-1.352295,8.481488-1.633367.959721-.094163,2.021927.856246,3.037253,1.329176-.85745.931571-1.579127,2.475137-2.593275,2.700149-10.286243,2.282234-10.304011,2.22184-10.444654,12.472709-.03987,2.906002-.046078,5.812433-.067753,8.718676Z"/>
  <path class="cls-6" d="M170.860977,165.427999c.835588-.814208,2.302116-1.553867,2.408535-2.454265.994935-8.416733,6.590678-12.166511,13.954757-14.256646,2.838036,1.768364,2.68115,3.422094-.435334,4.418581-6.166662,1.971782-10.435048,5.413838-11.007332,12.376245-.072328.879606-1.351145,1.660018-2.071003,2.486375-.949874-.856781-1.899748-1.713535-2.849622-2.57029Z"/>
  <path class="cls-6" d="M465.428208,334.764998c.841823-1.035234,2.251837-1.980559,2.432296-3.120525,1.09148-6.895243,4.899807-11.145032,11.596394-12.973281.932374-.254527,1.727156-1.012917,2.585622-1.538133,2.1014,1.484295,2.937444,3.880467.139519,4.522244-8.127045,1.863999-11.334482,7.339113-12.564196,14.792272-.083005.5029-.632357.928788-1.445924,2.05864-1.060761-1.446405-1.902263-2.593811-2.743712-3.741216Z"/>
  <path class="cls-13" d="M106.616361,242.620743c3.22475,7.949395,2.196473,15.790472-1.241569,23.405358-.401057.888303-2.247743,1.123885-3.424235,1.662079.089962-1.21564-.167642-2.59951.326079-3.619679,3.280702-6.778335,5.562829-13.703066,4.339724-21.447758Z"/>
  <path class="cls-13" d="M237.681609,32.728179c3.523482-1.489968,7.114047-2.846545,10.5241-4.56198.872381-.438853,1.173789-2.012736,1.737511-3.065296,2.453516,3.034965,2.270808,5.191715-.708566,6.806017-2.283117,1.237033-4.586785,2.502912-7.016379,3.383174-2.222911.805418-4.440229.786219-4.536667-2.561914Z"/>
  <path class="cls-13" d="M41.957898,269.794771l14.572584,2.271317c1.613726,1.096109,1.53436,2.638337-1.446298,3.434777-4.710584,1.258667-11.082657-1.403324-13.137096-5.695364l.01081-.01073Z"/>
  <path class="cls-1" d="M105.546047,109.300099c6.299812-1.19145,16.646664,2.760249,18.5603,7.097778-5.949249-3.157559-12.979596-2.173996-18.5603-7.097778Z"/>
  <path class="cls-13" d="M33.20073,145.232941c4.462291-2.625974,8.924583-5.251922,13.386847-7.877977,2.227232,2.166905,2.036685,4.021565-.763046,5.460371-2.843989,1.46155-5.73589,2.830409-8.571584,4.307507-2.236477,1.164986-3.609631.688149-4.052217-1.889901Z"/>
  <path class="cls-13" d="M166.319949,236.098808c8.071869-1.05078,8.123165-1.109622,9.373805-10.067519,2.276669,4.68052,1.879759,10.077741-1.090276,11.938957-2.943652,1.844706-5.675804,1.550523-8.283529-1.871438Z"/>
  <path class="cls-6" d="M323.913569,37.174603c2.258152,3.875718-.528427,5.862217-2.62576,8.142484-1.995062,2.169032-3.919214,4.403275-5.943335,6.686433-3.110197-7.975672,7.475207-8.879735,8.569096-14.828917Z"/>
  <path class="cls-13" d="M383.49752,199.724852c3.530894-1.915161,7.06045-3.829599,10.65915-5.78158,1.458018,2.245843,1.092443,4.150621-1.689105,5.800686-4.528826,2.686556-7.728182,2.602855-8.970045-.019106Z"/>
  <path class="cls-6" d="M330.991038,221.012326c2.718238-.996889,5.154601-2.035521,7.682372-2.750937,1.118934-.316687,2.423091.020872,3.643173.061438-.542288,1.130976-.785577,2.665818-1.676743,3.325683-4.835533,3.580852-7.168555,3.256967-9.648802-.636184Z"/>
  <path class="cls-13" d="M104.316225,284.856608c4.579668,1.647576,7.459794-.133284,9.148471-4.317702.428752.066067.85753.13216,1.286282.198227,0,1.708264.603271,3.784913-.156511,5.029211-.899274,1.472709-2.989676,3.103266-4.536265,3.076454-2.033915-.035268-4.041045-1.619399-6.059708-2.537537l.317731-1.448653Z"/>
  <path class="cls-7" d="M487.24411,174.149645c.334214.309355.668428.618737,1.002588.928119-17.818018-.015065-35.635983-.03013-53.453841-.045195.948108-.31559,1.896162-.631234,2.844217-.94685,1.576666.012362,3.153278.024698,4.72989.037007,4.578169.000589,9.156285.001151,13.734454.001686,1.267979-.000722,2.535905-.001445,3.803884-.002167,6.042235.00008,12.08447.000161,18.126705.000268.394314.000428.788574.00083,1.182887.001231,1.336749.003934,2.673551.007867,4.0103.011774l4.018916.014128Z"/>
  <path class="cls-6" d="M94.532721,336.382497c2.612782-3.208507,5.225592-6.417015,7.838534-9.62579.503301.478924,1.509154,1.276542,1.436665,1.390961-2.213358,3.493218-4.532653,6.919326-6.835491,10.355869-.813245-.707014-1.626463-1.414027-2.439708-2.121041Z"/>
  <path class="cls-6" d="M438.371703,273.694906c-3.038912-6.466946,4.221639-9.277875,4.597328-15.515956,3.605069,7.490379-3.522224,10.521451-4.597328,15.515956Z"/>
  <path class="cls-13" d="M522.182605,182.823982c-4.261027-3.233767-11.231301-.538488-14.241849-6.331602,5.066566,1.452426,11.049343.789243,14.241849,6.331602Z"/>
  <path class="cls-13" d="M317.349383,208.371038c.732006-.463244.963253-.736127,1.196962-.738321,3.051328-.028712,6.10303-.019079,10.251457-.019079-.789323,1.685091-1.122895,3.693479-1.937745,3.912658-3.566215.959159-6.811221.073559-9.510674-3.155258Z"/>
  <path class="cls-13" d="M137.661705,45.118258c2.764664.139613,5.575325.027227,8.275608.519731,1.462353.266716,2.736541,1.565012,4.095633,2.397938-3.516204,2.531985-10.778306.819279-12.371241-2.917669Z"/>
  <path class="cls-6" d="M385.995,184.036919c2.888529-2.174986,5.530879-4.164616,8.130845-6.122296.787182,1.525503-.632464,3.690268-2.679331,5.847112-1.80133,1.898035-3.506597,2.409712-5.451514.275185Z"/>
  <path class="cls-13" d="M31.780708,243.631626c3.309655,1.893808,6.323347,3.618261,9.509658,5.441479-3.421211,1.787897-7.244241-.434558-9.509658-5.441479Z"/>
  <path class="cls-13" d="M98.93324,280.335007c.893574.861972,1.787175,1.723918,2.680776,2.585863l-.064167.064435c-.863069-.892638-1.726139-1.785302-2.589342-2.677806-.000161.000134-.027267.027508-.027267.027508Z"/>
  <path class="cls-13" d="M73.288274,179.63375c-.100906.029167-.272696.105322-.290089.079098-.066147-.099702-.104653-.23296-.102244-.352651.000615-.031307.186239-.058976.286905-.088303.035161.120601.070295.241228.105429.361855Z"/>
  <path class="cls-13" d="M147.159375,267.186136c.592273.281955,1.184546.563882,1.776953.845623.000107-.000187-.029461.034679-.029755.035-.573034-.302853-1.145746-.606027-1.718459-.909201l-.028739.028578Z"/>
  <path class="cls-6" d="M191.019617,204.907977c.394661.094591.789323.189183-.035856-.008616.642793.541539.333518.280991.024243.020444l.011613-.011827Z"/>
  <path class="cls-6" d="M98.127594,279.395916c.268629.312941.537258.625882.805779.938957-.000134.000134.026973-.02724.027133-.027374-.3184-.262555-.636906-.524949-.956724-.785898-.001284.001498.123812-.125685.123812-.125685Z"/>
  <path class="cls-13" d="M147.188114,267.157558l-.363969-.358912c.076155.023521.184393.024136.221266.075753.061973.086724.07851.205907.114072.311576-.000107.000161.028632-.028418.028632-.028418Z"/>
  <path class="cls-13" d="M76.116114,183.032912l-.854453-.905829.019239-.018918c.300391.286209.600756.572445.900451.859216-.000642.000562-.065237.065532-.065237.065532Z"/>
  <path class="cls-13" d="M41.947087,269.805501c-.128668-.118781-.257323-.237589-.385978-.356397.082216.013513.193785-.001151.239957.046988.074803.077948.106726.197077.156778.298732.000054-.000054-.010757.010677-.010757.010677Z"/>
  <path class="cls-13" d="M76.948197,183.941471c-.276844-.303468-.553661-.60691-.83128-.909469-.000803.00091.063792-.06406.064435-.064622.300364.280055.600033.560645.900933.839843.001204-.001418-.134087.134248-.134087.134248Z"/>
  <path class="cls-13" d="M345.285547,122.535506c-.123464-.142275-.246981-.28455-.370445-.426825.149955.115838.29991.231675.450292.346978.000428-.000535-.079847.079847-.079847.079847Z"/>
  <path class="cls-13" d="M75.261661,182.127083c-.132321-.133552-.264669-.267104-.396989-.400655.089186.015868.211767.001445.259932.054534.077787.085788.106606.215995.156216.32731.00008-.000107-.019159.018811-.019159.018811Z"/>
  <path class="cls-13" d="M102.504406,283.77238c.138475.155173.276951.310372.415426.465572-.170773-.122688-.341519-.245349-.511329-.368786.00091-.000803.095903-.096786.095903-.096786Z"/>
  <path class="cls-6" d="M191.008004,204.919805c-.12234-.144523-.244653-.289046-.366966-.433568.08932.023655.216423.019373.259317.077386.068957.0932.082282.227581.119182.344462.00008-.000107-.011533.01172-.011533.01172Z"/>
  <path class="cls-13" d="M101.614016,282.92087c.29603.284711.592059.569421.889239.852821.001151-.001311-.093842.094672-.094752.095448-.286477-.294531-.572044-.589838-.858146-.884476-.000508.000642.063659-.063792.063659-.063792Z"/>
  <path class="cls-6" d="M62.085711,282.98212c-.123758-.131304-.247516-.262608-.371274-.393885.1419.113189.283828.22635.425969.339218.000241-.000321-.054694.054668-.054694.054668Z"/>
  <path class="cls-20" d="M137.543567,394.302121c-.074549-23.499923-.153246-46.999792-.220517-70.499715-.015038-5.255641-.049637-10.512326.029702-15.766924.136254-9.024017,4.167747-12.976171,13.259142-12.981228,41.899163-.02328,83.798353-.024404,125.697516-.027722,29.052316-.002301,58.104686.00479,87.157002.00768,1.134401.000107,2.268802,0,3.631292,0v8.046823c-.505522.61566-1.397384,1.195303-1.458661,1.852359-.984285,10.557174-2.142983,21.110092-2.677672,31.693516-.438519,8.679983,5.010854,14.162804,13.813177,13.676227,7.946157-.439268,15.85207-1.81198,23.73984-3.009638,3.600787-.54673,7.115145-1.662721,10.66873-2.520492,1.141304-.011453,2.282555-.022905,3.42386-.034358.548389.166384,1.096725.332822,1.645114.499261.024778,16.644925.049557,33.289796.074282,49.934774-1.074836.355567-2.276936.509857-3.205617,1.096618-15.253535,9.638634-30.492299,19.300922-45.694458,29.020367-19.616619,12.541933-39.208299,25.122881-58.78082,37.733476-2.506417,1.614823-4.418207,1.769595-6.995373-.32244-6.978087-5.664512-15.206119-8.775618-24.168458-8.571504-9.197974.209626-17.779245,3.163018-24.927784,9.171858-2.261496,1.900925-3.688983,1.781475-6.004987.286691-27.634088-17.835197-55.310507-35.605264-83.033594-53.301799-8.567303-5.468853-17.309553-10.663592-25.971715-15.983829Z"/>
  <path class="cls-2" d="M120.826608,593.275602c18.35656-16.028462,36.694068-32.078812,55.074203-48.080141,26.538246-23.103683,53.133113-46.142289,79.652441-69.267539,13.383944-11.670997,29.079128-11.897374,42.27702-.446225,41.241947,35.783315,82.48673,71.563313,123.723753,107.352301.875485.759889,1.669625,1.613485,2.501708,2.423359-11.97492,1.228644-23.931698,2.690891-35.92947,3.625833-14.489205,1.129103-29.009396,1.883211-43.523378,2.665363-12.784954.688925-25.576598,1.280823-38.371186,1.757553-17.90204.667036-35.806783,1.304746-53.715646,1.737591-18.227477.440552-36.461671.871043-54.692305.846854-23.637542-.031361-47.275218-.474375-70.910405-.882014-2.038277-.035161-4.058278-1.130226-6.086734-1.732935Z"/>
  <path class="cls-24" d="M100.583358,396.055393v-20.702212c48.657884,34.503509,97.310256,69.003111,146.356807,103.782232-48.356984,41.98471-96.504075,83.787194-144.651166,125.589732l-1.405625-.164404c-.221882-3.461108-.627086-6.921734-.636773-10.383484-.079366-28.348406-.107944-56.697027-.107221-85.045594.000856-33.31725.04268-66.6345.085895-99.95175.001873-1.447208.195096-2.894202.299187-4.341303.642231,1.66347,1.842485,3.325763,1.845696,4.990411.10013,51.964675.083406,103.929672.086002,155.894561.000054,1.313522-.48829,2.983147.133284,3.864573,1.199665,1.701093,3.030376,2.957138,4.599442,4.39771.760317-1.494838,2.15093-2.977795,2.179348-4.486441.193919-10.285494.101227-20.576394.101174-30.865581-.000241-44.520508.017179-89.040963-.016804-133.561471-.006128-8.057954-1.033093-9.001406-8.869246-9.01698Z"/>
  <path class="cls-2" d="M427.766765,583.696372c-17.011088-14.671163-34.052735-29.307218-51.025719-44.022318-21.837469-18.932618-43.62201-37.926405-65.42084-56.903656-1.311917-1.142161-2.549017-2.370377-4.101118-3.820368,5.64364-3.983434,11.08156-7.81001,16.507546-11.653336,38.191315-27.051796,76.379419-54.10814,114.574801-81.154316.823627-.583175,1.721269-1.061832,2.584392-1.589242.29611,14.568035.850065,29.136445.827052,43.703945-.033448,21.138911-.336836,42.280392-.806074,63.41454-.32929,14.831553-.948054,29.662625-1.775428,44.475019-.598642,10.716092-1.579074,21.419715-2.723268,32.093048-.669391,6.243673-3.018843,11.83979-8.641344,15.456686Z"/>
  <path class="cls-9" d="M193.795573,291.454029c9.956659-8.795098,19.290352-17.087297,28.677081-25.318994,10.642801-9.333158,21.282926-18.670438,32.014913-27.900496,14.431433-12.41178,30.115807-12.755333,44.649377-.321504,20.289863,17.358548,40.2088,35.15061,60.277317,52.767592.164404.144362.20192.433328.350483.773402h-165.969172Z"/>
  <path class="cls-11" d="M120.826608,593.275548c2.028457.602762,4.048457,1.697828,6.086734,1.732989,23.635187.407639,47.272863.850653,70.910405.882014,18.230635.02419,36.464828-.406301,54.692305-.846854,17.908863-.432846,35.813606-1.070555,53.715646-1.737591,12.794587-.47673,25.586231-1.068628,38.371186-1.757553,14.513983-.782152,29.034174-1.53626,43.523378-2.665363,11.997772-.934943,23.95455-2.397189,35.92947-3.625833,8.453231,7.289503,16.906462,14.578953,25.359694,21.868456-.09221.454199-.184366.908398-.276523,1.362597-2.914217.297234-5.828327.851991-8.742705.853864-61.638149.040138-123.276351.01948-184.9145.007653-47.762169-.009151-95.524338-.011667-143.286481-.065612-2.391195-.002729-4.781908-.466722-7.172863-.715898-.172539-.416095-.345105-.832137-.51767-1.248232,5.44065-4.68151,10.881273-9.363074,16.321923-14.044638Z"/>
  <path class="cls-1" d="M427.766765,583.696372c5.622501-3.616896,7.971952-9.213013,8.641344-15.456686,1.144194-10.673332,2.124627-21.376955,2.723268-32.093048.827374-14.812394,1.446138-29.643465,1.775428-44.475019.469237-21.134148.772626-42.275629.806074-63.41454.023012-14.5675-.530943-29.13591-.827052-43.703945,3.707126-2.626242,7.414251-5.252484,11.121323-7.878726.548657.137592,1.097313.275078,1.64597.412563-.013326.399719-.026705.799384-.041422,1.200494-.435896,1.44282-1.249409,2.883873-1.2508,4.325729-.065077,68.303429-.067913,136.606912-.006315,204.910341.001284,1.434203.839629,2.867604,1.287513,4.301379-.111851,4.251287-.223648,8.502574-.335445,12.753807-.503702.132883-1.007405.265712-1.511107.398595-8.009575-7.093631-16.019203-14.187315-24.028778-21.280946Z"/>
  <path class="cls-1" d="M137.543567,394.302121c8.662162,5.320236,17.404412,10.514975,25.971715,15.983829,27.723087,17.696535,55.399506,35.466602,83.033594,53.301799,2.316004,1.494785,3.74349,1.614235,6.004987-.286691,7.148539-6.00884,15.72981-8.962232,24.927784-9.171858,8.962339-.204114,17.19037,2.906992,24.168458,8.571504,2.577167,2.092035,4.488956,1.937263,6.995373.32244,19.572521-12.610596,39.164201-25.191543,58.78082-37.733476,15.202159-9.719444,30.440923-19.381733,45.694458-29.020367.928681-.586761,2.130781-.741051,3.205617-1.096618-.983269,1.544877-1.619212,3.576491-3.001182,4.562649-26.967613,19.244247-54.019569,38.370276-81.060394,57.511771-9.169557,6.490815-18.355972,12.957761-27.871034,19.673026-7.546224-7.38562-16.028087-13.08754-27.120993-13.200086-11.145058-.113189-19.80417,5.157812-27.44041,13.145445-2.040819-1.352857-3.978644-2.56261-5.83887-3.881805-34.051825-24.146997-68.107637-48.288376-102.106079-72.51035-2.055483-1.46444-5.44156-2.341157-4.343845-6.171211Z"/>
  <path class="cls-20" d="M100.583358,396.055393c7.836153.015573,8.863118.959025,8.869246,9.01698.033983,44.520508.016564,89.040963.016804,133.561471.000054,10.289187.092745,20.580086-.101174,30.865581-.028418,1.508645-1.419031,2.991603-2.179348,4.486441-1.569066-1.440572-3.399777-2.696617-4.599442-4.39771-.621574-.881426-.133231-2.55105-.133284-3.864573-.002596-51.964889.014128-103.929886-.086002-155.894561-.003211-1.664648-1.203465-3.326941-1.845696-4.990411.019614-2.927757.039255-5.85546.058896-8.783217Z"/>
  <path class="cls-24" d="M370.735417,299.294249c13.961259,13.610829,28.390685,27.678132,42.815027,41.740431-10.340884,0-20.63735.305689-30.904862-.108372-6.749623-.272188-11.771984-6.049353-11.872489-12.852011-.146583-9.924308-.037676-19.852308-.037676-28.780048Z"/>
  <path class="cls-24" d="M133.865394,343.370164v26.927475h-30.622025c10.579517-9.303082,20.331634-17.8786,30.622025-26.927475Z"/>
  <path class="cls-1" d="M411.183118,344.773007c-3.553585.857771-7.067943,1.973762-10.66873,2.520492-7.88777,1.197658-15.793683,2.57037-23.73984,3.009638-8.802323.486577-14.251696-4.996244-13.813177-13.676227.534689-10.583424,1.693386-21.136343,2.677672-31.693516.061277-.657056.953139-1.236699,1.458661-1.852359.077172,7.587299.166438,15.174544.228732,22.761976.094458,11.50183,7.059005,18.565705,18.487945,18.694574,8.456068.095367,16.912456.158143,25.368738.235421Z"/>
  <path class="cls-27" d="M453.642096,591.824915c-.447884-1.433775-1.286229-2.867176-1.287513-4.301379-.061598-68.303429-.058762-136.606912.006315-204.910341.001391-1.441856.814904-2.88291,1.250854-4.325729.057531,29.024006.138288,58.049349.163923,87.074746.035803,40.554467.032431,81.108934.035214,121.663401.000107,1.599785-.110031,3.199516-.168793,4.799301Z"/>
  <path class="cls-1" d="M133.830554,374.352626v20.326148c-9.654662-6.769692-18.963818-13.297059-28.988444-20.326148h28.988444Z"/>
  <path class="cls-24" d="M448.749032,370.358863c-7.275107.013647-14.550214.027294-21.825321.040941-.005031-3.898021-.134542-7.801233.026812-11.69235.11549-2.785776.620691-5.55539.952015-8.332176,6.97493,6.150446,13.94986,12.300893,20.924736,18.451339-.026116.510767-.052179,1.02148-.078242,1.532246Z"/>
  <path class="cls-1" d="M427.902538,350.375278c-.331324,2.776785-.836525,5.546399-.952015,8.332176-.161354,3.891117-.031843,7.794329-.026812,11.69235h-6.780824v-27.103386c2.777963,2.534246,5.268807,4.80658,7.75965,7.07886Z"/>
  <path class="cls-1" d="M426.884911,374.158787h22.658902c-7.830239,5.389059-14.800888,10.186434-21.771483,14.983863-.295789-4.994639-.591631-9.989224-.88742-14.983863Z"/>
  <path class="cls-28" d="M426.884911,374.158787c.295789,4.994639.591631,9.989224.88742,14.983863-2.370163,1.779388-4.740326,3.558776-8.220593,6.171639.450828-7.911799.827748-14.52565,1.204615-21.1395l.858306-.027775c1.75675.00396,3.513501.007867,5.270251.011774Z"/>
  <path class="cls-1" d="M416.252038,345.237909c-.548336-.166438-1.096671-.332876-1.64506-.499261.548336.166438,1.096725.332822,1.64506.499261Z"/>
  <path class="cls-1" d="M448.749032,370.358863c.026063-.510767.052126-1.02148.078242-1.532246.341011.466669.681968.933337,1.022925,1.399952-.367073.044098-.734093.088196-1.101167.132294Z"/>
  <path class="cls-1" d="M421.61466,374.147014c-.286102.009258-.572204.018517-.858253.027775.286102-.009258.572151-.018517.858253-.027775Z"/>
  <path class="cls-27" d="M453.653174,377.086972c-.54871-.137485-1.097367-.274971-1.646024-.412563.390139-.246821.780332-.493695,1.170525-.740515.157929.35241.315911.704873.47384,1.057283l.001659.095796Z"/>
  <path class="cls-1" d="M453.651515,376.991177c-.157929-.35241-.315911-.704873-.47384-1.057283.157929.35241.315858.704873.47384,1.057283Z"/>
  <path class="cls-8" d="M403.632612,106.705459c-.828604-5.050109-1.611933-9.824177-2.395262-14.598246-.476355.037141-.952657.074308-1.429012.111476.491072,4.772329.982145,9.544658,1.489647,14.476521-7.343823-3.641995-11.817366-16.644323-8.264477-23.238425,2.254031-4.183481,7.515077-4.384812,11.049397-.660762,5.020755,5.290267,4.068526,18.930156-.450292,23.909435Z"/>
  <path class="cls-8" d="M407.999121,111.333185h14.785903c.008295-.511355.016537-1.022684.024832-1.534039h-14.198232c4.33959-7.159617,19.431557-7.09446,23.772592-2.923181,4.105453,3.944982,3.383936,9.083368-2.07614,11.042493-8.469179,3.038805-15.509668-.759594-22.343848-4.989849.011613-.531826.02328-1.063624.034893-1.595423Z"/>
  <path class="cls-8" d="M419.685049,86.736015c-6.599133-6.248209-9.513778-15.065409-6.487764-21.574647,1.04567-2.249214,3.54438-5.027097,5.626675-5.249714,2.060995-.22033,5.071596,2.003745,6.547543,3.987515,4.022127,5.406198,2.563948,16.322404-3.092964,22.198281-.377509-5.79334-.708833-10.878102-1.040157-15.962863-.371515.021701-.743084.043389-1.114599.06509v16.096335c-.148831.144108-.295039.290771-.438733.440004Z"/>
  <path class="cls-8" d="M437.5454,77.685025c3.655856-3.429399,6.470425-6.069622,9.284993-8.709845-.259237-.342094-.518473-.684189-.77771-1.026296-3.215358,2.390312-6.430769,4.780611-9.789391,7.277395.434237-9.606109,8.162955-17.925561,16.36776-17.915152,4.537229.00574,6.3369,1.998688,5.913098,6.548319-.560002,6.011289-6.486319,11.455029-14.18876,12.944074-1.839006.355487-3.720665.489842-6.80999.881506Z"/>
  <path class="cls-8" d="M425.608691,91.328299c5.245848.497682,10.491695.995364,15.737597,1.493072.089106-.523825.178265-1.047623.267425-1.571448-4.464017-.736448-8.927981-1.472896-14.518746-2.395236,7.951562-4.092074,15.171172-4.628074,22.173289-1.305214,2.117991,1.005117,4.242403,4.537964,4.161057,6.834889-.065451,1.846766-3.176825,4.542206-5.418494,5.187755-9.13445,2.630523-16.124685-1.881178-22.402128-8.243819Z"/>
  <path class="cls-20" d="M410.49826,103.435862c.431508-.141231.863016-.282436,1.294524-.423668.051162.229588.102325.459176.153433.688764-.441783.08453-.883513.16906-1.325296.253617-.040887-.172914-.081774-.3458-.122661-.518714Z"/>
  <path class="cls-8" d="M420.123782,86.296011c.033234.292698.066522.585396.099756.878108-.178907-.146597-.357868-.293193-.537632-.438947.142837-.148389.289046-.295053.437876-.439161Z"/>
  <path class="cls-8" d="M56.01918,240.300003c-3.904363-1.943017-7.199996-3.583127-10.495629-5.22321-.222497.388293-.444994.776559-.667491,1.164852,2.898028,1.788673,5.79607,3.57732,9.879113,6.097384-6.088634,1.805344-10.652554.622403-15.048391-1.346542-3.914263-1.753272-6.763123-4.748728-7.26625-9.130195-.434251-3.781541,2.080542-5.477844,5.553223-5.860625,7.587473-.836391,15.295425,5.041653,18.045426,14.298336Z"/>
  <path class="cls-25" d="M93.815191,264.08568c-.253403-5.283122-.435201-9.49494-.68558-13.702665-.028016-.470789-.445074-.918406-1.532032-1.309v13.743953c-5.744118-6.203455-7.765296-15.533964-4.323776-21.014912,1.322915-2.106805,4.349196-4.153056,6.695303-4.267984,1.676876-.082122,4.440042,2.799744,5.113768,4.879015,2.509013,7.74306.405954,14.724787-5.267683,21.671593Z"/>
  <path class="cls-25" d="M72.259917,248.567824c-.675144-5.628281-1.287995-10.737232-1.900845-15.846156-.475659.036258-.951346.072516-1.427005.108773.323296,4.78049.646593,9.560981.969916,14.341471-4.76398-5.698682-8.480231-11.802114-6.048148-19.326369.706425-2.185556,3.304731-4.817845,5.391521-5.176677,1.790199-.307857,4.767298,1.879893,6.03683,3.76182,4.110778,6.093745,2.705554,15.491579-3.022268,22.137138Z"/>
  <path class="cls-25" d="M87.385305,266.909453c-3.98809,1.030738-7.976154,2.061477-11.964217,3.092215.078964.400762.157902.801525.23684,1.202287,4.363084-.812951,8.726141-1.625928,13.241642-2.467296-3.204119,7.0224-14.144903,11.902539-20.993853,9.575216-3.957211-1.344669-5.118771-5.184544-2.473611-8.793733,3.468279-4.732325,8.667647-5.646931,14.009317-5.527776,2.733677.061009,5.446456,1.057443,8.168681,1.631092-.074924.42934-.149874.858654-.224798,1.287995Z"/>
  <path class="cls-8" d="M60.496764,253.505066c-2.232464.877064-4.4649,1.754155-6.697337,2.631219.143372.459016.286771.918005.43017,1.37702,4.738185-1.453443,9.476397-2.906859,14.372698-4.408814-2.483565,7.052877-12.361688,13.413994-19.250629,12.150938-2.020282-.370391-4.838917-1.927684-5.347651-3.550455-.59036-1.883104.307188-5.067743,1.737939-6.547195,1.982084-2.049515,5.063462-3.035888,7.673996-4.477637,1.352135.237562,2.778418.284068,4.034543.770217,1.113663.43108,2.038223,1.350743,3.04627,2.054707Z"/>
  <path class="cls-25" d="M60.496764,253.505066c-1.008047-.703963-1.932608-1.623627-3.04627-2.054707-1.256125-.486149-2.682408-.532655-4.034543-.770217,4.390217.000134,8.780301.000134,13.170357.000134l.205104.776666c-2.098216.68269-4.196432,1.365407-6.294648,2.048124Z"/>
  <path class="cls-20" d="M64.182295,244.076487l.354096,1.761166c-.397043-.300766-.794086-.601505-1.191102-.902217.279011-.286289.558022-.572606.837007-.858949Z"/>
  <path class="cls-10" d="M329.555871,109.632226c0-9.218391.061438-18.688098-.042867-28.156013-.026384-2.393082.574827-3.899774,3.104524-4.366964,9.458549-1.746783,18.905538-3.555953,28.362481-5.311553.692885-.128642,1.430511-.016885,2.007745-.016885.325705.403157.663023.625654.665056.851175.113991,12.541853.49423,25.091627.168151,37.62291-.170559,6.5583-7.974682,10.338503-13.819706,7.3081-4.638001-2.404601-4.819103-8.983853.048808-11.766177,2.641655-1.50993,5.981065-1.799136,9.59293-2.801992v-19.418914c-5.999475,1.051985-11.549085,2.013405-17.0942,3.000018q-9.264496,1.648392-9.271614,10.998288c-.009258,6.276693.116935,12.558711-.099328,18.828607-.213961,6.203642-6.565043,10.687862-12.33616,8.39166-2.073571-.825099-4.680708-3.553398-4.712657-5.45237-.040941-2.428095,1.699541-5.735154,3.727141-7.129139,2.406608-1.65456,5.934933-1.677411,9.699697-2.580752Z"/>
  <path class="cls-3" d="M332.659806,158.522427q10.345112,4.142112,14.812448-6.059922c1.494892,1.904912,2.933376,3.651548,4.275958,5.469014,2.018663,2.732714,4.210132,2.947879,6.468123.419279,1.441375-1.614154,2.674514-3.414254,4.001095-5.130973.442961.243074.885921.486176,1.328935.72925.350216,1.763949.697916,3.528379,1.051128,5.291712.918245,4.58336,2.050666,5.304422,6.662069,4.155197,1.682576-.419333,3.339571-.941365,5.750192-1.627855-.789698,2.730707-1.319677,5.050056-2.135384,7.264056-1.09148,2.962195-.000107,4.39201,2.908758,4.952574,2.113388.407265,4.197128.968418,7.595995,1.766758-2.222456,1.968892-3.831125,3.320438-5.355611,4.761144-2.556563,2.416027-2.541739,4.711614.381416,6.887777,1.726995,1.285667,3.362476,2.694316,5.399013,4.338145-2.502671.869117-4.620126,1.789235-6.83038,2.329731-3.521796.861143-3.942119,2.969688-2.763139,5.91366.808857,2.019867,1.640833,4.030449,2.273136,5.580918-3.511521,0-8.087282-1.332334-10.430418.383744-2.234818,1.636685-2.142341,6.451025-3.149425,10.149293-1.64597-1.300464-3.482836-2.667958-5.224227-4.147785-2.433206-2.067765-4.394499-1.835661-6.092059.92919-1.203866,1.960731-2.536815,3.842176-4.107915,6.203669-.763742-1.716452-1.350021-2.958155-1.874488-4.225465-2.719201-6.570849-3.231092-6.746921-9.498366-3.228442-1.12739.632893-2.272815,1.233675-3.814695,2.068461,0-1.576666-.128441-2.795704.020872-3.979768.96807-7.675281.422249-8.254121-7.482807-7.765056-1.012221.062615-2.031668.008589-3.723288.008589,1.380098-2.342709,2.568765-4.393696,3.789863-6.425256,1.58876-2.64326,1.264501-4.603509-1.779014-5.936672-2.120345-.928735-4.110912-2.153526-6.81272-3.594472,2.005658-1.027179,3.48808-1.780806,4.965472-2.54412,4.980403-2.573099,5.220909-3.537932,2.062493-8.3295-.87115-1.321657-1.764992-2.628329-3.017559-4.490669,2.483726-.19606,4.455347-.602575,6.383352-.451818,4.054986.317115,5.148661-1.567193,4.545845-5.229739-.326882-1.986526-.375476-4.018862-.584674-6.434649ZM352.140171,208.639132c13.368183.10393,23.653517-9.965034,23.845215-23.34368.17682-12.341405-10.75912-23.15621-23.320213-23.061939-12.857952.096491-23.276008,10.39986-23.307369,23.050754-.032271,13.016523,9.955348,23.255136,22.782366,23.354865Z"/>
  <path class="cls-23" d="M206.57464,95.334023c.762404-11.290879,9.070604-17.36493,19.857526-11.671733,3.910758-9.541059,9.08211-13.117536,17.205382-11.899154,7.310107,1.096444,11.033315,6.321246,11.99614,17.098816,4.64255.774392,8.756833,2.575147,10.676356,7.478111,2.984298,7.622593-1.646291,15.505761-9.805099,15.646859-18.082687.31278-36.173963.289661-54.260021.162183-6.396036-.045061-10.281775-4.712684-9.376828-10.47655.750175-4.778082,6.257802-8.871574,11.664843-6.540318.500144.215647,1.133545.122206,2.041702.201786Z"/>
  <path class="cls-30" d="M241.559909,69.598908c-8.688091,1.064227-12.161267,3.557398-16.016902,11.310399-12.42837-2.385362-16.945958.184045-20.909618,11.892477-4.047574-1.671979-7.161383-9.693154-6.304736-16.241045,1.418416-10.842152,9.391599-18.863153,20.294519-20.416298,9.45986-1.347573,18.695082,3.986832,22.936736,13.454466Z"/>
  <path class="cls-22" d="M492.465286,232.720839c3.094891-1.352724,5.377072-2.782298,7.854911-3.335771,4.1016-.916185,7.96537-.023414,10.453645,3.736614,2.421004,3.658345,1.992547,7.560032-.050199,11.201786-3.351558,5.975232-9.262944,8.690767-15.16855,11.296404-1.860788.820978-3.85585,1.350369-5.810613,1.943552-8.882866,2.695573-8.936918,2.712083-13.167869-5.799267-3.605925-7.254048-6.541121-14.711755-5.111627-23.077673.922687-5.39987,4.468299-8.708615,9.264817-8.869139,4.692-.156992,8.792208,3.013786,10.271259,7.94894.491072,1.638505.969943,3.280648,1.464226,4.954554Z"/>
  <path class="cls-22" d="M94.990693,159.815613c.556872-1.953319.916747-3.452224,1.41095-4.905453,1.549987-4.557538,6.063615-7.98097,10.079507-7.705839,4.834489.331217,8.49278,3.586953,9.340651,8.896058,1.823807,11.420163-3.538788,20.598229-9.693515,29.43028-.447857.642713-1.871357,1.168678-2.615271.956537-9.406397-2.682488-18.890072-5.33878-25.585937-13.217506-4.419732-5.200492-3.900804-12.35259.955306-15.871041,3.301761-2.392239,6.827651-2.236424,10.363629-.758203,1.720118.719082,3.288997,1.799805,5.74468,3.175166Z"/>
  <path class="cls-21" d="M209.865912,180.325485c.622778-1.628764,1.073953-3.005892,1.665156-4.32003,2.265082-5.034803,6.858182-7.755449,11.444513-6.834715,4.65312.934167,8.119392,5.074888,8.239805,10.502426.056782,2.558998-.114446,5.468024-1.266615,7.644482-3.520538,6.650483-7.471836,13.083151-11.514486,19.435785-.590641.928146-2.993743,1.735317-3.876614,1.279218-6.183975-3.194727-12.55558-6.241399-18.109097-10.35809-3.170912-2.350549-5.375814-6.401575-7.172809-10.096793-1.80909-3.720104-.543706-7.502073,2.558302-10.304439,3.274333-2.958128,7.171873-3.144876,11.011346-1.401478,2.334333,1.059959,4.382859,2.749331,7.0205,4.453635Z"/>
  <path class="cls-10" d="M169.109445,227.916453c-6.652757-3.605176-9.290158-3.468386-13.981221.855443,3.549357,5.851393,7.18964,11.78068,10.757193,17.753423,3.898396,6.526725,1.352804,13.618241-5.77085,16.243119-4.020789,1.481566-8.106708.414543-10.048976-2.823907-2.210174-3.685103-1.242505-7.234568,1.577468-9.939507,2.127998-2.041194,4.986959-3.320358,8.127339-5.326204-4.485665-7.756198-9.104025-15.741878-14.01012-24.225132,4.882012-.777094,9.375812-1.914653,13.909214-2.104237,5.337656-.223139,9.006383,3.732627,9.439952,9.567001Z"/>
  <path class="cls-4" d="M298.809634,21.338588c2.599644,9.967549,8.53843,14.777046,19.03719,14.447943-8.854074,5.674212-11.171415,13.035922-7.504588,22.450427l-1.117757.333063c-1.94208-1.044305-4.108236-1.815954-5.779359-3.189776-3.457148-2.842116-6.748125-2.713287-10.388301-.475512-1.952355,1.20016-4.137403,2.02174-7.735407,3.738353,4.337289-10.111457,2.796533-17.771325-6.206318-23.677211,10.376741.712673,16.831646-3.503333,19.69454-13.627286Z"/>
  <path class="cls-26" d="M138.274797,42.351454c7.55163-5.41654,10.473152-11.472476,6.314208-20.0091,7.231598,4.690234,13.971722,5.709345,20.963964-.755821-3.074447,8.92568.446707,14.786746,7.488265,19.769584-9.536175-.427561-14.829145,3.796272-16.182725,13.553446-2.599269-4.287076-3.867382-8.454141-6.675609-10.409988-2.6568-1.850405-6.930323-1.379522-11.908104-2.148121Z"/>
  <path class="cls-4" d="M152.523068,100.144082c-11.094164,2.853422-16.682681,9.878203-18.379171,21.07453-3.356428-10.221836-9.730576-16.576771-20.853773-18.287711,11.170425-2.875417,16.358796-10.298338,17.967946-21.324897,3.06765,11.073359,9.634245,17.497598,21.264998,18.538077Z"/>
  <path class="cls-18" d="M415.420811,284.151494c1.323423-8.677414-3.016863-13.462453-10.278484-17.057835,8.492245-1.731945,12.93325-6.426808,13.238458-15.320271,4.250645,7.864544,10.180119,10.365021,18.862029,7.543789-6.228795,6.691718-6.721473,13.27699-2.013365,20.791425-7.847953-3.851622-14.032544-2.173622-19.808638,4.042892Z"/>
  <path class="cls-26" d="M26.361332,199.63323c-10.356337-4.723227-12.536715-4.977112-24.069933-2.76461,0-3.10645-.217467-6.118283.117283-9.0675.118032-1.039783,1.45086-2.568711,2.460152-2.782324,9.047658-1.914947,17.586075-.669953,25.704357,4.777493-1.401973,3.27436-2.743926,6.408532-4.211858,9.836941Z"/>
  <path class="cls-9" d="M459.905302,174.122244c-1.267979.000722-2.535905.001445-3.805169.002194-4.578544-.000535-9.155856-.001097-13.733169-.001713-1.576612-.012309-3.153224-.024645-4.72989-.037007-2.785776-1.328641-6.147663-2.079164-8.209408-4.134192-2.499888-2.491727-2.418596-6.177446-.332073-9.305196,1.973602-2.95861,4.848698-4.021752,8.357382-3.356161.845997.160471,1.705802.24864,1.375174.201599,2.782993-4.115113,4.622909-8.311839,7.741455-11.055257,3.516551-3.093606,8.135501-2.689981,12.43415.382861,3.025426-8.149067,8.090279-13.424536,17.40963-11.316821,7.135642,1.61378,10.201044,6.556106,10.373209,15.713273.855684.304298,1.772003.682235,2.718131.958089,5.751744,1.676796,8.769945,5.503934,8.662162,11.02502-.107248,5.491705-3.254639,9.080504-9.230727,10.527338-.56514.136816-1.128193.282088-1.692102.4234-1.339585-.004736-2.679224-.009446-4.019505-.014075-1.336963-.003907-2.673337-.007867-4.009658-.011854-.394314-.000401-.788574-.000803-1.184225-.001231-6.042663-.000107-12.084042-.000187-18.125367-.000268Z"/>
  <path class="cls-19" d="M69.101876,92.29851c-8.963998-1.14208-15.759111-5.281891-21.523873-11.375155-2.797978-2.957392-3.259201-5.647761.540883-8.207615,1.400434-.943372,2.577648-2.218108,4.28032-3.713909,4.367633,6.952627,10.472563,10.764699,17.959999,12.609218.653818.161073,1.430618,2.086041,1.235842,2.995951-.540014,2.523101-1.56334,4.942767-2.493172,7.69151Z"/>
  <path class="cls-4" d="M514.368796,171.461082c8.599333-2.332594,12.60503-8.001199,13.833032-16.525608,2.75099,8.083509,7.448128,13.68289,16.786531,14.268179-8.597513,2.41889-13.583696,7.721546-14.715261,16.704168-2.834102-7.767009-7.242997-13.123289-15.904302-14.446739Z"/>
  <path class="cls-26" d="M465.828248,329.865031c-1.857844-6.484179-5.924604-10.451558-13.501708-12.240954,7.336973-2.001644,10.935245-6.221009,12.625634-12.549453,1.644846,6.752486,5.947456,10.291675,13.842933,11.392521-7.30117,2.737932-12.302231,5.967686-12.966859,13.397885Z"/>
  <path class="cls-26" d="M171.366258,160.005545c-1.945585-5.793702-5.697318-9.116869-12.588574-11.111021,6.993768-2.165781,10.236633-6.106375,11.693501-12.13218,2.020188,5.790999,5.401208,9.902419,11.980807,10.946537-5.410546,2.742561-10.100432,5.786878-11.085735,12.296665Z"/>
  <path class="cls-18" d="M512.982169,100.051149c-6.740579,2.022436-12.707033,3.812635-19.269989,5.781767-.847389-1.784526-2.118954-4.462358-3.535604-7.445773,5.731997-4.533884,12.029294-6.968187,19.244836-6.613797.882603.043322,2.168618,1.267177,2.453864,2.194333.668963,2.174344.844552,4.500489,1.106893,6.08347Z"/>
  <path class="cls-26" d="M372.829379,2.006934c2.390285,2.999818,4.545042,5.704007,6.931421,8.698981-8.348124,4.196673-11.975027,11.286544-13.864875,20.305196-2.952749-1.421092-5.698816-2.587348-8.257252-4.076099-.697381-.40582-1.318981-1.885673-1.147191-2.697299,2.031935-9.597519,7.041345-17.092247,16.337897-22.23078Z"/>
  <path class="cls-22" d="M273.051532,148.857088c8.286606-4.188485,13.215793-10.762224,15.498937-19.585044,2.891098,1.553493,5.444235,2.6644,7.658075,4.249253.833046.596367,1.49639,2.48865,1.18765,3.454766-2.623245,8.207963-7.633083,14.600306-14.958496,19.266404-2.781977,1.772083-4.390966,1.462353-5.780483-1.517583-.852419-1.828035-2.109053-3.46761-3.605684-5.867796Z"/>
  <path class="cls-19" d="M413.877647,211.184028c8.245478-2.546047,13.927008-7.937996,18.135802-15.631499,2.250178,1.435327,4.538459,2.483673,6.233451,4.139463.928307.90682,1.607759,3.189696,1.112994,4.25407-3.832944,8.245879-10.607132,13.350656-18.961838,16.411697-.797565.29215-2.668574-.752851-3.209043-1.668394-1.311542-2.221626-2.13228-4.733047-3.311367-7.505337Z"/>
  <path class="cls-18" d="M99.863072,325.552092c-1.855704,2.676601-3.486528,5.02889-4.765238,6.873248-5.808098-2.863751-11.184313-5.514557-17.247072-8.503912.409967-1.545519.768344-3.982631,1.766999-6.120744.393163-.841823,2.29267-1.558363,3.375133-1.405304,6.549978.926273,12.049951,3.962616,16.870178,9.156713Z"/>
  <path class="cls-10" d="M281.340761,191.249705c-.36306,3.666881-.700378,7.073455-1.099775,11.107409-3.696422-.401806-7.19344-.781911-11.180192-1.215265.403224-3.745444.781001-7.254771,1.174833-10.912982,3.784806.347914,7.217978.663504,11.105135,1.020838Z"/>
  <path class="cls-18" d="M239.876611,29.366158c-3.84148-5.78831-7.229216-10.892953-10.85513-16.356481,1.84979-1.529156,4.14238-3.424355,6.512543-5.383721,5.971512,3.814682,9.391706,9.243665,11.249657,15.65811.291855,1.007619-.74659,2.943397-1.739893,3.65979-1.711422,1.234317-3.870754,1.847596-5.167178,2.422302Z"/>
  <path class="cls-22" d="M371.155687,262.125297c-1.819794-1.809063-4.261188-4.236115-7.117553-7.075649,3.025319-2.628811,5.713801-4.964964,8.503805-7.389312,2.057998,2.005979,4.526258,4.411838,7.37513,7.18873-2.94622,2.446799-5.684902,4.721247-8.761382,7.276231Z"/>
  <path class="cls-3" d="M34.017386,142.646783c-1.782586-3.568704-3.386679-6.780074-5.128298-10.266763,3.279805-1.754637,6.324698-3.383562,9.700459-5.189521,1.901715,3.391964,3.655535,6.520142,5.732625,10.224913-3.465643,1.7594-6.743375,3.423378-10.304787,5.231371Z"/>
  <path class="cls-14" d="M459.905302,174.122244c6.041325.00008,12.082704.000161,18.125367.000268-6.040897-.000107-12.083132-.000187-18.125367-.000268Z"/>
  <path class="cls-14" d="M442.366964,174.122752c4.577313.000589,9.154626.001151,13.733169.001686-4.576885-.000562-9.155-.001124-13.733169-.001686Z"/>
  <path class="cls-14" d="M479.214894,174.123743c1.336321.003987,2.672695.007947,4.009658.011854-1.336107-.003987-2.672909-.007921-4.009658-.011854Z"/>
  <path class="cls-15" d="M352.140171,208.639132c-12.827019-.099729-22.814637-10.338342-22.782366-23.354865.031361-12.650894,10.449417-22.954263,23.307369-23.050754,12.561093-.09427,23.497033,10.720534,23.320213,23.061939-.191698,13.378646-10.477032,23.44761-23.845215,23.34368ZM352.272144,206.772484c12.118935.165689,21.713952-9.218525,21.85406-21.374039.134542-11.672629-9.516615-21.18012-21.558646-21.237757-11.412456-.054641-21.105838,9.307577-21.303797,20.575912-.219955,12.522828,8.688974,21.867466,21.008383,22.035884Z"/>
  <path class="cls-30" d="M352.272144,206.772484c-12.31941-.168418-21.228338-9.513056-21.008383-22.035884.19796-11.268335,9.891341-20.630553,21.303797-20.575912,12.042031.057638,21.693187,9.565128,21.558646,21.237757-.140108,12.155514-9.735125,21.539727-21.85406,21.374039Z"/>
</svg>